  0
SECTION
  2
HEADER
  9
$ACADVER
  1
AC1021
  9
$ACADMAINTVER
 70
    50
  9
$DWGCODEPAGE
  3
ANSI_1252
  9
$LASTSAVEDBY
  1
Gianluca
  9
$INSBASE
 10
0.0
 20
0.0
 30
0.0
  9
$EXTMIN
 10
-8.728198177761703
 20
0.0
 30
0.0
  9
$EXTMAX
 10
533.6480169999999
 20
617.3431788910899
 30
5.0
  9
$LIMMIN
 10
0.0
 20
0.0
  9
$LIMMAX
 10
12.0
 20
9.0
  9
$ORTHOMODE
 70
     0
  9
$REGENMODE
 70
     1
  9
$FILLMODE
 70
     1
  9
$QTEXTMODE
 70
     0
  9
$MIRRTEXT
 70
     0
  9
$LTSCALE
 40
1.0
  9
$ATTMODE
 70
     1
  9
$TEXTSIZE
 40
0.2
  9
$TRACEWID
 40
0.05
  9
$TEXTSTYLE
  7
Standard
  9
$CLAYER
  8
MATERIALE_GREZZO
  9
$CELTYPE
  6
ByLayer
  9
$CECOLOR
 62
   256
  9
$CELTSCALE
 40
1.0
  9
$DISPSILH
 70
     0
  9
$DIMSCALE
 40
1.0
  9
$DIMASZ
 40
0.18
  9
$DIMEXO
 40
0.0625
  9
$DIMDLI
 40
0.38
  9
$DIMRND
 40
0.0
  9
$DIMDLE
 40
0.0
  9
$DIMEXE
 40
0.18
  9
$DIMTP
 40
0.0
  9
$DIMTM
 40
0.0
  9
$DIMTXT
 40
0.18
  9
$DIMCEN
 40
0.09
  9
$DIMTSZ
 40
0.0
  9
$DIMTOL
 70
     0
  9
$DIMLIM
 70
     0
  9
$DIMTIH
 70
     1
  9
$DIMTOH
 70
     1
  9
$DIMSE1
 70
     0
  9
$DIMSE2
 70
     0
  9
$DIMTAD
 70
     0
  9
$DIMZIN
 70
     0
  9
$DIMBLK
  1

  9
$DIMASO
 70
     1
  9
$DIMSHO
 70
     1
  9
$DIMPOST
  1

  9
$DIMAPOST
  1

  9
$DIMALT
 70
     0
  9
$DIMALTD
 70
     2
  9
$DIMALTF
 40
25.4
  9
$DIMLFAC
 40
1.0
  9
$DIMTOFL
 70
     0
  9
$DIMTVP
 40
0.0
  9
$DIMTIX
 70
     0
  9
$DIMSOXD
 70
     0
  9
$DIMSAH
 70
     0
  9
$DIMBLK1
  1

  9
$DIMBLK2
  1

  9
$DIMSTYLE
  2
Standard
  9
$DIMCLRD
 70
     0
  9
$DIMCLRE
 70
     0
  9
$DIMCLRT
 70
     0
  9
$DIMTFAC
 40
1.0
  9
$DIMGAP
 40
0.09
  9
$DIMJUST
 70
     0
  9
$DIMSD1
 70
     0
  9
$DIMSD2
 70
     0
  9
$DIMTOLJ
 70
     1
  9
$DIMTZIN
 70
     0
  9
$DIMALTZ
 70
     0
  9
$DIMALTTZ
 70
     0
  9
$DIMUPT
 70
     0
  9
$DIMDEC
 70
     4
  9
$DIMTDEC
 70
     4
  9
$DIMALTU
 70
     2
  9
$DIMALTTD
 70
     2
  9
$DIMTXSTY
  7
Standard
  9
$DIMAUNIT
 70
     0
  9
$DIMADEC
 70
     0
  9
$DIMALTRND
 40
0.0
  9
$DIMAZIN
 70
     0
  9
$DIMDSEP
 70
    46
  9
$DIMATFIT
 70
     3
  9
$DIMFRAC
 70
     0
  9
$DIMLDRBLK
  1

  9
$DIMLUNIT
 70
     2
  9
$DIMLWD
 70
    -2
  9
$DIMLWE
 70
    -2
  9
$DIMTMOVE
 70
     0
  9
$DIMFXL
 40
1.0
  9
$DIMFXLON
 70
     0
  9
$DIMJOGANG
 40
0.7853981633974483
  9
$DIMTFILL
 70
     0
  9
$DIMTFILLCLR
 70
     0
  9
$DIMARCSYM
 70
     0
  9
$DIMLTYPE
  6

  9
$DIMLTEX1
  6

  9
$DIMLTEX2
  6

  9
$LUNITS
 70
     2
  9
$LUPREC
 70
     4
  9
$SKETCHINC
 40
0.1
  9
$FILLETRAD
 40
0.0
  9
$AUNITS
 70
     0
  9
$AUPREC
 70
     0
  9
$MENU
  1
.
  9
$ELEVATION
 40
0.0
  9
$PELEVATION
 40
0.0
  9
$THICKNESS
 40
0.0
  9
$LIMCHECK
 70
     0
  9
$CHAMFERA
 40
0.0
  9
$CHAMFERB
 40
0.0
  9
$CHAMFERC
 40
0.0
  9
$CHAMFERD
 40
0.0
  9
$SKPOLY
 70
     0
  9
$TDCREATE
 40
2456692.721424873
  9
$TDUCREATE
 40
2456692.679758206
  9
$TDUPDATE
 40
2456692.733234410
  9
$TDUUPDATE
 40
2456692.691567743
  9
$TDINDWG
 40
0.0118104398
  9
$TDUSRTIMER
 40
0.0118104398
  9
$USRTIMER
 70
     1
  9
$ANGBASE
 50
0.0
  9
$ANGDIR
 70
     0
  9
$PDMODE
 70
     0
  9
$PDSIZE
 40
0.0
  9
$PLINEWID
 40
0.0
  9
$SPLFRAME
 70
     0
  9
$SPLINETYPE
 70
     6
  9
$SPLINESEGS
 70
     8
  9
$HANDSEED
  5
210
  9
$SURFTAB1
 70
     6
  9
$SURFTAB2
 70
     6
  9
$SURFTYPE
 70
     6
  9
$SURFU
 70
     6
  9
$SURFV
 70
     6
  9
$UCSBASE
  2

  9
$UCSNAME
  2

  9
$UCSORG
 10
0.0
 20
0.0
 30
0.0
  9
$UCSXDIR
 10
1.0
 20
0.0
 30
0.0
  9
$UCSYDIR
 10
0.0
 20
1.0
 30
0.0
  9
$UCSORTHOREF
  2

  9
$UCSORTHOVIEW
 70
     0
  9
$UCSORGTOP
 10
0.0
 20
0.0
 30
0.0
  9
$UCSORGBOTTOM
 10
0.0
 20
0.0
 30
0.0
  9
$UCSORGLEFT
 10
0.0
 20
0.0
 30
0.0
  9
$UCSORGRIGHT
 10
0.0
 20
0.0
 30
0.0
  9
$UCSORGFRONT
 10
0.0
 20
0.0
 30
0.0
  9
$UCSORGBACK
 10
0.0
 20
0.0
 30
0.0
  9
$PUCSBASE
  2

  9
$PUCSNAME
  2

  9
$PUCSORG
 10
0.0
 20
0.0
 30
0.0
  9
$PUCSXDIR
 10
1.0
 20
0.0
 30
0.0
  9
$PUCSYDIR
 10
0.0
 20
1.0
 30
0.0
  9
$PUCSORTHOREF
  2

  9
$PUCSORTHOVIEW
 70
     0
  9
$PUCSORGTOP
 10
0.0
 20
0.0
 30
0.0
  9
$PUCSORGBOTTOM
 10
0.0
 20
0.0
 30
0.0
  9
$PUCSORGLEFT
 10
0.0
 20
0.0
 30
0.0
  9
$PUCSORGRIGHT
 10
0.0
 20
0.0
 30
0.0
  9
$PUCSORGFRONT
 10
0.0
 20
0.0
 30
0.0
  9
$PUCSORGBACK
 10
0.0
 20
0.0
 30
0.0
  9
$USERI1
 70
     0
  9
$USERI2
 70
     0
  9
$USERI3
 70
     0
  9
$USERI4
 70
     0
  9
$USERI5
 70
     0
  9
$USERR1
 40
0.0
  9
$USERR2
 40
0.0
  9
$USERR3
 40
0.0
  9
$USERR4
 40
0.0
  9
$USERR5
 40
0.0
  9
$WORLDVIEW
 70
     1
  9
$SHADEDGE
 70
     3
  9
$SHADEDIF
 70
    70
  9
$TILEMODE
 70
     1
  9
$MAXACTVP
 70
    64
  9
$PINSBASE
 10
0.0
 20
0.0
 30
0.0
  9
$PLIMCHECK
 70
     0
  9
$PEXTMIN
 10
1.000000000000000E+20
 20
1.000000000000000E+20
 30
1.000000000000000E+20
  9
$PEXTMAX
 10
-1.000000000000000E+20
 20
-1.000000000000000E+20
 30
-1.000000000000000E+20
  9
$PLIMMIN
 10
0.0
 20
0.0
  9
$PLIMMAX
 10
12.0
 20
9.0
  9
$UNITMODE
 70
     0
  9
$VISRETAIN
 70
     1
  9
$PLINEGEN
 70
     0
  9
$PSLTSCALE
 70
     1
  9
$TREEDEPTH
 70
  3020
  9
$CMLSTYLE
  2
Standard
  9
$CMLJUST
 70
     0
  9
$CMLSCALE
 40
1.0
  9
$PROXYGRAPHICS
 70
     1
  9
$MEASUREMENT
 70
     0
  9
$CELWEIGHT
370
    -1
  9
$ENDCAPS
280
     0
  9
$JOINSTYLE
280
     0
  9
$LWDISPLAY
290
     0
  9
$INSUNITS
 70
     0
  9
$HYPERLINKBASE
  1

  9
$STYLESHEET
  1

  9
$XEDIT
290
     1
  9
$CEPSNTYPE
380
     0
  9
$PSTYLEMODE
290
     1
  9
$FINGERPRINTGUID
  2
{A5AC859A-9DC7-410C-A3CF-578D6D34380F}
  9
$VERSIONGUID
  2
{01AAF377-9CDE-42DD-883D-785ED05648F5}
  9
$EXTNAMES
290
     1
  9
$PSVPSCALE
 40
0.0
  9
$OLESTARTUP
290
     0
  9
$SORTENTS
280
   127
  9
$INDEXCTL
280
     0
  9
$HIDETEXT
280
     0
  9
$XCLIPFRAME
290
     0
  9
$HALOGAP
280
     0
  9
$OBSCOLOR
 70
   257
  9
$OBSLTYPE
280
     0
  9
$INTERSECTIONDISPLAY
280
     0
  9
$INTERSECTIONCOLOR
 70
   257
  9
$DIMASSOC
280
     1
  9
$PROJECTNAME
  1

  9
$CAMERADISPLAY
290
     0
  9
$LENSLENGTH
 40
50.0
  9
$CAMERAHEIGHT
 40
0.0
  9
$STEPSPERSEC
 40
2.0
  9
$STEPSIZE
 40
6.0
  9
$3DDWFPREC
 40
2.0
  9
$PSOLWIDTH
 40
0.25
  9
$PSOLHEIGHT
 40
4.0
  9
$LOFTANG1
 40
1.570796326794896
  9
$LOFTANG2
 40
1.570796326794896
  9
$LOFTMAG1
 40
0.0
  9
$LOFTMAG2
 40
0.0
  9
$LOFTPARAM
 70
     7
  9
$LOFTNORMALS
280
     1
  9
$LATITUDE
 40
37.795
  9
$LONGITUDE
 40
-122.394
  9
$NORTHDIRECTION
 40
0.0
  9
$TIMEZONE
 70
 -8000
  9
$LIGHTGLYPHDISPLAY
280
     1
  9
$TILEMODELIGHTSYNCH
280
     1
  9
$CMATERIAL
347
11
  9
$SOLIDHIST
280
     1
  9
$SHOWHIST
280
     1
  9
$DWFFRAME
280
     2
  9
$DGNFRAME
280
     0
  9
$REALWORLDSCALE
290
     1
  9
$INTERFERECOLOR
 62
     1
  9
$INTERFEREOBJVS
345
33
  9
$INTERFEREVPVS
346
30
  9
$CSHADOW
280
     0
  9
$SHADOWPLANELOCATION
 40
0.0
  0
ENDSEC
  0
SECTION
  2
CLASSES
  0
CLASS
  1
ACDBDICTIONARYWDFLT
  2
AcDbDictionaryWithDefault
  3
ObjectDBX Classes
 90
        0
 91
        1
280
     0
281
     0
  0
CLASS
  1
MATERIAL
  2
AcDbMaterial
  3
ObjectDBX Classes
 90
     1153
 91
        3
280
     0
281
     0
  0
CLASS
  1
VISUALSTYLE
  2
AcDbVisualStyle
  3
ObjectDBX Classes
 90
     4095
 91
       19
280
     0
281
     0
  0
CLASS
  1
SCALE
  2
AcDbScale
  3
ObjectDBX Classes
 90
     1153
 91
       33
280
     0
281
     0
  0
CLASS
  1
TABLESTYLE
  2
AcDbTableStyle
  3
ObjectDBX Classes
 90
     4095
 91
        1
280
     0
281
     0
  0
CLASS
  1
MLEADERSTYLE
  2
AcDbMLeaderStyle
  3
ACDB_MLEADERSTYLE_CLASS
 90
     4095
 91
        1
280
     0
281
     0
  0
CLASS
  1
DICTIONARYVAR
  2
AcDbDictionaryVar
  3
ObjectDBX Classes
 90
        0
 91
       15
280
     0
281
     0
  0
CLASS
  1
CELLSTYLEMAP
  2
AcDbCellStyleMap
  3
ObjectDBX Classes
 90
     1152
 91
        1
280
     0
281
     0
  0
ENDSEC
  0
SECTION
  2
TABLES
  0
TABLE
  2
VPORT
  5
8
330
0
100
AcDbSymbolTable
 70
     1
  0
VPORT
  5
7C
330
8
100
AcDbSymbolTableRecord
100
AcDbViewportTableRecord
  2
*Active
 70
     0
 10
0.0
 20
0.0
 11
1.0
 21
1.0
 12
167.4597351408712
 22
283.0464921830595
 13
0.0
 23
0.0
 14
1.0
 24
1.0
 15
0.0
 25
0.0
 16
0.0
 26
0.0
 36
1.0
 17
0.0
 27
0.0
 37
0.0
 40
796.8675108665473
 41
1.59366391184573
 42
50.0
 43
0.0
 44
0.0
 50
0.0
 51
0.0
 71
     0
 72
   100
 73
     1
 74
     1
 75
     0
 76
     0
 77
     0
 78
     0
281
     0
 65
     1
110
0.0
120
0.0
130
0.0
111
1.0
121
0.0
131
0.0
112
0.0
122
1.0
132
0.0
 79
     0
146
0.0
348
2F
 60
     3
 61
     5
292
     1
282
     1
141
0.0
142
0.0
 63
   250
421
  3355443
  0
ENDTAB
  0
TABLE
  2
LTYPE
  5
5
330
0
100
AcDbSymbolTable
 70
     3
  0
LTYPE
  5
65
330
5
100
AcDbSymbolTableRecord
100
AcDbLinetypeTableRecord
  2
ByBlock
 70
     0
  3

 72
    65
 73
     0
 40
0.0
  0
LTYPE
  5
66
330
5
100
AcDbSymbolTableRecord
100
AcDbLinetypeTableRecord
  2
ByLayer
 70
     0
  3

 72
    65
 73
     0
 40
0.0
  0
LTYPE
  5
67
330
5
100
AcDbSymbolTableRecord
100
AcDbLinetypeTableRecord
  2
Continuous
 70
     0
  3
Solid line
 72
    65
 73
     0
 40
0.0
  0
LTYPE
  5
7A
330
5
100
AcDbSymbolTableRecord
100
AcDbLinetypeTableRecord
  2
DASHED
 70
     0
  3
__ __ __ __ __ __ __ __ __ __ __ __ __ __ __ __
 72
    65
 73
     2
 40
0.75
 49
0.5
 74
     0
 49
-0.25
 74
     0
  0
ENDTAB
  0
TABLE
  2
LAYER
  5
2
330
0
100
AcDbSymbolTable
 70
     5
  0
LAYER
  5
5F
102
{ACAD_XDICTIONARY
360
1D3
102
}
330
2
100
AcDbSymbolTableRecord
100
AcDbLayerTableRecord
  2
0
 70
     0
 62
     1
  6
Continuous
370
    -3
390
F
347
21
  0
LAYER
  5
7F
102
{ACAD_XDICTIONARY
360
1D5
102
}
330
2
100
AcDbSymbolTableRecord
100
AcDbLayerTableRecord
  2
WORK_VOLUME
 70
     0
 62
     7
  6
Continuous
370
    -3
390
F
347
21
  0
LAYER
  5
8E
102
{ACAD_XDICTIONARY
360
1D7
102
}
330
2
100
AcDbSymbolTableRecord
100
AcDbLayerTableRecord
  2
PESCI
 70
     0
 62
    10
  6
Continuous
370
    -3
390
F
347
21
  0
LAYER
  5
94
102
{ACAD_XDICTIONARY
360
1D9
102
}
330
2
100
AcDbSymbolTableRecord
100
AcDbLayerTableRecord
  2
APS_GEOMETRY
 70
     0
 62
    84
  6
Continuous
370
    -3
390
F
347
21
  0
LAYER
  5
1BD
102
{ACAD_XDICTIONARY
360
1DB
102
}
330
2
100
AcDbSymbolTableRecord
100
AcDbLayerTableRecord
  2
MATERIALE_GREZZO
 70
     0
 62
     7
  6
Continuous
370
    -3
390
F
347
21
  0
ENDTAB
  0
TABLE
  2
STYLE
  5
3
330
0
100
AcDbSymbolTable
 70
     2
  0
STYLE
  5
60
330
3
100
AcDbSymbolTableRecord
100
AcDbTextStyleTableRecord
  2
Standard
 70
     0
 40
0.0
 41
1.0
 50
0.0
 71
     0
 42
0.2
  3
txt
  4

  0
STYLE
  5
64
330
3
100
AcDbSymbolTableRecord
100
AcDbTextStyleTableRecord
  2
Annotative
 70
     0
 40
0.0
 41
1.0
 50
0.0
 71
     0
 42
0.2
  3
txt
  4

1001
AcadAnnotative
1000
AnnotativeData
1002
{
1070
     1
1070
     1
1002
}
  0
ENDTAB
  0
TABLE
  2
VIEW
  5
6
330
0
100
AcDbSymbolTable
 70
     0
  0
ENDTAB
  0
TABLE
  2
UCS
  5
7
330
0
100
AcDbSymbolTable
 70
     0
  0
ENDTAB
  0
TABLE
  2
APPID
  5
9
330
0
100
AcDbSymbolTable
 70
     4
  0
APPID
  5
61
330
9
100
AcDbSymbolTableRecord
100
AcDbRegAppTableRecord
  2
ACAD
 70
     0
  0
APPID
  5
68
330
9
100
AcDbSymbolTableRecord
100
AcDbRegAppTableRecord
  2
AcadAnnotative
 70
     0
  0
APPID
  5
1C3
330
9
100
AcDbSymbolTableRecord
100
AcDbRegAppTableRecord
  2
ACAD_EXEMPT_FROM_CAD_STANDARDS
 70
     0
  0
APPID
  5
20F
330
9
100
AcDbSymbolTableRecord
100
AcDbRegAppTableRecord
  2
ACAD_MLEADERVER
 70
     0
  0
ENDTAB
  0
TABLE
  2
DIMSTYLE
  5
A
330
0
100
AcDbSymbolTable
 70
     2
100
AcDbDimStyleTable
 71
     0
  0
DIMSTYLE
105
62
330
A
100
AcDbSymbolTableRecord
100
AcDbDimStyleTableRecord
  2
Standard
 70
     0
340
60
  0
DIMSTYLE
105
63
330
A
100
AcDbSymbolTableRecord
100
AcDbDimStyleTableRecord
  2
Annotative
 70
     0
340
60
1001
AcadAnnotative
1000
AnnotativeData
1002
{
1070
     1
1070
     1
1002
}
  0
ENDTAB
  0
TABLE
  2
BLOCK_RECORD
  5
1
330
0
100
AcDbSymbolTable
 70
     1
  0
BLOCK_RECORD
  5
76
330
1
100
AcDbSymbolTableRecord
100
AcDbBlockTableRecord
  2
*Model_Space
340
79
 70
     0
280
     1
281
     0
  0
BLOCK_RECORD
  5
72
330
1
100
AcDbSymbolTableRecord
100
AcDbBlockTableRecord
  2
*Paper_Space
340
75
 70
     0
280
     1
281
     0
  0
BLOCK_RECORD
  5
7D
330
1
100
AcDbSymbolTableRecord
100
AcDbBlockTableRecord
  2
APS_WVOL
340
0
 70
     0
280
     1
281
     0
  0
ENDTAB
  0
ENDSEC
  0
SECTION
  2
BLOCKS
  0
BLOCK
  5
77
330
76
100
AcDbEntity
  8
0
100
AcDbBlockBegin
  2
*Model_Space
 70
     0
 10
0.0
 20
0.0
 30
0.0
  3
*Model_Space
  1

  0
ENDBLK
  5
78
330
76
100
AcDbEntity
  8
0
100
AcDbBlockEnd
  0
BLOCK
  5
73
330
72
100
AcDbEntity
 67
     1
  8
0
100
AcDbBlockBegin
  2
*Paper_Space
 70
     0
 10
0.0
 20
0.0
 30
0.0
  3
*Paper_Space
  1

  0
ENDBLK
  5
74
330
72
100
AcDbEntity
 67
     1
  8
0
100
AcDbBlockEnd
  0
BLOCK
  5
7E
330
7D
100
AcDbEntity
  8
0
  6
DASHED
100
AcDbBlockBegin
  2
APS_WVOL
 70
     0
 10
0.0
 20
0.0
 30
0.0
  3
APS_WVOL
  1

  0
LINE
  5
80
330
7D
100
AcDbEntity
  8
WORK_VOLUME
  6
DASHED
100
AcDbLine
 10
0.0
 20
0.0
 30
0.0
 11
530.7274599999999
 21
0.0
 31
0.0
  0
LINE
  5
81
330
7D
100
AcDbEntity
  8
WORK_VOLUME
  6
DASHED
100
AcDbLine
 10
530.7274599999999
 20
0.0
 30
0.0
 11
530.7274599999999
 21
522.85199
 31
0.0
  0
LINE
  5
82
330
7D
100
AcDbEntity
  8
WORK_VOLUME
  6
DASHED
100
AcDbLine
 10
530.7274599999999
 20
522.85199
 30
0.0
 11
0.0
 21
522.85199
 31
0.0
  0
LINE
  5
83
330
7D
100
AcDbEntity
  8
WORK_VOLUME
  6
DASHED
100
AcDbLine
 10
0.0
 20
522.85199
 30
0.0
 11
0.0
 21
0.0
 31
0.0
  0
LINE
  5
84
330
7D
100
AcDbEntity
  8
WORK_VOLUME
  6
DASHED
100
AcDbLine
 10
0.0
 20
0.0
 30
0.0
 11
0.0
 21
0.0
 31
5.0
  0
LINE
  5
85
330
7D
100
AcDbEntity
  8
WORK_VOLUME
  6
DASHED
100
AcDbLine
 10
0.0
 20
522.85199
 30
0.0
 11
0.0
 21
522.85199
 31
5.0
  0
LINE
  5
86
330
7D
100
AcDbEntity
  8
WORK_VOLUME
  6
DASHED
100
AcDbLine
 10
530.7274599999999
 20
522.85199
 30
0.0
 11
530.7274599999999
 21
522.85199
 31
5.0
  0
LINE
  5
87
330
7D
100
AcDbEntity
  8
WORK_VOLUME
  6
DASHED
100
AcDbLine
 10
530.7274599999999
 20
0.0
 30
0.0
 11
530.7274599999999
 21
0.0
 31
5.0
  0
LINE
  5
88
330
7D
100
AcDbEntity
  8
WORK_VOLUME
  6
DASHED
100
AcDbLine
 10
0.0
 20
0.0
 30
5.0
 11
530.7274599999999
 21
0.0
 31
5.0
  0
LINE
  5
89
330
7D
100
AcDbEntity
  8
WORK_VOLUME
  6
DASHED
100
AcDbLine
 10
530.7274599999999
 20
0.0
 30
5.0
 11
530.7274599999999
 21
522.85199
 31
5.0
  0
LINE
  5
8A
330
7D
100
AcDbEntity
  8
WORK_VOLUME
  6
DASHED
100
AcDbLine
 10
530.7274599999999
 20
522.85199
 30
5.0
 11
0.0
 21
522.85199
 31
5.0
  0
LINE
  5
8B
330
7D
100
AcDbEntity
  8
WORK_VOLUME
  6
DASHED
100
AcDbLine
 10
0.0
 20
522.85199
 30
5.0
 11
0.0
 21
0.0
 31
5.0
  0
ENDBLK
  5
8C
330
7D
100
AcDbEntity
  8
0
100
AcDbBlockEnd
  0
ENDSEC
  0
SECTION
  2
ENTITIES
  0
LINE
  5
8F
330
76
100
AcDbEntity
  8
PESCI
100
AcDbLine
 10
415.158961
 20
427.14398
 30
0.0
 11
463.9422399999999
 21
483.2943949999999
 31
0.0
  0
LINE
  5
90
330
76
100
AcDbEntity
  8
PESCI
100
AcDbLine
 10
354.016305
 20
68.49299499999999
 30
0.0
 11
383.022977
 21
0.0
 31
0.0
  0
LINE
  5
91
330
76
100
AcDbEntity
  8
PESCI
100
AcDbLine
 10
361.270543
 20
76.42723199999998
 30
0.0
 11
450.5404089999999
 21
48.009805
 31
0.0
  0
LINE
  5
92
330
76
100
AcDbEntity
  8
PESCI
100
AcDbLine
 10
77.947438
 20
323.005111
 30
0.0
 11
1.616141
 21
268.689441
 31
0.0
  0
LINE
  5
93
330
76
100
AcDbEntity
  8
PESCI
100
AcDbLine
 10
75.771969
 20
333.616937
 30
0.0
 11
3.772764
 21
351.50788
 31
0.0
  0
LINE
  5
95
330
76
100
AcDbEntity
  8
APS_GEOMETRY
100
AcDbLine
 10
404.844306
 20
430.174489
 30
0.0
 11
391.149783
 21
522.85199
 31
0.0
  0
CIRCLE
  5
96
330
76
100
AcDbEntity
  8
APS_GEOMETRY
100
AcDbCircle
 10
280.727458
 20
267.975493
 30
5.0
 40
47.5
  0
LINE
  5
97
330
76
100
AcDbEntity
  8
0
100
AcDbLine
 10
167.458056
 20
490.843263
 30
5.0
 11
301.87428
 21
517.079512
 31
5.0
  0
LINE
  5
98
330
76
100
AcDbEntity
  8
0
100
AcDbLine
 10
131.992193
 20
468.917826
 30
5.0
 11
342.981963
 21
510.1002059999999
 31
5.0
  0
LINE
  5
99
330
76
100
AcDbEntity
  8
0
100
AcDbLine
 10
108.688577
 20
449.3662959999999
 30
5.0
 11
371.9273970000001
 21
500.746993
 31
5.0
  0
LINE
  5
9A
330
76
100
AcDbEntity
  8
0
100
AcDbLine
 10
91.14065600000001
 20
430.9382019999999
 30
5.0
 11
231.383658
 21
458.3117599999999
 31
5.0
  0
LINE
  5
9B
330
76
100
AcDbEntity
  8
0
100
AcDbLine
 10
77.25054799999999
 20
413.224064
 30
5.0
 11
151.350207
 21
427.687326
 31
5.0
  0
LINE
  5
9C
330
76
100
AcDbEntity
  8
0
100
AcDbLine
 10
66.0121
 20
396.027494
 30
5.0
 11
116.358651
 21
405.8544669999999
 31
5.0
  0
LINE
  5
9D
330
76
100
AcDbEntity
  8
0
100
AcDbLine
 10
56.85015100000001
 20
379.236229
 30
5.0
 11
121.113679
 21
391.77961
 31
5.0
  0
LINE
  5
9E
330
76
100
AcDbEntity
  8
0
100
AcDbLine
 10
121.113679
 20
391.77961
 30
5.0
 11
56.85015100000001
 21
379.236229
 31
5.0
  0
LINE
  5
9F
330
76
100
AcDbEntity
  8
0
100
AcDbLine
 10
56.85015100000001
 20
379.236229
 30
5.0
 11
121.113679
 21
391.77961
 31
5.0
  0
LINE
  5
A0
330
76
100
AcDbEntity
  8
0
100
AcDbLine
 10
49.400267
 20
362.779136
 30
5.0
 11
102.622287
 21
373.1673629999999
 31
5.0
  0
LINE
  5
A1
330
76
100
AcDbEntity
  8
0
100
AcDbLine
 10
43.415588
 20
346.608032
 30
5.0
 11
87.366281
 21
355.186619
 31
5.0
  0
LINE
  5
A2
330
76
100
AcDbEntity
  8
0
100
AcDbLine
 10
66.071951
 20
336.027276
 30
5.0
 11
80.63319399999999
 21
338.869436
 31
5.0
  0
LINE
  5
A3
330
76
100
AcDbEntity
  8
0
100
AcDbLine
 10
49.58611099999999
 20
302.823815
 30
5.0
 11
111.437438
 21
314.881252
 31
5.0
  0
LINE
  5
A4
330
76
100
AcDbEntity
  8
0
100
AcDbLine
 10
33.985522
 20
284.755509
 30
5.0
 11
166.6355659999999
 21
310.6470240000001
 31
5.0
  0
LINE
  5
A5
330
76
100
AcDbEntity
  8
0
100
AcDbLine
 10
30.730065
 20
269.117113
 30
5.0
 11
341.626549
 21
329.799948
 31
5.0
  0
LINE
  5
A6
330
76
100
AcDbEntity
  8
0
100
AcDbLine
 10
31.107943
 20
254.187894
 30
5.0
 11
241.895263
 21
295.33076
 31
5.0
  0
LINE
  5
A7
330
76
100
AcDbEntity
  8
0
100
AcDbLine
 10
32.362519
 20
239.429796
 30
5.0
 11
234.496945
 21
278.883732
 31
5.0
  0
LINE
  5
A8
330
76
100
AcDbEntity
  8
0
100
AcDbLine
 10
34.476997
 20
224.839539
 30
5.0
 11
233.422888
 21
263.671115
 31
5.0
  0
LINE
  5
A9
330
76
100
AcDbEntity
  8
0
100
AcDbLine
 10
37.44394600000001
 20
210.415672
 30
5.0
 11
237.022609
 21
249.370758
 31
5.0
  0
LINE
  5
AA
330
76
100
AcDbEntity
  8
0
100
AcDbLine
 10
41.264896
 20
196.158496
 30
5.0
 11
245.569039
 21
236.035932
 31
5.0
  0
LINE
  5
AB
330
76
100
AcDbEntity
  8
0
100
AcDbLine
 10
45.95041799999999
 20
182.070072
 30
5.0
 11
262.133404
 21
224.266099
 31
5.0
  0
LINE
  5
AC
330
76
100
AcDbEntity
  8
0
100
AcDbLine
 10
51.520701
 20
168.154342
 30
5.0
 11
132.956268
 21
184.049475
 31
5.0
  0
LINE
  5
AD
330
76
100
AcDbEntity
  8
0
100
AcDbLine
 10
58.006677
 20
154.417342
 30
5.0
 11
109.499507
 21
164.468054
 31
5.0
  0
LINE
  5
AE
330
76
100
AcDbEntity
  8
0
100
AcDbLine
 10
119.526668
 20
151.422247
 30
5.0
 11
65.45187699999999
 21
140.867571
 31
5.0
  0
LINE
  5
AF
330
76
100
AcDbEntity
  8
0
100
AcDbLine
 10
65.45187699999999
 20
140.867571
 30
5.0
 11
108.573715
 21
149.284377
 31
5.0
  0
LINE
  5
B0
330
76
100
AcDbEntity
  8
0
100
AcDbLine
 10
73.91526899999999
 20
127.516537
 30
5.0
 11
133.420698
 21
139.1312
 31
5.0
  0
LINE
  5
B1
330
76
100
AcDbEntity
  8
0
100
AcDbLine
 10
83.47558000000001
 20
114.379606
 30
5.0
 11
148.757764
 21
127.121816
 31
5.0
  0
LINE
  5
B2
330
76
100
AcDbEntity
  8
0
100
AcDbLine
 10
94.237914
 20
101.477295
 30
5.0
 11
165.789994
 21
115.443304
 31
5.0
  0
LINE
  5
B3
330
76
100
AcDbEntity
  8
0
100
AcDbLine
 10
106.344227
 20
88.83731
 30
5.0
 11
184.881124
 21
104.166662
 31
5.0
  0
LINE
  5
B4
330
76
100
AcDbEntity
  8
0
100
AcDbLine
 10
119.990592
 20
76.497923
 30
5.0
 11
206.589769
 21
93.40092400000001
 31
5.0
  0
LINE
  5
B5
330
76
100
AcDbEntity
  8
0
100
AcDbLine
 10
135.457468
 20
64.513876
 30
5.0
 11
223.013364
 21
81.603615
 31
5.0
  0
LINE
  5
B6
330
76
100
AcDbEntity
  8
0
100
AcDbLine
 10
153.167236
 20
52.96761
 30
5.0
 11
240.172987
 21
69.949969
 31
5.0
  0
LINE
  5
B7
330
76
100
AcDbEntity
  8
0
100
AcDbLine
 10
173.806876
 20
41.993217
 30
5.0
 11
271.003398
 21
60.964678
 31
5.0
  0
LINE
  5
B8
330
76
100
AcDbEntity
  8
0
100
AcDbLine
 10
198.638363
 20
31.837016
 30
5.0
 11
356.491703
 21
62.647877
 31
5.0
  0
LINE
  5
B9
330
76
100
AcDbEntity
  8
0
100
AcDbLine
 10
230.550109
 20
23.062787
 30
5.0
 11
362.36033
 21
48.790379
 31
5.0
  0
LINE
  5
BA
330
76
100
AcDbEntity
  8
0
100
AcDbLine
 10
281.355175
 20
17.976281
 30
5.0
 11
368.228958
 21
34.932882
 31
5.0
  0
LINE
  5
BB
330
76
100
AcDbEntity
  8
0
100
AcDbLine
 10
214.769728
 20
335.045143
 30
5.0
 11
338.650176
 21
359.224949
 31
5.0
  0
LINE
  5
BC
330
76
100
AcDbEntity
  8
0
100
AcDbLine
 10
245.252931
 20
355.998031
 30
5.0
 11
368.778499
 21
380.1085700000001
 31
5.0
  0
LINE
  5
BD
330
76
100
AcDbEntity
  8
0
100
AcDbLine
 10
264.010149
 20
374.662165
 30
5.0
 11
377.617591
 21
396.836818
 31
5.0
  0
LINE
  5
BE
330
76
100
AcDbEntity
  8
0
100
AcDbLine
 10
277.389944
 20
392.276697
 30
5.0
 11
389.452222
 21
414.149754
 31
5.0
  0
LINE
  5
BF
330
76
100
AcDbEntity
  8
0
100
AcDbLine
 10
287.3349609999999
 20
409.2208059999999
 30
5.0
 11
403.087345
 21
431.8141230000001
 31
5.0
  0
LINE
  5
C0
330
76
100
AcDbEntity
  8
0
100
AcDbLine
 10
294.750589
 20
425.671212
 30
5.0
 11
402.404791
 21
446.683873
 31
5.0
  0
LINE
  5
C1
330
76
100
AcDbEntity
  8
0
100
AcDbLine
 10
402.404791
 20
446.683873
 30
5.0
 11
294.750589
 21
425.671212
 31
5.0
  0
LINE
  5
C2
330
76
100
AcDbEntity
  8
0
100
AcDbLine
 10
294.750589
 20
425.671212
 30
5.0
 11
402.404791
 21
446.683873
 31
5.0
  0
LINE
  5
C3
330
76
100
AcDbEntity
  8
0
100
AcDbLine
 10
300.142196
 20
441.726557
 30
5.0
 11
400.250019
 21
461.266265
 31
5.0
  0
LINE
  5
C4
330
76
100
AcDbEntity
  8
0
100
AcDbLine
 10
303.8208669999999
 20
457.447559
 30
5.0
 11
398.095247
 21
475.848657
 31
5.0
  0
LINE
  5
C5
330
76
100
AcDbEntity
  8
0
100
AcDbLine
 10
305.924763
 20
472.861187
 30
5.0
 11
395.117138
 21
490.270345
 31
5.0
  0
LINE
  5
C6
330
76
100
AcDbEntity
  8
0
100
AcDbLine
 10
445.158137
 20
184.975204
 30
5.0
 11
521.260415
 21
199.82935
 31
5.0
  0
LINE
  5
C7
330
76
100
AcDbEntity
  8
0
100
AcDbLine
 10
449.308523
 20
200.788279
 30
5.0
 11
525.178906
 21
215.597162
 31
5.0
  0
LINE
  5
C8
330
76
100
AcDbEntity
  8
0
100
AcDbLine
 10
452.5721639999999
 20
216.428273
 30
5.0
 11
528.0004799999999
 21
231.150871
 31
5.0
  0
LINE
  5
C9
330
76
100
AcDbEntity
  8
0
100
AcDbLine
 10
528.0004799999999
 20
231.150871
 30
5.0
 11
452.5721639999999
 21
216.428273
 31
5.0
  0
LINE
  5
CA
330
76
100
AcDbEntity
  8
0
100
AcDbLine
 10
455.0039039999999
 20
231.905891
 30
5.0
 11
529.8038599999999
 21
246.505841
 31
5.0
  0
LINE
  5
CB
330
76
100
AcDbEntity
  8
0
100
AcDbLine
 10
456.6474969999999
 20
247.229673
 30
5.0
 11
530.6480169999999
 21
261.673585
 31
5.0
  0
LINE
  5
CC
330
76
100
AcDbEntity
  8
0
100
AcDbLine
 10
457.5377429999999
 20
262.406412
 30
5.0
 11
530.5764809999999
 21
276.662597
 31
5.0
  0
LINE
  5
CD
330
76
100
AcDbEntity
  8
0
100
AcDbLine
 10
457.7020269999999
 20
277.441453
 30
5.0
 11
529.5395549999999
 21
291.463178
 31
5.0
  0
LINE
  5
CE
330
76
100
AcDbEntity
  8
0
100
AcDbLine
 10
461.720616
 20
293.228803
 30
5.0
 11
526.718646
 21
305.915549
 31
5.0
  0
LINE
  5
CF
330
76
100
AcDbEntity
  8
0
100
AcDbLine
 10
454.453709
 20
306.813375
 30
5.0
 11
454.570616
 21
306.836194
 31
5.0
  0
LINE
  5
D0
330
76
100
AcDbEntity
  8
0
100
AcDbLine
 10
462.480861
 20
338.386118
 30
5.0
 11
517.2098599999999
 21
349.068486
 31
5.0
  0
LINE
  5
D1
330
76
100
AcDbEntity
  8
0
100
AcDbLine
 10
456.8270179999999
 20
352.285538
 30
5.0
 11
511.94592
 21
363.04401
 31
5.0
  0
LINE
  5
D2
330
76
100
AcDbEntity
  8
0
100
AcDbLine
 10
444.26151
 20
364.835894
 30
5.0
 11
505.778203
 21
376.84313
 31
5.0
  0
LINE
  5
D3
330
76
100
AcDbEntity
  8
0
100
AcDbLine
 10
439.653328
 20
378.939414
 30
5.0
 11
498.6677629999999
 21
390.458242
 31
5.0
  0
LINE
  5
D4
330
76
100
AcDbEntity
  8
0
100
AcDbLine
 10
434.3518669999999
 20
392.907614
 30
5.0
 11
490.5613230000001
 21
403.878948
 31
5.0
  0
LINE
  5
D5
330
76
100
AcDbEntity
  8
0
100
AcDbLine
 10
428.340065
 20
406.737166
 30
5.0
 11
481.387541
 21
417.091324
 31
5.0
  0
LINE
  5
D6
330
76
100
AcDbEntity
  8
0
100
AcDbLine
 10
419.729961
 20
420.0595639999999
 30
5.0
 11
471.0513009999999
 21
430.076803
 31
5.0
  0
LINE
  5
D7
330
76
100
AcDbEntity
  8
0
100
AcDbLine
 10
422.5100099999999
 20
435.605167
 30
5.0
 11
459.4248030000001
 21
442.810441
 31
5.0
  0
LINE
  5
D8
330
76
100
AcDbEntity
  8
0
100
AcDbLine
 10
438.206273
 20
453.6718429999999
 30
5.0
 11
446.3331
 21
455.258091
 31
5.0
  0
LINE
  5
D9
330
76
100
AcDbEntity
  8
0
100
AcDbLine
 10
446.3331
 20
455.258091
 30
5.0
 11
438.206273
 21
453.6718429999999
 31
5.0
  0
LINE
  5
DA
330
76
100
AcDbEntity
  8
0
100
AcDbLine
 10
438.206273
 20
453.6718429999999
 30
5.0
 11
446.3331
 21
455.258091
 31
5.0
  0
LINE
  5
DB
330
76
100
AcDbEntity
  8
0
100
AcDbLine
 10
306.044968
 20
172.825149
 30
5.0
 11
396.316663
 21
190.444976
 31
5.0
  0
LINE
  5
DC
330
76
100
AcDbEntity
  8
0
100
AcDbLine
 10
318.463879
 20
145.243204
 30
5.0
 11
423.1159869999999
 21
165.669896
 31
5.0
  0
LINE
  5
DD
330
76
100
AcDbEntity
  8
0
100
AcDbLine
 10
330.1164490000001
 20
132.514655
 30
5.0
 11
509.6754059999999
 21
167.562161
 31
5.0
  0
LINE
  5
DE
330
76
100
AcDbEntity
  8
0
100
AcDbLine
 10
339.957464
 20
119.432514
 30
5.0
 11
501.6708599999999
 21
150.996806
 31
5.0
  0
LINE
  5
DF
330
76
100
AcDbEntity
  8
0
100
AcDbLine
 10
348.221308
 20
106.042531
 30
5.0
 11
491.845803
 21
134.076111
 31
5.0
  0
LINE
  5
E0
330
76
100
AcDbEntity
  8
0
100
AcDbLine
 10
355.062345
 20
92.37483500000001
 30
5.0
 11
479.777854
 21
116.717634
 31
5.0
  0
LINE
  5
E1
330
76
100
AcDbEntity
  8
0
100
AcDbLine
 10
360.581775
 20
78.449179
 30
5.0
 11
464.7800329999999
 21
98.78728500000001
 31
5.0
  0
LINE
  5
E2
330
76
100
AcDbEntity
  8
0
100
AcDbLine
 10
386.287353
 20
68.463589
 30
5.0
 11
445.590365
 21
80.03874399999999
 31
5.0
  0
LINE
  5
E3
330
76
100
AcDbEntity
  8
0
100
AcDbLine
 10
322.236218
 20
160.982489
 30
5.0
 11
408.562957
 21
177.832314
 31
5.0
  0
LINE
  5
E4
330
76
100
AcDbEntity
  8
0
100
AcDbLine
 10
466.8437219999999
 20
309.23174
 30
5.0
 11
523.8977359999999
 21
320.36792
 31
5.0
  0
LINE
  5
E5
330
76
100
AcDbEntity
  8
0
100
AcDbLine
 10
459.9977690000001
 20
322.8984759999999
 30
5.0
 11
521.597104
 21
334.921843
 31
5.0
  0
LINE
  5
E6
330
76
100
AcDbEntity
  8
0
100
AcDbLine
 10
201.862079
 20
317.522768
 30
5.0
 11
340.138363
 21
344.512449
 31
5.0
  0
LINE
  5
E7
330
76
100
AcDbEntity
  8
0
100
AcDbLine
 10
306.422541
 20
307.925621
 30
5.0
 11
343.114735
 21
315.087447
 31
5.0
  0
LINE
  5
E8
330
76
100
AcDbEntity
  8
0
100
AcDbLine
 10
319.462678
 20
295.467906
 30
5.0
 11
352.664869
 21
301.94853
 31
5.0
  0
LINE
  5
E9
330
76
100
AcDbEntity
  8
0
100
AcDbLine
 10
326.178553
 20
281.77578
 30
5.0
 11
353.671212
 21
287.14198
 31
5.0
  0
LINE
  5
EA
330
76
100
AcDbEntity
  8
0
100
AcDbLine
 10
328.220652
 20
267.171396
 30
5.0
 11
355.902759
 21
272.574573
 31
5.0
  0
LINE
  5
EB
330
76
100
AcDbEntity
  8
0
100
AcDbLine
 10
325.31604
 20
251.601479
 30
5.0
 11
359.346911
 21
258.24385
 31
5.0
  0
LINE
  5
EC
330
76
100
AcDbEntity
  8
0
100
AcDbLine
 10
314.393495
 20
234.46657
 30
5.0
 11
364.016997
 21
244.152413
 31
5.0
  0
LINE
  5
ED
330
76
100
AcDbEntity
  8
0
100
AcDbLine
 10
440.052055
 20
168.9755899999999
 30
5.0
 11
516.139899
 21
183.826919
 31
5.0
  0
LINE
  5
EE
330
76
100
AcDbEntity
  8
0
100
AcDbLine
 10
192.566982
 20
195.684689
 30
5.0
 11
369.953745
 21
230.308212
 31
5.0
  0
LINE
  5
EF
330
76
100
AcDbEntity
  8
0
100
AcDbLine
 10
240.122145
 20
189.963846
 30
5.0
 11
377.229997
 21
216.725464
 31
5.0
  0
LINE
  5
F0
330
76
100
AcDbEntity
  8
0
100
AcDbLine
 10
267.429733
 20
180.290946
 30
5.0
 11
385.96004
 21
203.426477
 31
5.0
  0
LINE
  5
F1
330
76
100
AcDbEntity
  8
0
100
AcDbLine
 10
385.96004
 20
203.426477
 30
5.0
 11
267.429733
 21
180.290946
 31
5.0
  0
LINE
  5
F2
330
76
100
AcDbEntity
  8
PESCI
100
AcDbLine
 10
336.669307
 20
360.904372
 30
5.0
 11
360.024614
 21
351.4889950000001
 31
5.0
  0
LINE
  5
F3
330
76
100
AcDbEntity
  8
PESCI
100
AcDbLine
 10
337.878059
 20
353.360801
 30
5.0
 11
358.438317
 21
345.07221
 31
5.0
  0
LINE
  5
F4
330
76
100
AcDbEntity
  8
PESCI
100
AcDbLine
 10
358.438317
 20
345.07221
 30
5.0
 11
337.878059
 21
353.360801
 31
5.0
  0
LINE
  5
F5
330
76
100
AcDbEntity
  8
PESCI
100
AcDbLine
 10
339.08681
 20
345.81723
 30
5.0
 11
357.088948
 21
338.559911
 31
5.0
  0
LINE
  5
F6
330
76
100
AcDbEntity
  8
PESCI
100
AcDbLine
 10
340.595644
 20
338.152684
 30
5.0
 11
355.981471
 21
331.950096
 31
5.0
  0
LINE
  5
F7
330
76
100
AcDbEntity
  8
PESCI
100
AcDbLine
 10
341.904423
 20
330.568788
 30
5.0
 11
355.122135
 21
325.240246
 31
5.0
  0
LINE
  5
F8
330
76
100
AcDbEntity
  8
PESCI
100
AcDbLine
 10
343.213202
 20
322.984892
 30
5.0
 11
353.127421
 21
318.988109
 31
5.0
  0
LINE
  5
F9
330
76
100
AcDbEntity
  8
PESCI
100
AcDbLine
 10
344.521981
 20
315.400997
 30
5.0
 11
354.180275
 21
311.507386
 31
5.0
  0
LINE
  5
FA
330
76
100
AcDbEntity
  8
PESCI
100
AcDbLine
 10
345.464092
 20
309.941809
 30
5.0
 11
354.107072
 21
306.457508
 31
5.0
  0
LINE
  5
FB
330
76
100
AcDbEntity
  8
PESCI
100
AcDbLine
 10
461.0944219999999
 20
292.576904
 30
5.0
 11
455.487934
 21
294.9926730000001
 31
5.0
  0
LINE
  5
FC
330
76
100
AcDbEntity
  8
PESCI
100
AcDbLine
 10
455.025775
 20
300.914548
 30
5.0
 11
462.8146559999999
 21
297.434171
 31
5.0
  0
LINE
  5
FD
330
76
100
AcDbEntity
  8
PESCI
100
AcDbLine
 10
464.853287
 20
303.190465
 30
5.0
 11
454.446591
 21
306.880167
 31
5.0
  0
LINE
  5
FE
330
76
100
AcDbEntity
  8
PESCI
100
AcDbLine
 10
466.608627
 20
308.548705
 30
5.0
 11
453.7770049999999
 21
312.652735
 31
5.0
  0
LINE
  5
FF
330
76
100
AcDbEntity
  8
PESCI
100
AcDbLine
 10
468.4326009999999
 20
313.297046
 30
5.0
 11
452.953307
 21
318.743783
 31
5.0
  0
LINE
  5
100
330
76
100
AcDbEntity
  8
PESCI
100
AcDbLine
 10
462.839942
 20
320.920296
 30
5.0
 11
451.9497929999999
 21
325.188178
 31
5.0
  0
LINE
  5
101
330
76
100
AcDbEntity
  8
PESCI
100
AcDbLine
 10
462.8132639999999
 20
325.495012
 30
5.0
 11
451.0611469999999
 21
330.2740149999999
 31
5.0
  0
LINE
  5
102
330
76
100
AcDbEntity
  8
PESCI
100
AcDbLine
 10
460.899905
 20
331.514082
 30
5.0
 11
450.707082
 21
335.683581
 31
5.0
  0
LINE
  5
103
330
76
100
AcDbEntity
  8
PESCI
100
AcDbLine
 10
461.374301
 20
337.927119
 30
5.0
 11
449.5759849999999
 21
343.46531
 31
5.0
  0
LINE
  5
104
330
76
100
AcDbEntity
  8
PESCI
100
AcDbLine
 10
460.7985669999999
 20
344.189342
 30
5.0
 11
449.451597
 21
348.955367
 31
5.0
  0
LINE
  5
105
330
76
100
AcDbEntity
  8
PESCI
100
AcDbLine
 10
459.292515
 20
350.016514
 30
5.0
 11
451.588112
 21
353.893777
 31
5.0
  0
LINE
  5
106
330
76
100
AcDbEntity
  8
PESCI
100
AcDbLine
 10
460.954328
 20
355.736567
 30
5.0
 11
452.580585
 21
358.975728
 31
5.0
  0
LINE
  5
107
330
76
100
AcDbEntity
  8
PESCI
100
AcDbLine
 10
458.344499
 20
362.648724
 30
5.0
 11
453.722904
 21
364.824972
 31
5.0
  0
LINE
  5
108
330
76
100
AcDbEntity
  8
PESCI
100
AcDbLine
 10
439.045775
 20
170.653519
 30
5.0
 11
396.158851
 21
419.690245
 31
5.0
  0
LINE
  5
109
330
76
100
AcDbEntity
  8
PESCI
100
AcDbLine
 10
450.886528
 20
215.558813
 30
5.0
 11
415.2367879999999
 21
422.570498
 31
5.0
  0
LINE
  5
10A
330
76
100
AcDbEntity
  8
PESCI
100
AcDbLine
 10
415.2367879999999
 20
422.570498
 30
5.0
 11
450.886528
 21
215.558813
 31
5.0
  0
LINE
  5
10B
330
76
100
AcDbEntity
  8
PESCI
100
AcDbLine
 10
450.886528
 20
215.558813
 30
5.0
 11
415.2367879999999
 21
422.570498
 31
5.0
  0
LINE
  5
10C
330
76
100
AcDbEntity
  8
PESCI
100
AcDbLine
 10
456.007611
 20
261.596552
 30
5.0
 11
433.888091
 21
390.04066
 31
5.0
  0
LINE
  5
10D
330
76
100
AcDbEntity
  8
PESCI
100
AcDbLine
 10
419.5250839999999
 20
170.344257
 30
5.0
 11
411.3103869999999
 21
218.045538
 31
5.0
  0
LINE
  5
10E
330
76
100
AcDbEntity
  8
PESCI
100
AcDbLine
 10
411.8842319999999
 20
176.825845
 30
5.0
 11
404.7347479999999
 21
218.341628
 31
5.0
  0
LINE
  5
10F
330
76
100
AcDbEntity
  8
PESCI
100
AcDbLine
 10
404.072633
 20
184.298933
 30
5.0
 11
370.373596
 21
379.983237
 31
5.0
  0
LINE
  5
110
330
76
100
AcDbEntity
  8
PESCI
100
AcDbLine
 10
396.040514
 20
193.05254
 30
5.0
 11
365.732268
 21
369.04712
 31
5.0
  0
LINE
  5
111
330
76
100
AcDbEntity
  8
PESCI
100
AcDbLine
 10
387.702877
 20
203.580231
 30
5.0
 11
361.396458
 21
356.3369189999999
 31
5.0
  0
LINE
  5
112
330
76
100
AcDbEntity
  8
PESCI
100
AcDbLine
 10
378.889308
 20
216.871581
 30
5.0
 11
357.536581
 21
340.863059
 31
5.0
  0
LINE
  5
113
330
76
100
AcDbEntity
  8
PESCI
100
AcDbLine
 10
369.127488
 20
235.669251
 30
5.0
 11
355.112813
 21
317.049968
 31
5.0
  0
LINE
  5
114
330
76
100
AcDbEntity
  8
PESCI
100
AcDbLine
 10
447.265715
 20
198.696748
 30
5.0
 11
407.21332
 21
431.273869
 31
5.0
  0
LINE
  5
115
330
76
100
AcDbEntity
  8
PESCI
100
AcDbLine
 10
407.21332
 20
431.273869
 30
5.0
 11
418.727927
 21
503.5278929999999
 31
5.0
  0
LINE
  5
116
330
76
100
AcDbEntity
  8
PESCI
100
AcDbLine
 10
443.2859169999999
 20
183.919251
 30
5.0
 11
401.5908829999999
 21
426.0348829999999
 31
5.0
  0
LINE
  5
117
330
76
100
AcDbEntity
  8
PESCI
100
AcDbLine
 10
434.4131959999999
 20
159.666602
 30
5.0
 11
390.726819
 21
413.345608
 31
5.0
  0
LINE
  5
118
330
76
100
AcDbEntity
  8
PESCI
100
AcDbLine
 10
427.02734
 20
164.667475
 30
5.0
 11
417.060087
 21
222.545536
 31
5.0
  0
LINE
  5
119
330
76
100
AcDbEntity
  8
PESCI
100
AcDbLine
 10
453.9547679999999
 20
235.570647
 30
5.0
 11
423.247778
 21
413.8806609999999
 31
5.0
  0
LINE
  5
11A
330
76
100
AcDbEntity
  8
PESCI
100
AcDbLine
 10
328.998395
 20
168.104318
 30
5.0
 11
310.27896
 21
151.260849
 31
5.0
  0
LINE
  5
11B
330
76
100
AcDbEntity
  8
PESCI
100
AcDbLine
 10
314.383323
 20
172.56143
 30
5.0
 11
301.069549
 21
160.581895
 31
5.0
  0
LINE
  5
11C
330
76
100
AcDbEntity
  8
PESCI
100
AcDbLine
 10
305.720208
 20
173.570257
 30
5.0
 11
305.687811
 21
173.541106
 31
5.0
  0
LINE
  5
11D
330
76
100
AcDbEntity
  8
PESCI
100
AcDbLine
 10
304.57275
 20
172.537792
 30
5.0
 11
294.503425
 21
163.477563
 31
5.0
  0
LINE
  5
11E
330
76
100
AcDbEntity
  8
PESCI
100
AcDbLine
 10
299.44756
 20
176.72999
 30
5.0
 11
288.853475
 21
167.19759
 31
5.0
  0
LINE
  5
11F
330
76
100
AcDbEntity
  8
PESCI
100
AcDbLine
 10
292.059851
 20
178.886408
 30
5.0
 11
284.113538
 21
171.736434
 31
5.0
  0
LINE
  5
120
330
76
100
AcDbEntity
  8
PESCI
100
AcDbLine
 10
284.672142
 20
181.042826
 30
5.0
 11
276.930955
 21
174.077421
 31
5.0
  0
LINE
  5
121
330
76
100
AcDbEntity
  8
PESCI
100
AcDbLine
 10
278.239117
 20
181.591786
 30
5.0
 11
272.426771
 21
176.361924
 31
5.0
  0
LINE
  5
122
330
76
100
AcDbEntity
  8
PESCI
100
AcDbLine
 10
321.690859
 20
170.332874
 30
5.0
 11
305.211675
 21
155.505149
 31
5.0
  0
LINE
  5
123
330
76
100
AcDbEntity
  8
PESCI
100
AcDbLine
 10
212.951122
 20
86.352972
 30
5.0
 11
217.584527
 21
90.32791999999998
 31
5.0
  0
LINE
  5
124
330
76
100
AcDbEntity
  8
PESCI
100
AcDbLine
 10
223.107253
 20
88.141212
 30
5.0
 11
216.558632
 21
82.673555
 31
5.0
  0
LINE
  5
125
330
76
100
AcDbEntity
  8
PESCI
100
AcDbLine
 10
220.833854
 20
78.313117
 30
5.0
 11
228.72069
 21
86.04040799999999
 31
5.0
  0
LINE
  5
126
330
76
100
AcDbEntity
  8
PESCI
100
AcDbLine
 10
224.875968
 20
74.38205299999999
 30
5.0
 11
234.200429
 21
84.10563299999999
 31
5.0
  0
LINE
  5
127
330
76
100
AcDbEntity
  8
PESCI
100
AcDbLine
 10
228.34005
 20
70.657303
 30
5.0
 11
240.033972
 21
82.16936999999999
 31
5.0
  0
LINE
  5
128
330
76
100
AcDbEntity
  8
PESCI
100
AcDbLine
 10
237.645302
 20
72.331839
 30
5.0
 11
246.263935
 21
80.239387
 31
5.0
  0
LINE
  5
129
330
76
100
AcDbEntity
  8
PESCI
100
AcDbLine
 10
241.766528
 20
70.34583000000001
 30
5.0
 11
251.223025
 21
78.803122
 31
5.0
  0
LINE
  5
12A
330
76
100
AcDbEntity
  8
PESCI
100
AcDbLine
 10
248.014173
 20
69.42004200000001
 30
5.0
 11
256.238047
 21
76.74440200000001
 31
5.0
  0
LINE
  5
12B
330
76
100
AcDbEntity
  8
PESCI
100
AcDbLine
 10
253.566623
 20
66.17621800000001
 30
5.0
 11
263.725403
 21
74.34145100000001
 31
5.0
  0
LINE
  5
12C
330
76
100
AcDbEntity
  8
PESCI
100
AcDbLine
 10
259.444987
 20
63.94199799999999
 30
5.0
 11
268.711818
 21
72.04104499999999
 31
5.0
  0
LINE
  5
12D
330
76
100
AcDbEntity
  8
PESCI
100
AcDbLine
 10
265.341292
 20
62.734636
 30
5.0
 11
272.20932
 21
67.952028
 31
5.0
  0
LINE
  5
12E
330
76
100
AcDbEntity
  8
PESCI
100
AcDbLine
 10
269.749519
 20
58.72861999999999
 30
5.0
 11
276.33842
 21
64.827646
 31
5.0
  0
LINE
  5
12F
330
76
100
AcDbEntity
  8
PESCI
100
AcDbLine
 10
277.105435
 20
58.036085
 30
5.0
 11
281.090948
 21
61.231533
 31
5.0
  0
LINE
  5
130
330
76
100
AcDbEntity
  8
PESCI
100
AcDbLine
 10
121.41268
 20
177.399901
 30
5.0
 11
343.438035
 21
112.50757
 31
5.0
  0
LINE
  5
131
330
76
100
AcDbEntity
  8
PESCI
100
AcDbLine
 10
130.592273
 20
181.415953
 30
5.0
 11
168.94736
 21
170.205742
 31
5.0
  0
LINE
  5
132
330
76
100
AcDbEntity
  8
PESCI
100
AcDbLine
 10
140.737559
 20
185.149757
 30
5.0
 11
170.481751
 21
176.456291
 31
5.0
  0
LINE
  5
133
330
76
100
AcDbEntity
  8
PESCI
100
AcDbLine
 10
152.130034
 20
188.51904
 30
5.0
 11
177.8106949999999
 21
181.01324
 31
5.0
  0
LINE
  5
134
330
76
100
AcDbEntity
  8
PESCI
100
AcDbLine
 10
165.250419
 20
191.383299
 30
5.0
 11
314.031148
 21
147.898498
 31
5.0
  0
LINE
  5
135
330
76
100
AcDbEntity
  8
PESCI
100
AcDbLine
 10
181.062529
 20
193.460836
 30
5.0
 11
301.826751
 21
158.164543
 31
5.0
  0
LINE
  5
136
330
76
100
AcDbEntity
  8
PESCI
100
AcDbLine
 10
202.237641
 20
193.970904
 30
5.0
 11
284.259352
 21
169.998056
 31
5.0
  0
LINE
  5
137
330
76
100
AcDbEntity
  8
PESCI
100
AcDbLine
 10
113.113767
 20
159.728425
 30
5.0
 11
355.668553
 21
88.835866
 31
5.0
  0
LINE
  5
138
330
76
100
AcDbEntity
  8
PESCI
100
AcDbLine
 10
148.250139
 20
129.361927
 30
5.0
 11
348.422868
 21
70.85655899999999
 31
5.0
  0
LINE
  5
139
330
76
100
AcDbEntity
  8
PESCI
100
AcDbLine
 10
187.356189
 20
104.534205
 30
5.0
 11
312.457147
 21
67.97039599999999
 31
5.0
  0
LINE
  5
13A
330
76
100
AcDbEntity
  8
PESCI
100
AcDbLine
 10
134.693668
 20
140.023148
 30
5.0
 11
358.313312
 21
74.66484699999999
 31
5.0
  0
LINE
  5
13B
330
76
100
AcDbEntity
  8
PESCI
100
AcDbLine
 10
123.167509
 20
150.090962
 30
5.0
 11
358.981344
 21
81.16861099999999
 31
5.0
  0
LINE
  5
13C
330
76
100
AcDbEntity
  8
PESCI
100
AcDbLine
 10
105.279526
 20
168.717185
 30
5.0
 11
352.3557629999999
 21
96.503122
 31
5.0
  0
LINE
  5
13D
330
76
100
AcDbEntity
  8
PESCI
100
AcDbLine
 10
113.016944
 20
173.154748
 30
5.0
 11
348.226057
 21
104.409141
 31
5.0
  0
LINE
  5
13E
330
76
100
AcDbEntity
  8
PESCI
100
AcDbLine
 10
164.878853
 20
117.813186
 30
5.0
 11
338.547806
 21
67.054194
 31
5.0
  0
LINE
  5
13F
330
76
100
AcDbEntity
  8
PESCI
100
AcDbLine
 10
169.425023
 20
296.188513
 30
5.0
 11
167.387727
 21
319.137433
 31
5.0
  0
LINE
  5
140
330
76
100
AcDbEntity
  8
PESCI
100
AcDbLine
 10
175.7847899999999
 20
298.559219
 30
5.0
 11
173.82452
 21
320.640485
 31
5.0
  0
LINE
  5
141
330
76
100
AcDbEntity
  8
PESCI
100
AcDbLine
 10
173.82452
 20
320.640485
 30
5.0
 11
175.7847899999999
 21
298.559219
 31
5.0
  0
LINE
  5
142
330
76
100
AcDbEntity
  8
PESCI
100
AcDbLine
 10
181.955096
 20
303.064091
 30
5.0
 11
180.238724
 21
322.397992
 31
5.0
  0
LINE
  5
143
330
76
100
AcDbEntity
  8
PESCI
100
AcDbLine
 10
188.096791
 20
307.891246
 30
5.0
 11
186.629865
 21
324.415286
 31
5.0
  0
LINE
  5
144
330
76
100
AcDbEntity
  8
PESCI
100
AcDbLine
 10
194.25756
 20
312.503545
 30
5.0
 11
192.997348
 21
326.699078
 31
5.0
  0
LINE
  5
145
330
76
100
AcDbEntity
  8
PESCI
100
AcDbLine
 10
200.418329
 20
317.115845
 30
5.0
 11
199.340439
 21
329.257622
 31
5.0
  0
LINE
  5
146
330
76
100
AcDbEntity
  8
PESCI
100
AcDbLine
 10
206.579097
 20
321.728144
 30
5.0
 11
205.65825
 21
332.10094
 31
5.0
  0
LINE
  5
147
330
76
100
AcDbEntity
  8
PESCI
100
AcDbLine
 10
211.013862
 20
325.04826
 30
5.0
 11
210.189817
 21
334.330631
 31
5.0
  0
LINE
  5
148
330
76
100
AcDbEntity
  8
PESCI
100
AcDbLine
 10
173.934299
 20
435.940185
 30
5.0
 11
174.330242
 21
429.8482339999999
 31
5.0
  0
LINE
  5
149
330
76
100
AcDbEntity
  8
PESCI
100
AcDbLine
 10
169.2652149999999
 20
426.7453799999999
 30
5.0
 11
168.825818
 21
435.2651589999999
 31
5.0
  0
LINE
  5
14A
330
76
100
AcDbEntity
  8
PESCI
100
AcDbLine
 10
162.771811
 20
434.465192
 30
5.0
 11
164.214404
 21
423.5184059999999
 31
5.0
  0
LINE
  5
14B
330
76
100
AcDbEntity
  8
PESCI
100
AcDbLine
 10
157.201122
 20
433.593772
 30
5.0
 11
159.3766399999999
 21
420.2986329999999
 31
5.0
  0
LINE
  5
14C
330
76
100
AcDbEntity
  8
PESCI
100
AcDbLine
 10
152.142524
 20
433.0606549999999
 30
5.0
 11
154.325219
 21
416.7968509999999
 31
5.0
  0
LINE
  5
14D
330
76
100
AcDbEntity
  8
PESCI
100
AcDbLine
 10
147.893493
 20
424.6145009999999
 30
5.0
 11
149.040761
 21
412.974315
 31
5.0
  0
LINE
  5
14E
330
76
100
AcDbEntity
  8
PESCI
100
AcDbLine
 10
143.830579
 20
422.5117749999999
 30
5.0
 11
144.914271
 21
409.871493
 31
5.0
  0
LINE
  5
14F
330
76
100
AcDbEntity
  8
PESCI
100
AcDbLine
 10
139.3384649999999
 20
418.0720599999999
 30
5.0
 11
140.256473
 21
407.097744
 31
5.0
  0
LINE
  5
150
330
76
100
AcDbEntity
  8
PESCI
100
AcDbLine
 10
133.41031
 20
415.58026
 30
5.0
 11
133.838733
 21
402.553814
 31
5.0
  0
LINE
  5
151
330
76
100
AcDbEntity
  8
PESCI
100
AcDbLine
 10
128.093724
 20
412.221566
 30
5.0
 11
129.004859
 21
399.948077
 31
5.0
  0
LINE
  5
152
330
76
100
AcDbEntity
  8
PESCI
100
AcDbLine
 10
123.587449
 20
408.2318779999999
 30
5.0
 11
123.63492
 21
399.606987
 31
5.0
  0
LINE
  5
153
330
76
100
AcDbEntity
  8
PESCI
100
AcDbLine
 10
117.736968
 20
407.112721
 30
5.0
 11
118.657024
 21
398.181582
 31
5.0
  0
LINE
  5
154
330
76
100
AcDbEntity
  8
PESCI
100
AcDbLine
 10
112.765825
 20
401.646749
 30
5.0
 11
112.927546
 21
396.540964
 31
5.0
  0
LINE
  5
155
330
76
100
AcDbEntity
  8
PESCI
100
AcDbLine
 10
301.707012
 20
454.4594629999999
 30
5.0
 11
263.076534
 21
425.559703
 31
5.0
  0
LINE
  5
156
330
76
100
AcDbEntity
  8
PESCI
100
AcDbLine
 10
299.405737
 20
444.707656
 30
5.0
 11
266.6871910000001
 21
420.230658
 31
5.0
  0
LINE
  5
157
330
76
100
AcDbEntity
  8
PESCI
100
AcDbLine
 10
296.298856
 20
434.353169
 30
5.0
 11
137.302737
 21
315.406937
 31
5.0
  0
LINE
  5
158
330
76
100
AcDbEntity
  8
PESCI
100
AcDbLine
 10
292.151536
 20
423.2203209999999
 30
5.0
 11
149.153581
 21
316.24244
 31
5.0
  0
LINE
  5
159
330
76
100
AcDbEntity
  8
PESCI
100
AcDbLine
 10
286.562749
 20
411.0090999999999
 30
5.0
 11
162.445893
 21
318.156316
 31
5.0
  0
LINE
  5
15A
330
76
100
AcDbEntity
  8
PESCI
100
AcDbLine
 10
278.728451
 20
397.117995
 30
5.0
 11
177.983714
 21
321.750075
 31
5.0
  0
LINE
  5
15B
330
76
100
AcDbEntity
  8
PESCI
100
AcDbLine
 10
266.420195
 20
379.879887
 30
5.0
 11
197.995494
 21
328.690838
 31
5.0
  0
LINE
  5
15C
330
76
100
AcDbEntity
  8
PESCI
100
AcDbLine
 10
292.560424
 20
471.707447
 30
5.0
 11
90.214747
 21
320.331075
 31
5.0
  0
LINE
  5
15D
330
76
100
AcDbEntity
  8
PESCI
100
AcDbLine
 10
247.178963
 20
461.847841
 30
5.0
 11
81.317553
 21
337.765631
 31
5.0
  0
LINE
  5
15E
330
76
100
AcDbEntity
  8
PESCI
100
AcDbLine
 10
203.842478
 20
445.4878909999999
 30
5.0
 11
99.47991999999999
 21
367.41345
 31
5.0
  0
LINE
  5
15F
330
76
100
AcDbEntity
  8
PESCI
100
AcDbLine
 10
263.84472
 20
466.285417
 30
5.0
 11
76.828947
 21
326.377465
 31
5.0
  0
LINE
  5
160
330
76
100
AcDbEntity
  8
PESCI
100
AcDbLine
 10
76.828947
 20
326.377465
 30
5.0
 11
5.453489
 21
310.663884
 31
5.0
  0
LINE
  5
161
330
76
100
AcDbEntity
  8
PESCI
100
AcDbLine
 10
278.816737
 20
469.455894
 30
5.0
 11
82.09454200000001
 21
322.286491
 31
5.0
  0
LINE
  5
162
330
76
100
AcDbEntity
  8
PESCI
100
AcDbLine
 10
303.251455
 20
471.6752849999999
 30
5.0
 11
98.334953
 21
318.375658
 31
5.0
  0
LINE
  5
163
330
76
100
AcDbEntity
  8
PESCI
100
AcDbLine
 10
303.354371
 20
463.722071
 30
5.0
 11
254.66553
 21
427.2975719999999
 31
5.0
  0
LINE
  5
164
330
76
100
AcDbEntity
  8
PESCI
100
AcDbLine
 10
227.958589
 20
455.4866469999999
 30
5.0
 11
83.07931299999999
 21
347.101335
 31
5.0
  0
LINE
  5
165
330
76
100
AcDbEntity
  8
PESCI
100
AcDbLine
 10
401.267378
 20
9.347307
 30
5.0
 11
354.354818
 21
69.52214999999999
 31
5.0
  0
LINE
  5
166
330
76
100
AcDbEntity
  8
PESCI
100
AcDbLine
 10
411.4516639999999
 20
22.082976
 30
5.0
 11
355.738215
 21
71.31939599999999
 31
5.0
  0
LINE
  5
167
330
76
100
AcDbEntity
  8
PESCI
100
AcDbLine
 10
421.559732
 20
32.11425999999999
 30
5.0
 11
357.260681
 21
73.297315
 31
5.0
  0
LINE
  5
168
330
76
100
AcDbEntity
  8
PESCI
100
AcDbLine
 10
437.284702
 20
41.761084
 30
5.0
 11
359.290333
 21
75.93414799999999
 31
5.0
  0
LINE
  5
169
330
76
100
AcDbEntity
  8
PESCI
100
AcDbLine
 10
0.104042
 20
338.072401
 30
5.0
 11
73.946714
 21
332.251449
 31
5.0
  0
LINE
  5
16A
330
76
100
AcDbEntity
  8
PESCI
100
AcDbLine
 10
1.889008
 20
324.010602
 30
5.0
 11
77.13771
 21
329.446731
 31
5.0
  0
LINE
  5
16B
330
76
100
AcDbEntity
  8
PESCI
100
AcDbLine
 10
5.985918999999999
 20
293.282881
 30
5.0
 11
78.69937799999999
 21
323.839945
 31
5.0
  0
LINE
  5
16C
330
76
100
AcDbEntity
  8
PESCI
100
AcDbLine
 10
451.7424919999999
 20
493.7509539999999
 30
5.0
 11
414.182158
 21
428.694547
 31
5.0
  0
LINE
  5
16D
330
76
100
AcDbEntity
  8
PESCI
100
AcDbLine
 10
433.81455
 20
498.686308
 30
5.0
 11
409.834324
 21
428.971007
 31
5.0
  0
LINE
  5
16E
330
76
100
AcDbEntity
  8
PESCI
100
AcDbLine
 10
405.5484429999999
 20
511.5078719999999
 30
5.0
 11
405.5484429999999
 21
433.229362
 31
5.0
  0
LINE
  5
16F
330
76
100
AcDbEntity
  8
PESCI
100
AcDbLine
 10
188.909612
 20
171.070298
 30
5.0
 11
331.328582
 21
129.444877
 31
5.0
  0
LINE
  5
170
330
76
100
AcDbEntity
  8
PESCI
100
AcDbLine
 10
186.83629
 20
164.977265
 30
5.0
 11
337.866155
 21
120.8351
 31
5.0
  0
LINE
  5
171
330
76
100
AcDbEntity
  8
PESCI
100
AcDbLine
 10
185.188381
 20
178.856931
 30
5.0
 11
323.54382
 21
138.419176
 31
5.0
  0
LINE
  5
172
330
76
100
AcDbEntity
  8
PESCI
100
AcDbLine
 10
247.689628
 20
414.048639
 30
5.0
 11
116.487534
 21
315.895333
 31
5.0
  0
LINE
  5
173
330
76
100
AcDbEntity
  8
PESCI
100
AcDbLine
 10
248.397108
 20
422.6081159999999
 30
5.0
 11
107.136651
 21
316.930071
 31
5.0
  0
LINE
  5
174
330
76
100
AcDbEntity
  8
PESCI
100
AcDbLine
 10
251.782495
 20
409.080339
 30
5.0
 11
126.492332
 21
315.349795
 31
5.0
  0
LINE
  5
175
330
76
100
AcDbEntity
  8
PESCI
100
AcDbLine
 10
414.8642139999999
 20
235.296581
 30
5.0
 11
385.439229
 21
406.162225
 31
5.0
  0
LINE
  5
176
330
76
100
AcDbEntity
  8
PESCI
100
AcDbLine
 10
407.940467
 20
237.614069
 30
5.0
 11
380.268038
 21
398.302932
 31
5.0
  0
LINE
  5
177
330
76
100
AcDbEntity
  8
PESCI
100
AcDbLine
 10
401.8426589999999
 20
235.135469
 30
5.0
 11
375.235443
 21
389.638834
 31
5.0
  0
ARC
  5
178
330
76
100
AcDbEntity
  8
APS_GEOMETRY
100
AcDbCircle
 10
280.727458
 20
267.975493
 30
5.0
 40
250.0
100
AcDbArc
 50
62.53365999999999
 51
162.478388
  0
LINE
  5
179
330
76
100
AcDbEntity
  8
APS_GEOMETRY
100
AcDbLine
 10
42.326594
 20
343.241874
 30
5.0
 11
3.772764
 21
351.50788
 31
5.0
  0
ARC
  5
17A
330
76
100
AcDbEntity
  8
APS_GEOMETRY
100
AcDbCircle
 10
42.740284
 20
333.285259
 30
5.0
 40
43.01780499999999
100
AcDbArc
 50
154.937509
 51
160.634312
  0
ARC
  5
17B
330
76
100
AcDbEntity
  8
APS_GEOMETRY
100
AcDbCircle
 10
39.880233
 20
334.290517
 30
5.0
 40
39.986232
100
AcDbArc
 50
160.634312
 51
166.687549
  0
ARC
  5
17C
330
76
100
AcDbEntity
  8
APS_GEOMETRY
100
AcDbCircle
 10
37.406705
 20
334.875802
 30
5.0
 40
37.444403
100
AcDbArc
 50
166.687549
 51
173.322047
  0
ARC
  5
17D
330
76
100
AcDbEntity
  8
APS_GEOMETRY
100
AcDbCircle
 10
31.888046
 20
335.521942
 30
5.0
 40
31.888046
100
AcDbArc
 50
173.322047
 51
180.746287
  0
ARC
  5
17E
330
76
100
AcDbEntity
  8
APS_GEOMETRY
100
AcDbCircle
 10
29.980572
 20
335.497096
 30
5.0
 40
29.98041
100
AcDbArc
 50
180.746287
 51
188.299499
  0
ARC
  5
17F
330
76
100
AcDbEntity
  8
APS_GEOMETRY
100
AcDbCircle
 10
48.37226
 20
338.179989
 30
5.0
 40
48.566752
100
AcDbArc
 50
188.299499
 51
193.512533
  0
ARC
  5
180
330
76
100
AcDbEntity
  8
APS_GEOMETRY
100
AcDbCircle
 10
64.10147399999999
 20
341.959878
 30
5.0
 40
64.743764
100
AcDbArc
 50
193.512533
 51
196.21835
  0
ARC
  5
181
330
76
100
AcDbEntity
  8
APS_GEOMETRY
100
AcDbCircle
 10
1106.905001
 20
645.2844999999999
 30
5.0
 40
1150.766335
100
AcDbArc
 50
196.21835
 51
196.4867359999999
  0
ARC
  5
182
330
76
100
AcDbEntity
  8
APS_GEOMETRY
100
AcDbCircle
 10
-113.348462
 20
284.136201
 30
5.0
 40
121.80846
100
AcDbArc
 50
14.31770799999999
 51
16.48673599999999
  0
ARC
  5
183
330
76
100
AcDbEntity
  8
APS_GEOMETRY
100
AcDbCircle
 10
-43.40780999999999
 20
301.986873
 30
5.0
 40
49.625766
100
AcDbArc
 50
9.962244999999999
 51
14.31770799999999
  0
ARC
  5
184
330
76
100
AcDbEntity
  8
APS_GEOMETRY
100
AcDbCircle
 10
-47.192615
 20
301.322081
 30
5.0
 40
53.46851199999999
100
AcDbArc
 50
5.601456999999999
 51
9.962244999999999
  0
ARC
  5
185
330
76
100
AcDbEntity
  8
APS_GEOMETRY
100
AcDbCircle
 10
-55.463799
 20
300.510872
 30
5.0
 40
61.77938199999999
100
AcDbArc
 50
1.692674999999999
 51
5.601456999999999
  0
ARC
  5
186
330
76
100
AcDbEntity
  8
APS_GEOMETRY
100
AcDbCircle
 10
-61.328054
 20
300.337575
 30
5.0
 40
67.646196
100
AcDbArc
 50
358.268259
 51
1.692674999999999
  0
ARC
  5
187
330
76
100
AcDbEntity
  8
APS_GEOMETRY
100
AcDbCircle
 10
-77.655604
 20
300.831219
 30
5.0
 40
83.98120799999999
100
AcDbArc
 50
355.338341
 51
358.268259
  0
ARC
  5
188
330
76
100
AcDbEntity
  8
APS_GEOMETRY
100
AcDbCircle
 10
-88.895397
 20
301.747726
 30
5.0
 40
95.25830500000001
100
AcDbArc
 50
352.897938
 51
355.338341
  0
ARC
  5
189
330
76
100
AcDbEntity
  8
APS_GEOMETRY
100
AcDbCircle
 10
-121.958615
 20
305.867176
 30
5.0
 40
128.577162
100
AcDbArc
 50
350.933567
 51
352.897938
  0
ARC
  5
18A
330
76
100
AcDbEntity
  8
APS_GEOMETRY
100
AcDbCircle
 10
-146.505728
 20
309.784238
 30
5.0
 40
153.43484
100
AcDbArc
 50
349.428535
 51
350.933567
  0
ARC
  5
18B
330
76
100
AcDbEntity
  8
APS_GEOMETRY
100
AcDbCircle
 10
-237.6072
 20
326.786458
 30
5.0
 40
246.10929
100
AcDbArc
 50
348.366751
 51
349.428535
  0
ARC
  5
18C
330
76
100
AcDbEntity
  8
APS_GEOMETRY
100
AcDbCircle
 10
-316.520817
 20
343.032826
 30
5.0
 40
326.677916
100
AcDbArc
 50
347.735243
 51
348.366751
  0
ARC
  5
18D
330
76
100
AcDbEntity
  8
APS_GEOMETRY
100
AcDbCircle
 10
-1350.566094
 20
567.82497
 30
5.0
 40
1384.875034
100
AcDbArc
 50
347.525691
 51
347.735243
  0
LINE
  5
18E
330
76
100
AcDbEntity
  8
APS_GEOMETRY
100
AcDbLine
 10
1.616141
 20
268.689441
 30
5.0
 11
31.15186
 21
282.536437
 31
5.0
  0
ARC
  5
18F
330
76
100
AcDbEntity
  8
APS_GEOMETRY
100
AcDbCircle
 10
280.727458
 20
267.975493
 30
5.0
 40
250.0
100
AcDbArc
 50
176.660988
 51
290.59004
  0
LINE
  5
190
330
76
100
AcDbEntity
  8
APS_GEOMETRY
100
AcDbLine
 10
368.647188
 20
33.945322
 30
5.0
 11
383.022977
 21
0.0
 31
5.0
  0
ARC
  5
191
330
76
100
AcDbEntity
  8
APS_GEOMETRY
100
AcDbCircle
 10
374.193105
 20
42.10184
 30
5.0
 40
43.01780499999999
100
AcDbArc
 50
281.84477
 51
287.541573
  0
ARC
  5
192
330
76
100
AcDbEntity
  8
APS_GEOMETRY
100
AcDbCircle
 10
375.106814
 20
39.211239
 30
5.0
 40
39.986232
100
AcDbArc
 50
287.541573
 51
293.59481
  0
ARC
  5
193
330
76
100
AcDbEntity
  8
APS_GEOMETRY
100
AcDbCircle
 10
376.124222
 20
36.881909
 30
5.0
 40
37.444403
100
AcDbArc
 50
293.59481
 51
300.229309
  0
ARC
  5
194
330
76
100
AcDbEntity
  8
APS_GEOMETRY
100
AcDbCircle
 10
378.921636
 20
32.08112100000001
 30
5.0
 40
31.888046
100
AcDbArc
 50
300.229309
 51
307.653548
  0
ARC
  5
195
330
76
100
AcDbEntity
  8
APS_GEOMETRY
100
AcDbCircle
 10
380.086983
 20
30.57080900000001
 30
5.0
 40
29.98041
100
AcDbArc
 50
307.653548
 51
315.20676
  0
ARC
  5
196
330
76
100
AcDbEntity
  8
APS_GEOMETRY
100
AcDbCircle
 10
366.897114
 20
43.66582499999999
 30
5.0
 40
48.566752
100
AcDbArc
 50
315.20676
 51
320.419794
  0
ARC
  5
197
330
76
100
AcDbEntity
  8
APS_GEOMETRY
100
AcDbCircle
 10
354.42895
 20
53.97313399999999
 30
5.0
 40
64.743764
100
AcDbArc
 50
320.419794
 51
323.125611
  0
ARC
  5
198
330
76
100
AcDbEntity
  8
APS_GEOMETRY
100
AcDbCircle
 10
-514.338022
 20
705.6547829999999
 30
5.0
 40
1150.766334
100
AcDbArc
 50
323.125611
 51
323.393998
  0
ARC
  5
199
330
76
100
AcDbEntity
  8
APS_GEOMETRY
100
AcDbCircle
 10
507.2277699999999
 20
-53.192988
 30
5.0
 40
121.80846
100
AcDbArc
 50
141.224969
 51
143.393998
  0
ARC
  5
19A
330
76
100
AcDbEntity
  8
APS_GEOMETRY
100
AcDbCircle
 10
450.9533499999999
 20
-7.987557
 30
5.0
 40
49.625766
100
AcDbArc
 50
136.869506
 51
141.224969
  0
ARC
  5
19B
330
76
100
AcDbEntity
  8
APS_GEOMETRY
100
AcDbCircle
 10
453.757781
 20
-10.614698
 30
5.0
 40
53.46851199999999
100
AcDbArc
 50
132.508718
 51
136.869506
  0
ARC
  5
19C
330
76
100
AcDbEntity
  8
APS_GEOMETRY
100
AcDbCircle
 10
459.3734549999999
 20
-16.741259
 30
5.0
 40
61.77938199999999
100
AcDbArc
 50
128.599936
 51
132.508718
  0
ARC
  5
19D
330
76
100
AcDbEntity
  8
APS_GEOMETRY
100
AcDbCircle
 10
463.033636
 20
-21.326299
 30
5.0
 40
67.646196
100
AcDbArc
 50
125.17552
 51
128.599936
  0
ARC
  5
19E
330
76
100
AcDbEntity
  8
APS_GEOMETRY
100
AcDbCircle
 10
472.4439599999999
 20
-34.678392
 30
5.0
 40
83.98120799999999
100
AcDbArc
 50
122.245603
 51
125.17552
  0
ARC
  5
19F
330
76
100
AcDbEntity
  8
APS_GEOMETRY
100
AcDbCircle
 10
478.4608509999999
 20
-44.21620899999999
 30
5.0
 40
95.25830500000001
100
AcDbArc
 50
119.805199
 51
122.245603
  0
ARC
  5
1A0
330
76
100
AcDbEntity
  8
APS_GEOMETRY
100
AcDbCircle
 10
495.022079
 20
-73.12765899999999
 30
5.0
 40
128.577162
100
AcDbArc
 50
117.840828
 51
119.805199
  0
ARC
  5
1A1
330
76
100
AcDbEntity
  8
APS_GEOMETRY
100
AcDbCircle
 10
506.631034
 20
-95.10802099999999
 30
5.0
 40
153.43484
100
AcDbArc
 50
116.335797
 51
117.840828
  0
ARC
  5
1A2
330
76
100
AcDbEntity
  8
APS_GEOMETRY
100
AcDbCircle
 10
547.744311
 20
-178.163738
 30
5.0
 40
246.10929
100
AcDbArc
 50
115.2740129999999
 51
116.335797
  0
ARC
  5
1A3
330
76
100
AcDbEntity
  8
APS_GEOMETRY
100
AcDbCircle
 10
582.1429059999998
 20
-251.020036
 30
5.0
 40
326.677915
100
AcDbArc
 50
114.642504
 51
115.2740129999999
  0
ARC
  5
1A4
330
76
100
AcDbEntity
  8
APS_GEOMETRY
100
AcDbCircle
 10
1023.363673
 20
-1212.844021
 30
5.0
 40
1384.875035
100
AcDbArc
 50
114.432953
 51
114.642504
  0
LINE
  5
1A5
330
76
100
AcDbEntity
  8
APS_GEOMETRY
100
AcDbLine
 10
450.5404089999999
 20
48.009805
 30
5.0
 11
417.3152339999999
 21
58.586431
 31
5.0
  0
ARC
  5
1A6
330
76
100
AcDbEntity
  8
APS_GEOMETRY
100
AcDbCircle
 10
280.727458
 20
267.975493
 30
5.0
 40
250.0
100
AcDbArc
 50
303.117042
 51
49.68271099999999
  0
LINE
  5
1A7
330
76
100
AcDbEntity
  8
APS_GEOMETRY
100
AcDbLine
 10
442.482429
 20
458.593775
 30
5.0
 11
463.9422399999999
 21
483.2943949999999
 31
5.0
  0
ARC
  5
1A8
330
76
100
AcDbEntity
  8
APS_GEOMETRY
100
AcDbCircle
 10
430.001355
 20
456.864338
 30
5.0
 40
43.01780499999999
100
AcDbArc
 50
37.908198
 51
43.605
  0
ARC
  5
1A9
330
76
100
AcDbEntity
  8
APS_GEOMETRY
100
AcDbCircle
 10
432.196553
 20
458.955162
 30
5.0
 40
39.986232
100
AcDbArc
 50
43.605
 51
49.658237
  0
ARC
  5
1AA
330
76
100
AcDbEntity
  8
APS_GEOMETRY
100
AcDbCircle
 10
433.841995
 20
460.8925359999999
 30
5.0
 40
37.444403
100
AcDbArc
 50
49.658237
 51
56.29273599999999
  0
ARC
  5
1AB
330
76
100
AcDbEntity
  8
APS_GEOMETRY
100
AcDbCircle
 10
436.925494
 20
465.514779
 30
5.0
 40
31.888046
100
AcDbArc
 50
56.29273599999999
 51
63.716976
  0
ARC
  5
1AC
330
76
100
AcDbEntity
  8
APS_GEOMETRY
100
AcDbCircle
 10
437.7702059999999
 20
467.225199
 30
5.0
 40
29.98041
100
AcDbArc
 50
63.716976
 51
71.270188
  0
ARC
  5
1AD
330
76
100
AcDbEntity
  8
APS_GEOMETRY
100
AcDbCircle
 10
431.802024
 20
449.623127
 30
5.0
 40
48.566752
100
AcDbArc
 50
71.270188
 51
76.48322199999999
  0
ARC
  5
1AE
330
76
100
AcDbEntity
  8
APS_GEOMETRY
100
AcDbCircle
 10
428.020969
 20
433.894194
 30
5.0
 40
64.743764
100
AcDbArc
 50
76.48322199999999
 51
79.18903799999999
  0
ARC
  5
1AF
330
76
100
AcDbEntity
  8
APS_GEOMETRY
100
AcDbCircle
 10
224.316539
 20
-632.852978
 30
5.0
 40
1150.766335
100
AcDbArc
 50
79.18903799999999
 51
79.457425
  0
ARC
  5
1B0
330
76
100
AcDbEntity
  8
APS_GEOMETRY
100
AcDbCircle
 10
457.154592
 20
618.2397639999999
 30
5.0
 40
121.80846
100
AcDbArc
 50
257.288397
 51
259.457425
  0
ARC
  5
1B1
330
76
100
AcDbEntity
  8
APS_GEOMETRY
100
AcDbCircle
 10
441.271241
 20
547.8262679999999
 30
5.0
 40
49.625766
100
AcDbArc
 50
252.932933
 51
257.288397
  0
ARC
  5
1B2
330
76
100
AcDbEntity
  8
APS_GEOMETRY
100
AcDbCircle
 10
442.399052
 20
551.4997860000001
 30
5.0
 40
53.46851199999999
100
AcDbArc
 50
248.572145
 51
252.932933
  0
ARC
  5
1B3
330
76
100
AcDbEntity
  8
APS_GEOMETRY
100
AcDbCircle
 10
445.435257
 20
559.236195
 30
5.0
 40
61.77938199999999
100
AcDbArc
 50
244.663364
 51
248.572145
  0
ARC
  5
1B4
330
76
100
AcDbEntity
  8
APS_GEOMETRY
100
AcDbCircle
 10
447.9458769999999
 20
564.538675
 30
5.0
 40
67.646196
100
AcDbArc
 50
241.238948
 51
244.663364
  0
ARC
  5
1B5
330
76
100
AcDbEntity
  8
APS_GEOMETRY
100
AcDbCircle
 10
455.8055959999999
 20
578.8585009999999
 30
5.0
 40
83.98120799999999
100
AcDbArc
 50
238.30903
 51
241.238948
  0
ARC
  5
1B6
330
76
100
AcDbEntity
  8
APS_GEOMETRY
100
AcDbCircle
 10
461.7298789999999
 20
588.454115
 30
5.0
 40
95.25830500000001
100
AcDbArc
 50
235.868627
 51
238.30903
  0
ARC
  5
1B7
330
76
100
AcDbEntity
  8
APS_GEOMETRY
100
AcDbCircle
 10
480.424834
 20
616.033905
 30
5.0
 40
128.577162
100
AcDbArc
 50
233.9042549999999
 51
235.868627
  0
ARC
  5
1B8
330
76
100
AcDbEntity
  8
APS_GEOMETRY
100
AcDbCircle
 10
495.0693959999999
 20
636.1197449999999
 30
5.0
 40
153.43484
100
AcDbArc
 50
232.399224
 51
233.9042549999999
  0
ARC
  5
1B9
330
76
100
AcDbEntity
  8
APS_GEOMETRY
100
AcDbCircle
 10
551.615258
 20
709.5439869999999
 30
5.0
 40
246.10929
100
AcDbArc
 50
231.33744
 51
232.399224
  0
ARC
  5
1BA
330
76
100
AcDbEntity
  8
APS_GEOMETRY
100
AcDbCircle
 10
601.9491009999999
 20
772.455097
 30
5.0
 40
326.677916
100
AcDbArc
 50
230.705931
 51
231.33744
  0
ARC
  5
1BB
330
76
100
AcDbEntity
  8
APS_GEOMETRY
100
AcDbCircle
 10
1272.106141
 20
1591.399954
 30
5.0
 40
1384.875033
100
AcDbArc
 50
230.49638
 51
230.705931
  0
LINE
  5
1BC
330
76
100
AcDbEntity
  8
APS_GEOMETRY
100
AcDbLine
 10
391.149783
 20
522.85199
 30
5.0
 11
396.034316
 21
489.7959809999999
 31
5.0
  0
LINE
  5
1BE
330
76
100
AcDbEntity
  8
MATERIALE_GREZZO
100
AcDbLine
 10
-2.895958
 20
6.347306999999999
 30
0.0
 11
-2.895958
 21
520.079512
 31
0.0
  0
LINE
  5
1BF
330
76
100
AcDbEntity
  8
MATERIALE_GREZZO
100
AcDbLine
 10
-2.895958
 20
520.079512
 30
0.0
 11
533.6480169999999
 21
520.079512
 31
0.0
  0
LINE
  5
1C0
330
76
100
AcDbEntity
  8
MATERIALE_GREZZO
100
AcDbLine
 10
533.6480169999999
 20
520.079512
 30
0.0
 11
533.6480169999999
 21
6.347306999999999
 31
0.0
  0
LINE
  5
1C1
330
76
100
AcDbEntity
  8
MATERIALE_GREZZO
100
AcDbLine
 10
533.6480169999999
 20
6.347306999999999
 30
0.0
 11
-2.895958
 21
6.347306999999999
 31
0.0
  0
MTEXT
  5
1C6
330
76
100
AcDbEntity
  8
0
100
AcDbMText
 10
-7.834610183218728
 20
610.2432937033897
 30
0.0
 40
10.0
 41
473.864645476164
 46
0.0
 71
     1
 72
     5
  1
{\fArial|b0|i0|c0|p34;\C0;linea rossa = centro fresatura  con utensile diametro 3mm, profondit 1 mm;   linea verde = taglio passante}
 73
     1
 44
1.0
1001
ACAD
1000
ACAD_MTEXT_COLUMN_INFO_BEGIN
1070
    75
1070
     2
1070
    79
1070
     0
1070
    76
1070
     1
1070
    78
1070
     0
1070
    48
1040
473.864645476164
1070
    49
1040
1.0
1070
    50
1070
     1
1040
0.0
1000
ACAD_MTEXT_COLUMN_INFO_END
  0
ENDSEC
  0
SECTION
  2
OBJECTS
  0
DICTIONARY
  5
C
330
0
100
AcDbDictionary
281
     1
  3
ACAD_COLOR
350
6D
  3
ACAD_GROUP
350
D
  3
ACAD_LAYOUT
350
6C
  3
ACAD_MATERIAL
350
10
  3
ACAD_MLEADERSTYLE
350
70
  3
ACAD_MLINESTYLE
350
69
  3
ACAD_PLOTSETTINGS
350
6B
  3
ACAD_PLOTSTYLENAME
350
E
  3
ACAD_SCALELIST
350
3D
  3
ACAD_TABLESTYLE
350
6E
  3
ACAD_VISUALSTYLE
350
29
  3
ACDB_RECOMPOSE_DATA
350
1E8
  3
AcDbVariableDictionary
350
1DD
  0
DICTIONARY
  5
1D3
330
5F
100
AcDbDictionary
280
     1
281
     1
  3
ADSK_XREC_LAYER_RECONCILED
360
1D4
  0
DICTIONARY
  5
1D5
330
7F
100
AcDbDictionary
280
     1
281
     1
  3
ADSK_XREC_LAYER_RECONCILED
360
1D6
  0
DICTIONARY
  5
1D7
330
8E
100
AcDbDictionary
280
     1
281
     1
  3
ADSK_XREC_LAYER_RECONCILED
360
1D8
  0
DICTIONARY
  5
1D9
330
94
100
AcDbDictionary
280
     1
281
     1
  3
ADSK_XREC_LAYER_RECONCILED
360
1DA
  0
DICTIONARY
  5
1DB
330
1BD
100
AcDbDictionary
280
     1
281
     1
  3
ADSK_XREC_LAYER_RECONCILED
360
1DC
  0
DICTIONARY
  5
6D
102
{ACAD_REACTORS
330
C
102
}
330
C
100
AcDbDictionary
281
     1
  0
DICTIONARY
  5
D
102
{ACAD_REACTORS
330
C
102
}
330
C
100
AcDbDictionary
281
     1
  0
DICTIONARY
  5
6C
102
{ACAD_REACTORS
330
C
102
}
330
C
100
AcDbDictionary
281
     1
  3
Layout1
350
75
  3
Model
350
79
  0
DICTIONARY
  5
10
102
{ACAD_REACTORS
330
C
102
}
330
C
100
AcDbDictionary
281
     1
  3
ByBlock
350
19
  3
ByLayer
350
11
  3
Global
350
21
  0
DICTIONARY
  5
70
102
{ACAD_REACTORS
330
C
102
}
330
C
100
AcDbDictionary
281
     1
  3
Standard
350
71
  0
DICTIONARY
  5
69
102
{ACAD_REACTORS
330
C
102
}
330
C
100
AcDbDictionary
281
     1
  3
Standard
350
6A
  0
DICTIONARY
  5
6B
102
{ACAD_REACTORS
330
C
102
}
330
C
100
AcDbDictionary
281
     1
  0
ACDBDICTIONARYWDFLT
  5
E
102
{ACAD_REACTORS
330
C
102
}
330
C
100
AcDbDictionary
281
     1
  3
Normal
350
F
100
AcDbDictionaryWithDefault
340
F
  0
DICTIONARY
  5
3D
102
{ACAD_REACTORS
330
C
102
}
330
C
100
AcDbDictionary
281
     1
  3
A0
350
3E
  3
A1
350
3F
  3
A2
350
40
  3
A3
350
41
  3
A4
350
42
  3
A5
350
43
  3
A6
350
44
  3
A7
350
45
  3
A8
350
46
  3
A9
350
47
  3
B0
350
48
  3
B1
350
49
  3
B2
350
4A
  3
B3
350
4B
  3
B4
350
4C
  3
B5
350
4D
  3
B6
350
4E
  3
B7
350
4F
  3
B8
350
50
  3
B9
350
51
  3
C0
350
52
  3
C1
350
53
  3
C2
350
54
  3
C3
350
55
  3
C4
350
56
  3
C5
350
57
  3
C6
350
58
  3
C7
350
59
  3
C8
350
5A
  3
C9
350
5B
  3
D0
350
5C
  3
D1
350
5D
  3
D2
350
5E
  0
DICTIONARY
  5
6E
102
{ACAD_REACTORS
330
C
102
}
330
C
100
AcDbDictionary
281
     1
  3
Standard
350
6F
  0
DICTIONARY
  5
29
102
{ACAD_REACTORS
330
C
102
}
330
C
100
AcDbDictionary
281
     1
  3
2dWireframe
350
2F
  3
3D Hidden
350
31
  3
3dWireframe
350
30
  3
Basic
350
2E
  3
Brighten
350
35
  3
ColorChange
350
39
  3
Conceptual
350
32
  3
Dim
350
34
  3
EdgeColorOff
350
3C
  3
Facepattern
350
38
  3
Flat
350
2A
  3
FlatWithEdges
350
2B
  3
Gouraud
350
2C
  3
GouraudWithEdges
350
2D
  3
JitterOff
350
3A
  3
Linepattern
350
37
  3
OverhangOff
350
3B
  3
Realistic
350
33
  3
Thicken
350
36
  0
XRECORD
  5
1E8
102
{ACAD_REACTORS
330
C
102
}
330
C
100
AcDbXrecord
280
     1
 90
        1
330
6F
330
1C6
  0
DICTIONARY
  5
1DD
102
{ACAD_REACTORS
330
C
102
}
330
C
100
AcDbDictionary
281
     1
  3
CANNOSCALE
350
1E1
  3
CMLEADERSTYLE
350
1DF
  3
CTABLESTYLE
350
1DE
  3
LAYEREVAL
350
1E3
  3
LAYERNOTIFY
350
1E4
  3
LIGHTINGUNITS
350
1E2
  3
MSLTSCALE
350
1E0
  3
XCLIPFRAME
350
1E5
  0
XRECORD
  5
1D4
102
{ACAD_REACTORS
330
1D3
102
}
330
1D3
100
AcDbXrecord
280
     1
290
     1
  0
XRECORD
  5
1D6
102
{ACAD_REACTORS
330
1D5
102
}
330
1D5
100
AcDbXrecord
280
     1
290
     1
  0
XRECORD
  5
1D8
102
{ACAD_REACTORS
330
1D7
102
}
330
1D7
100
AcDbXrecord
280
     1
290
     1
  0
XRECORD
  5
1DA
102
{ACAD_REACTORS
330
1D9
102
}
330
1D9
100
AcDbXrecord
280
     1
290
     1
  0
XRECORD
  5
1DC
102
{ACAD_REACTORS
330
1DB
102
}
330
1DB
100
AcDbXrecord
280
     1
290
     1
  0
LAYOUT
  5
75
102
{ACAD_REACTORS
330
6C
102
}
330
6C
100
AcDbPlotSettings
  1

  2
Bullzip PDF Printer
  4

  6

 40
0.0
 41
0.0
 42
0.0
 43
0.0
 44
0.0
 45
0.0
 46
0.0
 47
0.0
 48
0.0
 49
0.0
140
0.0
141
0.0
142
1.0
143
1.0
 70
   688
 72
     0
 73
     0
 74
     5
  7

 75
    16
147
1.0
 76
     0
 77
     2
 78
   300
148
0.0
149
0.0
100
AcDbLayout
  1
Layout1
 70
     1
 71
     1
 10
0.0
 20
0.0
 11
12.0
 21
9.0
 12
0.0
 22
0.0
 32
0.0
 14
1.000000000000000E+20
 24
1.000000000000000E+20
 34
1.000000000000000E+20
 15
-1.000000000000000E+20
 25
-1.000000000000000E+20
 35
-1.000000000000000E+20
146
0.0
 13
0.0
 23
0.0
 33
0.0
 16
1.0
 26
0.0
 36
0.0
 17
0.0
 27
1.0
 37
0.0
 76
     0
330
72
  0
LAYOUT
  5
79
102
{ACAD_REACTORS
330
6C
102
}
330
6C
100
AcDbPlotSettings
  1

  2
Bullzip PDF Printer
  4

  6

 40
0.0
 41
0.0
 42
0.0
 43
0.0
 44
0.0
 45
0.0
 46
0.0
 47
0.0
 48
0.0
 49
0.0
140
0.0
141
0.0
142
1.0
143
1.0
 70
  1712
 72
     0
 73
     0
 74
     0
  7

 75
     0
147
1.0
 76
     0
 77
     2
 78
   300
148
0.0
149
0.0
100
AcDbLayout
  1
Model
 70
     1
 71
     0
 10
0.0
 20
0.0
 11
12.0
 21
9.0
 12
0.0
 22
0.0
 32
0.0
 14
0.0
 24
0.0
 34
0.0
 15
0.0
 25
0.0
 35
0.0
146
0.0
 13
0.0
 23
0.0
 33
0.0
 16
1.0
 26
0.0
 36
0.0
 17
0.0
 27
1.0
 37
0.0
 76
     0
330
76
331
7C
  0
MATERIAL
  5
19
102
{ACAD_XDICTIONARY
360
1A
102
}
102
{ACAD_REACTORS
330
10
102
}
330
10
100
AcDbMaterial
  1
ByBlock
 72
     0
 43
0.0208333333333333
 43
0.0
 43
0.0
 43
0.0
 43
0.0
 43
0.0208333333333333
 43
0.0
 43
0.0
 43
0.0
 43
0.0
 43
1.0
 43
0.0
 43
0.0
 43
0.0
 43
0.0
 43
1.0
 77
     0
 47
0.0208333333333333
 47
0.0
 47
0.0
 47
0.0
 47
0.0
 47
0.0208333333333333
 47
0.0
 47
0.0
 47
0.0
 47
0.0
 47
1.0
 47
0.0
 47
0.0
 47
0.0
 47
0.0
 47
1.0
171
     0
 49
0.0208333333333333
 49
0.0
 49
0.0
 49
0.0
 49
0.0
 49
0.0208333333333333
 49
0.0
 49
0.0
 49
0.0
 49
0.0
 49
1.0
 49
0.0
 49
0.0
 49
0.0
 49
0.0
 49
1.0
175
     0
142
0.0208333333333333
142
0.0
142
0.0
142
0.0
142
0.0
142
0.0208333333333333
142
0.0
142
0.0
142
0.0
142
0.0
142
1.0
142
0.0
142
0.0
142
0.0
142
0.0
142
1.0
179
     0
144
0.0208333333333333
144
0.0
144
0.0
144
0.0
144
0.0
144
0.0208333333333333
144
0.0
144
0.0
144
0.0
144
0.0
144
1.0
144
0.0
144
0.0
144
0.0
144
0.0
144
1.0
147
0.0208333333333333
147
0.0
147
0.0
147
0.0
147
0.0
147
0.0208333333333333
147
0.0
147
0.0
147
0.0
147
0.0
147
1.0
147
0.0
147
0.0
147
0.0
147
0.0
147
1.0
  0
MATERIAL
  5
11
102
{ACAD_XDICTIONARY
360
12
102
}
102
{ACAD_REACTORS
330
10
102
}
330
10
100
AcDbMaterial
  1
ByLayer
 72
     0
 43
0.0208333333333333
 43
0.0
 43
0.0
 43
0.0
 43
0.0
 43
0.0208333333333333
 43
0.0
 43
0.0
 43
0.0
 43
0.0
 43
1.0
 43
0.0
 43
0.0
 43
0.0
 43
0.0
 43
1.0
 77
     0
 47
0.0208333333333333
 47
0.0
 47
0.0
 47
0.0
 47
0.0
 47
0.0208333333333333
 47
0.0
 47
0.0
 47
0.0
 47
0.0
 47
1.0
 47
0.0
 47
0.0
 47
0.0
 47
0.0
 47
1.0
171
     0
 49
0.0208333333333333
 49
0.0
 49
0.0
 49
0.0
 49
0.0
 49
0.0208333333333333
 49
0.0
 49
0.0
 49
0.0
 49
0.0
 49
1.0
 49
0.0
 49
0.0
 49
0.0
 49
0.0
 49
1.0
175
     0
142
0.0208333333333333
142
0.0
142
0.0
142
0.0
142
0.0
142
0.0208333333333333
142
0.0
142
0.0
142
0.0
142
0.0
142
1.0
142
0.0
142
0.0
142
0.0
142
0.0
142
1.0
179
     0
144
0.0208333333333333
144
0.0
144
0.0
144
0.0
144
0.0
144
0.0208333333333333
144
0.0
144
0.0
144
0.0
144
0.0
144
1.0
144
0.0
144
0.0
144
0.0
144
0.0
144
1.0
147
0.0208333333333333
147
0.0
147
0.0
147
0.0
147
0.0
147
0.0208333333333333
147
0.0
147
0.0
147
0.0
147
0.0
147
1.0
147
0.0
147
0.0
147
0.0
147
0.0
147
1.0
  0
MATERIAL
  5
21
102
{ACAD_XDICTIONARY
360
22
102
}
102
{ACAD_REACTORS
330
10
102
}
330
10
100
AcDbMaterial
  1
Global
 72
     0
 43
0.0208333333333333
 43
0.0
 43
0.0
 43
0.0
 43
0.0
 43
0.0208333333333333
 43
0.0
 43
0.0
 43
0.0
 43
0.0
 43
1.0
 43
0.0
 43
0.0
 43
0.0
 43
0.0
 43
1.0
 77
     0
 47
0.0208333333333333
 47
0.0
 47
0.0
 47
0.0
 47
0.0
 47
0.0208333333333333
 47
0.0
 47
0.0
 47
0.0
 47
0.0
 47
1.0
 47
0.0
 47
0.0
 47
0.0
 47
0.0
 47
1.0
171
     0
 49
0.0208333333333333
 49
0.0
 49
0.0
 49
0.0
 49
0.0
 49
0.0208333333333333
 49
0.0
 49
0.0
 49
0.0
 49
0.0
 49
1.0
 49
0.0
 49
0.0
 49
0.0
 49
0.0
 49
1.0
175
     0
142
0.0208333333333333
142
0.0
142
0.0
142
0.0
142
0.0
142
0.0208333333333333
142
0.0
142
0.0
142
0.0
142
0.0
142
1.0
142
0.0
142
0.0
142
0.0
142
0.0
142
1.0
179
     0
144
0.0208333333333333
144
0.0
144
0.0
144
0.0
144
0.0
144
0.0208333333333333
144
0.0
144
0.0
144
0.0
144
0.0
144
1.0
144
0.0
144
0.0
144
0.0
144
0.0
144
1.0
147
0.0208333333333333
147
0.0
147
0.0
147
0.0
147
0.0
147
0.0208333333333333
147
0.0
147
0.0
147
0.0
147
0.0
147
1.0
147
0.0
147
0.0
147
0.0
147
0.0
147
1.0
  0
MLEADERSTYLE
  5
71
102
{ACAD_REACTORS
330
70
102
}
330
70
100
AcDbMLeaderStyle
170
     2
171
     1
172
     0
 90
        2
 40
0.0
 41
0.0
173
     1
 91
-1056964608
340
65
 92
       -2
290
     1
 42
0.09
291
     1
 43
0.36
  3
Standard
 44
0.18
300

342
60
174
     1
178
     6
175
     1
176
     0
 93
-1056964608
 45
0.18
292
     0
297
     0
 46
0.18
 94
-1056964608
 47
1.0
 49
1.0
140
1.0
293
     1
141
0.0
294
     1
177
     0
142
1.0
295
     0
296
     0
143
0.125
1001
ACAD_MLEADERVER
1070
     2
  0
MLINESTYLE
  5
6A
102
{ACAD_REACTORS
330
69
102
}
330
69
100
AcDbMlineStyle
  2
STANDARD
 70
     0
  3

 62
   256
 51
90.0
 52
90.0
 71
     2
 49
0.5
 62
   256
  6
BYLAYER
 49
-0.5
 62
   256
  6
BYLAYER
  0
ACDBPLACEHOLDER
  5
F
102
{ACAD_REACTORS
330
E
102
}
330
E
  0
SCALE
  5
3E
102
{ACAD_REACTORS
330
3D
102
}
330
3D
100
AcDbScale
 70
     0
300
1:1
140
1.0
141
1.0
290
     1
  0
SCALE
  5
3F
102
{ACAD_REACTORS
330
3D
102
}
330
3D
100
AcDbScale
 70
     0
300
1:2
140
1.0
141
2.0
290
     0
  0
SCALE
  5
40
102
{ACAD_REACTORS
330
3D
102
}
330
3D
100
AcDbScale
 70
     0
300
1:4
140
1.0
141
4.0
290
     0
  0
SCALE
  5
41
102
{ACAD_REACTORS
330
3D
102
}
330
3D
100
AcDbScale
 70
     0
300
1:5
140
1.0
141
5.0
290
     0
  0
SCALE
  5
42
102
{ACAD_REACTORS
330
3D
102
}
330
3D
100
AcDbScale
 70
     0
300
1:8
140
1.0
141
8.0
290
     0
  0
SCALE
  5
43
102
{ACAD_REACTORS
330
3D
102
}
330
3D
100
AcDbScale
 70
     0
300
1:10
140
1.0
141
10.0
290
     0
  0
SCALE
  5
44
102
{ACAD_REACTORS
330
3D
102
}
330
3D
100
AcDbScale
 70
     0
300
1:16
140
1.0
141
16.0
290
     0
  0
SCALE
  5
45
102
{ACAD_REACTORS
330
3D
102
}
330
3D
100
AcDbScale
 70
     0
300
1:20
140
1.0
141
20.0
290
     0
  0
SCALE
  5
46
102
{ACAD_REACTORS
330
3D
102
}
330
3D
100
AcDbScale
 70
     0
300
1:30
140
1.0
141
30.0
290
     0
  0
SCALE
  5
47
102
{ACAD_REACTORS
330
3D
102
}
330
3D
100
AcDbScale
 70
     0
300
1:40
140
1.0
141
40.0
290
     0
  0
SCALE
  5
48
102
{ACAD_REACTORS
330
3D
102
}
330
3D
100
AcDbScale
 70
     0
300
1:50
140
1.0
141
50.0
290
     0
  0
SCALE
  5
49
102
{ACAD_REACTORS
330
3D
102
}
330
3D
100
AcDbScale
 70
     0
300
1:100
140
1.0
141
100.0
290
     0
  0
SCALE
  5
4A
102
{ACAD_REACTORS
330
3D
102
}
330
3D
100
AcDbScale
 70
     0
300
2:1
140
2.0
141
1.0
290
     0
  0
SCALE
  5
4B
102
{ACAD_REACTORS
330
3D
102
}
330
3D
100
AcDbScale
 70
     0
300
4:1
140
4.0
141
1.0
290
     0
  0
SCALE
  5
4C
102
{ACAD_REACTORS
330
3D
102
}
330
3D
100
AcDbScale
 70
     0
300
8:1
140
8.0
141
1.0
290
     0
  0
SCALE
  5
4D
102
{ACAD_REACTORS
330
3D
102
}
330
3D
100
AcDbScale
 70
     0
300
10:1
140
10.0
141
1.0
290
     0
  0
SCALE
  5
4E
102
{ACAD_REACTORS
330
3D
102
}
330
3D
100
AcDbScale
 70
     0
300
100:1
140
100.0
141
1.0
290
     0
  0
SCALE
  5
4F
102
{ACAD_REACTORS
330
3D
102
}
330
3D
100
AcDbScale
 70
     0
300
1/128" = 1'-0"
140
0.0078125
141
12.0
290
     0
  0
SCALE
  5
50
102
{ACAD_REACTORS
330
3D
102
}
330
3D
100
AcDbScale
 70
     0
300
1/64" = 1'-0"
140
0.015625
141
12.0
290
     0
  0
SCALE
  5
51
102
{ACAD_REACTORS
330
3D
102
}
330
3D
100
AcDbScale
 70
     0
300
1/32" = 1'-0"
140
0.03125
141
12.0
290
     0
  0
SCALE
  5
52
102
{ACAD_REACTORS
330
3D
102
}
330
3D
100
AcDbScale
 70
     0
300
1/16" = 1'-0"
140
0.0625
141
12.0
290
     0
  0
SCALE
  5
53
102
{ACAD_REACTORS
330
3D
102
}
330
3D
100
AcDbScale
 70
     0
300
3/32" = 1'-0"
140
0.09375
141
12.0
290
     0
  0
SCALE
  5
54
102
{ACAD_REACTORS
330
3D
102
}
330
3D
100
AcDbScale
 70
     0
300
1/8" = 1'-0"
140
0.125
141
12.0
290
     0
  0
SCALE
  5
55
102
{ACAD_REACTORS
330
3D
102
}
330
3D
100
AcDbScale
 70
     0
300
3/16" = 1'-0"
140
0.1875
141
12.0
290
     0
  0
SCALE
  5
56
102
{ACAD_REACTORS
330
3D
102
}
330
3D
100
AcDbScale
 70
     0
300
1/4" = 1'-0"
140
0.25
141
12.0
290
     0
  0
SCALE
  5
57
102
{ACAD_REACTORS
330
3D
102
}
330
3D
100
AcDbScale
 70
     0
300
3/8" = 1'-0"
140
0.375
141
12.0
290
     0
  0
SCALE
  5
58
102
{ACAD_REACTORS
330
3D
102
}
330
3D
100
AcDbScale
 70
     0
300
1/2" = 1'-0"
140
0.5
141
12.0
290
     0
  0
SCALE
  5
59
102
{ACAD_REACTORS
330
3D
102
}
330
3D
100
AcDbScale
 70
     0
300
3/4" = 1'-0"
140
0.75
141
12.0
290
     0
  0
SCALE
  5
5A
102
{ACAD_REACTORS
330
3D
102
}
330
3D
100
AcDbScale
 70
     0
300
1" = 1'-0"
140
1.0
141
12.0
290
     0
  0
SCALE
  5
5B
102
{ACAD_REACTORS
330
3D
102
}
330
3D
100
AcDbScale
 70
     0
300
1-1/2" = 1'-0"
140
1.5
141
12.0
290
     0
  0
SCALE
  5
5C
102
{ACAD_REACTORS
330
3D
102
}
330
3D
100
AcDbScale
 70
     0
300
3" = 1'-0"
140
3.0
141
12.0
290
     0
  0
SCALE
  5
5D
102
{ACAD_REACTORS
330
3D
102
}
330
3D
100
AcDbScale
 70
     0
300
6" = 1'-0"
140
6.0
141
12.0
290
     0
  0
SCALE
  5
5E
102
{ACAD_REACTORS
330
3D
102
}
330
3D
100
AcDbScale
 70
     0
300
1'-0" = 1'-0"
140
12.0
141
12.0
290
     0
  0
TABLESTYLE
  5
6F
102
{ACAD_XDICTIONARY
360
1E6
102
}
102
{ACAD_REACTORS
330
6E
102
}
330
6E
100
AcDbTableStyle
  3
Standard
 70
     0
 71
     0
 40
0.06
 41
0.06
280
     0
281
     0
  7
Standard
140
0.18
170
     2
 62
     0
 63
     7
283
     0
 90
      512
 91
        0
  1

274
    -2
284
     1
 64
     0
275
    -2
285
     1
 65
     0
276
    -2
286
     1
 66
     0
277
    -2
287
     1
 67
     0
278
    -2
288
     1
 68
     0
279
    -2
289
     1
 69
     0
  7
Standard
140
0.25
170
     5
 62
     0
 63
     7
283
     0
 90
      512
 91
        0
  1

274
    -2
284
     1
 64
     0
275
    -2
285
     1
 65
     0
276
    -2
286
     1
 66
     0
277
    -2
287
     1
 67
     0
278
    -2
288
     1
 68
     0
279
    -2
289
     1
 69
     0
  7
Standard
140
0.18
170
     5
 62
     0
 63
     7
283
     0
 90
      512
 91
        0
  1

274
    -2
284
     1
 64
     0
275
    -2
285
     1
 65
     0
276
    -2
286
     1
 66
     0
277
    -2
287
     1
 67
     0
278
    -2
288
     1
 68
     0
279
    -2
289
     1
 69
     0
  0
VISUALSTYLE
  5
2F
102
{ACAD_XDICTIONARY
360
1F3
102
}
102
{ACAD_REACTORS
330
29
102
}
330
29
100
AcDbVisualStyle
  2
2dWireframe
 70
     4
 71
     0
 72
     2
 73
     0
 90
        0
 40
-0.6
 41
-30.0
 62
     5
 63
     7
421
 16777215
 74
     1
 91
        4
 64
     7
 65
   257
 75
     1
175
     1
 42
1.0
 92
        0
 66
   257
 43
1.0
 76
     1
 77
     6
 78
     2
 67
     7
 79
     5
170
     0
171
     0
290
     0
174
     0
 93
        1
 44
0.0
173
     0
291
     0
 45
0.0
1001
ACAD
1000
AcDbSavedByObjectVersion
1070
     0
  0
VISUALSTYLE
  5
31
102
{ACAD_XDICTIONARY
360
1F7
102
}
102
{ACAD_REACTORS
330
29
102
}
330
29
100
AcDbVisualStyle
  2
3D Hidden
 70
     6
 71
     1
 72
     2
 73
     2
 90
        0
 40
-0.6
 41
-30.0
 62
     5
 63
     7
421
 16777215
 74
     2
 91
        2
 64
     7
 65
   257
 75
     2
175
     1
 42
179.0
 92
        0
 66
   257
 43
1.0
 76
     1
 77
     6
 78
     2
 67
     7
 79
     3
170
     0
171
     0
290
     0
174
     0
 93
        1
 44
0.0
173
     0
291
     0
 45
0.0
1001
ACAD
1000
AcDbSavedByObjectVersion
1070
     0
  0
VISUALSTYLE
  5
30
102
{ACAD_XDICTIONARY
360
1F5
102
}
102
{ACAD_REACTORS
330
29
102
}
330
29
100
AcDbVisualStyle
  2
3dWireframe
 70
     5
 71
     0
 72
     2
 73
     0
 90
        0
 40
-0.6
 41
-30.0
 62
     5
 63
     7
421
 16777215
 74
     1
 91
        4
 64
     7
 65
   257
 75
     1
175
     1
 42
1.0
 92
        0
 66
   257
 43
1.0
 76
     1
 77
     6
 78
     2
 67
     7
 79
     5
170
     0
171
     0
290
     0
174
     0
 93
        1
 44
0.0
173
     0
291
     0
 45
0.0
1001
ACAD
1000
AcDbSavedByObjectVersion
1070
     0
  0
VISUALSTYLE
  5
2E
102
{ACAD_XDICTIONARY
360
1F1
102
}
102
{ACAD_REACTORS
330
29
102
}
330
29
100
AcDbVisualStyle
  2
Basic
 70
     7
 71
     1
 72
     0
 73
     1
 90
        0
 40
-0.6
 41
-30.0
 62
     5
 63
     7
421
 16777215
 74
     0
 91
        4
 64
     7
 65
   257
 75
     1
175
     1
 42
1.0
 92
        8
 66
     7
 43
1.0
 76
     1
 77
     6
 78
     2
 67
     7
 79
     5
170
     0
171
     0
290
     0
174
     0
 93
        1
 44
0.0
173
     0
291
     1
 45
0.0
1001
ACAD
1000
AcDbSavedByObjectVersion
1070
     0
  0
VISUALSTYLE
  5
35
102
{ACAD_XDICTIONARY
360
1FF
102
}
102
{ACAD_REACTORS
330
29
102
}
330
29
100
AcDbVisualStyle
  2
Brighten
 70
    12
 71
     2
 72
     2
 73
     0
 90
        0
 40
-0.6
 41
-30.0
 62
     5
 63
     7
421
 16777215
 74
     1
 91
        4
 64
     7
 65
   257
 75
     1
175
     1
 42
1.0
 92
        8
 66
     7
 43
1.0
 76
     1
 77
     6
 78
     2
 67
     7
 79
     5
170
     0
171
     0
290
     0
174
     0
 93
        1
 44
50.0
173
     0
291
     1
 45
0.0
1001
ACAD
1000
AcDbSavedByObjectVersion
1070
     0
  0
VISUALSTYLE
  5
39
102
{ACAD_XDICTIONARY
360
207
102
}
102
{ACAD_REACTORS
330
29
102
}
330
29
100
AcDbVisualStyle
  2
ColorChange
 70
    16
 71
     2
 72
     2
 73
     3
 90
        0
 40
-0.6
 41
-30.0
 62
     5
 63
     8
421
  8421504
 74
     1
 91
        4
 64
     7
 65
   257
 75
     1
175
     1
 42
1.0
 92
        8
 66
     8
424
  8421504
 43
1.0
 76
     1
 77
     6
 78
     2
 67
     7
 79
     5
170
     0
171
     0
290
     0
174
     0
 93
        1
 44
0.0
173
     0
291
     1
 45
0.0
1001
ACAD
1000
AcDbSavedByObjectVersion
1070
     0
  0
VISUALSTYLE
  5
32
102
{ACAD_XDICTIONARY
360
1F9
102
}
102
{ACAD_REACTORS
330
29
102
}
330
29
100
AcDbVisualStyle
  2
Conceptual
 70
     9
 71
     3
 72
     2
 73
     0
 90
        0
 40
-0.6
 41
-30.0
 62
     5
 63
     7
421
 16777215
 74
     2
 91
        2
 64
     7
 65
   257
 75
     1
175
     1
 42
179.0
 92
        8
 66
     7
 43
1.0
 76
     1
 77
     6
 78
     2
 67
     7
 79
     3
170
     0
171
     0
290
     0
174
     0
 93
        1
 44
0.0
173
     0
291
     0
 45
0.0
1001
ACAD
1000
AcDbSavedByObjectVersion
1070
     0
  0
VISUALSTYLE
  5
34
102
{ACAD_XDICTIONARY
360
1FD
102
}
102
{ACAD_REACTORS
330
29
102
}
330
29
100
AcDbVisualStyle
  2
Dim
 70
    11
 71
     2
 72
     2
 73
     0
 90
        0
 40
-0.6
 41
-30.0
 62
     5
 63
     7
421
 16777215
 74
     1
 91
        4
 64
     7
 65
   257
 75
     1
175
     1
 42
1.0
 92
        8
 66
     7
 43
1.0
 76
     1
 77
     6
 78
     2
 67
     7
 79
     5
170
     0
171
     0
290
     0
174
     0
 93
        1
 44
-50.0
173
     0
291
     1
 45
0.0
1001
ACAD
1000
AcDbSavedByObjectVersion
1070
     0
  0
VISUALSTYLE
  5
3C
102
{ACAD_XDICTIONARY
360
20D
102
}
102
{ACAD_REACTORS
330
29
102
}
330
29
100
AcDbVisualStyle
  2
EdgeColorOff
 70
    22
 71
     2
 72
     2
 73
     0
 90
        0
 40
-0.6
 41
-30.0
 62
     5
 63
     7
421
 16777215
 74
     1
 91
        4
 64
     7
 65
   257
 75
     1
175
     1
 42
1.0
 92
        8
 66
     7
 43
1.0
 76
     1
 77
     6
 78
     2
 67
     7
 79
     5
170
     0
171
     0
290
     0
174
     0
 93
        1
 44
0.0
173
     0
291
     1
 45
0.0
1001
ACAD
1000
AcDbSavedByObjectVersion
1070
     0
  0
VISUALSTYLE
  5
38
102
{ACAD_XDICTIONARY
360
205
102
}
102
{ACAD_REACTORS
330
29
102
}
330
29
100
AcDbVisualStyle
  2
Facepattern
 70
    15
 71
     2
 72
     2
 73
     0
 90
        0
 40
-0.6
 41
-30.0
 62
     5
 63
     7
421
 16777215
 74
     1
 91
        4
 64
     7
 65
   257
 75
     1
175
     1
 42
1.0
 92
        8
 66
     7
 43
1.0
 76
     1
 77
     6
 78
     2
 67
     7
 79
     5
170
     0
171
     0
290
     0
174
     0
 93
        1
 44
0.0
173
     0
291
     1
 45
0.0
1001
ACAD
1000
AcDbSavedByObjectVersion
1070
     0
  0
VISUALSTYLE
  5
2A
102
{ACAD_XDICTIONARY
360
1E9
102
}
102
{ACAD_REACTORS
330
29
102
}
330
29
100
AcDbVisualStyle
  2
Flat
 70
     0
 71
     2
 72
     1
 73
     1
 90
        2
 40
-0.6
 41
30.0
 62
     5
 63
     7
421
 16777215
 74
     0
 91
        4
 64
     7
 65
   257
 75
     1
175
     1
 42
1.0
 92
        8
 66
     7
 43
1.0
 76
     1
 77
     6
 78
     2
 67
     7
 79
     5
170
     0
171
     0
290
     0
174
     0
 93
       13
 44
0.0
173
     0
291
     1
 45
0.0
1001
ACAD
1000
AcDbSavedByObjectVersion
1070
     0
  0
VISUALSTYLE
  5
2B
102
{ACAD_XDICTIONARY
360
1EB
102
}
102
{ACAD_REACTORS
330
29
102
}
330
29
100
AcDbVisualStyle
  2
FlatWithEdges
 70
     1
 71
     2
 72
     1
 73
     1
 90
        2
 40
-0.6
 41
30.0
 62
     5
 63
     7
421
 16777215
 74
     1
 91
        4
 64
     7
 65
   257
 75
     1
175
     1
 42
1.0
 92
        0
 66
   257
 43
1.0
 76
     1
 77
     6
 78
     2
 67
     7
 79
     5
170
     0
171
     0
290
     0
174
     0
 93
       13
 44
0.0
173
     0
291
     1
 45
0.0
1001
ACAD
1000
AcDbSavedByObjectVersion
1070
     0
  0
VISUALSTYLE
  5
2C
102
{ACAD_XDICTIONARY
360
1ED
102
}
102
{ACAD_REACTORS
330
29
102
}
330
29
100
AcDbVisualStyle
  2
Gouraud
 70
     2
 71
     2
 72
     2
 73
     1
 90
        2
 40
-0.6
 41
30.0
 62
     5
 63
     7
421
 16777215
 74
     0
 91
        4
 64
     7
 65
   257
 75
     1
175
     1
 42
1.0
 92
        0
 66
     7
 43
1.0
 76
     1
 77
     6
 78
     2
 67
     7
 79
     5
170
     0
171
     0
290
     0
174
     0
 93
       13
 44
0.0
173
     0
291
     1
 45
0.0
1001
ACAD
1000
AcDbSavedByObjectVersion
1070
     0
  0
VISUALSTYLE
  5
2D
102
{ACAD_XDICTIONARY
360
1EF
102
}
102
{ACAD_REACTORS
330
29
102
}
330
29
100
AcDbVisualStyle
  2
GouraudWithEdges
 70
     3
 71
     2
 72
     2
 73
     1
 90
        2
 40
-0.6
 41
30.0
 62
     5
 63
     7
421
 16777215
 74
     1
 91
        4
 64
     7
 65
   257
 75
     1
175
     1
 42
1.0
 92
        0
 66
   257
 43
1.0
 76
     1
 77
     6
 78
     2
 67
     7
 79
     5
170
     0
171
     0
290
     0
174
     0
 93
       13
 44
0.0
173
     0
291
     1
 45
0.0
1001
ACAD
1000
AcDbSavedByObjectVersion
1070
     0
  0
VISUALSTYLE
  5
3A
102
{ACAD_XDICTIONARY
360
209
102
}
102
{ACAD_REACTORS
330
29
102
}
330
29
100
AcDbVisualStyle
  2
JitterOff
 70
    20
 71
     2
 72
     2
 73
     0
 90
        0
 40
-0.6
 41
-30.0
 62
     5
 63
     7
421
 16777215
 74
     1
 91
        4
 64
     7
 65
   257
 75
     1
175
     1
 42
1.0
 92
       10
 66
     7
 43
1.0
 76
     1
 77
     6
 78
     2
 67
     7
 79
     5
170
     0
171
     0
290
     0
174
     0
 93
        1
 44
0.0
173
     0
291
     1
 45
0.0
1001
ACAD
1000
AcDbSavedByObjectVersion
1070
     0
  0
VISUALSTYLE
  5
37
102
{ACAD_XDICTIONARY
360
203
102
}
102
{ACAD_REACTORS
330
29
102
}
330
29
100
AcDbVisualStyle
  2
Linepattern
 70
    14
 71
     2
 72
     2
 73
     0
 90
        0
 40
-0.6
 41
-30.0
 62
     5
 63
     7
421
 16777215
 74
     1
 91
        4
 64
     7
 65
   257
 75
     7
175
     7
 42
1.0
 92
        8
 66
     7
 43
1.0
 76
     1
 77
     6
 78
     2
 67
     7
 79
     5
170
     0
171
     0
290
     0
174
     0
 93
        1
 44
0.0
173
     0
291
     1
 45
0.0
1001
ACAD
1000
AcDbSavedByObjectVersion
1070
     0
  0
VISUALSTYLE
  5
3B
102
{ACAD_XDICTIONARY
360
20B
102
}
102
{ACAD_REACTORS
330
29
102
}
330
29
100
AcDbVisualStyle
  2
OverhangOff
 70
    21
 71
     2
 72
     2
 73
     0
 90
        0
 40
-0.6
 41
-30.0
 62
     5
 63
     7
421
 16777215
 74
     1
 91
        4
 64
     7
 65
   257
 75
     1
175
     1
 42
1.0
 92
        9
 66
     7
 43
1.0
 76
     1
 77
     6
 78
     2
 67
     7
 79
     5
170
     0
171
     0
290
     0
174
     0
 93
        1
 44
0.0
173
     0
291
     1
 45
0.0
1001
ACAD
1000
AcDbSavedByObjectVersion
1070
     0
  0
VISUALSTYLE
  5
33
102
{ACAD_XDICTIONARY
360
1FB
102
}
102
{ACAD_REACTORS
330
29
102
}
330
29
100
AcDbVisualStyle
  2
Realistic
 70
     8
 71
     2
 72
     2
 73
     0
 90
        0
 40
-0.6
 41
-30.0
 62
     5
 63
     7
421
 16777215
 74
     1
 91
        0
 64
     7
 65
   257
 75
     1
175
     1
 42
1.0
 92
        8
 66
     8
424
  7895160
 43
1.0
 76
     1
 77
     6
 78
     2
 67
     7
 79
     5
170
     0
171
     0
290
     0
174
     0
 93
       13
 44
0.0
173
     0
291
     0
 45
0.0
1001
ACAD
1000
AcDbSavedByObjectVersion
1070
     0
  0
VISUALSTYLE
  5
36
102
{ACAD_XDICTIONARY
360
201
102
}
102
{ACAD_REACTORS
330
29
102
}
330
29
100
AcDbVisualStyle
  2
Thicken
 70
    13
 71
     2
 72
     2
 73
     0
 90
        0
 40
-0.6
 41
-30.0
 62
     5
 63
     7
421
 16777215
 74
     1
 91
        4
 64
     7
 65
   257
 75
     1
175
     1
 42
1.0
 92
       12
 66
     7
 43
1.0
 76
     1
 77
     6
 78
     2
 67
     7
 79
     5
170
     0
171
     0
290
     0
174
     0
 93
        1
 44
0.0
173
     0
291
     1
 45
0.0
1001
ACAD
1000
AcDbSavedByObjectVersion
1070
     0
  0
DICTIONARYVAR
  5
1E1
102
{ACAD_REACTORS
330
1DD
102
}
330
1DD
100
DictionaryVariables
280
     0
  1
1:1
  0
DICTIONARYVAR
  5
1DF
102
{ACAD_REACTORS
330
1DD
102
}
330
1DD
100
DictionaryVariables
280
     0
  1
STANDARD
  0
DICTIONARYVAR
  5
1DE
102
{ACAD_REACTORS
330
1DD
102
}
330
1DD
100
DictionaryVariables
280
     0
  1
STANDARD
  0
DICTIONARYVAR
  5
1E3
102
{ACAD_REACTORS
330
1DD
102
}
330
1DD
100
DictionaryVariables
280
     0
  1
1
  0
DICTIONARYVAR
  5
1E4
102
{ACAD_REACTORS
330
1DD
102
}
330
1DD
100
DictionaryVariables
280
     0
  1
15
  0
DICTIONARYVAR
  5
1E2
102
{ACAD_REACTORS
330
1DD
102
}
330
1DD
100
DictionaryVariables
280
     0
  1
0
  0
DICTIONARYVAR
  5
1E0
102
{ACAD_REACTORS
330
1DD
102
}
330
1DD
100
DictionaryVariables
280
     0
  1
0
  0
DICTIONARYVAR
  5
1E5
102
{ACAD_REACTORS
330
1DD
102
}
330
1DD
100
DictionaryVariables
280
     0
  1
2
  0
DICTIONARY
  5
1A
330
19
100
AcDbDictionary
280
     1
281
     1
  3
BUMPTILE
360
1C
  3
DIFFUSETILE
360
1B
  3
OPACITYTILE
360
1F
  3
REFLECTIONTILE
360
1E
  3
REFRACTIONTILE
360
20
  3
SPECULARTILE
360
1D
  0
DICTIONARY
  5
12
330
11
100
AcDbDictionary
280
     1
281
     1
  3
BUMPTILE
360
14
  3
DIFFUSETILE
360
13
  3
OPACITYTILE
360
17
  3
REFLECTIONTILE
360
16
  3
REFRACTIONTILE
360
18
  3
SPECULARTILE
360
15
  0
DICTIONARY
  5
22
330
21
100
AcDbDictionary
280
     1
281
     1
  3
BUMPTILE
360
24
  3
DIFFUSETILE
360
23
  3
OPACITYTILE
360
27
  3
REFLECTIONTILE
360
26
  3
REFRACTIONTILE
360
28
  3
SPECULARTILE
360
25
  0
DICTIONARY
  5
1E6
330
6F
100
AcDbDictionary
280
     1
281
     1
  3
ACAD_ROUNDTRIP_2008_TABLESTYLE_CELLSTYLEMAP
360
1E7
  0
DICTIONARY
  5
1F3
330
2F
100
AcDbDictionary
280
     1
281
     1
  3
ACAD_XREC_ROUNDTRIP
360
1F4
  0
DICTIONARY
  5
1F7
330
31
100
AcDbDictionary
280
     1
281
     1
  3
ACAD_XREC_ROUNDTRIP
360
1F8
  0
DICTIONARY
  5
1F5
330
30
100
AcDbDictionary
280
     1
281
     1
  3
ACAD_XREC_ROUNDTRIP
360
1F6
  0
DICTIONARY
  5
1F1
330
2E
100
AcDbDictionary
280
     1
281
     1
  3
ACAD_XREC_ROUNDTRIP
360
1F2
  0
DICTIONARY
  5
1FF
330
35
100
AcDbDictionary
280
     1
281
     1
  3
ACAD_XREC_ROUNDTRIP
360
200
  0
DICTIONARY
  5
207
330
39
100
AcDbDictionary
280
     1
281
     1
  3
ACAD_XREC_ROUNDTRIP
360
208
  0
DICTIONARY
  5
1F9
330
32
100
AcDbDictionary
280
     1
281
     1
  3
ACAD_XREC_ROUNDTRIP
360
1FA
  0
DICTIONARY
  5
1FD
330
34
100
AcDbDictionary
280
     1
281
     1
  3
ACAD_XREC_ROUNDTRIP
360
1FE
  0
DICTIONARY
  5
20D
330
3C
100
AcDbDictionary
280
     1
281
     1
  3
ACAD_XREC_ROUNDTRIP
360
20E
  0
DICTIONARY
  5
205
330
38
100
AcDbDictionary
280
     1
281
     1
  3
ACAD_XREC_ROUNDTRIP
360
206
  0
DICTIONARY
  5
1E9
330
2A
100
AcDbDictionary
280
     1
281
     1
  3
ACAD_XREC_ROUNDTRIP
360
1EA
  0
DICTIONARY
  5
1EB
330
2B
100
AcDbDictionary
280
     1
281
     1
  3
ACAD_XREC_ROUNDTRIP
360
1EC
  0
DICTIONARY
  5
1ED
330
2C
100
AcDbDictionary
280
     1
281
     1
  3
ACAD_XREC_ROUNDTRIP
360
1EE
  0
DICTIONARY
  5
1EF
330
2D
100
AcDbDictionary
280
     1
281
     1
  3
ACAD_XREC_ROUNDTRIP
360
1F0
  0
DICTIONARY
  5
209
330
3A
100
AcDbDictionary
280
     1
281
     1
  3
ACAD_XREC_ROUNDTRIP
360
20A
  0
DICTIONARY
  5
203
330
37
100
AcDbDictionary
280
     1
281
     1
  3
ACAD_XREC_ROUNDTRIP
360
204
  0
DICTIONARY
  5
20B
330
3B
100
AcDbDictionary
280
     1
281
     1
  3
ACAD_XREC_ROUNDTRIP
360
20C
  0
DICTIONARY
  5
1FB
330
33
100
AcDbDictionary
280
     1
281
     1
  3
ACAD_XREC_ROUNDTRIP
360
1FC
  0
DICTIONARY
  5
201
330
36
100
AcDbDictionary
280
     1
281
     1
  3
ACAD_XREC_ROUNDTRIP
360
202
  0
XRECORD
  5
1C
102
{ACAD_REACTORS
330
1A
102
}
330
1A
100
AcDbXrecord
280
     1
270
     1
271
     1
  0
XRECORD
  5
1B
102
{ACAD_REACTORS
330
1A
102
}
330
1A
100
AcDbXrecord
280
     1
270
     1
271
     1
  0
XRECORD
  5
1F
102
{ACAD_REACTORS
330
1A
102
}
330
1A
100
AcDbXrecord
280
     1
270
     1
271
     1
  0
XRECORD
  5
1E
102
{ACAD_REACTORS
330
1A
102
}
330
1A
100
AcDbXrecord
280
     1
270
     1
271
     1
  0
XRECORD
  5
20
102
{ACAD_REACTORS
330
1A
102
}
330
1A
100
AcDbXrecord
280
     1
270
     1
271
     1
  0
XRECORD
  5
1D
102
{ACAD_REACTORS
330
1A
102
}
330
1A
100
AcDbXrecord
280
     1
270
     1
271
     1
  0
XRECORD
  5
14
102
{ACAD_REACTORS
330
12
102
}
330
12
100
AcDbXrecord
280
     1
270
     1
271
     1
  0
XRECORD
  5
13
102
{ACAD_REACTORS
330
12
102
}
330
12
100
AcDbXrecord
280
     1
270
     1
271
     1
  0
XRECORD
  5
17
102
{ACAD_REACTORS
330
12
102
}
330
12
100
AcDbXrecord
280
     1
270
     1
271
     1
  0
XRECORD
  5
16
102
{ACAD_REACTORS
330
12
102
}
330
12
100
AcDbXrecord
280
     1
270
     1
271
     1
  0
XRECORD
  5
18
102
{ACAD_REACTORS
330
12
102
}
330
12
100
AcDbXrecord
280
     1
270
     1
271
     1
  0
XRECORD
  5
15
102
{ACAD_REACTORS
330
12
102
}
330
12
100
AcDbXrecord
280
     1
270
     1
271
     1
  0
XRECORD
  5
24
102
{ACAD_REACTORS
330
22
102
}
330
22
100
AcDbXrecord
280
     1
270
     1
271
     1
  0
XRECORD
  5
23
102
{ACAD_REACTORS
330
22
102
}
330
22
100
AcDbXrecord
280
     1
270
     1
271
     1
  0
XRECORD
  5
27
102
{ACAD_REACTORS
330
22
102
}
330
22
100
AcDbXrecord
280
     1
270
     1
271
     1
  0
XRECORD
  5
26
102
{ACAD_REACTORS
330
22
102
}
330
22
100
AcDbXrecord
280
     1
270
     1
271
     1
  0
XRECORD
  5
28
102
{ACAD_REACTORS
330
22
102
}
330
22
100
AcDbXrecord
280
     1
270
     1
271
     1
  0
XRECORD
  5
25
102
{ACAD_REACTORS
330
22
102
}
330
22
100
AcDbXrecord
280
     1
270
     1
271
     1
  0
CELLSTYLEMAP
  5
1E7
102
{ACAD_REACTORS
330
1E6
102
}
330
1E6
100
AcDbCellStyleMap
 90
        3
300
CELLSTYLE
  1
TABLEFORMAT_BEGIN
 90
        5
170
     1
 91
        0
 92
    32768
 62
   257
 93
        1
300
CONTENTFORMAT
  1
CONTENTFORMAT_BEGIN
 90
        0
 91
        0
 92
      512
 93
        0
300

 40
0.0
140
1.0
 94
        5
 62
     0
340
60
144
0.25
309
CONTENTFORMAT_END
171
     0
 94
        0
309
TABLEFORMAT_END
  1
CELLSTYLE_BEGIN
 90
        1
 91
        1
300
_TITLE
309
CELLSTYLE_END
300
CELLSTYLE
  1
TABLEFORMAT_BEGIN
 90
        5
170
     1
 91
        0
 92
        0
 62
   257
 93
        1
300
CONTENTFORMAT
  1
CONTENTFORMAT_BEGIN
 90
        0
 91
        0
 92
      512
 93
        0
300

 40
0.0
140
1.0
 94
        5
 62
     0
340
60
144
0.18
309
CONTENTFORMAT_END
171
     0
 94
        0
309
TABLEFORMAT_END
  1
CELLSTYLE_BEGIN
 90
        2
 91
        1
300
_HEADER
309
CELLSTYLE_END
300
CELLSTYLE
  1
TABLEFORMAT_BEGIN
 90
        5
170
     1
 91
        0
 92
        0
 62
   257
 93
        1
300
CONTENTFORMAT
  1
CONTENTFORMAT_BEGIN
 90
        0
 91
        0
 92
      512
 93
        0
300

 40
0.0
140
1.0
 94
        2
 62
     0
340
60
144
0.18
309
CONTENTFORMAT_END
171
     0
 94
        0
309
TABLEFORMAT_END
  1
CELLSTYLE_BEGIN
 90
        3
 91
        2
300
_DATA
309
CELLSTYLE_END
  0
XRECORD
  5
1F4
102
{ACAD_REACTORS
330
1F3
102
}
330
1F3
100
AcDbXrecord
280
     1
102
RTVSPropertyOp0
 70
     1
102
RTVSPropertyOp1
 70
     1
102
RTVSPropertyOp2
 70
     1
102
RTVSPropertyOp3
 70
     1
102
RTVSPropertyOp4
 70
     1
102
RTVSPropertyOp5
 70
     1
102
RTVSPropertyOp6
 70
     1
102
RTVSPropertyOp7
 70
     1
102
RTVSPropertyOp8
 70
     1
102
RTVSPropertyOp9
 70
     1
102
RTVSPropertyOp10
 70
     1
102
RTVSPropertyOp11
 70
     1
102
RTVSPropertyOp12
 70
     1
102
RTVSPropertyOp13
 70
     1
102
RTVSPropertyOp14
 70
     1
102
RTVSPropertyOp15
 70
     1
102
RTVSPropertyOp16
 70
     1
102
RTVSPropertyOp17
 70
     1
102
RTVSPropertyOp18
 70
     1
102
RTVSPropertyOp19
 70
     1
102
RTVSPropertyOp20
 70
     1
102
RTVSPropertyOp21
 70
     1
102
RTVSPropertyOp22
 70
     1
102
RTVSPropertyOp23
 70
     1
102
RTVSPropertyOp24
 70
     1
102
RTVSPropertyOp25
 70
     1
102
RTVSPropertyOp26
 70
     1
102
RTVSPropertyOp27
 70
     1
  0
XRECORD
  5
1F8
102
{ACAD_REACTORS
330
1F7
102
}
330
1F7
100
AcDbXrecord
280
     1
102
RTVSPropertyOp0
 70
     1
102
RTVSPropertyOp1
 70
     1
102
RTVSPropertyOp2
 70
     1
102
RTVSPropertyOp3
 70
     1
102
RTVSPropertyOp4
 70
     1
102
RTVSPropertyOp5
 70
     1
102
RTVSPropertyOp6
 70
     1
102
RTVSPropertyOp7
 70
     1
102
RTVSPropertyOp8
 70
     1
102
RTVSPropertyOp9
 70
     1
102
RTVSPropertyOp10
 70
     1
102
RTVSPropertyOp11
 70
     1
102
RTVSPropertyOp12
 70
     1
102
RTVSPropertyOp13
 70
     1
102
RTVSPropertyOp14
 70
     1
102
RTVSPropertyOp15
 70
     1
102
RTVSPropertyOp16
 70
     1
102
RTVSPropertyOp17
 70
     1
102
RTVSPropertyOp18
 70
     1
102
RTVSPropertyOp19
 70
     1
102
RTVSPropertyOp20
 70
     1
102
RTVSPropertyOp21
 70
     1
102
RTVSPropertyOp22
 70
     1
102
RTVSPropertyOp23
 70
     1
102
RTVSPropertyOp24
 70
     1
102
RTVSPropertyOp25
 70
     1
102
RTVSPropertyOp26
 70
     1
102
RTVSPropertyOp27
 70
     1
  0
XRECORD
  5
1F6
102
{ACAD_REACTORS
330
1F5
102
}
330
1F5
100
AcDbXrecord
280
     1
102
RTVSPropertyOp0
 70
     1
102
RTVSPropertyOp1
 70
     1
102
RTVSPropertyOp2
 70
     1
102
RTVSPropertyOp3
 70
     1
102
RTVSPropertyOp4
 70
     1
102
RTVSPropertyOp5
 70
     1
102
RTVSPropertyOp6
 70
     1
102
RTVSPropertyOp7
 70
     1
102
RTVSPropertyOp8
 70
     1
102
RTVSPropertyOp9
 70
     1
102
RTVSPropertyOp10
 70
     1
102
RTVSPropertyOp11
 70
     1
102
RTVSPropertyOp12
 70
     1
102
RTVSPropertyOp13
 70
     1
102
RTVSPropertyOp14
 70
     1
102
RTVSPropertyOp15
 70
     1
102
RTVSPropertyOp16
 70
     1
102
RTVSPropertyOp17
 70
     1
102
RTVSPropertyOp18
 70
     1
102
RTVSPropertyOp19
 70
     1
102
RTVSPropertyOp20
 70
     1
102
RTVSPropertyOp21
 70
     1
102
RTVSPropertyOp22
 70
     1
102
RTVSPropertyOp23
 70
     1
102
RTVSPropertyOp24
 70
     1
102
RTVSPropertyOp25
 70
     1
102
RTVSPropertyOp26
 70
     1
102
RTVSPropertyOp27
 70
     1
  0
XRECORD
  5
1F2
102
{ACAD_REACTORS
330
1F1
102
}
330
1F1
100
AcDbXrecord
280
     1
102
RTVSPropertyOp0
 70
     1
102
RTVSPropertyOp1
 70
     1
102
RTVSPropertyOp2
 70
     1
102
RTVSPropertyOp3
 70
     1
102
RTVSPropertyOp4
 70
     1
102
RTVSPropertyOp5
 70
     1
102
RTVSPropertyOp6
 70
     1
102
RTVSPropertyOp7
 70
     1
102
RTVSPropertyOp8
 70
     1
102
RTVSPropertyOp9
 70
     1
102
RTVSPropertyOp10
 70
     1
102
RTVSPropertyOp11
 70
     1
102
RTVSPropertyOp12
 70
     1
102
RTVSPropertyOp13
 70
     1
102
RTVSPropertyOp14
 70
     1
102
RTVSPropertyOp15
 70
     1
102
RTVSPropertyOp16
 70
     1
102
RTVSPropertyOp17
 70
     1
102
RTVSPropertyOp18
 70
     1
102
RTVSPropertyOp19
 70
     1
102
RTVSPropertyOp20
 70
     1
102
RTVSPropertyOp21
 70
     1
102
RTVSPropertyOp22
 70
     1
102
RTVSPropertyOp23
 70
     1
102
RTVSPropertyOp24
 70
     1
102
RTVSPropertyOp25
 70
     1
102
RTVSPropertyOp26
 70
     1
102
RTVSPropertyOp27
 70
     1
  0
XRECORD
  5
200
102
{ACAD_REACTORS
330
1FF
102
}
330
1FF
100
AcDbXrecord
280
     1
102
RTVSPropertyOp0
 70
     1
102
RTVSPropertyOp1
 70
     1
102
RTVSPropertyOp2
 70
     1
102
RTVSPropertyOp3
 70
     1
102
RTVSPropertyOp4
 70
     1
102
RTVSPropertyOp5
 70
     1
102
RTVSPropertyOp6
 70
     1
102
RTVSPropertyOp7
 70
     1
102
RTVSPropertyOp8
 70
     1
102
RTVSPropertyOp9
 70
     1
102
RTVSPropertyOp10
 70
     1
102
RTVSPropertyOp11
 70
     1
102
RTVSPropertyOp12
 70
     1
102
RTVSPropertyOp13
 70
     1
102
RTVSPropertyOp14
 70
     1
102
RTVSPropertyOp15
 70
     1
102
RTVSPropertyOp16
 70
     1
102
RTVSPropertyOp17
 70
     1
102
RTVSPropertyOp18
 70
     1
102
RTVSPropertyOp19
 70
     1
102
RTVSPropertyOp20
 70
     1
102
RTVSPropertyOp21
 70
     1
102
RTVSPropertyOp22
 70
     1
102
RTVSPropertyOp23
 70
     1
102
RTVSPropertyOp24
 70
     1
102
RTVSPropertyOp25
 70
     1
102
RTVSPropertyOp26
 70
     1
102
RTVSPropertyOp27
 70
     1
  0
XRECORD
  5
208
102
{ACAD_REACTORS
330
207
102
}
330
207
100
AcDbXrecord
280
     1
102
RTVSPropertyOp0
 70
     1
102
RTVSPropertyOp1
 70
     1
102
RTVSPropertyOp2
 70
     1
102
RTVSPropertyOp3
 70
     1
102
RTVSPropertyOp4
 70
     1
102
RTVSPropertyOp5
 70
     1
102
RTVSPropertyOp6
 70
     1
102
RTVSPropertyOp7
 70
     1
102
RTVSPropertyOp8
 70
     1
102
RTVSPropertyOp9
 70
     1
102
RTVSPropertyOp10
 70
     1
102
RTVSPropertyOp11
 70
     1
102
RTVSPropertyOp12
 70
     1
102
RTVSPropertyOp13
 70
     1
102
RTVSPropertyOp14
 70
     1
102
RTVSPropertyOp15
 70
     1
102
RTVSPropertyOp16
 70
     1
102
RTVSPropertyOp17
 70
     1
102
RTVSPropertyOp18
 70
     1
102
RTVSPropertyOp19
 70
     1
102
RTVSPropertyOp20
 70
     1
102
RTVSPropertyOp21
 70
     1
102
RTVSPropertyOp22
 70
     1
102
RTVSPropertyOp23
 70
     1
102
RTVSPropertyOp24
 70
     1
102
RTVSPropertyOp25
 70
     1
102
RTVSPropertyOp26
 70
     1
102
RTVSPropertyOp27
 70
     1
  0
XRECORD
  5
1FA
102
{ACAD_REACTORS
330
1F9
102
}
330
1F9
100
AcDbXrecord
280
     1
102
RTVSPropertyOp0
 70
     1
102
RTVSPropertyOp1
 70
     1
102
RTVSPropertyOp2
 70
     1
102
RTVSPropertyOp3
 70
     1
102
RTVSPropertyOp4
 70
     1
102
RTVSPropertyOp5
 70
     1
102
RTVSPropertyOp6
 70
     1
102
RTVSPropertyOp7
 70
     1
102
RTVSPropertyOp8
 70
     1
102
RTVSPropertyOp9
 70
     1
102
RTVSPropertyOp10
 70
     1
102
RTVSPropertyOp11
 70
     1
102
RTVSPropertyOp12
 70
     1
102
RTVSPropertyOp13
 70
     1
102
RTVSPropertyOp14
 70
     1
102
RTVSPropertyOp15
 70
     1
102
RTVSPropertyOp16
 70
     1
102
RTVSPropertyOp17
 70
     1
102
RTVSPropertyOp18
 70
     1
102
RTVSPropertyOp19
 70
     1
102
RTVSPropertyOp20
 70
     1
102
RTVSPropertyOp21
 70
     1
102
RTVSPropertyOp22
 70
     1
102
RTVSPropertyOp23
 70
     1
102
RTVSPropertyOp24
 70
     1
102
RTVSPropertyOp25
 70
     1
102
RTVSPropertyOp26
 70
     1
102
RTVSPropertyOp27
 70
     1
  0
XRECORD
  5
1FE
102
{ACAD_REACTORS
330
1FD
102
}
330
1FD
100
AcDbXrecord
280
     1
102
RTVSPropertyOp0
 70
     1
102
RTVSPropertyOp1
 70
     1
102
RTVSPropertyOp2
 70
     1
102
RTVSPropertyOp3
 70
     1
102
RTVSPropertyOp4
 70
     1
102
RTVSPropertyOp5
 70
     1
102
RTVSPropertyOp6
 70
     1
102
RTVSPropertyOp7
 70
     1
102
RTVSPropertyOp8
 70
     1
102
RTVSPropertyOp9
 70
     1
102
RTVSPropertyOp10
 70
     1
102
RTVSPropertyOp11
 70
     1
102
RTVSPropertyOp12
 70
     1
102
RTVSPropertyOp13
 70
     1
102
RTVSPropertyOp14
 70
     1
102
RTVSPropertyOp15
 70
     1
102
RTVSPropertyOp16
 70
     1
102
RTVSPropertyOp17
 70
     1
102
RTVSPropertyOp18
 70
     1
102
RTVSPropertyOp19
 70
     1
102
RTVSPropertyOp20
 70
     1
102
RTVSPropertyOp21
 70
     1
102
RTVSPropertyOp22
 70
     1
102
RTVSPropertyOp23
 70
     1
102
RTVSPropertyOp24
 70
     1
102
RTVSPropertyOp25
 70
     1
102
RTVSPropertyOp26
 70
     1
102
RTVSPropertyOp27
 70
     1
  0
XRECORD
  5
20E
102
{ACAD_REACTORS
330
20D
102
}
330
20D
100
AcDbXrecord
280
     1
102
RTVSPropertyOp0
 70
     0
102
RTVSPropertyOp1
 70
     0
102
RTVSPropertyOp2
 70
     0
102
RTVSPropertyOp3
 70
     0
102
RTVSPropertyOp4
 70
     0
102
RTVSPropertyOp5
 70
     0
102
RTVSPropertyOp6
 70
     0
102
RTVSPropertyOp7
 70
     0
102
RTVSPropertyOp8
 70
     0
102
RTVSPropertyOp9
 70
     0
102
RTVSPropertyOp10
 70
     0
102
RTVSPropertyOp11
 70
     0
102
RTVSPropertyOp12
 70
     0
102
RTVSPropertyOp13
 70
     0
102
RTVSPropertyOp14
 70
     2
102
RTVSPropertyOp15
 70
     0
102
RTVSPropertyOp16
 70
     0
102
RTVSPropertyOp17
 70
     0
102
RTVSPropertyOp18
 70
     0
102
RTVSPropertyOp19
 70
     0
102
RTVSPropertyOp20
 70
     0
102
RTVSPropertyOp21
 70
     0
102
RTVSPropertyOp22
 70
     0
102
RTVSPropertyOp23
 70
     0
102
RTVSPropertyOp24
 70
     0
102
RTVSPropertyOp25
 70
     0
102
RTVSPropertyOp26
 70
     0
102
RTVSPropertyOp27
 70
     0
  0
XRECORD
  5
206
102
{ACAD_REACTORS
330
205
102
}
330
205
100
AcDbXrecord
280
     1
102
RTVSPropertyOp0
 70
     1
102
RTVSPropertyOp1
 70
     1
102
RTVSPropertyOp2
 70
     1
102
RTVSPropertyOp3
 70
     1
102
RTVSPropertyOp4
 70
     1
102
RTVSPropertyOp5
 70
     1
102
RTVSPropertyOp6
 70
     1
102
RTVSPropertyOp7
 70
     1
102
RTVSPropertyOp8
 70
     1
102
RTVSPropertyOp9
 70
     1
102
RTVSPropertyOp10
 70
     1
102
RTVSPropertyOp11
 70
     1
102
RTVSPropertyOp12
 70
     1
102
RTVSPropertyOp13
 70
     1
102
RTVSPropertyOp14
 70
     1
102
RTVSPropertyOp15
 70
     1
102
RTVSPropertyOp16
 70
     1
102
RTVSPropertyOp17
 70
     1
102
RTVSPropertyOp18
 70
     1
102
RTVSPropertyOp19
 70
     1
102
RTVSPropertyOp20
 70
     1
102
RTVSPropertyOp21
 70
     1
102
RTVSPropertyOp22
 70
     1
102
RTVSPropertyOp23
 70
     1
102
RTVSPropertyOp24
 70
     1
102
RTVSPropertyOp25
 70
     1
102
RTVSPropertyOp26
 70
     1
102
RTVSPropertyOp27
 70
     1
  0
XRECORD
  5
1EA
102
{ACAD_REACTORS
330
1E9
102
}
330
1E9
100
AcDbXrecord
280
     1
102
RTVSPropertyOp0
 70
     1
102
RTVSPropertyOp1
 70
     1
102
RTVSPropertyOp2
 70
     1
102
RTVSPropertyOp3
 70
     1
102
RTVSPropertyOp4
 70
     1
102
RTVSPropertyOp5
 70
     1
102
RTVSPropertyOp6
 70
     1
102
RTVSPropertyOp7
 70
     1
102
RTVSPropertyOp8
 70
     1
102
RTVSPropertyOp9
 70
     1
102
RTVSPropertyOp10
 70
     1
102
RTVSPropertyOp11
 70
     1
102
RTVSPropertyOp12
 70
     1
102
RTVSPropertyOp13
 70
     1
102
RTVSPropertyOp14
 70
     1
102
RTVSPropertyOp15
 70
     1
102
RTVSPropertyOp16
 70
     1
102
RTVSPropertyOp17
 70
     1
102
RTVSPropertyOp18
 70
     1
102
RTVSPropertyOp19
 70
     1
102
RTVSPropertyOp20
 70
     1
102
RTVSPropertyOp21
 70
     1
102
RTVSPropertyOp22
 70
     1
102
RTVSPropertyOp23
 70
     1
102
RTVSPropertyOp24
 70
     1
102
RTVSPropertyOp25
 70
     1
102
RTVSPropertyOp26
 70
     1
102
RTVSPropertyOp27
 70
     1
  0
XRECORD
  5
1EC
102
{ACAD_REACTORS
330
1EB
102
}
330
1EB
100
AcDbXrecord
280
     1
102
RTVSPropertyOp0
 70
     1
102
RTVSPropertyOp1
 70
     1
102
RTVSPropertyOp2
 70
     1
102
RTVSPropertyOp3
 70
     1
102
RTVSPropertyOp4
 70
     1
102
RTVSPropertyOp5
 70
     1
102
RTVSPropertyOp6
 70
     1
102
RTVSPropertyOp7
 70
     1
102
RTVSPropertyOp8
 70
     1
102
RTVSPropertyOp9
 70
     1
102
RTVSPropertyOp10
 70
     1
102
RTVSPropertyOp11
 70
     1
102
RTVSPropertyOp12
 70
     1
102
RTVSPropertyOp13
 70
     1
102
RTVSPropertyOp14
 70
     1
102
RTVSPropertyOp15
 70
     1
102
RTVSPropertyOp16
 70
     1
102
RTVSPropertyOp17
 70
     1
102
RTVSPropertyOp18
 70
     1
102
RTVSPropertyOp19
 70
     1
102
RTVSPropertyOp20
 70
     1
102
RTVSPropertyOp21
 70
     1
102
RTVSPropertyOp22
 70
     1
102
RTVSPropertyOp23
 70
     1
102
RTVSPropertyOp24
 70
     1
102
RTVSPropertyOp25
 70
     1
102
RTVSPropertyOp26
 70
     1
102
RTVSPropertyOp27
 70
     1
  0
XRECORD
  5
1EE
102
{ACAD_REACTORS
330
1ED
102
}
330
1ED
100
AcDbXrecord
280
     1
102
RTVSPropertyOp0
 70
     1
102
RTVSPropertyOp1
 70
     1
102
RTVSPropertyOp2
 70
     1
102
RTVSPropertyOp3
 70
     1
102
RTVSPropertyOp4
 70
     1
102
RTVSPropertyOp5
 70
     1
102
RTVSPropertyOp6
 70
     1
102
RTVSPropertyOp7
 70
     1
102
RTVSPropertyOp8
 70
     1
102
RTVSPropertyOp9
 70
     1
102
RTVSPropertyOp10
 70
     1
102
RTVSPropertyOp11
 70
     1
102
RTVSPropertyOp12
 70
     1
102
RTVSPropertyOp13
 70
     1
102
RTVSPropertyOp14
 70
     1
102
RTVSPropertyOp15
 70
     1
102
RTVSPropertyOp16
 70
     1
102
RTVSPropertyOp17
 70
     1
102
RTVSPropertyOp18
 70
     1
102
RTVSPropertyOp19
 70
     1
102
RTVSPropertyOp20
 70
     1
102
RTVSPropertyOp21
 70
     1
102
RTVSPropertyOp22
 70
     1
102
RTVSPropertyOp23
 70
     1
102
RTVSPropertyOp24
 70
     1
102
RTVSPropertyOp25
 70
     1
102
RTVSPropertyOp26
 70
     1
102
RTVSPropertyOp27
 70
     1
  0
XRECORD
  5
1F0
102
{ACAD_REACTORS
330
1EF
102
}
330
1EF
100
AcDbXrecord
280
     1
102
RTVSPropertyOp0
 70
     1
102
RTVSPropertyOp1
 70
     1
102
RTVSPropertyOp2
 70
     1
102
RTVSPropertyOp3
 70
     1
102
RTVSPropertyOp4
 70
     1
102
RTVSPropertyOp5
 70
     1
102
RTVSPropertyOp6
 70
     1
102
RTVSPropertyOp7
 70
     1
102
RTVSPropertyOp8
 70
     1
102
RTVSPropertyOp9
 70
     1
102
RTVSPropertyOp10
 70
     1
102
RTVSPropertyOp11
 70
     1
102
RTVSPropertyOp12
 70
     1
102
RTVSPropertyOp13
 70
     1
102
RTVSPropertyOp14
 70
     1
102
RTVSPropertyOp15
 70
     1
102
RTVSPropertyOp16
 70
     1
102
RTVSPropertyOp17
 70
     1
102
RTVSPropertyOp18
 70
     1
102
RTVSPropertyOp19
 70
     1
102
RTVSPropertyOp20
 70
     1
102
RTVSPropertyOp21
 70
     1
102
RTVSPropertyOp22
 70
     1
102
RTVSPropertyOp23
 70
     1
102
RTVSPropertyOp24
 70
     1
102
RTVSPropertyOp25
 70
     1
102
RTVSPropertyOp26
 70
     1
102
RTVSPropertyOp27
 70
     1
  0
XRECORD
  5
20A
102
{ACAD_REACTORS
330
209
102
}
330
209
100
AcDbXrecord
280
     1
102
RTVSPropertyOp0
 70
     0
102
RTVSPropertyOp1
 70
     0
102
RTVSPropertyOp2
 70
     0
102
RTVSPropertyOp3
 70
     0
102
RTVSPropertyOp4
 70
     0
102
RTVSPropertyOp5
 70
     0
102
RTVSPropertyOp6
 70
     0
102
RTVSPropertyOp7
 70
     0
102
RTVSPropertyOp8
 70
     0
102
RTVSPropertyOp9
 70
     0
102
RTVSPropertyOp10
 70
     0
102
RTVSPropertyOp11
 70
     0
102
RTVSPropertyOp12
 70
     0
102
RTVSPropertyOp13
 70
     0
102
RTVSPropertyOp14
 70
     2
102
RTVSPropertyOp15
 70
     0
102
RTVSPropertyOp16
 70
     0
102
RTVSPropertyOp17
 70
     0
102
RTVSPropertyOp18
 70
     0
102
RTVSPropertyOp19
 70
     0
102
RTVSPropertyOp20
 70
     0
102
RTVSPropertyOp21
 70
     0
102
RTVSPropertyOp22
 70
     0
102
RTVSPropertyOp23
 70
     0
102
RTVSPropertyOp24
 70
     0
102
RTVSPropertyOp25
 70
     0
102
RTVSPropertyOp26
 70
     0
102
RTVSPropertyOp27
 70
     0
  0
XRECORD
  5
204
102
{ACAD_REACTORS
330
203
102
}
330
203
100
AcDbXrecord
280
     1
102
RTVSPropertyOp0
 70
     1
102
RTVSPropertyOp1
 70
     1
102
RTVSPropertyOp2
 70
     1
102
RTVSPropertyOp3
 70
     1
102
RTVSPropertyOp4
 70
     1
102
RTVSPropertyOp5
 70
     1
102
RTVSPropertyOp6
 70
     1
102
RTVSPropertyOp7
 70
     1
102
RTVSPropertyOp8
 70
     1
102
RTVSPropertyOp9
 70
     1
102
RTVSPropertyOp10
 70
     1
102
RTVSPropertyOp11
 70
     1
102
RTVSPropertyOp12
 70
     1
102
RTVSPropertyOp13
 70
     1
102
RTVSPropertyOp14
 70
     1
102
RTVSPropertyOp15
 70
     1
102
RTVSPropertyOp16
 70
     1
102
RTVSPropertyOp17
 70
     1
102
RTVSPropertyOp18
 70
     1
102
RTVSPropertyOp19
 70
     1
102
RTVSPropertyOp20
 70
     1
102
RTVSPropertyOp21
 70
     1
102
RTVSPropertyOp22
 70
     1
102
RTVSPropertyOp23
 70
     1
102
RTVSPropertyOp24
 70
     1
102
RTVSPropertyOp25
 70
     1
102
RTVSPropertyOp26
 70
     1
102
RTVSPropertyOp27
 70
     1
  0
XRECORD
  5
20C
102
{ACAD_REACTORS
330
20B
102
}
330
20B
100
AcDbXrecord
280
     1
102
RTVSPropertyOp0
 70
     0
102
RTVSPropertyOp1
 70
     0
102
RTVSPropertyOp2
 70
     0
102
RTVSPropertyOp3
 70
     0
102
RTVSPropertyOp4
 70
     0
102
RTVSPropertyOp5
 70
     0
102
RTVSPropertyOp6
 70
     0
102
RTVSPropertyOp7
 70
     0
102
RTVSPropertyOp8
 70
     0
102
RTVSPropertyOp9
 70
     0
102
RTVSPropertyOp10
 70
     0
102
RTVSPropertyOp11
 70
     0
102
RTVSPropertyOp12
 70
     0
102
RTVSPropertyOp13
 70
     0
102
RTVSPropertyOp14
 70
     2
102
RTVSPropertyOp15
 70
     0
102
RTVSPropertyOp16
 70
     0
102
RTVSPropertyOp17
 70
     0
102
RTVSPropertyOp18
 70
     0
102
RTVSPropertyOp19
 70
     0
102
RTVSPropertyOp20
 70
     0
102
RTVSPropertyOp21
 70
     0
102
RTVSPropertyOp22
 70
     0
102
RTVSPropertyOp23
 70
     0
102
RTVSPropertyOp24
 70
     0
102
RTVSPropertyOp25
 70
     0
102
RTVSPropertyOp26
 70
     0
102
RTVSPropertyOp27
 70
     0
  0
XRECORD
  5
1FC
102
{ACAD_REACTORS
330
1FB
102
}
330
1FB
100
AcDbXrecord
280
     1
102
RTVSPropertyOp0
 70
     1
102
RTVSPropertyOp1
 70
     1
102
RTVSPropertyOp2
 70
     1
102
RTVSPropertyOp3
 70
     1
102
RTVSPropertyOp4
 70
     1
102
RTVSPropertyOp5
 70
     1
102
RTVSPropertyOp6
 70
     1
102
RTVSPropertyOp7
 70
     1
102
RTVSPropertyOp8
 70
     1
102
RTVSPropertyOp9
 70
     1
102
RTVSPropertyOp10
 70
     1
102
RTVSPropertyOp11
 70
     1
102
RTVSPropertyOp12
 70
     1
102
RTVSPropertyOp13
 70
     1
102
RTVSPropertyOp14
 70
     1
102
RTVSPropertyOp15
 70
     1
102
RTVSPropertyOp16
 70
     1
102
RTVSPropertyOp17
 70
     1
102
RTVSPropertyOp18
 70
     1
102
RTVSPropertyOp19
 70
     1
102
RTVSPropertyOp20
 70
     1
102
RTVSPropertyOp21
 70
     1
102
RTVSPropertyOp22
 70
     1
102
RTVSPropertyOp23
 70
     1
102
RTVSPropertyOp24
 70
     1
102
RTVSPropertyOp25
 70
     1
102
RTVSPropertyOp26
 70
     1
102
RTVSPropertyOp27
 70
     1
  0
XRECORD
  5
202
102
{ACAD_REACTORS
330
201
102
}
330
201
100
AcDbXrecord
280
     1
102
RTVSPropertyOp0
 70
     1
102
RTVSPropertyOp1
 70
     1
102
RTVSPropertyOp2
 70
     1
102
RTVSPropertyOp3
 70
     1
102
RTVSPropertyOp4
 70
     1
102
RTVSPropertyOp5
 70
     1
102
RTVSPropertyOp6
 70
     1
102
RTVSPropertyOp7
 70
     1
102
RTVSPropertyOp8
 70
     1
102
RTVSPropertyOp9
 70
     1
102
RTVSPropertyOp10
 70
     1
102
RTVSPropertyOp11
 70
     1
102
RTVSPropertyOp12
 70
     1
102
RTVSPropertyOp13
 70
     1
102
RTVSPropertyOp14
 70
     1
102
RTVSPropertyOp15
 70
     1
102
RTVSPropertyOp16
 70
     1
102
RTVSPropertyOp17
 70
     1
102
RTVSPropertyOp18
 70
     1
102
RTVSPropertyOp19
 70
     1
102
RTVSPropertyOp20
 70
     1
102
RTVSPropertyOp21
 70
     1
102
RTVSPropertyOp22
 70
     1
102
RTVSPropertyOp23
 70
     1
102
RTVSPropertyOp24
 70
     1
102
RTVSPropertyOp25
 70
     1
102
RTVSPropertyOp26
 70
     1
102
RTVSPropertyOp27
 70
     1
  0
ENDSEC
  0
EOF
