  0
SECTION
  2
HEADER
  9
$ACADVER
  1
AC1021
  9
$ACADMAINTVER
 70
    50
  9
$DWGCODEPAGE
  3
ANSI_1252
  9
$LASTSAVEDBY
  1
Gianluca
  9
$INSBASE
 10
0.0
 20
0.0
 30
0.0
  9
$EXTMIN
 10
746.4056635208062
 20
1404.239507432409
 30
-0.0015258207003583
  9
$EXTMAX
 10
1275.623644210198
 20
1959.274881894516
 30
0.0000000349246037
  9
$LIMMIN
 10
0.0
 20
0.0
  9
$LIMMAX
 10
12.0
 20
9.0
  9
$ORTHOMODE
 70
     0
  9
$REGENMODE
 70
     1
  9
$FILLMODE
 70
     1
  9
$QTEXTMODE
 70
     0
  9
$MIRRTEXT
 70
     0
  9
$LTSCALE
 40
1.0
  9
$ATTMODE
 70
     1
  9
$TEXTSIZE
 40
0.2
  9
$TRACEWID
 40
0.05
  9
$TEXTSTYLE
  7
Standard
  9
$CLAYER
  8
0
  9
$CELTYPE
  6
ByLayer
  9
$CECOLOR
 62
   256
  9
$CELTSCALE
 40
1.0
  9
$DISPSILH
 70
     0
  9
$DIMSCALE
 40
1.0
  9
$DIMASZ
 40
0.18
  9
$DIMEXO
 40
0.0625
  9
$DIMDLI
 40
0.38
  9
$DIMRND
 40
0.0
  9
$DIMDLE
 40
0.0
  9
$DIMEXE
 40
0.18
  9
$DIMTP
 40
0.0
  9
$DIMTM
 40
0.0
  9
$DIMTXT
 40
0.18
  9
$DIMCEN
 40
0.09
  9
$DIMTSZ
 40
0.0
  9
$DIMTOL
 70
     0
  9
$DIMLIM
 70
     0
  9
$DIMTIH
 70
     1
  9
$DIMTOH
 70
     1
  9
$DIMSE1
 70
     0
  9
$DIMSE2
 70
     0
  9
$DIMTAD
 70
     0
  9
$DIMZIN
 70
     0
  9
$DIMBLK
  1

  9
$DIMASO
 70
     1
  9
$DIMSHO
 70
     1
  9
$DIMPOST
  1

  9
$DIMAPOST
  1

  9
$DIMALT
 70
     0
  9
$DIMALTD
 70
     2
  9
$DIMALTF
 40
25.4
  9
$DIMLFAC
 40
1.0
  9
$DIMTOFL
 70
     0
  9
$DIMTVP
 40
0.0
  9
$DIMTIX
 70
     0
  9
$DIMSOXD
 70
     0
  9
$DIMSAH
 70
     0
  9
$DIMBLK1
  1

  9
$DIMBLK2
  1

  9
$DIMSTYLE
  2
Standard
  9
$DIMCLRD
 70
     0
  9
$DIMCLRE
 70
     0
  9
$DIMCLRT
 70
     0
  9
$DIMTFAC
 40
1.0
  9
$DIMGAP
 40
0.09
  9
$DIMJUST
 70
     0
  9
$DIMSD1
 70
     0
  9
$DIMSD2
 70
     0
  9
$DIMTOLJ
 70
     1
  9
$DIMTZIN
 70
     0
  9
$DIMALTZ
 70
     0
  9
$DIMALTTZ
 70
     0
  9
$DIMUPT
 70
     0
  9
$DIMDEC
 70
     4
  9
$DIMTDEC
 70
     4
  9
$DIMALTU
 70
     2
  9
$DIMALTTD
 70
     2
  9
$DIMTXSTY
  7
Standard
  9
$DIMAUNIT
 70
     0
  9
$DIMADEC
 70
     0
  9
$DIMALTRND
 40
0.0
  9
$DIMAZIN
 70
     0
  9
$DIMDSEP
 70
    46
  9
$DIMATFIT
 70
     3
  9
$DIMFRAC
 70
     0
  9
$DIMLDRBLK
  1

  9
$DIMLUNIT
 70
     2
  9
$DIMLWD
 70
    -2
  9
$DIMLWE
 70
    -2
  9
$DIMTMOVE
 70
     0
  9
$DIMFXL
 40
1.0
  9
$DIMFXLON
 70
     0
  9
$DIMJOGANG
 40
0.7853981633974483
  9
$DIMTFILL
 70
     0
  9
$DIMTFILLCLR
 70
     0
  9
$DIMARCSYM
 70
     0
  9
$DIMLTYPE
  6

  9
$DIMLTEX1
  6

  9
$DIMLTEX2
  6

  9
$LUNITS
 70
     2
  9
$LUPREC
 70
     4
  9
$SKETCHINC
 40
0.1
  9
$FILLETRAD
 40
0.0
  9
$AUNITS
 70
     0
  9
$AUPREC
 70
     0
  9
$MENU
  1
.
  9
$ELEVATION
 40
0.0
  9
$PELEVATION
 40
0.0
  9
$THICKNESS
 40
0.0
  9
$LIMCHECK
 70
     0
  9
$CHAMFERA
 40
0.0
  9
$CHAMFERB
 40
0.0
  9
$CHAMFERC
 40
0.0
  9
$CHAMFERD
 40
0.0
  9
$SKPOLY
 70
     0
  9
$TDCREATE
 40
2456692.752417165
  9
$TDUCREATE
 40
2456692.710750498
  9
$TDUPDATE
 40
2456692.755257153
  9
$TDUUPDATE
 40
2456692.713590486
  9
$TDINDWG
 40
0.0028407176
  9
$TDUSRTIMER
 40
0.0028407176
  9
$USRTIMER
 70
     1
  9
$ANGBASE
 50
0.0
  9
$ANGDIR
 70
     0
  9
$PDMODE
 70
     0
  9
$PDSIZE
 40
0.0
  9
$PLINEWID
 40
0.0
  9
$SPLFRAME
 70
     0
  9
$SPLINETYPE
 70
     6
  9
$SPLINESEGS
 70
     8
  9
$HANDSEED
  5
4B5
  9
$SURFTAB1
 70
     6
  9
$SURFTAB2
 70
     6
  9
$SURFTYPE
 70
     6
  9
$SURFU
 70
     6
  9
$SURFV
 70
     6
  9
$UCSBASE
  2

  9
$UCSNAME
  2

  9
$UCSORG
 10
0.0
 20
0.0
 30
0.0
  9
$UCSXDIR
 10
1.0
 20
0.0
 30
0.0
  9
$UCSYDIR
 10
0.0
 20
1.0
 30
0.0
  9
$UCSORTHOREF
  2

  9
$UCSORTHOVIEW
 70
     0
  9
$UCSORGTOP
 10
0.0
 20
0.0
 30
0.0
  9
$UCSORGBOTTOM
 10
0.0
 20
0.0
 30
0.0
  9
$UCSORGLEFT
 10
0.0
 20
0.0
 30
0.0
  9
$UCSORGRIGHT
 10
0.0
 20
0.0
 30
0.0
  9
$UCSORGFRONT
 10
0.0
 20
0.0
 30
0.0
  9
$UCSORGBACK
 10
0.0
 20
0.0
 30
0.0
  9
$PUCSBASE
  2

  9
$PUCSNAME
  2

  9
$PUCSORG
 10
0.0
 20
0.0
 30
0.0
  9
$PUCSXDIR
 10
1.0
 20
0.0
 30
0.0
  9
$PUCSYDIR
 10
0.0
 20
1.0
 30
0.0
  9
$PUCSORTHOREF
  2

  9
$PUCSORTHOVIEW
 70
     0
  9
$PUCSORGTOP
 10
0.0
 20
0.0
 30
0.0
  9
$PUCSORGBOTTOM
 10
0.0
 20
0.0
 30
0.0
  9
$PUCSORGLEFT
 10
0.0
 20
0.0
 30
0.0
  9
$PUCSORGRIGHT
 10
0.0
 20
0.0
 30
0.0
  9
$PUCSORGFRONT
 10
0.0
 20
0.0
 30
0.0
  9
$PUCSORGBACK
 10
0.0
 20
0.0
 30
0.0
  9
$USERI1
 70
     0
  9
$USERI2
 70
     0
  9
$USERI3
 70
     0
  9
$USERI4
 70
     0
  9
$USERI5
 70
     0
  9
$USERR1
 40
0.0
  9
$USERR2
 40
0.0
  9
$USERR3
 40
0.0
  9
$USERR4
 40
0.0
  9
$USERR5
 40
0.0
  9
$WORLDVIEW
 70
     1
  9
$SHADEDGE
 70
     3
  9
$SHADEDIF
 70
    70
  9
$TILEMODE
 70
     1
  9
$MAXACTVP
 70
    64
  9
$PINSBASE
 10
0.0
 20
0.0
 30
0.0
  9
$PLIMCHECK
 70
     0
  9
$PEXTMIN
 10
1.000000000000000E+20
 20
1.000000000000000E+20
 30
1.000000000000000E+20
  9
$PEXTMAX
 10
-1.000000000000000E+20
 20
-1.000000000000000E+20
 30
-1.000000000000000E+20
  9
$PLIMMIN
 10
0.0
 20
0.0
  9
$PLIMMAX
 10
12.0
 20
9.0
  9
$UNITMODE
 70
     0
  9
$VISRETAIN
 70
     1
  9
$PLINEGEN
 70
     0
  9
$PSLTSCALE
 70
     1
  9
$TREEDEPTH
 70
  3020
  9
$CMLSTYLE
  2
Standard
  9
$CMLJUST
 70
     0
  9
$CMLSCALE
 40
1.0
  9
$PROXYGRAPHICS
 70
     1
  9
$MEASUREMENT
 70
     0
  9
$CELWEIGHT
370
    -1
  9
$ENDCAPS
280
     0
  9
$JOINSTYLE
280
     0
  9
$LWDISPLAY
290
     0
  9
$INSUNITS
 70
     0
  9
$HYPERLINKBASE
  1

  9
$STYLESHEET
  1

  9
$XEDIT
290
     1
  9
$CEPSNTYPE
380
     0
  9
$PSTYLEMODE
290
     1
  9
$FINGERPRINTGUID
  2
{E82254D4-4256-48A3-B77B-6C38988A21CA}
  9
$VERSIONGUID
  2
{026F402A-A991-4074-A602-5B08E85E2209}
  9
$EXTNAMES
290
     1
  9
$PSVPSCALE
 40
0.0
  9
$OLESTARTUP
290
     0
  9
$SORTENTS
280
   127
  9
$INDEXCTL
280
     0
  9
$HIDETEXT
280
     0
  9
$XCLIPFRAME
290
     0
  9
$HALOGAP
280
     0
  9
$OBSCOLOR
 70
   257
  9
$OBSLTYPE
280
     0
  9
$INTERSECTIONDISPLAY
280
     0
  9
$INTERSECTIONCOLOR
 70
   257
  9
$DIMASSOC
280
     1
  9
$PROJECTNAME
  1

  9
$CAMERADISPLAY
290
     0
  9
$LENSLENGTH
 40
50.0
  9
$CAMERAHEIGHT
 40
0.0
  9
$STEPSPERSEC
 40
2.0
  9
$STEPSIZE
 40
6.0
  9
$3DDWFPREC
 40
2.0
  9
$PSOLWIDTH
 40
0.25
  9
$PSOLHEIGHT
 40
4.0
  9
$LOFTANG1
 40
1.570796326794896
  9
$LOFTANG2
 40
1.570796326794896
  9
$LOFTMAG1
 40
0.0
  9
$LOFTMAG2
 40
0.0
  9
$LOFTPARAM
 70
     7
  9
$LOFTNORMALS
280
     1
  9
$LATITUDE
 40
37.795
  9
$LONGITUDE
 40
-122.394
  9
$NORTHDIRECTION
 40
0.0
  9
$TIMEZONE
 70
 -8000
  9
$LIGHTGLYPHDISPLAY
280
     1
  9
$TILEMODELIGHTSYNCH
280
     1
  9
$CMATERIAL
347
11
  9
$SOLIDHIST
280
     1
  9
$SHOWHIST
280
     1
  9
$DWFFRAME
280
     2
  9
$DGNFRAME
280
     0
  9
$REALWORLDSCALE
290
     1
  9
$INTERFERECOLOR
 62
     1
  9
$INTERFEREOBJVS
345
33
  9
$INTERFEREVPVS
346
30
  9
$CSHADOW
280
     0
  9
$SHADOWPLANELOCATION
 40
0.0
  0
ENDSEC
  0
SECTION
  2
CLASSES
  0
CLASS
  1
ACDBDICTIONARYWDFLT
  2
AcDbDictionaryWithDefault
  3
ObjectDBX Classes
 90
        0
 91
        1
280
     0
281
     0
  0
CLASS
  1
MATERIAL
  2
AcDbMaterial
  3
ObjectDBX Classes
 90
     1153
 91
        3
280
     0
281
     0
  0
CLASS
  1
VISUALSTYLE
  2
AcDbVisualStyle
  3
ObjectDBX Classes
 90
     4095
 91
       19
280
     0
281
     0
  0
CLASS
  1
SCALE
  2
AcDbScale
  3
ObjectDBX Classes
 90
     1153
 91
       33
280
     0
281
     0
  0
CLASS
  1
TABLESTYLE
  2
AcDbTableStyle
  3
ObjectDBX Classes
 90
     4095
 91
        1
280
     0
281
     0
  0
CLASS
  1
MLEADERSTYLE
  2
AcDbMLeaderStyle
  3
ACDB_MLEADERSTYLE_CLASS
 90
     4095
 91
        1
280
     0
281
     0
  0
CLASS
  1
DICTIONARYVAR
  2
AcDbDictionaryVar
  3
ObjectDBX Classes
 90
        0
 91
        8
280
     0
281
     0
  0
CLASS
  1
CELLSTYLEMAP
  2
AcDbCellStyleMap
  3
ObjectDBX Classes
 90
     1152
 91
        1
280
     0
281
     0
  0
ENDSEC
  0
SECTION
  2
TABLES
  0
TABLE
  2
VPORT
  5
8
330
0
100
AcDbSymbolTable
 70
     1
  0
VPORT
  5
46F
330
8
100
AcDbSymbolTableRecord
100
AcDbViewportTableRecord
  2
*Active
 70
     0
 10
0.0
 20
0.0
 11
1.0
 21
1.0
 12
1011.014653865502
 22
1681.757194663462
 13
0.0
 23
0.0
 14
1.0
 24
1.0
 15
0.0
 25
0.0
 16
0.0
 26
0.0
 36
1.0
 17
0.0
 27
0.0
 37
0.0
 40
559.6161340862777
 41
1.59366391184573
 42
50.0
 43
0.0
 44
0.0
 50
0.0
 51
0.0
 71
     0
 72
  1000
 73
     1
 74
     3
 75
     0
 76
     0
 77
     0
 78
     0
281
     0
 65
     1
110
0.0
120
0.0
130
0.0
111
1.0
121
0.0
131
0.0
112
0.0
122
1.0
132
0.0
 79
     0
146
0.0
348
2F
 60
     3
 61
     5
292
     1
282
     1
141
0.0
142
0.0
 63
   250
421
  3355443
  0
ENDTAB
  0
TABLE
  2
LTYPE
  5
5
330
0
100
AcDbSymbolTable
 70
     3
  0
LTYPE
  5
65
330
5
100
AcDbSymbolTableRecord
100
AcDbLinetypeTableRecord
  2
ByBlock
 70
     0
  3

 72
    65
 73
     0
 40
0.0
  0
LTYPE
  5
66
330
5
100
AcDbSymbolTableRecord
100
AcDbLinetypeTableRecord
  2
ByLayer
 70
     0
  3

 72
    65
 73
     0
 40
0.0
  0
LTYPE
  5
67
330
5
100
AcDbSymbolTableRecord
100
AcDbLinetypeTableRecord
  2
Continuous
 70
     0
  3
Solid line
 72
    65
 73
     0
 40
0.0
  0
ENDTAB
  0
TABLE
  2
LAYER
  5
2
330
0
100
AcDbSymbolTable
 70
     4
  0
LAYER
  5
5F
102
{ACAD_XDICTIONARY
360
47A
102
}
330
2
100
AcDbSymbolTableRecord
100
AcDbLayerTableRecord
  2
0
 70
     0
 62
     7
  6
Continuous
370
    -3
390
F
347
21
  0
LAYER
  5
7C
102
{ACAD_XDICTIONARY
360
47C
102
}
330
2
100
AcDbSymbolTableRecord
100
AcDbLayerTableRecord
  2
QUOTATURA
 70
     0
 62
     7
  6
Continuous
370
    -3
390
F
347
21
  0
LAYER
  5
7E
102
{ACAD_XDICTIONARY
360
47E
102
}
330
2
100
AcDbSymbolTableRecord
100
AcDbLayerTableRecord
  2
APS_GEOMETRY
 70
     0
 62
    82
  6
Continuous
370
    -3
390
F
347
21
  0
LAYER
  5
40C
102
{ACAD_XDICTIONARY
360
480
102
}
330
2
100
AcDbSymbolTableRecord
100
AcDbLayerTableRecord
  2
INCISIONI
 70
     0
 62
     1
  6
Continuous
370
    -3
390
F
347
21
  0
ENDTAB
  0
TABLE
  2
STYLE
  5
3
330
0
100
AcDbSymbolTable
 70
     2
  0
STYLE
  5
60
330
3
100
AcDbSymbolTableRecord
100
AcDbTextStyleTableRecord
  2
Standard
 70
     0
 40
0.0
 41
1.0
 50
0.0
 71
     0
 42
0.2
  3
txt
  4

  0
STYLE
  5
64
330
3
100
AcDbSymbolTableRecord
100
AcDbTextStyleTableRecord
  2
Annotative
 70
     0
 40
0.0
 41
1.0
 50
0.0
 71
     0
 42
0.2
  3
txt
  4

1001
AcadAnnotative
1000
AnnotativeData
1002
{
1070
     1
1070
     1
1002
}
  0
ENDTAB
  0
TABLE
  2
VIEW
  5
6
330
0
100
AcDbSymbolTable
 70
     0
  0
ENDTAB
  0
TABLE
  2
UCS
  5
7
330
0
100
AcDbSymbolTable
 70
     0
  0
ENDTAB
  0
TABLE
  2
APPID
  5
9
330
0
100
AcDbSymbolTable
 70
     4
  0
APPID
  5
61
330
9
100
AcDbSymbolTableRecord
100
AcDbRegAppTableRecord
  2
ACAD
 70
     0
  0
APPID
  5
68
330
9
100
AcDbSymbolTableRecord
100
AcDbRegAppTableRecord
  2
AcadAnnotative
 70
     0
  0
APPID
  5
476
330
9
100
AcDbSymbolTableRecord
100
AcDbRegAppTableRecord
  2
ACAD_EXEMPT_FROM_CAD_STANDARDS
 70
     0
  0
APPID
  5
4B4
330
9
100
AcDbSymbolTableRecord
100
AcDbRegAppTableRecord
  2
ACAD_MLEADERVER
 70
     0
  0
ENDTAB
  0
TABLE
  2
DIMSTYLE
  5
A
330
0
100
AcDbSymbolTable
 70
     3
100
AcDbDimStyleTable
 71
     0
  0
DIMSTYLE
105
62
330
A
100
AcDbSymbolTableRecord
100
AcDbDimStyleTableRecord
  2
Standard
 70
     0
340
60
  0
DIMSTYLE
105
63
330
A
100
AcDbSymbolTableRecord
100
AcDbDimStyleTableRecord
  2
Annotative
 70
     0
340
60
1001
AcadAnnotative
1000
AnnotativeData
1002
{
1070
     1
1070
     1
1002
}
  0
ENDTAB
  0
TABLE
  2
BLOCK_RECORD
  5
1
330
0
100
AcDbSymbolTable
 70
     1
  0
BLOCK_RECORD
  5
76
330
1
100
AcDbSymbolTableRecord
100
AcDbBlockTableRecord
  2
*Model_Space
340
79
 70
     0
280
     1
281
     0
  0
BLOCK_RECORD
  5
72
330
1
100
AcDbSymbolTableRecord
100
AcDbBlockTableRecord
  2
*Paper_Space
340
75
 70
     0
280
     1
281
     0
  0
ENDTAB
  0
ENDSEC
  0
SECTION
  2
BLOCKS
  0
BLOCK
  5
77
330
76
100
AcDbEntity
  8
0
100
AcDbBlockBegin
  2
*Model_Space
 70
     0
 10
0.0
 20
0.0
 30
0.0
  3
*Model_Space
  1

  0
ENDBLK
  5
78
330
76
100
AcDbEntity
  8
0
100
AcDbBlockEnd
  0
BLOCK
  5
73
330
72
100
AcDbEntity
 67
     1
  8
0
100
AcDbBlockBegin
  2
*Paper_Space
 70
     0
 10
0.0
 20
0.0
 30
0.0
  3
*Paper_Space
  1

  0
ENDBLK
  5
74
330
72
100
AcDbEntity
 67
     1
  8
0
100
AcDbBlockEnd
  0
ENDSEC
  0
SECTION
  2
ENTITIES
  0
CIRCLE
  5
7A
330
76
100
AcDbEntity
  8
0
 62
     3
100
AcDbCircle
 10
1025.524874
 20
1654.347957
 30
0.0
 40
250.0
  0
CIRCLE
  5
7F
330
76
100
AcDbEntity
  8
APS_GEOMETRY
100
AcDbCircle
 10
1025.524874
 20
1654.347957
 30
0.0
 40
47.5
  0
ARC
  5
80
330
76
100
AcDbEntity
  8
APS_GEOMETRY
100
AcDbCircle
 10
1025.524874
 20
1654.347957
 30
0.0
 40
236.631726
100
AcDbArc
 50
87.646267
 51
134.944988
  0
LINE
  5
81
330
76
100
AcDbEntity
  8
APS_GEOMETRY
100
AcDbLine
 10
1035.243062
 20
1890.780041
 30
0.0
 11
1027.454731
 21
1888.837843
 31
0.0
  0
LINE
  5
82
330
76
100
AcDbEntity
  8
APS_GEOMETRY
100
AcDbLine
 10
1027.454731
 20
1888.837843
 30
0.0
 11
1019.682209
 21
1886.857691
 31
0.0
  0
LINE
  5
83
330
76
100
AcDbEntity
  8
APS_GEOMETRY
100
AcDbLine
 10
1019.682209
 20
1886.857691
 30
0.0
 11
1011.941303
 21
1884.801631
 31
0.0
  0
LINE
  5
84
330
76
100
AcDbEntity
  8
APS_GEOMETRY
100
AcDbLine
 10
1011.941303
 20
1884.801631
 30
0.0
 11
1004.24782
 21
1882.631708
 31
0.0
  0
LINE
  5
85
330
76
100
AcDbEntity
  8
APS_GEOMETRY
100
AcDbLine
 10
1004.24782
 20
1882.631708
 30
0.0
 11
996.6175699999999
 21
1880.30997
 31
0.0
  0
LINE
  5
86
330
76
100
AcDbEntity
  8
APS_GEOMETRY
100
AcDbLine
 10
996.6175699999999
 20
1880.30997
 30
0.0
 11
989.066359
 21
1877.798461
 31
0.0
  0
LINE
  5
87
330
76
100
AcDbEntity
  8
APS_GEOMETRY
100
AcDbLine
 10
989.066359
 20
1877.798461
 30
0.0
 11
981.609996
 21
1875.059229
 31
0.0
  0
LINE
  5
88
330
76
100
AcDbEntity
  8
APS_GEOMETRY
100
AcDbLine
 10
981.609996
 20
1875.059229
 30
0.0
 11
974.264289
 21
1872.054318
 31
0.0
  0
LINE
  5
89
330
76
100
AcDbEntity
  8
APS_GEOMETRY
100
AcDbLine
 10
974.264289
 20
1872.054318
 30
0.0
 11
967.0450109999999
 21
1868.746088
 31
0.0
  0
LINE
  5
8A
330
76
100
AcDbEntity
  8
APS_GEOMETRY
100
AcDbLine
 10
967.0450109999999
 20
1868.746088
 30
0.0
 11
959.965814
 21
1865.115539999999
 31
0.0
  0
LINE
  5
8B
330
76
100
AcDbEntity
  8
APS_GEOMETRY
100
AcDbLine
 10
959.965814
 20
1865.115539999999
 30
0.0
 11
953.0370789999999
 21
1861.17248
 31
0.0
  0
LINE
  5
8C
330
76
100
AcDbEntity
  8
APS_GEOMETRY
100
AcDbLine
 10
953.0370789999999
 20
1861.17248
 30
0.0
 11
946.2689039999998
 21
1856.929187
 31
0.0
  0
LINE
  5
8D
330
76
100
AcDbEntity
  8
APS_GEOMETRY
100
AcDbLine
 10
946.2689039999998
 20
1856.929187
 30
0.0
 11
939.6713900000001
 21
1852.397935
 31
0.0
  0
LINE
  5
8E
330
76
100
AcDbEntity
  8
APS_GEOMETRY
100
AcDbLine
 10
939.6713900000001
 20
1852.397935
 30
0.0
 11
933.254634
 21
1847.591
 31
0.0
  0
LINE
  5
8F
330
76
100
AcDbEntity
  8
APS_GEOMETRY
100
AcDbLine
 10
933.254634
 20
1847.591
 30
0.0
 11
927.0287369999998
 21
1842.520659
 31
0.0
  0
LINE
  5
90
330
76
100
AcDbEntity
  8
APS_GEOMETRY
100
AcDbLine
 10
927.0287369999998
 20
1842.520659
 30
0.0
 11
921.003797
 21
1837.199188
 31
0.0
  0
LINE
  5
91
330
76
100
AcDbEntity
  8
APS_GEOMETRY
100
AcDbLine
 10
921.003797
 20
1837.199188
 30
0.0
 11
915.1900429999999
 21
1831.638751
 31
0.0
  0
LINE
  5
92
330
76
100
AcDbEntity
  8
APS_GEOMETRY
100
AcDbLine
 10
915.1900429999999
 20
1831.638751
 30
0.0
 11
909.599865
 21
1825.849638
 31
0.0
  0
LINE
  5
93
330
76
100
AcDbEntity
  8
APS_GEOMETRY
100
AcDbLine
 10
909.599865
 20
1825.849638
 30
0.0
 11
904.2474509999999
 21
1819.840583
 31
0.0
  0
LINE
  5
94
330
76
100
AcDbEntity
  8
APS_GEOMETRY
100
AcDbLine
 10
904.2474509999999
 20
1819.840583
 30
0.0
 11
899.1470429999999
 21
1813.620273
 31
0.0
  0
LINE
  5
95
330
76
100
AcDbEntity
  8
APS_GEOMETRY
100
AcDbLine
 10
899.1470429999999
 20
1813.620273
 30
0.0
 11
894.3128810000001
 21
1807.197395
 31
0.0
  0
LINE
  5
96
330
76
100
AcDbEntity
  8
APS_GEOMETRY
100
AcDbLine
 10
894.3128810000001
 20
1807.197395
 30
0.0
 11
889.7592089999999
 21
1800.580635
 31
0.0
  0
LINE
  5
97
330
76
100
AcDbEntity
  8
APS_GEOMETRY
100
AcDbLine
 10
889.7592089999999
 20
1800.580635
 30
0.0
 11
885.5002670000001
 21
1793.77868
 31
0.0
  0
LINE
  5
98
330
76
100
AcDbEntity
  8
APS_GEOMETRY
100
AcDbLine
 10
885.5002670000001
 20
1793.77868
 30
0.0
 11
881.550297
 21
1786.800217
 31
0.0
  0
LINE
  5
99
330
76
100
AcDbEntity
  8
APS_GEOMETRY
100
AcDbLine
 10
881.550297
 20
1786.800217
 30
0.0
 11
877.923541
 21
1779.653932
 31
0.0
  0
LINE
  5
9A
330
76
100
AcDbEntity
  8
APS_GEOMETRY
100
AcDbLine
 10
877.923541
 20
1779.653932
 30
0.0
 11
874.634241
 21
1772.348512
 31
0.0
  0
LINE
  5
9B
330
76
100
AcDbEntity
  8
APS_GEOMETRY
100
AcDbLine
 10
874.634241
 20
1772.348512
 30
0.0
 11
871.6965640000001
 21
1764.892734
 31
0.0
  0
LINE
  5
9C
330
76
100
AcDbEntity
  8
APS_GEOMETRY
100
AcDbLine
 10
871.6965640000001
 20
1764.892734
 30
0.0
 11
869.1210699999999
 21
1757.299704
 31
0.0
  0
LINE
  5
9D
330
76
100
AcDbEntity
  8
APS_GEOMETRY
100
AcDbLine
 10
869.1210699999999
 20
1757.299704
 30
0.0
 11
866.9131699999999
 21
1749.588709
 31
0.0
  0
LINE
  5
9E
330
76
100
AcDbEntity
  8
APS_GEOMETRY
100
AcDbLine
 10
866.9131699999999
 20
1749.588709
 30
0.0
 11
865.077883
 21
1741.77951
 31
0.0
  0
LINE
  5
9F
330
76
100
AcDbEntity
  8
APS_GEOMETRY
100
AcDbLine
 10
865.077883
 20
1741.77951
 30
0.0
 11
863.6202240000001
 21
1733.891869
 31
0.0
  0
LINE
  5
A0
330
76
100
AcDbEntity
  8
APS_GEOMETRY
100
AcDbLine
 10
863.6202240000001
 20
1733.891869
 30
0.0
 11
862.5452119999998
 21
1725.945547
 31
0.0
  0
LINE
  5
A1
330
76
100
AcDbEntity
  8
APS_GEOMETRY
100
AcDbLine
 10
862.5452119999998
 20
1725.945547
 30
0.0
 11
861.857863
 21
1717.960305
 31
0.0
  0
LINE
  5
A2
330
76
100
AcDbEntity
  8
APS_GEOMETRY
100
AcDbLine
 10
861.857863
 20
1717.960305
 30
0.0
 11
861.563194
 21
1709.955904
 31
0.0
  0
LINE
  5
A3
330
76
100
AcDbEntity
  8
APS_GEOMETRY
100
AcDbLine
 10
861.563194
 20
1709.955904
 30
0.0
 11
861.6661800000001
 21
1701.952089999999
 31
0.0
  0
LINE
  5
A4
330
76
100
AcDbEntity
  8
APS_GEOMETRY
100
AcDbLine
 10
861.6661800000001
 20
1701.952089999999
 30
0.0
 11
860.956133
 21
1703.898056
 31
0.0
  0
LINE
  5
A5
330
76
100
AcDbEntity
  8
APS_GEOMETRY
100
AcDbLine
 10
860.956133
 20
1703.898056
 30
0.0
 11
860.2678159999999
 21
1705.852848
 31
0.0
  0
LINE
  5
A6
330
76
100
AcDbEntity
  8
APS_GEOMETRY
100
AcDbLine
 10
860.2678159999999
 20
1705.852848
 30
0.0
 11
859.6012609999998
 21
1707.816124
 31
0.0
  0
LINE
  5
A7
330
76
100
AcDbEntity
  8
APS_GEOMETRY
100
AcDbLine
 10
859.6012609999998
 20
1707.816124
 30
0.0
 11
858.956498
 21
1709.787544
 31
0.0
  0
LINE
  5
A8
330
76
100
AcDbEntity
  8
APS_GEOMETRY
100
AcDbLine
 10
858.956498
 20
1709.787544
 30
0.0
 11
858.3335599999999
 21
1711.766767
 31
0.0
  0
LINE
  5
A9
330
76
100
AcDbEntity
  8
APS_GEOMETRY
100
AcDbLine
 10
858.3335599999999
 20
1711.766767
 30
0.0
 11
857.7324759999999
 21
1713.753453
 31
0.0
  0
LINE
  5
AA
330
76
100
AcDbEntity
  8
APS_GEOMETRY
100
AcDbLine
 10
857.7324759999999
 20
1713.753453
 30
0.0
 11
857.1532729999999
 21
1715.747255
 31
0.0
  0
LINE
  5
AB
330
76
100
AcDbEntity
  8
APS_GEOMETRY
100
AcDbLine
 10
857.1532729999999
 20
1715.747255
 30
0.0
 11
856.5958619999999
 21
1717.747709
 31
0.0
  0
LINE
  5
AC
330
76
100
AcDbEntity
  8
APS_GEOMETRY
100
AcDbLine
 10
856.5958619999999
 20
1717.747709
 30
0.0
 11
856.0602769999999
 21
1719.754394
 31
0.0
  0
LINE
  5
AD
330
76
100
AcDbEntity
  8
APS_GEOMETRY
100
AcDbLine
 10
856.0602769999999
 20
1719.754394
 30
0.0
 11
855.5466119999998
 21
1721.76693
 31
0.0
  0
LINE
  5
AE
330
76
100
AcDbEntity
  8
APS_GEOMETRY
100
AcDbLine
 10
855.5466119999998
 20
1721.76693
 30
0.0
 11
855.0549609999999
 21
1723.784937
 31
0.0
  0
LINE
  5
AF
330
76
100
AcDbEntity
  8
APS_GEOMETRY
100
AcDbLine
 10
855.0549609999999
 20
1723.784937
 30
0.0
 11
854.585418
 21
1725.808038
 31
0.0
  0
LINE
  5
B0
330
76
100
AcDbEntity
  8
APS_GEOMETRY
100
AcDbLine
 10
854.585418
 20
1725.808038
 30
0.0
 11
854.1380789999999
 21
1727.835853
 31
0.0
  0
LINE
  5
B1
330
76
100
AcDbEntity
  8
APS_GEOMETRY
100
AcDbLine
 10
854.1380789999999
 20
1727.835853
 30
0.0
 11
853.7130369999998
 21
1729.868002
 31
0.0
  0
LINE
  5
B2
330
76
100
AcDbEntity
  8
APS_GEOMETRY
100
AcDbLine
 10
853.7130369999998
 20
1729.868002
 30
0.0
 11
853.310386
 21
1731.904108
 31
0.0
  0
LINE
  5
B3
330
76
100
AcDbEntity
  8
APS_GEOMETRY
100
AcDbLine
 10
853.310386
 20
1731.904108
 30
0.0
 11
852.9302220000001
 21
1733.94379
 31
0.0
  0
LINE
  5
B4
330
76
100
AcDbEntity
  8
APS_GEOMETRY
100
AcDbLine
 10
852.9302220000001
 20
1733.94379
 30
0.0
 11
852.5726380000001
 21
1735.98667
 31
0.0
  0
LINE
  5
B5
330
76
100
AcDbEntity
  8
APS_GEOMETRY
100
AcDbLine
 10
852.5726380000001
 20
1735.98667
 30
0.0
 11
852.2377279999998
 21
1738.032369
 31
0.0
  0
LINE
  5
B6
330
76
100
AcDbEntity
  8
APS_GEOMETRY
100
AcDbLine
 10
852.2377279999998
 20
1738.032369
 30
0.0
 11
851.9255880000001
 21
1740.080507
 31
0.0
  0
LINE
  5
B7
330
76
100
AcDbEntity
  8
APS_GEOMETRY
100
AcDbLine
 10
851.9255880000001
 20
1740.080507
 30
0.0
 11
851.636311
 21
1742.130707
 31
0.0
  0
LINE
  5
B8
330
76
100
AcDbEntity
  8
APS_GEOMETRY
100
AcDbLine
 10
851.636311
 20
1742.130707
 30
0.0
 11
851.369992
 21
1744.182588
 31
0.0
  0
LINE
  5
B9
330
76
100
AcDbEntity
  8
APS_GEOMETRY
100
AcDbLine
 10
851.369992
 20
1744.182588
 30
0.0
 11
851.1267249999999
 21
1746.235771
 31
0.0
  0
LINE
  5
BA
330
76
100
AcDbEntity
  8
APS_GEOMETRY
100
AcDbLine
 10
851.1267249999999
 20
1746.235771
 30
0.0
 11
850.9066050000001
 21
1748.289878
 31
0.0
  0
LINE
  5
BB
330
76
100
AcDbEntity
  8
APS_GEOMETRY
100
AcDbLine
 10
850.9066050000001
 20
1748.289878
 30
0.0
 11
850.7097369999998
 21
1750.344593
 31
0.0
  0
LINE
  5
BC
330
76
100
AcDbEntity
  8
APS_GEOMETRY
100
AcDbLine
 10
850.7097369999998
 20
1750.344593
 30
0.0
 11
850.536239
 21
1752.399734
 31
0.0
  0
LINE
  5
BD
330
76
100
AcDbEntity
  8
APS_GEOMETRY
100
AcDbLine
 10
850.536239
 20
1752.399734
 30
0.0
 11
850.386199
 21
1754.454996
 31
0.0
  0
LINE
  5
BE
330
76
100
AcDbEntity
  8
APS_GEOMETRY
100
AcDbLine
 10
850.386199
 20
1754.454996
 30
0.0
 11
850.2597019999999
 21
1756.510065
 31
0.0
  0
LINE
  5
BF
330
76
100
AcDbEntity
  8
APS_GEOMETRY
100
AcDbLine
 10
850.2597019999999
 20
1756.510065
 30
0.0
 11
850.1568309999999
 21
1758.564628
 31
0.0
  0
LINE
  5
C0
330
76
100
AcDbEntity
  8
APS_GEOMETRY
100
AcDbLine
 10
850.1568309999999
 20
1758.564628
 30
0.0
 11
850.0776710000002
 21
1760.618369
 31
0.0
  0
LINE
  5
C1
330
76
100
AcDbEntity
  8
APS_GEOMETRY
100
AcDbLine
 10
850.0776710000002
 20
1760.618369
 30
0.0
 11
850.0223079999999
 21
1762.670976
 31
0.0
  0
LINE
  5
C2
330
76
100
AcDbEntity
  8
APS_GEOMETRY
100
AcDbLine
 10
850.0223079999999
 20
1762.670976
 30
0.0
 11
849.9908259999999
 21
1764.722135
 31
0.0
  0
LINE
  5
C3
330
76
100
AcDbEntity
  8
APS_GEOMETRY
100
AcDbLine
 10
849.9908259999999
 20
1764.722135
 30
0.0
 11
849.98331
 21
1766.771532
 31
0.0
  0
LINE
  5
C4
330
76
100
AcDbEntity
  8
APS_GEOMETRY
100
AcDbLine
 10
849.98331
 20
1766.771532
 30
0.0
 11
849.9998439999998
 21
1768.818853
 31
0.0
  0
LINE
  5
C5
330
76
100
AcDbEntity
  8
APS_GEOMETRY
100
AcDbLine
 10
849.9998439999998
 20
1768.818853
 30
0.0
 11
850.0405139999999
 21
1770.863785
 31
0.0
  0
LINE
  5
C6
330
76
100
AcDbEntity
  8
APS_GEOMETRY
100
AcDbLine
 10
850.0405139999999
 20
1770.863785
 30
0.0
 11
850.1054029999998
 21
1772.906013
 31
0.0
  0
LINE
  5
C7
330
76
100
AcDbEntity
  8
APS_GEOMETRY
100
AcDbLine
 10
850.1054029999998
 20
1772.906013
 30
0.0
 11
850.194598
 21
1774.945224
 31
0.0
  0
LINE
  5
C8
330
76
100
AcDbEntity
  8
APS_GEOMETRY
100
AcDbLine
 10
850.194598
 20
1774.945224
 30
0.0
 11
850.308182
 21
1776.981104
 31
0.0
  0
LINE
  5
C9
330
76
100
AcDbEntity
  8
APS_GEOMETRY
100
AcDbLine
 10
850.308182
 20
1776.981104
 30
0.0
 11
850.4462399999999
 21
1779.013339
 31
0.0
  0
LINE
  5
CA
330
76
100
AcDbEntity
  8
APS_GEOMETRY
100
AcDbLine
 10
850.4462399999999
 20
1779.013339
 30
0.0
 11
850.6088570000001
 21
1781.041615
 31
0.0
  0
LINE
  5
CB
330
76
100
AcDbEntity
  8
APS_GEOMETRY
100
AcDbLine
 10
850.6088570000001
 20
1781.041615
 30
0.0
 11
850.7961339999999
 21
1783.065739
 31
0.0
  0
LINE
  5
CC
330
76
100
AcDbEntity
  8
APS_GEOMETRY
100
AcDbLine
 10
850.7961339999999
 20
1783.065739
 30
0.0
 11
851.008442
 21
1785.089102
 31
0.0
  0
LINE
  5
CD
330
76
100
AcDbEntity
  8
APS_GEOMETRY
100
AcDbLine
 10
851.008442
 20
1785.089102
 30
0.0
 11
851.2453839999999
 21
1787.113491
 31
0.0
  0
LINE
  5
CE
330
76
100
AcDbEntity
  8
APS_GEOMETRY
100
AcDbLine
 10
851.2453839999999
 20
1787.113491
 30
0.0
 11
851.5062609999999
 21
1789.139062
 31
0.0
  0
LINE
  5
CF
330
76
100
AcDbEntity
  8
APS_GEOMETRY
100
AcDbLine
 10
851.5062609999999
 20
1789.139062
 30
0.0
 11
851.790371
 21
1791.165972
 31
0.0
  0
LINE
  5
D0
330
76
100
AcDbEntity
  8
APS_GEOMETRY
100
AcDbLine
 10
851.790371
 20
1791.165972
 30
0.0
 11
852.0970140000001
 21
1793.194375
 31
0.0
  0
LINE
  5
D1
330
76
100
AcDbEntity
  8
APS_GEOMETRY
100
AcDbLine
 10
852.0970140000001
 20
1793.194375
 30
0.0
 11
852.4254890000001
 21
1795.224429
 31
0.0
  0
LINE
  5
D2
330
76
100
AcDbEntity
  8
APS_GEOMETRY
100
AcDbLine
 10
852.4254890000001
 20
1795.224429
 30
0.0
 11
852.775094
 21
1797.256287999999
 31
0.0
  0
LINE
  5
D3
330
76
100
AcDbEntity
  8
APS_GEOMETRY
100
AcDbLine
 10
852.775094
 20
1797.256287999999
 30
0.0
 11
853.14513
 21
1799.290109
 31
0.0
  0
LINE
  5
D4
330
76
100
AcDbEntity
  8
APS_GEOMETRY
100
AcDbLine
 10
853.14513
 20
1799.290109
 30
0.0
 11
853.5348949999999
 21
1801.326049
 31
0.0
  0
LINE
  5
D5
330
76
100
AcDbEntity
  8
APS_GEOMETRY
100
AcDbLine
 10
853.5348949999999
 20
1801.326049
 30
0.0
 11
853.9436890000001
 21
1803.364261
 31
0.0
  0
LINE
  5
D6
330
76
100
AcDbEntity
  8
APS_GEOMETRY
100
AcDbLine
 10
853.9436890000001
 20
1803.364261
 30
0.0
 11
854.3708109999998
 21
1805.404904
 31
0.0
  0
LINE
  5
D7
330
76
100
AcDbEntity
  8
APS_GEOMETRY
100
AcDbLine
 10
854.3708109999998
 20
1805.404904
 30
0.0
 11
854.815559
 21
1807.448132
 31
0.0
  0
LINE
  5
D8
330
76
100
AcDbEntity
  8
APS_GEOMETRY
100
AcDbLine
 10
854.815559
 20
1807.448132
 30
0.0
 11
855.277234
 21
1809.494102
 31
0.0
  0
LINE
  5
D9
330
76
100
AcDbEntity
  8
APS_GEOMETRY
100
AcDbLine
 10
855.277234
 20
1809.494102
 30
0.0
 11
855.7551339999999
 21
1811.54297
 31
0.0
  0
LINE
  5
DA
330
76
100
AcDbEntity
  8
APS_GEOMETRY
100
AcDbLine
 10
855.7551339999999
 20
1811.54297
 30
0.0
 11
856.248553
 21
1813.594858
 31
0.0
  0
LINE
  5
DB
330
76
100
AcDbEntity
  8
APS_GEOMETRY
100
AcDbLine
 10
856.248553
 20
1813.594858
 30
0.0
 11
856.756719
 21
1815.649677
 31
0.0
  0
LINE
  5
DC
330
76
100
AcDbEntity
  8
APS_GEOMETRY
100
AcDbLine
 10
856.756719
 20
1815.649677
 30
0.0
 11
857.278832
 21
1817.707482
 31
0.0
  0
LINE
  5
DD
330
76
100
AcDbEntity
  8
APS_GEOMETRY
100
AcDbLine
 10
857.278832
 20
1817.707482
 30
0.0
 11
857.8140929999999
 21
1819.768368
 31
0.0
  0
LINE
  5
DE
330
76
100
AcDbEntity
  8
APS_GEOMETRY
100
AcDbLine
 10
857.8140929999999
 20
1819.768368
 30
0.0
 11
858.3617059999999
 21
1821.832431
 31
0.0
  0
LINE
  5
DF
330
76
100
AcDbEntity
  8
APS_GEOMETRY
100
AcDbLine
 10
868.9909
 20
1659.582883
 30
0.0
 11
869.8378400000001
 21
1656.920057
 31
0.0
  0
LINE
  5
E0
330
76
100
AcDbEntity
  8
APS_GEOMETRY
100
AcDbLine
 10
869.8378400000001
 20
1656.920057
 30
0.0
 11
871.102808
 21
1653.245256
 31
0.0
  0
LINE
  5
E1
330
76
100
AcDbEntity
  8
APS_GEOMETRY
100
AcDbLine
 10
871.102808
 20
1653.245256
 30
0.0
 11
872.4549129999999
 21
1649.599058999999
 31
0.0
  0
LINE
  5
E2
330
76
100
AcDbEntity
  8
APS_GEOMETRY
100
AcDbLine
 10
872.4549129999999
 20
1649.599058999999
 30
0.0
 11
873.8936380000001
 21
1645.983354
 31
0.0
  0
LINE
  5
E3
330
76
100
AcDbEntity
  8
APS_GEOMETRY
100
AcDbLine
 10
873.8936380000001
 20
1645.983354
 30
0.0
 11
875.4185880000001
 21
1642.400663
 31
0.0
  0
LINE
  5
E4
330
76
100
AcDbEntity
  8
APS_GEOMETRY
100
AcDbLine
 10
875.4185880000001
 20
1642.400663
 30
0.0
 11
877.0295369999999
 21
1638.85439
 31
0.0
  0
LINE
  5
E5
330
76
100
AcDbEntity
  8
APS_GEOMETRY
100
AcDbLine
 10
877.0295369999999
 20
1638.85439
 30
0.0
 11
878.7262710000002
 21
1635.348004
 31
0.0
  0
LINE
  5
E6
330
76
100
AcDbEntity
  8
APS_GEOMETRY
100
AcDbLine
 10
878.7262710000002
 20
1635.348004
 30
0.0
 11
880.5085779999998
 21
1631.884976
 31
0.0
  0
LINE
  5
E7
330
76
100
AcDbEntity
  8
APS_GEOMETRY
100
AcDbLine
 10
880.5085779999998
 20
1631.884976
 30
0.0
 11
882.3762439999999
 21
1628.468774
 31
0.0
  0
LINE
  5
E8
330
76
100
AcDbEntity
  8
APS_GEOMETRY
100
AcDbLine
 10
882.3762439999999
 20
1628.468774
 30
0.0
 11
884.3290539999999
 21
1625.102868
 31
0.0
  0
LINE
  5
E9
330
76
100
AcDbEntity
  8
APS_GEOMETRY
100
AcDbLine
 10
884.3290539999999
 20
1625.102868
 30
0.0
 11
886.3667969999999
 21
1621.790726
 31
0.0
  0
LINE
  5
EA
330
76
100
AcDbEntity
  8
APS_GEOMETRY
100
AcDbLine
 10
886.3667969999999
 20
1621.790726
 30
0.0
 11
888.489258
 21
1618.53582
 31
0.0
  0
LINE
  5
EB
330
76
100
AcDbEntity
  8
APS_GEOMETRY
100
AcDbLine
 10
888.489258
 20
1618.53582
 30
0.0
 11
890.6962250000001
 21
1615.341617
 31
0.0
  0
LINE
  5
EC
330
76
100
AcDbEntity
  8
APS_GEOMETRY
100
AcDbLine
 10
890.6962250000001
 20
1615.341617
 30
0.0
 11
892.9874830000001
 21
1612.211587
 31
0.0
  0
LINE
  5
ED
330
76
100
AcDbEntity
  8
APS_GEOMETRY
100
AcDbLine
 10
892.9874830000001
 20
1612.211587
 30
0.0
 11
895.3628189999999
 21
1609.1492
 31
0.0
  0
LINE
  5
EE
330
76
100
AcDbEntity
  8
APS_GEOMETRY
100
AcDbLine
 10
895.3628189999999
 20
1609.1492
 30
0.0
 11
897.8220199999999
 21
1606.157925
 31
0.0
  0
LINE
  5
EF
330
76
100
AcDbEntity
  8
APS_GEOMETRY
100
AcDbLine
 10
897.8220199999999
 20
1606.157925
 30
0.0
 11
900.364873
 21
1603.241231
 31
0.0
  0
LINE
  5
F0
330
76
100
AcDbEntity
  8
APS_GEOMETRY
100
AcDbLine
 10
900.364873
 20
1603.241231
 30
0.0
 11
902.991163
 21
1600.402588
 31
0.0
  0
LINE
  5
F1
330
76
100
AcDbEntity
  8
APS_GEOMETRY
100
AcDbLine
 10
902.991163
 20
1600.402588
 30
0.0
 11
905.7006560000001
 21
1597.64545
 31
0.0
  0
LINE
  5
F2
330
76
100
AcDbEntity
  8
APS_GEOMETRY
100
AcDbLine
 10
905.7006560000001
 20
1597.64545
 30
0.0
 11
908.4924240000001
 21
1594.97277
 31
0.0
  0
LINE
  5
F3
330
76
100
AcDbEntity
  8
APS_GEOMETRY
100
AcDbLine
 10
908.4924240000001
 20
1594.97277
 30
0.0
 11
911.364726
 21
1592.386918
 31
0.0
  0
LINE
  5
F4
330
76
100
AcDbEntity
  8
APS_GEOMETRY
100
AcDbLine
 10
911.364726
 20
1592.386918
 30
0.0
 11
914.3157760000001
 21
1589.890229
 31
0.0
  0
LINE
  5
F5
330
76
100
AcDbEntity
  8
APS_GEOMETRY
100
AcDbLine
 10
914.3157760000001
 20
1589.890229
 30
0.0
 11
917.3437859999999
 21
1587.485041
 31
0.0
  0
LINE
  5
F6
330
76
100
AcDbEntity
  8
APS_GEOMETRY
100
AcDbLine
 10
917.3437859999999
 20
1587.485041
 30
0.0
 11
904.884294
 21
1590.225626
 31
0.0
  0
LINE
  5
F7
330
76
100
AcDbEntity
  8
APS_GEOMETRY
100
AcDbLine
 10
904.884294
 20
1590.225626
 30
0.0
 11
892.7023439999999
 21
1593.98558
 31
0.0
  0
LINE
  5
F8
330
76
100
AcDbEntity
  8
APS_GEOMETRY
100
AcDbLine
 10
892.7023439999999
 20
1593.98558
 30
0.0
 11
880.839989
 21
1598.738128
 31
0.0
  0
LINE
  5
F9
330
76
100
AcDbEntity
  8
APS_GEOMETRY
100
AcDbLine
 10
880.839989
 20
1598.738128
 30
0.0
 11
869.3375999999998
 21
1604.428817
 31
0.0
  0
LINE
  5
FA
330
76
100
AcDbEntity
  8
APS_GEOMETRY
100
AcDbLine
 10
869.3375999999998
 20
1604.428817
 30
0.0
 11
858.246718
 21
1610.996905
 31
0.0
  0
LINE
  5
FB
330
76
100
AcDbEntity
  8
APS_GEOMETRY
100
AcDbLine
 10
858.246718
 20
1610.996905
 30
0.0
 11
847.6206409999999
 21
1618.378238
 31
0.0
  0
LINE
  5
FC
330
76
100
AcDbEntity
  8
APS_GEOMETRY
100
AcDbLine
 10
847.6206409999999
 20
1618.378238
 30
0.0
 11
837.5126730000001
 21
1626.507976
 31
0.0
  0
LINE
  5
FD
330
76
100
AcDbEntity
  8
APS_GEOMETRY
100
AcDbLine
 10
837.5126730000001
 20
1626.507976
 30
0.0
 11
827.9807659999999
 21
1635.315201
 31
0.0
  0
LINE
  5
FE
330
76
100
AcDbEntity
  8
APS_GEOMETRY
100
AcDbLine
 10
827.9807659999999
 20
1635.315201
 30
0.0
 11
819.0947219999999
 21
1644.734364
 31
0.0
  0
LINE
  5
FF
330
76
100
AcDbEntity
  8
APS_GEOMETRY
100
AcDbLine
 10
819.0947219999999
 20
1644.734364
 30
0.0
 11
810.924533
 21
1654.704691
 31
0.0
  0
LINE
  5
100
330
76
100
AcDbEntity
  8
APS_GEOMETRY
100
AcDbLine
 10
810.924533
 20
1654.704691
 30
0.0
 11
803.53214
 21
1665.176207
 31
0.0
  0
LINE
  5
101
330
76
100
AcDbEntity
  8
APS_GEOMETRY
100
AcDbLine
 10
803.53214
 20
1665.176207
 30
0.0
 11
796.9777769999999
 21
1676.097927
 31
0.0
  0
LINE
  5
102
330
76
100
AcDbEntity
  8
APS_GEOMETRY
100
AcDbLine
 10
796.9777769999999
 20
1676.097927
 30
0.0
 11
791.2295049999999
 21
1687.518029
 31
0.0
  0
ARC
  5
103
330
76
100
AcDbEntity
  8
APS_GEOMETRY
100
AcDbCircle
 10
1025.524874
 20
1654.347957
 30
0.0
 40
236.631726
100
AcDbArc
 50
141.179825
 51
171.941973
  0
LINE
  5
104
330
76
100
AcDbEntity
  8
APS_GEOMETRY
100
AcDbLine
 10
841.1610089999999
 20
1802.687227
 30
0.0
 11
840.0437949999998
 21
1796.392602
 31
0.0
  0
LINE
  5
105
330
76
100
AcDbEntity
  8
APS_GEOMETRY
100
AcDbLine
 10
840.0437949999998
 20
1796.392602
 30
0.0
 11
839.1147140000001
 21
1790.07131
 31
0.0
  0
LINE
  5
106
330
76
100
AcDbEntity
  8
APS_GEOMETRY
100
AcDbLine
 10
839.1147140000001
 20
1790.07131
 30
0.0
 11
838.3950009999999
 21
1783.720341
 31
0.0
  0
LINE
  5
107
330
76
100
AcDbEntity
  8
APS_GEOMETRY
100
AcDbLine
 10
838.3950009999999
 20
1783.720341
 30
0.0
 11
837.9006569999999
 21
1777.339038
 31
0.0
  0
LINE
  5
108
330
76
100
AcDbEntity
  8
APS_GEOMETRY
100
AcDbLine
 10
837.9006569999999
 20
1777.339038
 30
0.0
 11
837.631844
 21
1770.933861
 31
0.0
  0
LINE
  5
109
330
76
100
AcDbEntity
  8
APS_GEOMETRY
100
AcDbLine
 10
837.631844
 20
1770.933861
 30
0.0
 11
837.5857419999999
 21
1764.512609
 31
0.0
  0
LINE
  5
10A
330
76
100
AcDbEntity
  8
APS_GEOMETRY
100
AcDbLine
 10
837.5857419999999
 20
1764.512609
 30
0.0
 11
837.7595320000001
 21
1758.083082
 31
0.0
  0
LINE
  5
10B
330
76
100
AcDbEntity
  8
APS_GEOMETRY
100
AcDbLine
 10
837.7595320000001
 20
1758.083082
 30
0.0
 11
838.150393
 21
1751.653079
 31
0.0
  0
LINE
  5
10C
330
76
100
AcDbEntity
  8
APS_GEOMETRY
100
AcDbLine
 10
838.150393
 20
1751.653079
 30
0.0
 11
838.755506
 21
1745.230401
 31
0.0
  0
LINE
  5
10D
330
76
100
AcDbEntity
  8
APS_GEOMETRY
100
AcDbLine
 10
838.755506
 20
1745.230401
 30
0.0
 11
839.5720499999999
 21
1738.822846
 31
0.0
  0
LINE
  5
10E
330
76
100
AcDbEntity
  8
APS_GEOMETRY
100
AcDbLine
 10
839.5720499999999
 20
1738.822846
 30
0.0
 11
840.5972059999999
 21
1732.438215
 31
0.0
  0
LINE
  5
10F
330
76
100
AcDbEntity
  8
APS_GEOMETRY
100
AcDbLine
 10
840.5972059999999
 20
1732.438215
 30
0.0
 11
841.8281549999999
 21
1726.084308
 31
0.0
  0
LINE
  5
110
330
76
100
AcDbEntity
  8
APS_GEOMETRY
100
AcDbLine
 10
841.8281549999999
 20
1726.084308
 30
0.0
 11
843.262116
 21
1719.768937
 31
0.0
  0
LINE
  5
111
330
76
100
AcDbEntity
  8
APS_GEOMETRY
100
AcDbLine
 10
843.262116
 20
1719.768937
 30
0.0
 11
844.8975279999999
 21
1713.50032
 31
0.0
  0
LINE
  5
112
330
76
100
AcDbEntity
  8
APS_GEOMETRY
100
AcDbLine
 10
844.8975279999999
 20
1713.50032
 30
0.0
 11
846.7342079999999
 21
1707.287136
 31
0.0
  0
LINE
  5
113
330
76
100
AcDbEntity
  8
APS_GEOMETRY
100
AcDbLine
 10
846.7342079999999
 20
1707.287136
 30
0.0
 11
848.77205
 21
1701.138088
 31
0.0
  0
LINE
  5
114
330
76
100
AcDbEntity
  8
APS_GEOMETRY
100
AcDbLine
 10
848.77205
 20
1701.138088
 30
0.0
 11
851.0109470000001
 21
1695.061878
 31
0.0
  0
LINE
  5
115
330
76
100
AcDbEntity
  8
APS_GEOMETRY
100
AcDbLine
 10
851.0109470000001
 20
1695.061878
 30
0.0
 11
853.450793
 21
1689.067209
 31
0.0
  0
LINE
  5
116
330
76
100
AcDbEntity
  8
APS_GEOMETRY
100
AcDbLine
 10
853.450793
 20
1689.067209
 30
0.0
 11
856.091482
 21
1683.162784
 31
0.0
  0
LINE
  5
117
330
76
100
AcDbEntity
  8
APS_GEOMETRY
100
AcDbLine
 10
856.091482
 20
1683.162784
 30
0.0
 11
858.932906
 21
1677.357307
 31
0.0
  0
LINE
  5
118
330
76
100
AcDbEntity
  8
APS_GEOMETRY
100
AcDbLine
 10
858.932906
 20
1677.357307
 30
0.0
 11
861.97496
 21
1671.65948
 31
0.0
  0
LINE
  5
119
330
76
100
AcDbEntity
  8
APS_GEOMETRY
100
AcDbLine
 10
861.97496
 20
1671.65948
 30
0.0
 11
868.9909
 21
1659.582883
 31
0.0
  0
LINE
  5
11A
330
76
100
AcDbEntity
  8
APS_GEOMETRY
100
AcDbLine
 10
942.1020890000001
 20
1572.732925
 30
0.0
 11
936.2836039999999
 21
1572.906482
 31
0.0
  0
LINE
  5
11B
330
76
100
AcDbEntity
  8
APS_GEOMETRY
100
AcDbLine
 10
936.2836039999999
 20
1572.906482
 30
0.0
 11
930.472823
 21
1573.285246
 31
0.0
  0
LINE
  5
11C
330
76
100
AcDbEntity
  8
APS_GEOMETRY
100
AcDbLine
 10
930.472823
 20
1573.285246
 30
0.0
 11
924.6774249999999
 21
1573.867799
 31
0.0
  0
LINE
  5
11D
330
76
100
AcDbEntity
  8
APS_GEOMETRY
100
AcDbLine
 10
924.6774249999999
 20
1573.867799
 30
0.0
 11
918.9050849999999
 21
1574.652722
 31
0.0
  0
LINE
  5
11E
330
76
100
AcDbEntity
  8
APS_GEOMETRY
100
AcDbLine
 10
918.9050849999999
 20
1574.652722
 30
0.0
 11
913.1634830000001
 21
1575.638597
 31
0.0
  0
LINE
  5
11F
330
76
100
AcDbEntity
  8
APS_GEOMETRY
100
AcDbLine
 10
913.1634830000001
 20
1575.638597
 30
0.0
 11
907.4602949999999
 21
1576.824005
 31
0.0
  0
LINE
  5
120
330
76
100
AcDbEntity
  8
APS_GEOMETRY
100
AcDbLine
 10
907.4602949999999
 20
1576.824005
 30
0.0
 11
901.8031980000001
 21
1578.207527
 31
0.0
  0
LINE
  5
121
330
76
100
AcDbEntity
  8
APS_GEOMETRY
100
AcDbLine
 10
901.8031980000001
 20
1578.207527
 30
0.0
 11
896.1998710000001
 21
1579.787745
 31
0.0
  0
LINE
  5
122
330
76
100
AcDbEntity
  8
APS_GEOMETRY
100
AcDbLine
 10
896.1998710000001
 20
1579.787745
 30
0.0
 11
890.657758
 21
1581.56302
 31
0.0
  0
LINE
  5
123
330
76
100
AcDbEntity
  8
APS_GEOMETRY
100
AcDbLine
 10
890.657758
 20
1581.56302
 30
0.0
 11
885.18194
 21
1583.529462
 31
0.0
  0
LINE
  5
124
330
76
100
AcDbEntity
  8
APS_GEOMETRY
100
AcDbLine
 10
885.18194
 20
1583.529462
 30
0.0
 11
879.7761130000001
 21
1585.681867
 31
0.0
  0
LINE
  5
125
330
76
100
AcDbEntity
  8
APS_GEOMETRY
100
AcDbLine
 10
879.7761130000001
 20
1585.681867
 30
0.0
 11
874.4439560000001
 21
1588.01501
 31
0.0
  0
LINE
  5
126
330
76
100
AcDbEntity
  8
APS_GEOMETRY
100
AcDbLine
 10
874.4439560000001
 20
1588.01501
 30
0.0
 11
869.1891469999999
 21
1590.52367
 31
0.0
  0
LINE
  5
127
330
76
100
AcDbEntity
  8
APS_GEOMETRY
100
AcDbLine
 10
869.1891469999999
 20
1590.52367
 30
0.0
 11
864.015363
 21
1593.202623
 31
0.0
  0
LINE
  5
128
330
76
100
AcDbEntity
  8
APS_GEOMETRY
100
AcDbLine
 10
864.015363
 20
1593.202623
 30
0.0
 11
858.926285
 21
1596.046647
 31
0.0
  0
LINE
  5
129
330
76
100
AcDbEntity
  8
APS_GEOMETRY
100
AcDbLine
 10
858.926285
 20
1596.046647
 30
0.0
 11
853.9255910000001
 21
1599.05052
 31
0.0
  0
LINE
  5
12A
330
76
100
AcDbEntity
  8
APS_GEOMETRY
100
AcDbLine
 10
853.9255910000001
 20
1599.05052
 30
0.0
 11
849.0169579999999
 21
1602.209019
 31
0.0
  0
LINE
  5
12B
330
76
100
AcDbEntity
  8
APS_GEOMETRY
100
AcDbLine
 10
849.0169579999999
 20
1602.209019
 30
0.0
 11
844.2040659999999
 21
1605.51692
 31
0.0
  0
LINE
  5
12C
330
76
100
AcDbEntity
  8
APS_GEOMETRY
100
AcDbLine
 10
844.2040659999999
 20
1605.51692
 30
0.0
 11
839.490593
 21
1608.969002
 31
0.0
  0
LINE
  5
12D
330
76
100
AcDbEntity
  8
APS_GEOMETRY
100
AcDbLine
 10
839.490593
 20
1608.969002
 30
0.0
 11
834.880217
 21
1612.560042
 31
0.0
  0
LINE
  5
12E
330
76
100
AcDbEntity
  8
APS_GEOMETRY
100
AcDbLine
 10
834.880217
 20
1612.560042
 30
0.0
 11
830.3766169999999
 21
1616.284816
 31
0.0
  0
LINE
  5
12F
330
76
100
AcDbEntity
  8
APS_GEOMETRY
100
AcDbLine
 10
830.3766169999999
 20
1616.284816
 30
0.0
 11
825.983472
 21
1620.138103
 31
0.0
  0
LINE
  5
130
330
76
100
AcDbEntity
  8
APS_GEOMETRY
100
AcDbLine
 10
825.983472
 20
1620.138103
 30
0.0
 11
821.704517
 21
1624.114755
 31
0.0
  0
LINE
  5
131
330
76
100
AcDbEntity
  8
APS_GEOMETRY
100
AcDbLine
 10
821.704517
 20
1624.114755
 30
0.0
 11
817.544202
 21
1628.21057
 31
0.0
  0
LINE
  5
132
330
76
100
AcDbEntity
  8
APS_GEOMETRY
100
AcDbLine
 10
817.544202
 20
1628.21057
 30
0.0
 11
813.507466
 21
1632.421986
 31
0.0
  0
LINE
  5
133
330
76
100
AcDbEntity
  8
APS_GEOMETRY
100
AcDbLine
 10
813.507466
 20
1632.421986
 30
0.0
 11
809.5992519999999
 21
1636.745454
 31
0.0
  0
LINE
  5
134
330
76
100
AcDbEntity
  8
APS_GEOMETRY
100
AcDbLine
 10
809.5992519999999
 20
1636.745454
 30
0.0
 11
805.8245059999999
 21
1641.177425
 31
0.0
  0
LINE
  5
135
330
76
100
AcDbEntity
  8
APS_GEOMETRY
100
AcDbLine
 10
805.8245059999999
 20
1641.177425
 30
0.0
 11
802.1881739999999
 21
1645.714349
 31
0.0
  0
LINE
  5
136
330
76
100
AcDbEntity
  8
APS_GEOMETRY
100
AcDbLine
 10
802.1881739999999
 20
1645.714349
 30
0.0
 11
798.695201
 21
1650.352678
 31
0.0
  0
LINE
  5
137
330
76
100
AcDbEntity
  8
APS_GEOMETRY
100
AcDbLine
 10
798.695201
 20
1650.352678
 30
0.0
 11
795.350533
 21
1655.088861
 31
0.0
  0
LINE
  5
138
330
76
100
AcDbEntity
  8
APS_GEOMETRY
100
AcDbLine
 10
795.350533
 20
1655.088861
 30
0.0
 11
792.159115
 21
1659.91935
 31
0.0
  0
LINE
  5
139
330
76
100
AcDbEntity
  8
APS_GEOMETRY
100
AcDbLine
 10
792.159115
 20
1659.91935
 30
0.0
 11
789.125893
 21
1664.840595
 31
0.0
  0
ARC
  5
13A
330
76
100
AcDbEntity
  8
APS_GEOMETRY
100
AcDbCircle
 10
1025.524874
 20
1654.347957
 30
0.0
 40
236.631726
100
AcDbArc
 50
177.458578
 51
177.646267
  0
LINE
  5
13B
330
76
100
AcDbEntity
  8
APS_GEOMETRY
100
AcDbLine
 10
789.0927889999999
 20
1664.066145
 30
0.0
 11
790.596454
 21
1658.027698
 31
0.0
  0
LINE
  5
13C
330
76
100
AcDbEntity
  8
APS_GEOMETRY
100
AcDbLine
 10
790.596454
 20
1658.027698
 30
0.0
 11
792.1178
 21
1651.996616
 31
0.0
  0
LINE
  5
13D
330
76
100
AcDbEntity
  8
APS_GEOMETRY
100
AcDbLine
 10
792.1178
 20
1651.996616
 30
0.0
 11
793.6745099999999
 21
1645.980263
 31
0.0
  0
LINE
  5
13E
330
76
100
AcDbEntity
  8
APS_GEOMETRY
100
AcDbLine
 10
793.6745099999999
 20
1645.980263
 30
0.0
 11
795.284265
 21
1639.986003
 31
0.0
  0
LINE
  5
13F
330
76
100
AcDbEntity
  8
APS_GEOMETRY
100
AcDbLine
 10
795.284265
 20
1639.986003
 30
0.0
 11
796.9647469999999
 21
1634.021202
 31
0.0
  0
LINE
  5
140
330
76
100
AcDbEntity
  8
APS_GEOMETRY
100
AcDbLine
 10
796.9647469999999
 20
1634.021202
 30
0.0
 11
798.733637
 21
1628.093223
 31
0.0
  0
LINE
  5
141
330
76
100
AcDbEntity
  8
APS_GEOMETRY
100
AcDbLine
 10
798.733637
 20
1628.093223
 30
0.0
 11
800.608618
 21
1622.209431
 31
0.0
  0
LINE
  5
142
330
76
100
AcDbEntity
  8
APS_GEOMETRY
100
AcDbLine
 10
800.608618
 20
1622.209431
 30
0.0
 11
802.607371
 21
1616.37719
 31
0.0
  0
LINE
  5
143
330
76
100
AcDbEntity
  8
APS_GEOMETRY
100
AcDbLine
 10
802.607371
 20
1616.37719
 30
0.0
 11
804.7475779999999
 21
1610.603865
 31
0.0
  0
LINE
  5
144
330
76
100
AcDbEntity
  8
APS_GEOMETRY
100
AcDbLine
 10
804.7475779999999
 20
1610.603865
 30
0.0
 11
807.0469199999999
 21
1604.896821
 31
0.0
  0
LINE
  5
145
330
76
100
AcDbEntity
  8
APS_GEOMETRY
100
AcDbLine
 10
807.0469199999999
 20
1604.896821
 30
0.0
 11
809.523079
 21
1599.263422
 31
0.0
  0
LINE
  5
146
330
76
100
AcDbEntity
  8
APS_GEOMETRY
100
AcDbLine
 10
809.523079
 20
1599.263422
 30
0.0
 11
812.1915730000001
 21
1593.710786
 31
0.0
  0
LINE
  5
147
330
76
100
AcDbEntity
  8
APS_GEOMETRY
100
AcDbLine
 10
812.1915730000001
 20
1593.710786
 30
0.0
 11
815.052996
 21
1588.244336
 31
0.0
  0
LINE
  5
148
330
76
100
AcDbEntity
  8
APS_GEOMETRY
100
AcDbLine
 10
815.052996
 20
1588.244336
 30
0.0
 11
818.1016509999999
 21
1582.868779
 31
0.0
  0
LINE
  5
149
330
76
100
AcDbEntity
  8
APS_GEOMETRY
100
AcDbLine
 10
818.1016509999999
 20
1582.868779
 30
0.0
 11
821.331819
 21
1577.588821
 31
0.0
  0
LINE
  5
14A
330
76
100
AcDbEntity
  8
APS_GEOMETRY
100
AcDbLine
 10
821.331819
 20
1577.588821
 30
0.0
 11
824.7377809999999
 21
1572.409166
 31
0.0
  0
LINE
  5
14B
330
76
100
AcDbEntity
  8
APS_GEOMETRY
100
AcDbLine
 10
824.7377809999999
 20
1572.409166
 30
0.0
 11
828.3138169999999
 21
1567.334519
 31
0.0
  0
LINE
  5
14C
330
76
100
AcDbEntity
  8
APS_GEOMETRY
100
AcDbLine
 10
828.3138169999999
 20
1567.334519
 30
0.0
 11
832.05421
 21
1562.369585
 31
0.0
  0
LINE
  5
14D
330
76
100
AcDbEntity
  8
APS_GEOMETRY
100
AcDbLine
 10
832.05421
 20
1562.369585
 30
0.0
 11
835.9532379999999
 21
1557.519069
 31
0.0
  0
LINE
  5
14E
330
76
100
AcDbEntity
  8
APS_GEOMETRY
100
AcDbLine
 10
835.9532379999999
 20
1557.519069
 30
0.0
 11
840.005185
 21
1552.787676
 31
0.0
  0
LINE
  5
14F
330
76
100
AcDbEntity
  8
APS_GEOMETRY
100
AcDbLine
 10
840.005185
 20
1552.787676
 30
0.0
 11
844.2043299999999
 21
1548.18011
 31
0.0
  0
LINE
  5
150
330
76
100
AcDbEntity
  8
APS_GEOMETRY
100
AcDbLine
 10
844.2043299999999
 20
1548.18011
 30
0.0
 11
848.545101
 21
1543.701247
 31
0.0
  0
LINE
  5
151
330
76
100
AcDbEntity
  8
APS_GEOMETRY
100
AcDbLine
 10
848.545101
 20
1543.701247
 30
0.0
 11
853.022984
 21
1539.357182
 31
0.0
  0
ARC
  5
152
330
76
100
AcDbEntity
  8
APS_GEOMETRY
100
AcDbCircle
 10
884.8194880000001
 20
1720.235628
 30
0.0
 40
183.651926
100
AcDbArc
 50
260.029878
 51
268.757619
  0
ARC
  5
153
330
76
100
AcDbEntity
  8
APS_GEOMETRY
100
AcDbCircle
 10
884.9348240000001
 20
1725.553842
 30
0.0
 40
188.971391
100
AcDbArc
 50
268.757619
 51
277.328349
  0
ARC
  5
154
330
76
100
AcDbEntity
  8
APS_GEOMETRY
100
AcDbCircle
 10
886.277558
 20
1715.113159
 30
0.0
 40
178.44472
100
AcDbArc
 50
277.328349
 51
286.422724
  0
ARC
  5
155
330
76
100
AcDbEntity
  8
APS_GEOMETRY
100
AcDbCircle
 10
891.324932
 20
1697.988731
 30
0.0
 40
160.591932
100
AcDbArc
 50
286.422724
 51
296.226432
  0
ARC
  5
156
330
76
100
AcDbEntity
  8
APS_GEOMETRY
100
AcDbCircle
 10
869.399443
 20
1742.495367
 30
0.0
 40
210.206121
100
AcDbArc
 50
296.226432
 51
299.18797
  0
ARC
  5
157
330
76
100
AcDbEntity
  8
APS_GEOMETRY
100
AcDbCircle
 10
962.3055050000001
 20
1576.177554
 30
0.0
 40
19.698507
100
AcDbArc
 50
299.18797
 51
303.091925
  0
ARC
  5
158
330
76
100
AcDbEntity
  8
APS_GEOMETRY
100
AcDbCircle
 10
-603.8371249999999
 20
3979.375765
 30
0.0
 40
2888.176217
100
AcDbArc
 50
303.091925
 51
303.125456
  0
ARC
  5
159
330
76
100
AcDbEntity
  8
APS_GEOMETRY
100
AcDbCircle
 10
-15.063724
 20
3077.075723
 30
0.0
 40
1810.772169
100
AcDbArc
 50
303.125456
 51
303.167645
  0
ARC
  5
15A
330
76
100
AcDbEntity
  8
APS_GEOMETRY
100
AcDbCircle
 10
194.893396
 20
2755.831837000001
 30
0.0
 40
1427.001891
100
AcDbArc
 50
303.167645
 51
303.220803
  0
ARC
  5
15B
330
76
100
AcDbEntity
  8
APS_GEOMETRY
100
AcDbCircle
 10
494.119447
 20
2298.928654
 30
0.0
 40
880.8363949999998
100
AcDbArc
 50
303.220803
 51
303.287818
  0
ARC
  5
15C
330
76
100
AcDbEntity
  8
APS_GEOMETRY
100
AcDbCircle
 10
598.89732
 20
2139.345654
 30
0.0
 40
689.9303019999999
100
AcDbArc
 50
303.287818
 51
303.372215
  0
ARC
  5
15D
330
76
100
AcDbEntity
  8
APS_GEOMETRY
100
AcDbCircle
 10
745.13372
 20
1917.332318
 30
0.0
 40
424.08259
100
AcDbArc
 50
303.372215
 51
303.4780990000001
  0
ARC
  5
15E
330
76
100
AcDbEntity
  8
APS_GEOMETRY
100
AcDbCircle
 10
795.12802
 20
1841.736405
 30
0.0
 40
333.4505200000001
100
AcDbArc
 50
303.4780990000001
 51
303.609842
  0
ARC
  5
15F
330
76
100
AcDbEntity
  8
APS_GEOMETRY
100
AcDbCircle
 10
862.9548990000001
 20
1739.686778
 30
0.0
 40
210.916394
100
AcDbArc
 50
303.609842
 51
303.77128
  0
ARC
  5
160
330
76
100
AcDbEntity
  8
APS_GEOMETRY
100
AcDbCircle
 10
885.2961720000001
 20
1706.277568
 30
0.0
 40
170.725503
100
AcDbArc
 50
303.77128
 51
303.964115
  0
ARC
  5
161
330
76
100
AcDbEntity
  8
APS_GEOMETRY
100
AcDbCircle
 10
913.730497
 20
1664.064943
 30
0.0
 40
119.829367
100
AcDbArc
 50
303.964115
 51
304.185316
  0
ARC
  5
162
330
76
100
AcDbEntity
  8
APS_GEOMETRY
100
AcDbCircle
 10
921.90065
 20
1652.036297
 30
0.0
 40
105.2884
100
AcDbArc
 50
304.185316
 51
304.423943
  0
ARC
  5
163
330
76
100
AcDbEntity
  8
APS_GEOMETRY
100
AcDbCircle
 10
927.689196
 20
1643.589913
 30
0.0
 40
95.048837
100
AcDbArc
 50
304.423943
 51
304.659129
  0
ARC
  5
164
330
76
100
AcDbEntity
  8
APS_GEOMETRY
100
AcDbCircle
 10
925.6009399999999
 20
1646.610338
 30
0.0
 40
98.720864
100
AcDbArc
 50
304.659129
 51
304.766589
  0
ARC
  5
165
330
76
100
AcDbEntity
  8
APS_GEOMETRY
100
AcDbCircle
 10
918.0017710000001
 20
1657.557726
 30
0.0
 40
112.047254
100
AcDbArc
 50
304.766589
 51
304.8621970000001
  0
ARC
  5
166
330
76
100
AcDbEntity
  8
APS_GEOMETRY
100
AcDbCircle
 10
912.6436779999998
 20
1665.249183
 30
0.0
 40
121.421029
100
AcDbArc
 50
304.8621970000001
 51
304.904449
  0
ARC
  5
167
330
76
100
AcDbEntity
  8
APS_GEOMETRY
100
AcDbCircle
 10
902.5999949999999
 20
1679.644083
 30
0.0
 40
138.973486
100
AcDbArc
 50
304.904449
 51
304.942489
  0
LINE
  5
168
330
76
100
AcDbEntity
  8
APS_GEOMETRY
100
AcDbLine
 10
982.1976039999999
 20
1565.723714
 30
0.0
 11
978.378297
 21
1565.502011
 31
0.0
  0
ARC
  5
169
330
76
100
AcDbEntity
  8
APS_GEOMETRY
100
AcDbCircle
 10
975.392659
 20
1640.878514
 30
0.0
 40
75.435609
100
AcDbArc
 50
258.364532
 51
272.268281
  0
ARC
  5
16A
330
76
100
AcDbEntity
  8
APS_GEOMETRY
100
AcDbCircle
 10
978.533574
 20
1656.131918
 30
0.0
 40
91.00903800000001
100
AcDbArc
 50
246.402676
 51
258.364532
  0
LINE
  5
16B
330
76
100
AcDbEntity
  8
APS_GEOMETRY
100
AcDbLine
 10
1011.347074
 20
1573.989349
 30
0.0
 11
1006.521772
 21
1569.371426
 31
0.0
  0
LINE
  5
16C
330
76
100
AcDbEntity
  8
APS_GEOMETRY
100
AcDbLine
 10
1006.521772
 20
1569.371426
 30
0.0
 11
1001.510201
 21
1564.951575
 31
0.0
  0
LINE
  5
16D
330
76
100
AcDbEntity
  8
APS_GEOMETRY
100
AcDbLine
 10
1001.510201
 20
1564.951575
 30
0.0
 11
996.3222439999999
 21
1560.736254
 31
0.0
  0
LINE
  5
16E
330
76
100
AcDbEntity
  8
APS_GEOMETRY
100
AcDbLine
 10
996.3222439999999
 20
1560.736254
 30
0.0
 11
990.9677830000001
 21
1556.731924
 31
0.0
  0
LINE
  5
16F
330
76
100
AcDbEntity
  8
APS_GEOMETRY
100
AcDbLine
 10
990.9677830000001
 20
1556.731924
 30
0.0
 11
985.4567019999999
 21
1552.945044
 31
0.0
  0
LINE
  5
170
330
76
100
AcDbEntity
  8
APS_GEOMETRY
100
AcDbLine
 10
985.4567019999999
 20
1552.945044
 30
0.0
 11
979.798884
 21
1549.382074
 31
0.0
  0
LINE
  5
171
330
76
100
AcDbEntity
  8
APS_GEOMETRY
100
AcDbLine
 10
979.798884
 20
1549.382074
 30
0.0
 11
974.004212
 21
1546.049473
 31
0.0
  0
LINE
  5
172
330
76
100
AcDbEntity
  8
APS_GEOMETRY
100
AcDbLine
 10
974.004212
 20
1546.049473
 30
0.0
 11
968.0825699999999
 21
1542.953701
 31
0.0
  0
LINE
  5
173
330
76
100
AcDbEntity
  8
APS_GEOMETRY
100
AcDbLine
 10
968.0825699999999
 20
1542.953701
 30
0.0
 11
962.043785
 21
1540.100098
 31
0.0
  0
LINE
  5
174
330
76
100
AcDbEntity
  8
APS_GEOMETRY
100
AcDbLine
 10
962.043785
 20
1540.100098
 30
0.0
 11
955.897417
 21
1537.488487
 31
0.0
  0
LINE
  5
175
330
76
100
AcDbEntity
  8
APS_GEOMETRY
100
AcDbLine
 10
955.897417
 20
1537.488487
 30
0.0
 11
949.6529429999998
 21
1535.116991
 31
0.0
  0
LINE
  5
176
330
76
100
AcDbEntity
  8
APS_GEOMETRY
100
AcDbLine
 10
949.6529429999998
 20
1535.116991
 30
0.0
 11
943.3198390000001
 21
1532.983732
 31
0.0
  0
LINE
  5
177
330
76
100
AcDbEntity
  8
APS_GEOMETRY
100
AcDbLine
 10
943.3198390000001
 20
1532.983732
 30
0.0
 11
936.907581
 21
1531.086834
 31
0.0
  0
LINE
  5
178
330
76
100
AcDbEntity
  8
APS_GEOMETRY
100
AcDbLine
 10
936.907581
 20
1531.086834
 30
0.0
 11
930.4256460000001
 21
1529.424419
 31
0.0
  0
LINE
  5
179
330
76
100
AcDbEntity
  8
APS_GEOMETRY
100
AcDbLine
 10
930.4256460000001
 20
1529.424419
 30
0.0
 11
923.8835100000001
 21
1527.994611
 31
0.0
  0
LINE
  5
17A
330
76
100
AcDbEntity
  8
APS_GEOMETRY
100
AcDbLine
 10
923.8835100000001
 20
1527.994611
 30
0.0
 11
917.2906499999999
 21
1526.795531
 31
0.0
  0
LINE
  5
17B
330
76
100
AcDbEntity
  8
APS_GEOMETRY
100
AcDbLine
 10
917.2906499999999
 20
1526.795531
 30
0.0
 11
910.6565429999999
 21
1525.825303
 31
0.0
  0
LINE
  5
17C
330
76
100
AcDbEntity
  8
APS_GEOMETRY
100
AcDbLine
 10
910.6565429999999
 20
1525.825303
 30
0.0
 11
903.9906639999999
 21
1525.08205
 31
0.0
  0
LINE
  5
17D
330
76
100
AcDbEntity
  8
APS_GEOMETRY
100
AcDbLine
 10
903.9906639999999
 20
1525.08205
 30
0.0
 11
897.30249
 21
1524.563895
 31
0.0
  0
LINE
  5
17E
330
76
100
AcDbEntity
  8
APS_GEOMETRY
100
AcDbLine
 10
897.30249
 20
1524.563895
 30
0.0
 11
890.601498
 21
1524.26896
 31
0.0
  0
LINE
  5
17F
330
76
100
AcDbEntity
  8
APS_GEOMETRY
100
AcDbLine
 10
890.601498
 20
1524.26896
 30
0.0
 11
883.8971439999999
 21
1524.195537
 31
0.0
  0
LINE
  5
180
330
76
100
AcDbEntity
  8
APS_GEOMETRY
100
AcDbLine
 10
883.8971439999999
 20
1524.195537
 30
0.0
 11
877.1986769999999
 21
1524.343757
 31
0.0
  0
LINE
  5
181
330
76
100
AcDbEntity
  8
APS_GEOMETRY
100
AcDbLine
 10
877.1986769999999
 20
1524.343757
 30
0.0
 11
870.515214
 21
1524.71488
 31
0.0
  0
ARC
  5
182
330
76
100
AcDbEntity
  8
APS_GEOMETRY
100
AcDbCircle
 10
983.5354369999999
 20
1677.085718
 30
0.0
 40
189.711474
100
AcDbArc
 50
233.434029
 51
235.3888770000001
  0
ARC
  5
183
330
76
100
AcDbEntity
  8
APS_GEOMETRY
100
AcDbCircle
 10
980.9954359999998
 20
1673.405307
 30
0.0
 40
185.239669
100
AcDbArc
 50
235.3888770000001
 51
237.3776540000001
  0
ARC
  5
184
330
76
100
AcDbEntity
  8
APS_GEOMETRY
100
AcDbCircle
 10
979.7432259999999
 20
1671.448962
 30
0.0
 40
182.916888
100
AcDbArc
 50
237.3776540000001
 51
239.402882
  0
ARC
  5
185
330
76
100
AcDbEntity
  8
APS_GEOMETRY
100
AcDbCircle
 10
977.3446730000001
 20
1667.392764
 30
0.0
 40
178.204585
100
AcDbArc
 50
239.402882
 51
241.46683
  0
ARC
  5
186
330
76
100
AcDbEntity
  8
APS_GEOMETRY
100
AcDbCircle
 10
976.2106499999999
 20
1665.307034
 30
0.0
 40
175.830501
100
AcDbArc
 50
241.46683
 51
243.571468
  0
ARC
  5
187
330
76
100
AcDbEntity
  8
APS_GEOMETRY
100
AcDbCircle
 10
974.129544
 20
1661.11991
 30
0.0
 40
171.154711
100
AcDbArc
 50
243.571468
 51
245.7184189999999
  0
ARC
  5
188
330
76
100
AcDbEntity
  8
APS_GEOMETRY
100
AcDbCircle
 10
973.0993509999999
 20
1658.836327
 30
0.0
 40
168.649506
100
AcDbArc
 50
245.7184189999999
 51
247.9089029999999
  0
ARC
  5
189
330
76
100
AcDbEntity
  8
APS_GEOMETRY
100
AcDbCircle
 10
971.8721509999999
 20
1655.81275
 30
0.0
 40
165.386373
100
AcDbArc
 50
247.9089029999999
 51
250.134434
  0
ARC
  5
18A
330
76
100
AcDbEntity
  8
APS_GEOMETRY
100
AcDbCircle
 10
972.121508
 20
1656.502889
 30
0.0
 40
166.120178
100
AcDbArc
 50
250.134434
 51
252.35425
  0
ARC
  5
18B
330
76
100
AcDbEntity
  8
APS_GEOMETRY
100
AcDbCircle
 10
972.3536000000001
 20
1657.232514
 30
0.0
 40
166.885828
100
AcDbArc
 50
252.35425
 51
254.567113
  0
ARC
  5
18C
330
76
100
AcDbEntity
  8
APS_GEOMETRY
100
AcDbCircle
 10
972.3945909999999
 20
1657.380997
 30
0.0
 40
167.039865
100
AcDbArc
 50
254.567113
 51
256.7772950000001
  0
ARC
  5
18D
330
76
100
AcDbEntity
  8
APS_GEOMETRY
100
AcDbCircle
 10
972.3584159999999
 20
1657.22704
 30
0.0
 40
166.881715
100
AcDbArc
 50
256.7772950000001
 51
258.989083
  0
ARC
  5
18E
330
76
100
AcDbEntity
  8
APS_GEOMETRY
100
AcDbCircle
 10
972.298993
 20
1656.921642
 30
0.0
 40
166.57059
100
AcDbArc
 50
258.989083
 51
261.206751
  0
ARC
  5
18F
330
76
100
AcDbEntity
  8
APS_GEOMETRY
100
AcDbCircle
 10
972.136045
 20
1655.868241
 30
0.0
 40
165.50466
100
AcDbArc
 50
261.206751
 51
263.434531
  0
ARC
  5
190
330
76
100
AcDbEntity
  8
APS_GEOMETRY
100
AcDbCircle
 10
972.050452
 20
1655.124561
 30
0.0
 40
164.756071
100
AcDbArc
 50
263.434531
 51
265.676582
  0
ARC
  5
191
330
76
100
AcDbEntity
  8
APS_GEOMETRY
100
AcDbCircle
 10
971.908675
 20
1653.249241
 30
0.0
 40
162.8754
100
AcDbArc
 50
265.676582
 51
267.936958
  0
ARC
  5
192
330
76
100
AcDbEntity
  8
APS_GEOMETRY
100
AcDbCircle
 10
971.8631539999998
 20
1651.985547
 30
0.0
 40
161.610886
100
AcDbArc
 50
267.936958
 51
270.219571
  0
ARC
  5
193
330
76
100
AcDbEntity
  8
APS_GEOMETRY
100
AcDbCircle
 10
971.8701130000001
 20
1650.169651
 30
0.0
 40
159.794977
100
AcDbArc
 50
270.219571
 51
272.521887
  0
ARC
  5
194
330
76
100
AcDbEntity
  8
APS_GEOMETRY
100
AcDbCircle
 10
971.8383069999999
 20
1650.891793
 30
0.0
 40
160.517819
100
AcDbArc
 50
272.521887
 51
274.813164
  0
ARC
  5
195
330
76
100
AcDbEntity
  8
APS_GEOMETRY
100
AcDbCircle
 10
971.729975
 20
1652.178347
 30
0.0
 40
161.808926
100
AcDbArc
 50
274.813164
 51
277.090404
  0
ARC
  5
196
330
76
100
AcDbEntity
  8
APS_GEOMETRY
100
AcDbCircle
 10
871.6182319999999
 20
1621.322726
 30
0.0
 40
176.766911
100
AcDbArc
 50
312.792018
 51
314.805424
  0
ARC
  5
197
330
76
100
AcDbEntity
  8
APS_GEOMETRY
100
AcDbCircle
 10
874.9617720000001
 20
1617.956399
 30
0.0
 40
172.022291
100
AcDbArc
 50
314.805424
 51
316.856199
  0
ARC
  5
198
330
76
100
AcDbEntity
  8
APS_GEOMETRY
100
AcDbCircle
 10
876.818167
 20
1616.216551
 30
0.0
 40
169.478028
100
AcDbArc
 50
316.856199
 51
318.947914
  0
ARC
  5
199
330
76
100
AcDbEntity
  8
APS_GEOMETRY
100
AcDbCircle
 10
880.4226210000001
 20
1613.07749
 30
0.0
 40
164.698301
100
AcDbArc
 50
318.947914
 51
321.080249
  0
ARC
  5
19A
330
76
100
AcDbEntity
  8
APS_GEOMETRY
100
AcDbCircle
 10
882.268683
 20
1611.586855
 30
0.0
 40
162.325552
100
AcDbArc
 50
321.080249
 51
323.255222
  0
ARC
  5
19B
330
76
100
AcDbEntity
  8
APS_GEOMETRY
100
AcDbCircle
 10
886.0915999999999
 20
1608.73269
 30
0.0
 40
157.554708
100
AcDbArc
 50
323.255222
 51
325.475338
  0
ARC
  5
19C
330
76
100
AcDbEntity
  8
APS_GEOMETRY
100
AcDbCircle
 10
888.421568
 20
1607.12987
 30
0.0
 40
154.726673
100
AcDbArc
 50
325.475338
 51
327.745232
  0
ARC
  5
19D
330
76
100
AcDbEntity
  8
APS_GEOMETRY
100
AcDbCircle
 10
889.629052
 20
1606.367864
 30
0.0
 40
153.298852
100
AcDbArc
 50
327.745232
 51
330.028007
  0
ARC
  5
19E
330
76
100
AcDbEntity
  8
APS_GEOMETRY
100
AcDbCircle
 10
888.9910809999999
 20
1606.735781
 30
0.0
 40
154.03531
100
AcDbArc
 50
330.028007
 51
332.303744
  0
ARC
  5
19F
330
76
100
AcDbEntity
  8
APS_GEOMETRY
100
AcDbCircle
 10
888.553259
 20
1606.965607
 30
0.0
 40
154.529788
100
AcDbArc
 50
332.303744
 51
334.575102
  0
ARC
  5
1A0
330
76
100
AcDbEntity
  8
APS_GEOMETRY
100
AcDbCircle
 10
888.5309730000001
 20
1606.9762
 30
0.0
 40
154.554463
100
AcDbArc
 50
334.575102
 51
336.846347
  0
ARC
  5
1A1
330
76
100
AcDbEntity
  8
APS_GEOMETRY
100
AcDbCircle
 10
888.7589590000001
 20
1606.878704
 30
0.0
 40
154.306505
100
AcDbArc
 50
336.846347
 51
339.119836
  0
ARC
  5
1A2
330
76
100
AcDbEntity
  8
APS_GEOMETRY
100
AcDbCircle
 10
889.143381
 20
1606.73206
 30
0.0
 40
153.895063
100
AcDbArc
 50
339.119836
 51
341.401265
  0
ARC
  5
1A3
330
76
100
AcDbEntity
  8
APS_GEOMETRY
100
AcDbCircle
 10
890.4594429999999
 20
1606.289188
 30
0.0
 40
152.506483
100
AcDbArc
 50
341.401265
 51
343.696359
  0
ARC
  5
1A4
330
76
100
AcDbEntity
  8
APS_GEOMETRY
100
AcDbCircle
 10
891.572664
 20
1605.963583
 30
0.0
 40
151.346622
100
AcDbArc
 50
343.696359
 51
346.011769
  0
ARC
  5
1A5
330
76
100
AcDbEntity
  8
APS_GEOMETRY
100
AcDbCircle
 10
894.238559
 20
1605.299482
 30
0.0
 40
148.599254
100
AcDbArc
 50
346.011769
 51
348.361185
  0
ARC
  5
1A6
330
76
100
AcDbEntity
  8
APS_GEOMETRY
100
AcDbCircle
 10
894.1286970000001
 20
1605.322111
 30
0.0
 40
148.711422
100
AcDbArc
 50
348.361185
 51
350.708715
  0
ARC
  5
1A7
330
76
100
AcDbEntity
  8
APS_GEOMETRY
100
AcDbCircle
 10
894.070241
 20
1605.331675
 30
0.0
 40
148.770656
100
AcDbArc
 50
350.708715
 51
353.054196
  0
ARC
  5
1A8
330
76
100
AcDbEntity
  8
APS_GEOMETRY
100
AcDbCircle
 10
894.0243139999999
 20
1605.33727
 30
0.0
 40
148.816922
100
AcDbArc
 50
353.054196
 51
355.397506
  0
ARC
  5
1A9
330
76
100
AcDbEntity
  8
APS_GEOMETRY
100
AcDbCircle
 10
893.5249909999999
 20
1605.377466
 30
0.0
 40
149.317861
100
AcDbArc
 50
355.397506
 51
357.736926
  0
ARC
  5
1AA
330
76
100
AcDbEntity
  8
APS_GEOMETRY
100
AcDbCircle
 10
1025.524874
 20
1654.347957
 30
0.0
 40
57.5
100
AcDbArc
 50
284.390027
 51
287.406967
  0
ARC
  5
1AB
330
76
100
AcDbEntity
  8
APS_GEOMETRY
100
AcDbCircle
 10
914.613671
 20
1694.638868
 30
0.0
 40
157.761927
100
AcDbArc
 50
321.817115
 51
322.524004
  0
ARC
  5
1AC
330
76
100
AcDbEntity
  8
APS_GEOMETRY
100
AcDbCircle
 10
931.842838
 20
1681.089182
 30
0.0
 40
135.843027
100
AcDbArc
 50
321.027797
 51
321.817115
  0
ARC
  5
1AD
330
76
100
AcDbEntity
  8
APS_GEOMETRY
100
AcDbCircle
 10
938.756075
 20
1675.496504
 30
0.0
 40
126.950845
100
AcDbArc
 50
320.155412
 51
321.027797
  0
ARC
  5
1AE
330
76
100
AcDbEntity
  8
APS_GEOMETRY
100
AcDbCircle
 10
950.1653609999999
 20
1665.975594
 30
0.0
 40
112.090848
100
AcDbArc
 50
319.199431
 51
320.155412
  0
ARC
  5
1AF
330
76
100
AcDbEntity
  8
APS_GEOMETRY
100
AcDbCircle
 10
954.877716
 20
1661.907917
 30
0.0
 40
105.8657139999999
100
AcDbArc
 50
318.15949
 51
319.199431
  0
ARC
  5
1B0
330
76
100
AcDbEntity
  8
APS_GEOMETRY
100
AcDbCircle
 10
962.791499
 20
1654.822103
 30
0.0
 40
95.243251
100
AcDbArc
 50
317.035457
 51
318.15949
  0
ARC
  5
1B1
330
76
100
AcDbEntity
  8
APS_GEOMETRY
100
AcDbCircle
 10
966.1100220000001
 20
1651.731367
 30
0.0
 40
90.70835999999999
100
AcDbArc
 50
315.827495
 51
317.035457
  0
ARC
  5
1B2
330
76
100
AcDbEntity
  8
APS_GEOMETRY
100
AcDbCircle
 10
971.7219250000001
 20
1646.279268
 30
0.0
 40
82.884112
100
AcDbArc
 50
314.536136
 51
315.827495
  0
ARC
  5
1B3
330
76
100
AcDbEntity
  8
APS_GEOMETRY
100
AcDbCircle
 10
974.0857679999999
 20
1643.876837
 30
0.0
 40
79.51373700000001
100
AcDbArc
 50
313.162359
 51
314.536136
  0
ARC
  5
1B4
330
76
100
AcDbEntity
  8
APS_GEOMETRY
100
AcDbCircle
 10
978.0731199999999
 20
1639.625144
 30
0.0
 40
73.684855
100
AcDbArc
 50
311.707661
 51
313.162359
  0
ARC
  5
1B5
330
76
100
AcDbEntity
  8
APS_GEOMETRY
100
AcDbCircle
 10
979.902859
 20
1637.572042
 30
0.0
 40
70.93473299999999
100
AcDbArc
 50
310.174137
 51
311.707661
  0
ARC
  5
1B6
330
76
100
AcDbEntity
  8
APS_GEOMETRY
100
AcDbCircle
 10
981.8945699999998
 20
1635.213011
 30
0.0
 40
67.847349
100
AcDbArc
 50
308.582431
 51
310.174137
  0
ARC
  5
1B7
330
76
100
AcDbEntity
  8
APS_GEOMETRY
100
AcDbCircle
 10
981.25981
 20
1636.008662
 30
0.0
 40
68.86518000000001
100
AcDbArc
 50
307.009149
 51
308.582431
  0
ARC
  5
1B8
330
76
100
AcDbEntity
  8
APS_GEOMETRY
100
AcDbCircle
 10
980.230689
 20
1637.373898
 30
0.0
 40
70.57484699999999
100
AcDbArc
 50
305.461544
 51
307.009149
  0
ARC
  5
1B9
330
76
100
AcDbEntity
  8
APS_GEOMETRY
100
AcDbCircle
 10
979.7417559999999
 20
1638.06033
 30
0.0
 40
71.41760699999998
100
AcDbArc
 50
303.938278
 51
305.461544
  0
ARC
  5
1BA
330
76
100
AcDbEntity
  8
APS_GEOMETRY
100
AcDbCircle
 10
978.82557
 20
1639.421795
 30
0.0
 40
73.058638
100
AcDbArc
 50
302.43794
 51
303.938278
  0
ARC
  5
1BB
330
76
100
AcDbEntity
  8
APS_GEOMETRY
100
AcDbCircle
 10
978.399233
 20
1640.092611
 30
0.0
 40
73.85347
100
AcDbArc
 50
300.959057
 51
302.43794
  0
ARC
  5
1BC
330
76
100
AcDbEntity
  8
APS_GEOMETRY
100
AcDbCircle
 10
977.617955
 20
1641.394983
 30
0.0
 40
75.372208
100
AcDbArc
 50
299.5001049999999
 51
300.959057
  0
ARC
  5
1BD
330
76
100
AcDbEntity
  8
APS_GEOMETRY
100
AcDbCircle
 10
977.2632169999999
 20
1642.021978
 30
0.0
 40
76.092598
100
AcDbArc
 50
298.059519
 51
299.5001049999999
  0
ARC
  5
1BE
330
76
100
AcDbEntity
  8
APS_GEOMETRY
100
AcDbCircle
 10
976.6307130000001
 20
1643.208569
 30
0.0
 40
77.437239
100
AcDbArc
 50
296.635697
 51
298.059519
  0
ARC
  5
1BF
330
76
100
AcDbEntity
  8
APS_GEOMETRY
100
AcDbCircle
 10
1025.524874
 20
1654.347957
 30
0.0
 40
57.5
100
AcDbArc
 50
301.128339
 51
14.390027
  0
ARC
  5
1C0
330
76
100
AcDbEntity
  8
APS_GEOMETRY
100
AcDbCircle
 10
1004.179873
 20
1568.148975
 30
0.0
 40
126.622861
100
AcDbArc
 50
46.887512
 51
52.52400400000001
  0
ARC
  5
1C1
330
76
100
AcDbEntity
  8
APS_GEOMETRY
100
AcDbCircle
 10
1042.257168
 20
1608.821487
 30
0.0
 40
70.90810999999999
100
AcDbArc
 50
38.182516
 51
46.887512
  0
ARC
  5
1C2
330
76
100
AcDbEntity
  8
APS_GEOMETRY
100
AcDbCircle
 10
1041.782389
 20
1608.448107
 30
0.0
 40
71.51211899999999
100
AcDbArc
 50
28.952179
 51
38.182516
  0
ARC
  5
1C3
330
76
100
AcDbEntity
  8
APS_GEOMETRY
100
AcDbCircle
 10
1034.434232
 20
1604.382971
 30
0.0
 40
79.90978199999999
100
AcDbArc
 50
20.38468
 51
28.952179
  0
ARC
  5
1C4
330
76
100
AcDbEntity
  8
APS_GEOMETRY
100
AcDbCircle
 10
1032.654796
 20
1603.721746
 30
0.0
 40
81.80809999999999
100
AcDbArc
 50
12.099804
 51
20.38468
  0
ARC
  5
1C5
330
76
100
AcDbEntity
  8
APS_GEOMETRY
100
AcDbCircle
 10
1033.851691
 20
1603.978334
 30
0.0
 40
80.58400999999999
100
AcDbArc
 50
3.753803
 51
12.099804
  0
ARC
  5
1C6
330
76
100
AcDbEntity
  8
APS_GEOMETRY
100
AcDbCircle
 10
1036.659291
 20
1604.162541
 30
0.0
 40
77.77037400000001
100
AcDbArc
 50
355.157544
 51
3.753803
  0
ARC
  5
1C7
330
76
100
AcDbEntity
  8
APS_GEOMETRY
100
AcDbCircle
 10
1037.462569
 20
1604.094489
 30
0.0
 40
76.964219
100
AcDbArc
 50
346.453945
 51
355.157544
  0
ARC
  5
1C8
330
76
100
AcDbEntity
  8
APS_GEOMETRY
100
AcDbCircle
 10
1028.711812
 20
1606.202801
 30
0.0
 40
85.96536999999999
100
AcDbArc
 50
338.880716
 51
346.453945
  0
ARC
  5
1C9
330
76
100
AcDbEntity
  8
APS_GEOMETRY
100
AcDbCircle
 10
1007.899235
 20
1614.241755
 30
0.0
 40
108.276536
100
AcDbArc
 50
332.48766
 51
338.880716
  0
ARC
  5
1CA
330
76
100
AcDbEntity
  8
APS_GEOMETRY
100
AcDbCircle
 10
997.320618
 20
1619.75153
 30
0.0
 40
120.204016
100
AcDbArc
 50
326.932007
 51
332.48766
  0
ARC
  5
1CB
330
76
100
AcDbEntity
  8
APS_GEOMETRY
100
AcDbCircle
 10
993.550965
 20
1622.205936
 30
0.0
 40
124.702281
100
AcDbArc
 50
321.528404
 51
326.932007
  0
ARC
  5
1CC
330
76
100
AcDbEntity
  8
APS_GEOMETRY
100
AcDbCircle
 10
993.377905
 20
1622.343455
 30
0.0
 40
124.923327
100
AcDbArc
 50
316.205054
 51
321.528404
  0
ARC
  5
1CD
330
76
100
AcDbEntity
  8
APS_GEOMETRY
100
AcDbCircle
 10
990.152059
 20
1625.436383
 30
0.0
 40
129.392363
100
AcDbArc
 50
311.00903
 51
316.205054
  0
ARC
  5
1CE
330
76
100
AcDbEntity
  8
APS_GEOMETRY
100
AcDbCircle
 10
986.277602
 20
1629.892017
 30
0.0
 40
135.296945
100
AcDbArc
 50
306.106172
 51
311.00903
  0
ARC
  5
1CF
330
76
100
AcDbEntity
  8
APS_GEOMETRY
100
AcDbCircle
 10
979.566407
 20
1639.093282
 30
0.0
 40
146.685686
100
AcDbArc
 50
301.479994
 51
306.106172
  0
ARC
  5
1D0
330
76
100
AcDbEntity
  8
APS_GEOMETRY
100
AcDbCircle
 10
976.6585669999999
 20
1643.842167
 30
0.0
 40
152.254119
100
AcDbArc
 50
297.091528
 51
301.479994
  0
ARC
  5
1D1
330
76
100
AcDbEntity
  8
APS_GEOMETRY
100
AcDbCircle
 10
972.3367989999999
 20
1652.290722
 30
0.0
 40
161.74389
100
AcDbArc
 50
292.895059
 51
297.091528
  0
ARC
  5
1D2
330
76
100
AcDbEntity
  8
APS_GEOMETRY
100
AcDbCircle
 10
971.1931579999999
 20
1654.998749
 30
0.0
 40
164.683504
100
AcDbArc
 50
288.810257
 51
292.895059
  0
ARC
  5
1D3
330
76
100
AcDbEntity
  8
APS_GEOMETRY
100
AcDbCircle
 10
971.212925
 20
1654.940719
 30
0.0
 40
164.622199
100
AcDbArc
 50
284.730007
 51
288.810257
  0
ARC
  5
1D4
330
76
100
AcDbEntity
  8
APS_GEOMETRY
100
AcDbCircle
 10
889.8573289999999
 20
1606.065142
 30
0.0
 40
165.395219
100
AcDbArc
 50
318.155846
 51
359.675112
  0
ARC
  5
1D5
330
76
100
AcDbEntity
  8
APS_GEOMETRY
100
AcDbCircle
 10
1079.163363
 20
1657.154907
 30
0.0
 40
161.154938
100
AcDbArc
 50
90.29732700000002
 51
97.21807300000001
  0
ARC
  5
1D6
330
76
100
AcDbEntity
  8
APS_GEOMETRY
100
AcDbCircle
 10
1079.177848
 20
1654.363491
 30
0.0
 40
163.946393
100
AcDbArc
 50
80.66714799999999
 51
90.29732700000002
  0
ARC
  5
1D7
330
76
100
AcDbEntity
  8
APS_GEOMETRY
100
AcDbCircle
 10
1078.872634
 20
1652.506335
 30
0.0
 40
165.828462
100
AcDbArc
 50
71.201481
 51
80.66714799999999
  0
ARC
  5
1D8
330
76
100
AcDbEntity
  8
APS_GEOMETRY
100
AcDbCircle
 10
1077.415158
 20
1648.224666
 30
0.0
 40
170.351395
100
AcDbArc
 50
61.891418
 51
71.201481
  0
ARC
  5
1D9
330
76
100
AcDbEntity
  8
APS_GEOMETRY
100
AcDbCircle
 10
1072.125914
 20
1638.32236
 30
0.0
 40
181.577782
100
AcDbArc
 50
53.291585
 51
61.891418
  0
ARC
  5
1DA
330
76
100
AcDbEntity
  8
APS_GEOMETRY
100
AcDbCircle
 10
1061.562301
 20
1624.154529
 30
0.0
 40
199.250285
100
AcDbArc
 50
45.25376699999999
 51
53.291585
  0
ARC
  5
1DB
330
76
100
AcDbEntity
  8
APS_GEOMETRY
100
AcDbCircle
 10
1058.963821
 20
1621.532929
 30
0.0
 40
202.941475
100
AcDbArc
 50
37.395826
 51
45.25376699999999
  0
ARC
  5
1DC
330
76
100
AcDbEntity
  8
APS_GEOMETRY
100
AcDbCircle
 10
1069.621179
 20
1629.679864
 30
0.0
 40
189.526862
100
AcDbArc
 50
29.161055
 51
37.395826
  0
ARC
  5
1DD
330
76
100
AcDbEntity
  8
APS_GEOMETRY
100
AcDbCircle
 10
1080.408574
 20
1635.699117
 30
0.0
 40
177.173753
100
AcDbArc
 50
20.891259
 51
29.161055
  0
ARC
  5
1DE
330
76
100
AcDbEntity
  8
APS_GEOMETRY
100
AcDbCircle
 10
947.7317049999999
 20
1585.05794
 30
0.0
 40
319.186712
100
AcDbArc
 50
15.672487
 51
20.891259
  0
ARC
  5
1DF
330
76
100
AcDbEntity
  8
APS_GEOMETRY
100
AcDbCircle
 10
765.7527439999999
 20
1534.000236
 30
0.0
 40
508.192615
100
AcDbArc
 50
14.382324
 51
15.672487
  0
ARC
  5
1E0
330
76
100
AcDbEntity
  8
APS_GEOMETRY
100
AcDbCircle
 10
-827.2181879999999
 20
1125.518624
 30
0.0
 40
2152.70276
100
AcDbArc
 50
13.954064
 51
14.382324
  0
ARC
  5
1E1
330
76
100
AcDbEntity
  8
APS_GEOMETRY
100
AcDbCircle
 10
1025.524874
 20
1654.347957
 30
0.0
 40
236.631726
100
AcDbArc
 50
356.707339
 51
357.646267
  0
ARC
  5
1E2
330
76
100
AcDbEntity
  8
APS_GEOMETRY
100
AcDbCircle
 10
1104.788412
 20
1554.721909
 30
0.0
 40
179.008225
100
AcDbArc
 50
28.725867
 51
31.439479
  0
ARC
  5
1E3
330
76
100
AcDbEntity
  8
APS_GEOMETRY
100
AcDbCircle
 10
1110.060544
 20
1557.945021
 30
0.0
 40
172.828918
100
AcDbArc
 50
31.439479
 51
34.22390200000001
  0
ARC
  5
1E4
330
76
100
AcDbEntity
  8
APS_GEOMETRY
100
AcDbCircle
 10
1112.837458
 20
1559.833903
 30
0.0
 40
169.470478
100
AcDbArc
 50
34.22390200000001
 51
37.08237
  0
ARC
  5
1E5
330
76
100
AcDbEntity
  8
APS_GEOMETRY
100
AcDbCircle
 10
1116.079427
 20
1562.284218
 30
0.0
 40
165.406686
100
AcDbArc
 50
37.08237
 51
39.998017
  0
ARC
  5
1E6
330
76
100
AcDbEntity
  8
APS_GEOMETRY
100
AcDbCircle
 10
1115.324495
 20
1561.650799
 30
0.0
 40
166.392151
100
AcDbArc
 50
39.998017
 51
42.90351199999999
  0
ARC
  5
1E7
330
76
100
AcDbEntity
  8
APS_GEOMETRY
100
AcDbCircle
 10
1114.833277
 20
1561.194276
 30
0.0
 40
167.062754
100
AcDbArc
 50
42.90351199999999
 51
45.801132
  0
ARC
  5
1E8
330
76
100
AcDbEntity
  8
APS_GEOMETRY
100
AcDbCircle
 10
1114.877508
 20
1561.239761
 30
0.0
 40
166.999309
100
AcDbArc
 50
45.801132
 51
48.70052399999999
  0
ARC
  5
1E9
330
76
100
AcDbEntity
  8
APS_GEOMETRY
100
AcDbCircle
 10
1115.481666
 20
1561.927472
 30
0.0
 40
166.08391
100
AcDbArc
 50
48.70052399999999
 51
51.611305
  0
ARC
  5
1EA
330
76
100
AcDbEntity
  8
APS_GEOMETRY
100
AcDbCircle
 10
1116.004903
 20
1562.5879
 30
0.0
 40
165.24133
100
AcDbArc
 50
51.611305
 51
54.542951
  0
ARC
  5
1EB
330
76
100
AcDbEntity
  8
APS_GEOMETRY
100
AcDbCircle
 10
1117.375447
 20
1564.512383
 30
0.0
 40
162.878699
100
AcDbArc
 50
54.542951
 51
57.50468000000001
  0
ARC
  5
1EC
330
76
100
AcDbEntity
  8
APS_GEOMETRY
100
AcDbCircle
 10
1118.366475
 20
1566.068265
 30
0.0
 40
161.034002
100
AcDbArc
 50
57.50468000000001
 51
60.50530999999999
  0
ARC
  5
1ED
330
76
100
AcDbEntity
  8
APS_GEOMETRY
100
AcDbCircle
 10
1118.800255
 20
1566.835133
 30
0.0
 40
160.152951
100
AcDbArc
 50
60.50530999999999
 51
63.51723
  0
ARC
  5
1EE
330
76
100
AcDbEntity
  8
APS_GEOMETRY
100
AcDbCircle
 10
1118.265956
 20
1565.762689
 30
0.0
 40
161.351121
100
AcDbArc
 50
63.51723
 51
66.50418499999999
  0
ARC
  5
1EF
330
76
100
AcDbEntity
  8
APS_GEOMETRY
100
AcDbCircle
 10
1117.666538
 20
1564.383847
 30
0.0
 40
162.85462
100
AcDbArc
 50
66.50418499999999
 51
69.47078399999999
  0
ARC
  5
1F0
330
76
100
AcDbEntity
  8
APS_GEOMETRY
100
AcDbCircle
 10
1117.450176
 20
1563.806057
 30
0.0
 40
163.471591
100
AcDbArc
 50
69.47078399999999
 51
72.42205600000001
  0
ARC
  5
1F1
330
76
100
AcDbEntity
  8
APS_GEOMETRY
100
AcDbCircle
 10
1117.175883
 20
1562.940221
 30
0.0
 40
164.379836
100
AcDbArc
 50
72.42205600000001
 51
75.36326999999999
  0
ARC
  5
1F2
330
76
100
AcDbEntity
  8
APS_GEOMETRY
100
AcDbCircle
 10
1117.103531
 20
1562.663185
 30
0.0
 40
164.666164
100
AcDbArc
 50
75.36326999999999
 51
78.299808
  0
ARC
  5
1F3
330
76
100
AcDbEntity
  8
APS_GEOMETRY
100
AcDbCircle
 10
1117.057459
 20
1562.440715
 30
0.0
 40
164.893354
100
AcDbArc
 50
78.299808
 51
81.23705799999999
  0
ARC
  5
1F4
330
76
100
AcDbEntity
  8
APS_GEOMETRY
100
AcDbCircle
 10
1117.250935
 20
1563.695866
 30
0.0
 40
163.62338
100
AcDbArc
 50
81.23705799999999
 51
84.214332
  0
ARC
  5
1F5
330
76
100
AcDbEntity
  8
APS_GEOMETRY
100
AcDbCircle
 10
1117.861921
 20
1569.725913
 30
0.0
 40
157.562458
100
AcDbArc
 50
84.214332
 51
87.277971
  0
ARC
  5
1F6
330
76
100
AcDbEntity
  8
APS_GEOMETRY
100
AcDbCircle
 10
1058.351386
 20
1623.285473
 30
0.0
 40
123.562742
100
AcDbArc
 50
57.167832
 51
60.06056499999999
  0
ARC
  5
1F7
330
76
100
AcDbEntity
  8
APS_GEOMETRY
100
AcDbCircle
 10
1061.665911
 20
1629.040438
 30
0.0
 40
116.92153
100
AcDbArc
 50
60.06056499999999
 51
63.07773700000001
  0
ARC
  5
1F8
330
76
100
AcDbEntity
  8
APS_GEOMETRY
100
AcDbCircle
 10
1065.011148
 20
1635.627916
 30
0.0
 40
109.533332
100
AcDbArc
 50
63.07773700000001
 51
66.374235
  0
ARC
  5
1F9
330
76
100
AcDbEntity
  8
APS_GEOMETRY
100
AcDbCircle
 10
1070.061487
 20
1647.17353
 30
0.0
 40
96.931463
100
AcDbArc
 50
66.374235
 51
69.98170999999999
  0
ARC
  5
1FA
330
76
100
AcDbEntity
  8
APS_GEOMETRY
100
AcDbCircle
 10
1072.058924
 20
1652.655999
 30
0.0
 40
91.09646299999999
100
AcDbArc
 50
69.98170999999999
 51
73.927262
  0
ARC
  5
1FB
330
76
100
AcDbEntity
  8
APS_GEOMETRY
100
AcDbCircle
 10
1074.885094
 20
1662.465007
 30
0.0
 40
80.88843299999998
100
AcDbArc
 50
73.927262
 51
78.23054499999999
  0
ARC
  5
1FC
330
76
100
AcDbEntity
  8
APS_GEOMETRY
100
AcDbCircle
 10
1075.839009
 20
1667.043333
 30
0.0
 40
76.211786
100
AcDbArc
 50
78.23054499999999
 51
82.87192799999999
  0
ARC
  5
1FD
330
76
100
AcDbEntity
  8
APS_GEOMETRY
100
AcDbCircle
 10
1075.853168
 20
1667.156556
 30
0.0
 40
76.09768100000001
100
AcDbArc
 50
82.87192799999999
 51
87.5046
  0
ARC
  5
1FE
330
76
100
AcDbEntity
  8
APS_GEOMETRY
100
AcDbCircle
 10
1075.777462
 20
1665.419407
 30
0.0
 40
77.836479
100
AcDbArc
 50
87.5046
 51
92.037537
  0
ARC
  5
1FF
330
76
100
AcDbEntity
  8
APS_GEOMETRY
100
AcDbCircle
 10
1075.852818
 20
1663.30129
 30
0.0
 40
79.95593599999999
100
AcDbArc
 50
92.037537
 51
96.49156500000001
  0
ARC
  5
200
330
76
100
AcDbEntity
  8
APS_GEOMETRY
100
AcDbCircle
 10
1075.948734
 20
1662.458345
 30
0.0
 40
80.80432
100
AcDbArc
 50
96.49156500000001
 51
100.88985
  0
ARC
  5
201
330
76
100
AcDbEntity
  8
APS_GEOMETRY
100
AcDbCircle
 10
1076.152068
 20
1661.401434
 30
0.0
 40
81.88061299999999
100
AcDbArc
 50
100.88985
 51
105.257473
  0
ARC
  5
202
330
76
100
AcDbEntity
  8
APS_GEOMETRY
100
AcDbCircle
 10
1076.157495
 20
1661.381542
 30
0.0
 40
81.901232
100
AcDbArc
 50
105.257473
 51
109.636386
  0
ARC
  5
203
330
76
100
AcDbEntity
  8
APS_GEOMETRY
100
AcDbCircle
 10
1075.561209
 20
1663.052748
 30
0.0
 40
80.12683499999999
100
AcDbArc
 50
109.636386
 51
114.084561
  0
ARC
  5
204
330
76
100
AcDbEntity
  8
APS_GEOMETRY
100
AcDbCircle
 10
1074.878336
 20
1664.580432
 30
0.0
 40
78.45347499999999
100
AcDbArc
 50
114.084561
 51
118.659508
  0
ARC
  5
205
330
76
100
AcDbEntity
  8
APS_GEOMETRY
100
AcDbCircle
 10
1072.741725
 20
1668.489588
 30
0.0
 40
73.998521
100
AcDbArc
 50
118.659508
 51
123.416816
  0
ARC
  5
206
330
76
100
AcDbEntity
  8
APS_GEOMETRY
100
AcDbCircle
 10
1070.64022
 20
1671.674654
 30
0.0
 40
70.182637
100
AcDbArc
 50
123.416816
 51
128.408491
  0
ARC
  5
207
330
76
100
AcDbEntity
  8
APS_GEOMETRY
100
AcDbCircle
 10
1071.474428
 20
1670.622465
 30
0.0
 40
71.52539799999999
100
AcDbArc
 50
128.408491
 51
133.340523
  0
ARC
  5
208
330
76
100
AcDbEntity
  8
APS_GEOMETRY
100
AcDbCircle
 10
1078.511603
 20
1663.165371
 30
0.0
 40
81.77869300000001
100
AcDbArc
 50
133.340523
 51
137.452698
  0
ARC
  5
209
330
76
100
AcDbEntity
  8
APS_GEOMETRY
100
AcDbCircle
 10
1101.638919
 20
1641.937938
 30
0.0
 40
113.170997
100
AcDbArc
 50
137.452698
 51
140.687724
  0
ARC
  5
20A
330
76
100
AcDbEntity
  8
APS_GEOMETRY
100
AcDbCircle
 10
1164.502876
 20
1709.82573
 30
0.0
 40
150.473141
100
AcDbArc
 50
134.564096
 51
178.548607
  0
ARC
  5
20B
330
76
100
AcDbEntity
  8
APS_GEOMETRY
100
AcDbCircle
 10
1025.524874
 20
1654.347957
 30
0.0
 40
236.631726
100
AcDbArc
 50
267.646267
 51
350.987896
  0
ARC
  5
20C
330
76
100
AcDbEntity
  8
APS_GEOMETRY
100
AcDbCircle
 10
1094.722216
 20
1549.73463
 30
0.0
 40
177.840224
100
AcDbArc
 50
22.322297
 51
24.880896
  0
ARC
  5
20D
330
76
100
AcDbEntity
  8
APS_GEOMETRY
100
AcDbCircle
 10
1100.169861
 20
1552.261135
 30
0.0
 40
171.835221
100
AcDbArc
 50
24.880896
 51
27.499603
  0
ARC
  5
20E
330
76
100
AcDbEntity
  8
APS_GEOMETRY
100
AcDbCircle
 10
1103.030608
 20
1553.750321
 30
0.0
 40
168.610078
100
AcDbArc
 50
27.499603
 51
30.185048
  0
ARC
  5
20F
330
76
100
AcDbEntity
  8
APS_GEOMETRY
100
AcDbCircle
 10
1108.27466
 20
1556.8006
 30
0.0
 40
162.543424
100
AcDbArc
 50
30.185048
 51
32.937368
  0
ARC
  5
210
330
76
100
AcDbEntity
  8
APS_GEOMETRY
100
AcDbCircle
 10
1110.901948
 20
1558.502701
 30
0.0
 40
159.412963
100
AcDbArc
 50
32.937368
 51
35.762318
  0
ARC
  5
211
330
76
100
AcDbEntity
  8
APS_GEOMETRY
100
AcDbCircle
 10
1115.620099
 20
1561.900823
 30
0.0
 40
153.598483
100
AcDbArc
 50
35.762318
 51
38.663697
  0
ARC
  5
212
330
76
100
AcDbEntity
  8
APS_GEOMETRY
100
AcDbCircle
 10
1115.544736
 20
1561.840525
 30
0.0
 40
153.695
100
AcDbArc
 50
38.663697
 51
41.574325
  0
ARC
  5
213
330
76
100
AcDbEntity
  8
APS_GEOMETRY
100
AcDbCircle
 10
1114.977862
 20
1561.337685
 30
0.0
 40
154.452755
100
AcDbArc
 50
41.574325
 51
44.47576699999999
  0
ARC
  5
214
330
76
100
AcDbEntity
  8
APS_GEOMETRY
100
AcDbCircle
 10
1114.883044
 20
1561.244586
 30
0.0
 40
154.585638
100
AcDbArc
 50
44.47576699999999
 51
47.375323
  0
ARC
  5
215
330
76
100
AcDbEntity
  8
APS_GEOMETRY
100
AcDbCircle
 10
1115.163304
 20
1561.549103
 30
0.0
 40
154.171782
100
AcDbArc
 50
47.375323
 51
50.279711
  0
ARC
  5
216
330
76
100
AcDbEntity
  8
APS_GEOMETRY
100
AcDbCircle
 10
1115.579078
 20
1562.049544
 30
0.0
 40
153.52116
100
AcDbArc
 50
50.279711
 51
53.20039399999999
  0
ARC
  5
217
330
76
100
AcDbEntity
  8
APS_GEOMETRY
100
AcDbCircle
 10
1116.902793
 20
1563.819017
 30
0.0
 40
151.311351
100
AcDbArc
 50
53.20039399999999
 51
56.149223
  0
ARC
  5
218
330
76
100
AcDbEntity
  8
APS_GEOMETRY
100
AcDbCircle
 10
1118.263823
 20
1565.848207
 30
0.0
 40
148.86799
100
AcDbArc
 50
56.149223
 51
59.147379
  0
ARC
  5
219
330
76
100
AcDbEntity
  8
APS_GEOMETRY
100
AcDbCircle
 10
1118.356055
 20
1566.002605
 30
0.0
 40
148.688141
100
AcDbArc
 50
59.147379
 51
62.143659
  0
ARC
  5
21A
330
76
100
AcDbEntity
  8
APS_GEOMETRY
100
AcDbCircle
 10
1118.326535
 20
1565.946748
 30
0.0
 40
148.751319
100
AcDbArc
 50
62.143659
 51
65.13650099999999
  0
ARC
  5
21B
330
76
100
AcDbEntity
  8
APS_GEOMETRY
100
AcDbCircle
 10
1118.103136
 20
1565.464673
 30
0.0
 40
149.282642
100
AcDbArc
 50
65.13650099999999
 51
68.123772
  0
ARC
  5
21C
330
76
100
AcDbEntity
  8
APS_GEOMETRY
100
AcDbCircle
 10
1117.597244
 20
1564.204716
 30
0.0
 40
150.640367
100
AcDbArc
 50
68.123772
 51
71.082566
  0
ARC
  5
21D
330
76
100
AcDbEntity
  8
APS_GEOMETRY
100
AcDbCircle
 10
1117.238899
 20
1563.159115
 30
0.0
 40
151.745669
100
AcDbArc
 50
71.082566
 51
74.02815
  0
ARC
  5
21E
330
76
100
AcDbEntity
  8
APS_GEOMETRY
100
AcDbCircle
 10
1117.158673
 20
1562.878814
 30
0.0
 40
152.037225
100
AcDbArc
 50
74.02815
 51
76.96699599999999
  0
ARC
  5
21F
330
76
100
AcDbEntity
  8
APS_GEOMETRY
100
AcDbCircle
 10
1116.974979
 20
1562.085233
 30
0.0
 40
152.851788
100
AcDbArc
 50
76.96699599999999
 51
79.89787599999999
  0
ARC
  5
220
330
76
100
AcDbEntity
  8
APS_GEOMETRY
100
AcDbCircle
 10
1054.726651
 20
1619.178022
 30
0.0
 40
129.046772
100
AcDbArc
 50
37.685938
 51
46.35961400000001
  0
ARC
  5
221
330
76
100
AcDbEntity
  8
APS_GEOMETRY
100
AcDbCircle
 10
1039.988641
 20
1607.792969
 30
0.0
 40
147.670101
100
AcDbArc
 50
29.82350300000001
 51
37.685938
  0
ARC
  5
222
330
76
100
AcDbEntity
  8
APS_GEOMETRY
100
AcDbCircle
 10
1031.407
 20
1602.873541
 30
0.0
 40
157.561781
100
AcDbArc
 50
22.598535
 51
29.82350300000001
  0
ARC
  5
223
330
76
100
AcDbEntity
  8
APS_GEOMETRY
100
AcDbCircle
 10
1023.85473
 20
1599.730061
 30
0.0
 40
165.742138
100
AcDbArc
 50
15.658693
 51
22.598535
  0
ARC
  5
224
330
76
100
AcDbEntity
  8
APS_GEOMETRY
100
AcDbCircle
 10
1025.452276
 20
1600.177869
 30
0.0
 40
164.083017
100
AcDbArc
 50
8.690764999999998
 51
15.658693
  0
ARC
  5
225
330
76
100
AcDbEntity
  8
APS_GEOMETRY
100
AcDbCircle
 10
1028.602713
 20
1600.659434
 30
0.0
 40
160.895987
100
AcDbArc
 50
1.623923
 51
8.690764999999998
  0
ARC
  5
226
330
76
100
AcDbEntity
  8
APS_GEOMETRY
100
AcDbCircle
 10
1028.018618
 20
1600.642874
 30
0.0
 40
161.480317
100
AcDbArc
 50
354.584685
 51
1.623923
  0
ARC
  5
227
330
76
100
AcDbEntity
  8
APS_GEOMETRY
100
AcDbCircle
 10
1022.890893
 20
1601.12897
 30
0.0
 40
166.63103
100
AcDbArc
 50
347.701079
 51
354.584685
  0
ARC
  5
228
330
76
100
AcDbEntity
  8
APS_GEOMETRY
100
AcDbCircle
 10
1023.280671
 20
1601.043992
 30
0.0
 40
166.232097
100
AcDbArc
 50
340.849845
 51
347.701079
  0
ARC
  5
229
330
76
100
AcDbEntity
  8
APS_GEOMETRY
100
AcDbCircle
 10
1021.123073
 20
1601.793243
 30
0.0
 40
168.516085
100
AcDbArc
 50
334.052473
 51
340.849845
  0
ARC
  5
22A
330
76
100
AcDbEntity
  8
APS_GEOMETRY
100
AcDbCircle
 10
1014.042074
 20
1605.238853
 30
0.0
 40
176.390905
100
AcDbArc
 50
327.638315
 51
334.052473
  0
ARC
  5
22B
330
76
100
AcDbEntity
  8
APS_GEOMETRY
100
AcDbCircle
 10
1002.042299
 20
1612.842891
 30
0.0
 40
190.597101
100
AcDbArc
 50
321.574743
 51
327.638315
  0
ARC
  5
22C
330
76
100
AcDbEntity
  8
APS_GEOMETRY
100
AcDbCircle
 10
996.7477029999999
 20
1617.043137
 30
0.0
 40
197.355415
100
AcDbArc
 50
315.782148
 51
321.574743
  0
ARC
  5
22D
330
76
100
AcDbEntity
  8
APS_GEOMETRY
100
AcDbCircle
 10
992.700448
 20
1620.981375
 30
0.0
 40
203.002537
100
AcDbArc
 50
310.122366
 51
315.782148
  0
ARC
  5
22E
330
76
100
AcDbEntity
  8
APS_GEOMETRY
100
AcDbCircle
 10
995.621007
 20
1617.515846
 30
0.0
 40
198.470478
100
AcDbArc
 50
304.321282
 51
310.122366
  0
ARC
  5
22F
330
76
100
AcDbEntity
  8
APS_GEOMETRY
100
AcDbCircle
 10
1002.373726
 20
1607.624625
 30
0.0
 40
186.494024
100
AcDbArc
 50
298.269931
 51
304.321282
  0
ARC
  5
230
330
76
100
AcDbEntity
  8
APS_GEOMETRY
100
AcDbCircle
 10
1006.6316
 20
1599.706942
 30
0.0
 40
177.504074
100
AcDbArc
 50
292.144966
 51
298.269931
  0
ARC
  5
231
330
76
100
AcDbEntity
  8
APS_GEOMETRY
100
AcDbCircle
 10
976.548318
 20
1673.626654
 30
0.0
 40
257.310889
100
AcDbArc
 50
287.570564
 51
292.144966
  0
ARC
  5
232
330
76
100
AcDbEntity
  8
APS_GEOMETRY
100
AcDbCircle
 10
949.1554820000001
 20
1760.133993
 30
0.0
 40
348.051658
100
AcDbArc
 50
284.85283
 51
287.570564
  0
ARC
  5
233
330
76
100
AcDbEntity
  8
APS_GEOMETRY
100
AcDbCircle
 10
657.6218859999999
 20
2859.439119000001
 30
0.0
 40
1485.357069
100
AcDbArc
 50
283.954064
 51
284.85283
  0
ARC
  5
237
330
76
100
AcDbEntity
  8
APS_GEOMETRY
100
AcDbCircle
 10
1042.58843
 20
1734.962408
 30
0.0
 40
119.585977
100
AcDbArc
 50
225.5818259999999
 51
232.524004
  0
ARC
  5
238
330
76
100
AcDbEntity
  8
APS_GEOMETRY
100
AcDbCircle
 10
1006.772937
 20
1698.41203
 30
0.0
 40
68.412941
100
AcDbArc
 50
214.863747
 51
225.5818259999999
  0
ARC
  5
239
330
76
100
AcDbEntity
  8
APS_GEOMETRY
100
AcDbCircle
 10
1014.470345
 20
1703.774579
 30
0.0
 40
77.79414599999999
100
AcDbArc
 50
194.595859
 51
214.863747
  0
ARC
  5
23A
330
76
100
AcDbEntity
  8
APS_GEOMETRY
100
AcDbCircle
 10
1016.647437
 20
1704.341501
 30
0.0
 40
80.043842
100
AcDbArc
 50
174.745288
 51
194.595859
  0
ARC
  5
23B
330
76
100
AcDbEntity
  8
APS_GEOMETRY
100
AcDbCircle
 10
1017.686073
 20
1704.245978
 30
0.0
 40
81.08686099999999
100
AcDbArc
 50
156.218422
 51
174.745288
  0
ARC
  5
23C
330
76
100
AcDbEntity
  8
APS_GEOMETRY
100
AcDbCircle
 10
1056.843183
 20
1686.990671
 30
0.0
 40
123.877337
100
AcDbArc
 50
142.898577
 51
156.218422
  0
ARC
  5
23D
330
76
100
AcDbEntity
  8
APS_GEOMETRY
100
AcDbCircle
 10
1057.730467
 20
1686.319589
 30
0.0
 40
124.989823
100
AcDbArc
 50
130.535972
 51
142.898577
  0
ARC
  5
23E
330
76
100
AcDbEntity
  8
APS_GEOMETRY
100
AcDbCircle
 10
1070.955705
 20
1670.854496
 30
0.0
 40
145.338681
100
AcDbArc
 50
119.509635
 51
130.535972
  0
ARC
  5
23F
330
76
100
AcDbEntity
  8
APS_GEOMETRY
100
AcDbCircle
 10
1077.995121
 20
1658.417251
 30
0.0
 40
159.629883
100
AcDbArc
 50
109.659064
 51
119.509635
  0
ARC
  5
240
330
76
100
AcDbEntity
  8
APS_GEOMETRY
100
AcDbCircle
 10
1079.870578
 20
1653.167488
 30
0.0
 40
165.204589
100
AcDbArc
 50
104.465376
 51
109.659064
  0
ARC
  5
241
330
76
100
AcDbEntity
  8
APS_GEOMETRY
100
AcDbCircle
 10
1164.324171
 20
1709.89549
 30
0.0
 40
162.677926
100
AcDbArc
 50
140.60786
 51
181.136134
  0
ARC
  5
242
330
76
100
AcDbEntity
  8
APS_GEOMETRY
100
AcDbCircle
 10
1025.524874
 20
1654.347957
 30
0.0
 40
57.5
100
AcDbArc
 50
114.501955
 51
194.390027
  0
CIRCLE
  5
40E
330
76
100
AcDbEntity
  8
INCISIONI
100
AcDbCircle
 10
1025.524874
 20
1654.347957
 30
0.0
 40
57.5
  0
ARC
  5
40F
330
76
100
AcDbEntity
  8
INCISIONI
100
AcDbCircle
 10
840.817484
 20
1291.846484
 30
0.0
 40
634.0685490000001
100
AcDbArc
 50
51.217434
 51
55.54148699999999
  0
ARC
  5
410
330
76
100
AcDbEntity
  8
INCISIONI
100
AcDbCircle
 10
646.304846
 20
895.525381
 30
0.0
 40
1072.808996
100
AcDbArc
 50
58.95406399999999
 51
60.67248699999999
  0
ARC
  5
411
330
76
100
AcDbEntity
  8
INCISIONI
100
AcDbCircle
 10
1049.627988
 20
1613.430796
 30
0.0
 40
249.36638
100
AcDbArc
 50
60.67248699999999
 51
65.89125899999999
  0
ARC
  5
412
330
76
100
AcDbEntity
  8
INCISIONI
100
AcDbCircle
 10
1069.325936
 20
1657.448094
 30
0.0
 40
201.142613
100
AcDbArc
 50
65.89125899999999
 51
69.828923
  0
ARC
  5
413
330
76
100
AcDbEntity
  8
INCISIONI
100
AcDbCircle
 10
1077.251617
 20
1679.023066
 30
0.0
 40
178.157926
100
AcDbArc
 50
69.828923
 51
74.161055
  0
ARC
  5
414
330
76
100
AcDbEntity
  8
INCISIONI
100
AcDbCircle
 10
1074.148645
 20
1668.085777
 30
0.0
 40
189.526862
100
AcDbArc
 50
74.161055
 51
82.395826
  0
ARC
  5
415
330
76
100
AcDbEntity
  8
INCISIONI
100
AcDbCircle
 10
1072.373508
 20
1654.789134
 30
0.0
 40
202.941475
100
AcDbArc
 50
82.395826
 51
90.253767
  0
ARC
  5
416
330
76
100
AcDbEntity
  8
INCISIONI
100
AcDbCircle
 10
1072.35716
 20
1658.480288
 30
0.0
 40
199.250285
100
AcDbArc
 50
90.253767
 51
98.291585
  0
ARC
  5
417
330
76
100
AcDbEntity
  8
INCISIONI
100
AcDbCircle
 10
1069.808593
 20
1675.96806
 30
0.0
 40
181.577782
100
AcDbArc
 50
98.291585
 51
106.891418
  0
ARC
  5
418
330
76
100
AcDbEntity
  8
INCISIONI
100
AcDbCircle
 10
1066.546667
 20
1686.710107999999
 30
0.0
 40
170.351395
100
AcDbArc
 50
106.891418
 51
116.201481
  0
ARC
  5
419
330
76
100
AcDbEntity
  8
INCISIONI
100
AcDbCircle
 10
1064.54966
 20
1690.768296
 30
0.0
 40
165.828462
100
AcDbArc
 50
116.201481
 51
125.667148
  0
ARC
  5
41A
330
76
100
AcDbEntity
  8
INCISIONI
100
AcDbCircle
 10
1063.452272
 20
1692.297323
 30
0.0
 40
163.946393
100
AcDbArc
 50
125.667148
 51
135.297327
  0
ARC
  5
41B
330
76
100
AcDbEntity
  8
INCISIONI
100
AcDbCircle
 10
1061.468199
 20
1694.26091
 30
0.0
 40
161.154938
100
AcDbArc
 50
135.297327
 51
145.057486
  0
ARC
  5
41C
330
76
100
AcDbEntity
  8
INCISIONI
100
AcDbCircle
 10
1064.787808
 20
1691.941455
 30
0.0
 40
165.204589
100
AcDbArc
 50
145.057486
 51
154.659064
  0
ARC
  5
41D
330
76
100
AcDbEntity
  8
INCISIONI
100
AcDbCircle
 10
1059.749516
 20
1694.32745
 30
0.0
 40
159.629883
100
AcDbArc
 50
154.659064
 51
164.509635
  0
ARC
  5
41E
330
76
100
AcDbEntity
  8
INCISIONI
100
AcDbCircle
 10
1045.977437
 20
1698.144292
 30
0.0
 40
145.338681
100
AcDbArc
 50
164.509635
 51
175.535972
  0
ARC
  5
41F
330
76
100
AcDbEntity
  8
INCISIONI
100
AcDbCircle
 10
1025.690309
 20
1699.728107999999
 30
0.0
 40
124.989823
100
AcDbArc
 50
175.535972
 51
187.898577
  0
ARC
  5
420
330
76
100
AcDbEntity
  8
INCISIONI
100
AcDbCircle
 10
1024.588378
 20
1699.57523
 30
0.0
 40
123.877337
100
AcDbArc
 50
187.898577
 51
201.218422
  0
ARC
  5
421
330
76
100
AcDbEntity
  8
INCISIONI
100
AcDbCircle
 10
984.6987759999999
 20
1684.088317
 30
0.0
 40
81.08686099999999
100
AcDbArc
 50
201.218422
 51
219.745288
  0
ARC
  5
422
330
76
100
AcDbEntity
  8
INCISIONI
100
AcDbCircle
 10
983.8968039999999
 20
1683.421435
 30
0.0
 40
80.043842
100
AcDbArc
 50
219.745288
 51
239.595859
  0
ARC
  5
423
330
76
100
AcDbEntity
  8
INCISIONI
100
AcDbCircle
 10
982.758242
 20
1681.481124
 30
0.0
 40
77.79414599999999
100
AcDbArc
 50
239.595859
 51
259.863747
  0
ARC
  5
424
330
76
100
AcDbEntity
  8
INCISIONI
100
AcDbCircle
 10
981.107247
 20
1672.246341
 30
0.0
 40
68.412941
100
AcDbArc
 50
259.863747
 51
270.581826
  0
ARC
  5
425
330
76
100
AcDbEntity
  8
INCISIONI
100
AcDbCircle
 10
980.587605
 20
1723.416738
 30
0.0
 40
119.585977
100
AcDbArc
 50
270.581826
 51
277.524004
  0
ARC
  5
426
330
76
100
AcDbEntity
  8
INCISIONI
100
AcDbCircle
 10
1035.988022
 20
1758.181346
 30
0.0
 40
322.209553
100
AcDbArc
 50
225.172674
 51
235.063825
  0
ARC
  5
427
330
76
100
AcDbEntity
  8
INCISIONI
100
AcDbCircle
 10
1961.673249
 20
3338.373947
 30
0.0
 40
2152.70276
100
AcDbArc
 50
238.954064
 51
239.382324
  0
ARC
  5
428
330
76
100
AcDbEntity
  8
INCISIONI
100
AcDbCircle
 10
1124.112819
 20
1923.133281
 30
0.0
 40
508.192615
100
AcDbArc
 50
239.382324
 51
240.672487
  0
ARC
  5
429
330
76
100
AcDbEntity
  8
INCISIONI
100
AcDbCircle
 10
1031.53751
 20
1758.351475
 30
0.0
 40
319.186712
100
AcDbArc
 50
240.672487
 51
245.891259
  0
ARC
  5
42A
330
76
100
AcDbEntity
  8
INCISIONI
100
AcDbCircle
 10
973.5295160000001
 20
1628.726041
 30
0.0
 40
177.173753
100
AcDbArc
 50
245.891259
 51
254.161055
  0
ARC
  5
42B
330
76
100
AcDbEntity
  8
INCISIONI
100
AcDbCircle
 10
976.9011019999998
 20
1640.610136
 30
0.0
 40
189.526862
100
AcDbArc
 50
254.161055
 51
262.395826
  0
ARC
  5
42C
330
76
100
AcDbEntity
  8
INCISIONI
100
AcDbCircle
 10
978.6762389999999
 20
1653.90678
 30
0.0
 40
202.941475
100
AcDbArc
 50
262.395826
 51
270.253767
  0
ARC
  5
42D
330
76
100
AcDbEntity
  8
INCISIONI
100
AcDbCircle
 10
978.6925880000001
 20
1650.215625
 30
0.0
 40
199.250285
100
AcDbArc
 50
270.253767
 51
278.291585
  0
ARC
  5
42E
330
76
100
AcDbEntity
  8
INCISIONI
100
AcDbCircle
 10
981.241155
 20
1632.727854
 30
0.0
 40
181.577782
100
AcDbArc
 50
278.291585
 51
286.891418
  0
ARC
  5
42F
330
76
100
AcDbEntity
  8
INCISIONI
100
AcDbCircle
 10
984.503081
 20
1621.985806
 30
0.0
 40
170.351395
100
AcDbArc
 50
286.891418
 51
296.201481
  0
ARC
  5
430
330
76
100
AcDbEntity
  8
INCISIONI
100
AcDbCircle
 10
986.5000880000001
 20
1617.927617
 30
0.0
 40
165.828462
100
AcDbArc
 50
296.201481
 51
305.667148
  0
ARC
  5
431
330
76
100
AcDbEntity
  8
INCISIONI
100
AcDbCircle
 10
987.597476
 20
1616.398591
 30
0.0
 40
163.946393
100
AcDbArc
 50
305.667148
 51
315.297327
  0
ARC
  5
432
330
76
100
AcDbEntity
  8
INCISIONI
100
AcDbCircle
 10
989.581549
 20
1614.435004
 30
0.0
 40
161.154938
100
AcDbArc
 50
315.297327
 51
325.057486
  0
ARC
  5
433
330
76
100
AcDbEntity
  8
INCISIONI
100
AcDbCircle
 10
986.2619399999999
 20
1616.754459
 30
0.0
 40
165.204589
100
AcDbArc
 50
325.057486
 51
334.659064
  0
ARC
  5
434
330
76
100
AcDbEntity
  8
INCISIONI
100
AcDbCircle
 10
991.3002310000001
 20
1614.368464
 30
0.0
 40
159.629883
100
AcDbArc
 50
334.659064
 51
344.509635
  0
ARC
  5
435
330
76
100
AcDbEntity
  8
INCISIONI
100
AcDbCircle
 10
1005.072311
 20
1610.551622
 30
0.0
 40
145.338681
100
AcDbArc
 50
344.509635
 51
355.535972
  0
ARC
  5
436
330
76
100
AcDbEntity
  8
INCISIONI
100
AcDbCircle
 10
1025.359439
 20
1608.967806
 30
0.0
 40
124.989823
100
AcDbArc
 50
355.535972
 51
7.898576999999999
  0
ARC
  5
437
330
76
100
AcDbEntity
  8
INCISIONI
100
AcDbCircle
 10
1026.46137
 20
1609.120683
 30
0.0
 40
123.877337
100
AcDbArc
 50
7.898576999999999
 51
21.218422
  0
ARC
  5
438
330
76
100
AcDbEntity
  8
INCISIONI
100
AcDbCircle
 10
1066.350972
 20
1624.607597
 30
0.0
 40
81.08686099999999
100
AcDbArc
 50
21.218422
 51
39.745288
  0
ARC
  5
439
330
76
100
AcDbEntity
  8
INCISIONI
100
AcDbCircle
 10
1067.152944
 20
1625.274478
 30
0.0
 40
80.043842
100
AcDbArc
 50
39.745288
 51
59.595859
  0
ARC
  5
43A
330
76
100
AcDbEntity
  8
INCISIONI
100
AcDbCircle
 10
1068.291506
 20
1627.214789
 30
0.0
 40
77.79414599999999
100
AcDbArc
 50
59.595859
 51
79.863747
  0
ARC
  5
43B
330
76
100
AcDbEntity
  8
INCISIONI
100
AcDbCircle
 10
1069.942501
 20
1636.449573
 30
0.0
 40
68.412941
100
AcDbArc
 50
79.863747
 51
90.581826
  0
ARC
  5
43C
330
76
100
AcDbEntity
  8
INCISIONI
100
AcDbCircle
 10
1070.462143
 20
1585.279176
 30
0.0
 40
119.585977
100
AcDbArc
 50
90.581826
 51
97.52400399999999
  0
MTEXT
  5
479
330
76
100
AcDbEntity
  8
0
100
AcDbMText
 10
747.4106418212365
 20
1956.5876567452
 30
0.0
 40
10.0
 41
523.2684953811412
 46
0.0
 71
     1
 72
     5
  1
{\fArial|b0|i0|c0|p34;linea rossa = incisione ;      linea verde= taglio passante}
 73
     1
 44
1.0
1001
ACAD
1000
ACAD_MTEXT_COLUMN_INFO_BEGIN
1070
    75
1070
     2
1070
    79
1070
     0
1070
    76
1070
     1
1070
    78
1070
     0
1070
    48
1040
523.2684953811412
1070
    49
1040
1.0
1070
    50
1070
     1
1040
0.0
1000
ACAD_MTEXT_COLUMN_INFO_END
  0
ENDSEC
  0
SECTION
  2
OBJECTS
  0
DICTIONARY
  5
C
330
0
100
AcDbDictionary
281
     1
  3
ACAD_COLOR
350
6D
  3
ACAD_GROUP
350
D
  3
ACAD_LAYOUT
350
6C
  3
ACAD_MATERIAL
350
10
  3
ACAD_MLEADERSTYLE
350
70
  3
ACAD_MLINESTYLE
350
69
  3
ACAD_PLOTSETTINGS
350
6B
  3
ACAD_PLOTSTYLENAME
350
E
  3
ACAD_SCALELIST
350
3D
  3
ACAD_TABLESTYLE
350
6E
  3
ACAD_VISUALSTYLE
350
29
  3
ACDB_RECOMPOSE_DATA
350
48D
  3
AcDbVariableDictionary
350
482
  0
DICTIONARY
  5
47A
330
5F
100
AcDbDictionary
280
     1
281
     1
  3
ADSK_XREC_LAYER_RECONCILED
360
47B
  0
DICTIONARY
  5
47C
330
7C
100
AcDbDictionary
280
     1
281
     1
  3
ADSK_XREC_LAYER_RECONCILED
360
47D
  0
DICTIONARY
  5
47E
330
7E
100
AcDbDictionary
280
     1
281
     1
  3
ADSK_XREC_LAYER_RECONCILED
360
47F
  0
DICTIONARY
  5
480
330
40C
100
AcDbDictionary
280
     1
281
     1
  3
ADSK_XREC_LAYER_RECONCILED
360
481
  0
DICTIONARY
  5
6D
102
{ACAD_REACTORS
330
C
102
}
330
C
100
AcDbDictionary
281
     1
  0
DICTIONARY
  5
D
102
{ACAD_REACTORS
330
C
102
}
330
C
100
AcDbDictionary
281
     1
  0
DICTIONARY
  5
6C
102
{ACAD_REACTORS
330
C
102
}
330
C
100
AcDbDictionary
281
     1
  3
Layout1
350
75
  3
Model
350
79
  0
DICTIONARY
  5
10
102
{ACAD_REACTORS
330
C
102
}
330
C
100
AcDbDictionary
281
     1
  3
ByBlock
350
19
  3
ByLayer
350
11
  3
Global
350
21
  0
DICTIONARY
  5
70
102
{ACAD_REACTORS
330
C
102
}
330
C
100
AcDbDictionary
281
     1
  3
Standard
350
71
  0
DICTIONARY
  5
69
102
{ACAD_REACTORS
330
C
102
}
330
C
100
AcDbDictionary
281
     1
  3
Standard
350
6A
  0
DICTIONARY
  5
6B
102
{ACAD_REACTORS
330
C
102
}
330
C
100
AcDbDictionary
281
     1
  0
ACDBDICTIONARYWDFLT
  5
E
102
{ACAD_REACTORS
330
C
102
}
330
C
100
AcDbDictionary
281
     1
  3
Normal
350
F
100
AcDbDictionaryWithDefault
340
F
  0
DICTIONARY
  5
3D
102
{ACAD_REACTORS
330
C
102
}
330
C
100
AcDbDictionary
281
     1
  3
A0
350
3E
  3
A1
350
3F
  3
A2
350
40
  3
A3
350
41
  3
A4
350
42
  3
A5
350
43
  3
A6
350
44
  3
A7
350
45
  3
A8
350
46
  3
A9
350
47
  3
B0
350
48
  3
B1
350
49
  3
B2
350
4A
  3
B3
350
4B
  3
B4
350
4C
  3
B5
350
4D
  3
B6
350
4E
  3
B7
350
4F
  3
B8
350
50
  3
B9
350
51
  3
C0
350
52
  3
C1
350
53
  3
C2
350
54
  3
C3
350
55
  3
C4
350
56
  3
C5
350
57
  3
C6
350
58
  3
C7
350
59
  3
C8
350
5A
  3
C9
350
5B
  3
D0
350
5C
  3
D1
350
5D
  3
D2
350
5E
  0
DICTIONARY
  5
6E
102
{ACAD_REACTORS
330
C
102
}
330
C
100
AcDbDictionary
281
     1
  3
Standard
350
6F
  0
DICTIONARY
  5
29
102
{ACAD_REACTORS
330
C
102
}
330
C
100
AcDbDictionary
281
     1
  3
2dWireframe
350
2F
  3
3D Hidden
350
31
  3
3dWireframe
350
30
  3
Basic
350
2E
  3
Brighten
350
35
  3
ColorChange
350
39
  3
Conceptual
350
32
  3
Dim
350
34
  3
EdgeColorOff
350
3C
  3
Facepattern
350
38
  3
Flat
350
2A
  3
FlatWithEdges
350
2B
  3
Gouraud
350
2C
  3
GouraudWithEdges
350
2D
  3
JitterOff
350
3A
  3
Linepattern
350
37
  3
OverhangOff
350
3B
  3
Realistic
350
33
  3
Thicken
350
36
  0
XRECORD
  5
48D
102
{ACAD_REACTORS
330
C
102
}
330
C
100
AcDbXrecord
280
     1
 90
        1
330
6F
330
479
  0
DICTIONARY
  5
482
102
{ACAD_REACTORS
330
C
102
}
330
C
100
AcDbDictionary
281
     1
  3
CANNOSCALE
350
486
  3
CMLEADERSTYLE
350
484
  3
CTABLESTYLE
350
483
  3
LAYEREVAL
350
488
  3
LAYERNOTIFY
350
489
  3
LIGHTINGUNITS
350
487
  3
MSLTSCALE
350
485
  3
XCLIPFRAME
350
48A
  0
XRECORD
  5
47B
102
{ACAD_REACTORS
330
47A
102
}
330
47A
100
AcDbXrecord
280
     1
290
     1
  0
XRECORD
  5
47D
102
{ACAD_REACTORS
330
47C
102
}
330
47C
100
AcDbXrecord
280
     1
290
     1
  0
XRECORD
  5
47F
102
{ACAD_REACTORS
330
47E
102
}
330
47E
100
AcDbXrecord
280
     1
290
     1
  0
XRECORD
  5
481
102
{ACAD_REACTORS
330
480
102
}
330
480
100
AcDbXrecord
280
     1
290
     1
  0
LAYOUT
  5
75
102
{ACAD_REACTORS
330
6C
102
}
330
6C
100
AcDbPlotSettings
  1

  2
Bullzip PDF Printer
  4

  6

 40
0.0
 41
0.0
 42
0.0
 43
0.0
 44
0.0
 45
0.0
 46
0.0
 47
0.0
 48
0.0
 49
0.0
140
0.0
141
0.0
142
1.0
143
1.0
 70
   688
 72
     0
 73
     0
 74
     5
  7

 75
    16
147
1.0
 76
     0
 77
     2
 78
   300
148
0.0
149
0.0
100
AcDbLayout
  1
Layout1
 70
     1
 71
     1
 10
0.0
 20
0.0
 11
12.0
 21
9.0
 12
0.0
 22
0.0
 32
0.0
 14
1.000000000000000E+20
 24
1.000000000000000E+20
 34
1.000000000000000E+20
 15
-1.000000000000000E+20
 25
-1.000000000000000E+20
 35
-1.000000000000000E+20
146
0.0
 13
0.0
 23
0.0
 33
0.0
 16
1.0
 26
0.0
 36
0.0
 17
0.0
 27
1.0
 37
0.0
 76
     0
330
72
  0
LAYOUT
  5
79
102
{ACAD_REACTORS
330
6C
102
}
330
6C
100
AcDbPlotSettings
  1

  2
Bullzip PDF Printer
  4

  6

 40
0.0
 41
0.0
 42
0.0
 43
0.0
 44
0.0
 45
0.0
 46
0.0
 47
0.0
 48
0.0
 49
0.0
140
0.0
141
0.0
142
1.0
143
1.0
 70
  1712
 72
     0
 73
     0
 74
     0
  7

 75
     0
147
1.0
 76
     0
 77
     2
 78
   300
148
0.0
149
0.0
100
AcDbLayout
  1
Model
 70
     1
 71
     0
 10
0.0
 20
0.0
 11
12.0
 21
9.0
 12
0.0
 22
0.0
 32
0.0
 14
0.0
 24
0.0
 34
0.0
 15
0.0
 25
0.0
 35
0.0
146
0.0
 13
0.0
 23
0.0
 33
0.0
 16
1.0
 26
0.0
 36
0.0
 17
0.0
 27
1.0
 37
0.0
 76
     0
330
76
331
46F
  0
MATERIAL
  5
19
102
{ACAD_XDICTIONARY
360
1A
102
}
102
{ACAD_REACTORS
330
10
102
}
330
10
100
AcDbMaterial
  1
ByBlock
 72
     0
 43
0.0208333333333333
 43
0.0
 43
0.0
 43
0.0
 43
0.0
 43
0.0208333333333333
 43
0.0
 43
0.0
 43
0.0
 43
0.0
 43
1.0
 43
0.0
 43
0.0
 43
0.0
 43
0.0
 43
1.0
 77
     0
 47
0.0208333333333333
 47
0.0
 47
0.0
 47
0.0
 47
0.0
 47
0.0208333333333333
 47
0.0
 47
0.0
 47
0.0
 47
0.0
 47
1.0
 47
0.0
 47
0.0
 47
0.0
 47
0.0
 47
1.0
171
     0
 49
0.0208333333333333
 49
0.0
 49
0.0
 49
0.0
 49
0.0
 49
0.0208333333333333
 49
0.0
 49
0.0
 49
0.0
 49
0.0
 49
1.0
 49
0.0
 49
0.0
 49
0.0
 49
0.0
 49
1.0
175
     0
142
0.0208333333333333
142
0.0
142
0.0
142
0.0
142
0.0
142
0.0208333333333333
142
0.0
142
0.0
142
0.0
142
0.0
142
1.0
142
0.0
142
0.0
142
0.0
142
0.0
142
1.0
179
     0
144
0.0208333333333333
144
0.0
144
0.0
144
0.0
144
0.0
144
0.0208333333333333
144
0.0
144
0.0
144
0.0
144
0.0
144
1.0
144
0.0
144
0.0
144
0.0
144
0.0
144
1.0
147
0.0208333333333333
147
0.0
147
0.0
147
0.0
147
0.0
147
0.0208333333333333
147
0.0
147
0.0
147
0.0
147
0.0
147
1.0
147
0.0
147
0.0
147
0.0
147
0.0
147
1.0
  0
MATERIAL
  5
11
102
{ACAD_XDICTIONARY
360
12
102
}
102
{ACAD_REACTORS
330
10
102
}
330
10
100
AcDbMaterial
  1
ByLayer
 72
     0
 43
0.0208333333333333
 43
0.0
 43
0.0
 43
0.0
 43
0.0
 43
0.0208333333333333
 43
0.0
 43
0.0
 43
0.0
 43
0.0
 43
1.0
 43
0.0
 43
0.0
 43
0.0
 43
0.0
 43
1.0
 77
     0
 47
0.0208333333333333
 47
0.0
 47
0.0
 47
0.0
 47
0.0
 47
0.0208333333333333
 47
0.0
 47
0.0
 47
0.0
 47
0.0
 47
1.0
 47
0.0
 47
0.0
 47
0.0
 47
0.0
 47
1.0
171
     0
 49
0.0208333333333333
 49
0.0
 49
0.0
 49
0.0
 49
0.0
 49
0.0208333333333333
 49
0.0
 49
0.0
 49
0.0
 49
0.0
 49
1.0
 49
0.0
 49
0.0
 49
0.0
 49
0.0
 49
1.0
175
     0
142
0.0208333333333333
142
0.0
142
0.0
142
0.0
142
0.0
142
0.0208333333333333
142
0.0
142
0.0
142
0.0
142
0.0
142
1.0
142
0.0
142
0.0
142
0.0
142
0.0
142
1.0
179
     0
144
0.0208333333333333
144
0.0
144
0.0
144
0.0
144
0.0
144
0.0208333333333333
144
0.0
144
0.0
144
0.0
144
0.0
144
1.0
144
0.0
144
0.0
144
0.0
144
0.0
144
1.0
147
0.0208333333333333
147
0.0
147
0.0
147
0.0
147
0.0
147
0.0208333333333333
147
0.0
147
0.0
147
0.0
147
0.0
147
1.0
147
0.0
147
0.0
147
0.0
147
0.0
147
1.0
  0
MATERIAL
  5
21
102
{ACAD_XDICTIONARY
360
22
102
}
102
{ACAD_REACTORS
330
10
102
}
330
10
100
AcDbMaterial
  1
Global
 72
     0
 43
0.0208333333333333
 43
0.0
 43
0.0
 43
0.0
 43
0.0
 43
0.0208333333333333
 43
0.0
 43
0.0
 43
0.0
 43
0.0
 43
1.0
 43
0.0
 43
0.0
 43
0.0
 43
0.0
 43
1.0
 77
     0
 47
0.0208333333333333
 47
0.0
 47
0.0
 47
0.0
 47
0.0
 47
0.0208333333333333
 47
0.0
 47
0.0
 47
0.0
 47
0.0
 47
1.0
 47
0.0
 47
0.0
 47
0.0
 47
0.0
 47
1.0
171
     0
 49
0.0208333333333333
 49
0.0
 49
0.0
 49
0.0
 49
0.0
 49
0.0208333333333333
 49
0.0
 49
0.0
 49
0.0
 49
0.0
 49
1.0
 49
0.0
 49
0.0
 49
0.0
 49
0.0
 49
1.0
175
     0
142
0.0208333333333333
142
0.0
142
0.0
142
0.0
142
0.0
142
0.0208333333333333
142
0.0
142
0.0
142
0.0
142
0.0
142
1.0
142
0.0
142
0.0
142
0.0
142
0.0
142
1.0
179
     0
144
0.0208333333333333
144
0.0
144
0.0
144
0.0
144
0.0
144
0.0208333333333333
144
0.0
144
0.0
144
0.0
144
0.0
144
1.0
144
0.0
144
0.0
144
0.0
144
0.0
144
1.0
147
0.0208333333333333
147
0.0
147
0.0
147
0.0
147
0.0
147
0.0208333333333333
147
0.0
147
0.0
147
0.0
147
0.0
147
1.0
147
0.0
147
0.0
147
0.0
147
0.0
147
1.0
  0
MLEADERSTYLE
  5
71
102
{ACAD_REACTORS
330
70
102
}
330
70
100
AcDbMLeaderStyle
170
     2
171
     1
172
     0
 90
        2
 40
0.0
 41
0.0
173
     1
 91
-1056964608
340
65
 92
       -2
290
     1
 42
0.09
291
     1
 43
0.36
  3
Standard
 44
0.18
300

342
60
174
     1
178
     6
175
     1
176
     0
 93
-1056964608
 45
0.18
292
     0
297
     0
 46
0.18
 94
-1056964608
 47
1.0
 49
1.0
140
1.0
293
     1
141
0.0
294
     1
177
     0
142
1.0
295
     0
296
     0
143
0.125
1001
ACAD_MLEADERVER
1070
     2
  0
MLINESTYLE
  5
6A
102
{ACAD_REACTORS
330
69
102
}
330
69
100
AcDbMlineStyle
  2
STANDARD
 70
     0
  3

 62
   256
 51
90.0
 52
90.0
 71
     2
 49
0.5
 62
   256
  6
BYLAYER
 49
-0.5
 62
   256
  6
BYLAYER
  0
ACDBPLACEHOLDER
  5
F
102
{ACAD_REACTORS
330
E
102
}
330
E
  0
SCALE
  5
3E
102
{ACAD_REACTORS
330
3D
102
}
330
3D
100
AcDbScale
 70
     0
300
1:1
140
1.0
141
1.0
290
     1
  0
SCALE
  5
3F
102
{ACAD_REACTORS
330
3D
102
}
330
3D
100
AcDbScale
 70
     0
300
1:2
140
1.0
141
2.0
290
     0
  0
SCALE
  5
40
102
{ACAD_REACTORS
330
3D
102
}
330
3D
100
AcDbScale
 70
     0
300
1:4
140
1.0
141
4.0
290
     0
  0
SCALE
  5
41
102
{ACAD_REACTORS
330
3D
102
}
330
3D
100
AcDbScale
 70
     0
300
1:5
140
1.0
141
5.0
290
     0
  0
SCALE
  5
42
102
{ACAD_REACTORS
330
3D
102
}
330
3D
100
AcDbScale
 70
     0
300
1:8
140
1.0
141
8.0
290
     0
  0
SCALE
  5
43
102
{ACAD_REACTORS
330
3D
102
}
330
3D
100
AcDbScale
 70
     0
300
1:10
140
1.0
141
10.0
290
     0
  0
SCALE
  5
44
102
{ACAD_REACTORS
330
3D
102
}
330
3D
100
AcDbScale
 70
     0
300
1:16
140
1.0
141
16.0
290
     0
  0
SCALE
  5
45
102
{ACAD_REACTORS
330
3D
102
}
330
3D
100
AcDbScale
 70
     0
300
1:20
140
1.0
141
20.0
290
     0
  0
SCALE
  5
46
102
{ACAD_REACTORS
330
3D
102
}
330
3D
100
AcDbScale
 70
     0
300
1:30
140
1.0
141
30.0
290
     0
  0
SCALE
  5
47
102
{ACAD_REACTORS
330
3D
102
}
330
3D
100
AcDbScale
 70
     0
300
1:40
140
1.0
141
40.0
290
     0
  0
SCALE
  5
48
102
{ACAD_REACTORS
330
3D
102
}
330
3D
100
AcDbScale
 70
     0
300
1:50
140
1.0
141
50.0
290
     0
  0
SCALE
  5
49
102
{ACAD_REACTORS
330
3D
102
}
330
3D
100
AcDbScale
 70
     0
300
1:100
140
1.0
141
100.0
290
     0
  0
SCALE
  5
4A
102
{ACAD_REACTORS
330
3D
102
}
330
3D
100
AcDbScale
 70
     0
300
2:1
140
2.0
141
1.0
290
     0
  0
SCALE
  5
4B
102
{ACAD_REACTORS
330
3D
102
}
330
3D
100
AcDbScale
 70
     0
300
4:1
140
4.0
141
1.0
290
     0
  0
SCALE
  5
4C
102
{ACAD_REACTORS
330
3D
102
}
330
3D
100
AcDbScale
 70
     0
300
8:1
140
8.0
141
1.0
290
     0
  0
SCALE
  5
4D
102
{ACAD_REACTORS
330
3D
102
}
330
3D
100
AcDbScale
 70
     0
300
10:1
140
10.0
141
1.0
290
     0
  0
SCALE
  5
4E
102
{ACAD_REACTORS
330
3D
102
}
330
3D
100
AcDbScale
 70
     0
300
100:1
140
100.0
141
1.0
290
     0
  0
SCALE
  5
4F
102
{ACAD_REACTORS
330
3D
102
}
330
3D
100
AcDbScale
 70
     0
300
1/128" = 1'-0"
140
0.0078125
141
12.0
290
     0
  0
SCALE
  5
50
102
{ACAD_REACTORS
330
3D
102
}
330
3D
100
AcDbScale
 70
     0
300
1/64" = 1'-0"
140
0.015625
141
12.0
290
     0
  0
SCALE
  5
51
102
{ACAD_REACTORS
330
3D
102
}
330
3D
100
AcDbScale
 70
     0
300
1/32" = 1'-0"
140
0.03125
141
12.0
290
     0
  0
SCALE
  5
52
102
{ACAD_REACTORS
330
3D
102
}
330
3D
100
AcDbScale
 70
     0
300
1/16" = 1'-0"
140
0.0625
141
12.0
290
     0
  0
SCALE
  5
53
102
{ACAD_REACTORS
330
3D
102
}
330
3D
100
AcDbScale
 70
     0
300
3/32" = 1'-0"
140
0.09375
141
12.0
290
     0
  0
SCALE
  5
54
102
{ACAD_REACTORS
330
3D
102
}
330
3D
100
AcDbScale
 70
     0
300
1/8" = 1'-0"
140
0.125
141
12.0
290
     0
  0
SCALE
  5
55
102
{ACAD_REACTORS
330
3D
102
}
330
3D
100
AcDbScale
 70
     0
300
3/16" = 1'-0"
140
0.1875
141
12.0
290
     0
  0
SCALE
  5
56
102
{ACAD_REACTORS
330
3D
102
}
330
3D
100
AcDbScale
 70
     0
300
1/4" = 1'-0"
140
0.25
141
12.0
290
     0
  0
SCALE
  5
57
102
{ACAD_REACTORS
330
3D
102
}
330
3D
100
AcDbScale
 70
     0
300
3/8" = 1'-0"
140
0.375
141
12.0
290
     0
  0
SCALE
  5
58
102
{ACAD_REACTORS
330
3D
102
}
330
3D
100
AcDbScale
 70
     0
300
1/2" = 1'-0"
140
0.5
141
12.0
290
     0
  0
SCALE
  5
59
102
{ACAD_REACTORS
330
3D
102
}
330
3D
100
AcDbScale
 70
     0
300
3/4" = 1'-0"
140
0.75
141
12.0
290
     0
  0
SCALE
  5
5A
102
{ACAD_REACTORS
330
3D
102
}
330
3D
100
AcDbScale
 70
     0
300
1" = 1'-0"
140
1.0
141
12.0
290
     0
  0
SCALE
  5
5B
102
{ACAD_REACTORS
330
3D
102
}
330
3D
100
AcDbScale
 70
     0
300
1-1/2" = 1'-0"
140
1.5
141
12.0
290
     0
  0
SCALE
  5
5C
102
{ACAD_REACTORS
330
3D
102
}
330
3D
100
AcDbScale
 70
     0
300
3" = 1'-0"
140
3.0
141
12.0
290
     0
  0
SCALE
  5
5D
102
{ACAD_REACTORS
330
3D
102
}
330
3D
100
AcDbScale
 70
     0
300
6" = 1'-0"
140
6.0
141
12.0
290
     0
  0
SCALE
  5
5E
102
{ACAD_REACTORS
330
3D
102
}
330
3D
100
AcDbScale
 70
     0
300
1'-0" = 1'-0"
140
12.0
141
12.0
290
     0
  0
TABLESTYLE
  5
6F
102
{ACAD_XDICTIONARY
360
48B
102
}
102
{ACAD_REACTORS
330
6E
102
}
330
6E
100
AcDbTableStyle
  3
Standard
 70
     0
 71
     0
 40
0.06
 41
0.06
280
     0
281
     0
  7
Standard
140
0.18
170
     2
 62
     0
 63
     7
283
     0
 90
      512
 91
        0
  1

274
    -2
284
     1
 64
     0
275
    -2
285
     1
 65
     0
276
    -2
286
     1
 66
     0
277
    -2
287
     1
 67
     0
278
    -2
288
     1
 68
     0
279
    -2
289
     1
 69
     0
  7
Standard
140
0.25
170
     5
 62
     0
 63
     7
283
     0
 90
      512
 91
        0
  1

274
    -2
284
     1
 64
     0
275
    -2
285
     1
 65
     0
276
    -2
286
     1
 66
     0
277
    -2
287
     1
 67
     0
278
    -2
288
     1
 68
     0
279
    -2
289
     1
 69
     0
  7
Standard
140
0.18
170
     5
 62
     0
 63
     7
283
     0
 90
      512
 91
        0
  1

274
    -2
284
     1
 64
     0
275
    -2
285
     1
 65
     0
276
    -2
286
     1
 66
     0
277
    -2
287
     1
 67
     0
278
    -2
288
     1
 68
     0
279
    -2
289
     1
 69
     0
  0
VISUALSTYLE
  5
2F
102
{ACAD_XDICTIONARY
360
498
102
}
102
{ACAD_REACTORS
330
29
102
}
330
29
100
AcDbVisualStyle
  2
2dWireframe
 70
     4
 71
     0
 72
     2
 73
     0
 90
        0
 40
-0.6
 41
-30.0
 62
     5
 63
     7
421
 16777215
 74
     1
 91
        4
 64
     7
 65
   257
 75
     1
175
     1
 42
1.0
 92
        0
 66
   257
 43
1.0
 76
     1
 77
     6
 78
     2
 67
     7
 79
     5
170
     0
171
     0
290
     0
174
     0
 93
        1
 44
0.0
173
     0
291
     0
 45
0.0
1001
ACAD
1000
AcDbSavedByObjectVersion
1070
     0
  0
VISUALSTYLE
  5
31
102
{ACAD_XDICTIONARY
360
49C
102
}
102
{ACAD_REACTORS
330
29
102
}
330
29
100
AcDbVisualStyle
  2
3D Hidden
 70
     6
 71
     1
 72
     2
 73
     2
 90
        0
 40
-0.6
 41
-30.0
 62
     5
 63
     7
421
 16777215
 74
     2
 91
        2
 64
     7
 65
   257
 75
     2
175
     1
 42
179.0
 92
        0
 66
   257
 43
1.0
 76
     1
 77
     6
 78
     2
 67
     7
 79
     3
170
     0
171
     0
290
     0
174
     0
 93
        1
 44
0.0
173
     0
291
     0
 45
0.0
1001
ACAD
1000
AcDbSavedByObjectVersion
1070
     0
  0
VISUALSTYLE
  5
30
102
{ACAD_XDICTIONARY
360
49A
102
}
102
{ACAD_REACTORS
330
29
102
}
330
29
100
AcDbVisualStyle
  2
3dWireframe
 70
     5
 71
     0
 72
     2
 73
     0
 90
        0
 40
-0.6
 41
-30.0
 62
     5
 63
     7
421
 16777215
 74
     1
 91
        4
 64
     7
 65
   257
 75
     1
175
     1
 42
1.0
 92
        0
 66
   257
 43
1.0
 76
     1
 77
     6
 78
     2
 67
     7
 79
     5
170
     0
171
     0
290
     0
174
     0
 93
        1
 44
0.0
173
     0
291
     0
 45
0.0
1001
ACAD
1000
AcDbSavedByObjectVersion
1070
     0
  0
VISUALSTYLE
  5
2E
102
{ACAD_XDICTIONARY
360
496
102
}
102
{ACAD_REACTORS
330
29
102
}
330
29
100
AcDbVisualStyle
  2
Basic
 70
     7
 71
     1
 72
     0
 73
     1
 90
        0
 40
-0.6
 41
-30.0
 62
     5
 63
     7
421
 16777215
 74
     0
 91
        4
 64
     7
 65
   257
 75
     1
175
     1
 42
1.0
 92
        8
 66
     7
 43
1.0
 76
     1
 77
     6
 78
     2
 67
     7
 79
     5
170
     0
171
     0
290
     0
174
     0
 93
        1
 44
0.0
173
     0
291
     1
 45
0.0
1001
ACAD
1000
AcDbSavedByObjectVersion
1070
     0
  0
VISUALSTYLE
  5
35
102
{ACAD_XDICTIONARY
360
4A4
102
}
102
{ACAD_REACTORS
330
29
102
}
330
29
100
AcDbVisualStyle
  2
Brighten
 70
    12
 71
     2
 72
     2
 73
     0
 90
        0
 40
-0.6
 41
-30.0
 62
     5
 63
     7
421
 16777215
 74
     1
 91
        4
 64
     7
 65
   257
 75
     1
175
     1
 42
1.0
 92
        8
 66
     7
 43
1.0
 76
     1
 77
     6
 78
     2
 67
     7
 79
     5
170
     0
171
     0
290
     0
174
     0
 93
        1
 44
50.0
173
     0
291
     1
 45
0.0
1001
ACAD
1000
AcDbSavedByObjectVersion
1070
     0
  0
VISUALSTYLE
  5
39
102
{ACAD_XDICTIONARY
360
4AC
102
}
102
{ACAD_REACTORS
330
29
102
}
330
29
100
AcDbVisualStyle
  2
ColorChange
 70
    16
 71
     2
 72
     2
 73
     3
 90
        0
 40
-0.6
 41
-30.0
 62
     5
 63
     8
421
  8421504
 74
     1
 91
        4
 64
     7
 65
   257
 75
     1
175
     1
 42
1.0
 92
        8
 66
     8
424
  8421504
 43
1.0
 76
     1
 77
     6
 78
     2
 67
     7
 79
     5
170
     0
171
     0
290
     0
174
     0
 93
        1
 44
0.0
173
     0
291
     1
 45
0.0
1001
ACAD
1000
AcDbSavedByObjectVersion
1070
     0
  0
VISUALSTYLE
  5
32
102
{ACAD_XDICTIONARY
360
49E
102
}
102
{ACAD_REACTORS
330
29
102
}
330
29
100
AcDbVisualStyle
  2
Conceptual
 70
     9
 71
     3
 72
     2
 73
     0
 90
        0
 40
-0.6
 41
-30.0
 62
     5
 63
     7
421
 16777215
 74
     2
 91
        2
 64
     7
 65
   257
 75
     1
175
     1
 42
179.0
 92
        8
 66
     7
 43
1.0
 76
     1
 77
     6
 78
     2
 67
     7
 79
     3
170
     0
171
     0
290
     0
174
     0
 93
        1
 44
0.0
173
     0
291
     0
 45
0.0
1001
ACAD
1000
AcDbSavedByObjectVersion
1070
     0
  0
VISUALSTYLE
  5
34
102
{ACAD_XDICTIONARY
360
4A2
102
}
102
{ACAD_REACTORS
330
29
102
}
330
29
100
AcDbVisualStyle
  2
Dim
 70
    11
 71
     2
 72
     2
 73
     0
 90
        0
 40
-0.6
 41
-30.0
 62
     5
 63
     7
421
 16777215
 74
     1
 91
        4
 64
     7
 65
   257
 75
     1
175
     1
 42
1.0
 92
        8
 66
     7
 43
1.0
 76
     1
 77
     6
 78
     2
 67
     7
 79
     5
170
     0
171
     0
290
     0
174
     0
 93
        1
 44
-50.0
173
     0
291
     1
 45
0.0
1001
ACAD
1000
AcDbSavedByObjectVersion
1070
     0
  0
VISUALSTYLE
  5
3C
102
{ACAD_XDICTIONARY
360
4B2
102
}
102
{ACAD_REACTORS
330
29
102
}
330
29
100
AcDbVisualStyle
  2
EdgeColorOff
 70
    22
 71
     2
 72
     2
 73
     0
 90
        0
 40
-0.6
 41
-30.0
 62
     5
 63
     7
421
 16777215
 74
     1
 91
        4
 64
     7
 65
   257
 75
     1
175
     1
 42
1.0
 92
        8
 66
     7
 43
1.0
 76
     1
 77
     6
 78
     2
 67
     7
 79
     5
170
     0
171
     0
290
     0
174
     0
 93
        1
 44
0.0
173
     0
291
     1
 45
0.0
1001
ACAD
1000
AcDbSavedByObjectVersion
1070
     0
  0
VISUALSTYLE
  5
38
102
{ACAD_XDICTIONARY
360
4AA
102
}
102
{ACAD_REACTORS
330
29
102
}
330
29
100
AcDbVisualStyle
  2
Facepattern
 70
    15
 71
     2
 72
     2
 73
     0
 90
        0
 40
-0.6
 41
-30.0
 62
     5
 63
     7
421
 16777215
 74
     1
 91
        4
 64
     7
 65
   257
 75
     1
175
     1
 42
1.0
 92
        8
 66
     7
 43
1.0
 76
     1
 77
     6
 78
     2
 67
     7
 79
     5
170
     0
171
     0
290
     0
174
     0
 93
        1
 44
0.0
173
     0
291
     1
 45
0.0
1001
ACAD
1000
AcDbSavedByObjectVersion
1070
     0
  0
VISUALSTYLE
  5
2A
102
{ACAD_XDICTIONARY
360
48E
102
}
102
{ACAD_REACTORS
330
29
102
}
330
29
100
AcDbVisualStyle
  2
Flat
 70
     0
 71
     2
 72
     1
 73
     1
 90
        2
 40
-0.6
 41
30.0
 62
     5
 63
     7
421
 16777215
 74
     0
 91
        4
 64
     7
 65
   257
 75
     1
175
     1
 42
1.0
 92
        8
 66
     7
 43
1.0
 76
     1
 77
     6
 78
     2
 67
     7
 79
     5
170
     0
171
     0
290
     0
174
     0
 93
       13
 44
0.0
173
     0
291
     1
 45
0.0
1001
ACAD
1000
AcDbSavedByObjectVersion
1070
     0
  0
VISUALSTYLE
  5
2B
102
{ACAD_XDICTIONARY
360
490
102
}
102
{ACAD_REACTORS
330
29
102
}
330
29
100
AcDbVisualStyle
  2
FlatWithEdges
 70
     1
 71
     2
 72
     1
 73
     1
 90
        2
 40
-0.6
 41
30.0
 62
     5
 63
     7
421
 16777215
 74
     1
 91
        4
 64
     7
 65
   257
 75
     1
175
     1
 42
1.0
 92
        0
 66
   257
 43
1.0
 76
     1
 77
     6
 78
     2
 67
     7
 79
     5
170
     0
171
     0
290
     0
174
     0
 93
       13
 44
0.0
173
     0
291
     1
 45
0.0
1001
ACAD
1000
AcDbSavedByObjectVersion
1070
     0
  0
VISUALSTYLE
  5
2C
102
{ACAD_XDICTIONARY
360
492
102
}
102
{ACAD_REACTORS
330
29
102
}
330
29
100
AcDbVisualStyle
  2
Gouraud
 70
     2
 71
     2
 72
     2
 73
     1
 90
        2
 40
-0.6
 41
30.0
 62
     5
 63
     7
421
 16777215
 74
     0
 91
        4
 64
     7
 65
   257
 75
     1
175
     1
 42
1.0
 92
        0
 66
     7
 43
1.0
 76
     1
 77
     6
 78
     2
 67
     7
 79
     5
170
     0
171
     0
290
     0
174
     0
 93
       13
 44
0.0
173
     0
291
     1
 45
0.0
1001
ACAD
1000
AcDbSavedByObjectVersion
1070
     0
  0
VISUALSTYLE
  5
2D
102
{ACAD_XDICTIONARY
360
494
102
}
102
{ACAD_REACTORS
330
29
102
}
330
29
100
AcDbVisualStyle
  2
GouraudWithEdges
 70
     3
 71
     2
 72
     2
 73
     1
 90
        2
 40
-0.6
 41
30.0
 62
     5
 63
     7
421
 16777215
 74
     1
 91
        4
 64
     7
 65
   257
 75
     1
175
     1
 42
1.0
 92
        0
 66
   257
 43
1.0
 76
     1
 77
     6
 78
     2
 67
     7
 79
     5
170
     0
171
     0
290
     0
174
     0
 93
       13
 44
0.0
173
     0
291
     1
 45
0.0
1001
ACAD
1000
AcDbSavedByObjectVersion
1070
     0
  0
VISUALSTYLE
  5
3A
102
{ACAD_XDICTIONARY
360
4AE
102
}
102
{ACAD_REACTORS
330
29
102
}
330
29
100
AcDbVisualStyle
  2
JitterOff
 70
    20
 71
     2
 72
     2
 73
     0
 90
        0
 40
-0.6
 41
-30.0
 62
     5
 63
     7
421
 16777215
 74
     1
 91
        4
 64
     7
 65
   257
 75
     1
175
     1
 42
1.0
 92
       10
 66
     7
 43
1.0
 76
     1
 77
     6
 78
     2
 67
     7
 79
     5
170
     0
171
     0
290
     0
174
     0
 93
        1
 44
0.0
173
     0
291
     1
 45
0.0
1001
ACAD
1000
AcDbSavedByObjectVersion
1070
     0
  0
VISUALSTYLE
  5
37
102
{ACAD_XDICTIONARY
360
4A8
102
}
102
{ACAD_REACTORS
330
29
102
}
330
29
100
AcDbVisualStyle
  2
Linepattern
 70
    14
 71
     2
 72
     2
 73
     0
 90
        0
 40
-0.6
 41
-30.0
 62
     5
 63
     7
421
 16777215
 74
     1
 91
        4
 64
     7
 65
   257
 75
     7
175
     7
 42
1.0
 92
        8
 66
     7
 43
1.0
 76
     1
 77
     6
 78
     2
 67
     7
 79
     5
170
     0
171
     0
290
     0
174
     0
 93
        1
 44
0.0
173
     0
291
     1
 45
0.0
1001
ACAD
1000
AcDbSavedByObjectVersion
1070
     0
  0
VISUALSTYLE
  5
3B
102
{ACAD_XDICTIONARY
360
4B0
102
}
102
{ACAD_REACTORS
330
29
102
}
330
29
100
AcDbVisualStyle
  2
OverhangOff
 70
    21
 71
     2
 72
     2
 73
     0
 90
        0
 40
-0.6
 41
-30.0
 62
     5
 63
     7
421
 16777215
 74
     1
 91
        4
 64
     7
 65
   257
 75
     1
175
     1
 42
1.0
 92
        9
 66
     7
 43
1.0
 76
     1
 77
     6
 78
     2
 67
     7
 79
     5
170
     0
171
     0
290
     0
174
     0
 93
        1
 44
0.0
173
     0
291
     1
 45
0.0
1001
ACAD
1000
AcDbSavedByObjectVersion
1070
     0
  0
VISUALSTYLE
  5
33
102
{ACAD_XDICTIONARY
360
4A0
102
}
102
{ACAD_REACTORS
330
29
102
}
330
29
100
AcDbVisualStyle
  2
Realistic
 70
     8
 71
     2
 72
     2
 73
     0
 90
        0
 40
-0.6
 41
-30.0
 62
     5
 63
     7
421
 16777215
 74
     1
 91
        0
 64
     7
 65
   257
 75
     1
175
     1
 42
1.0
 92
        8
 66
     8
424
  7895160
 43
1.0
 76
     1
 77
     6
 78
     2
 67
     7
 79
     5
170
     0
171
     0
290
     0
174
     0
 93
       13
 44
0.0
173
     0
291
     0
 45
0.0
1001
ACAD
1000
AcDbSavedByObjectVersion
1070
     0
  0
VISUALSTYLE
  5
36
102
{ACAD_XDICTIONARY
360
4A6
102
}
102
{ACAD_REACTORS
330
29
102
}
330
29
100
AcDbVisualStyle
  2
Thicken
 70
    13
 71
     2
 72
     2
 73
     0
 90
        0
 40
-0.6
 41
-30.0
 62
     5
 63
     7
421
 16777215
 74
     1
 91
        4
 64
     7
 65
   257
 75
     1
175
     1
 42
1.0
 92
       12
 66
     7
 43
1.0
 76
     1
 77
     6
 78
     2
 67
     7
 79
     5
170
     0
171
     0
290
     0
174
     0
 93
        1
 44
0.0
173
     0
291
     1
 45
0.0
1001
ACAD
1000
AcDbSavedByObjectVersion
1070
     0
  0
DICTIONARYVAR
  5
486
102
{ACAD_REACTORS
330
482
102
}
330
482
100
DictionaryVariables
280
     0
  1
1:1
  0
DICTIONARYVAR
  5
484
102
{ACAD_REACTORS
330
482
102
}
330
482
100
DictionaryVariables
280
     0
  1
STANDARD
  0
DICTIONARYVAR
  5
483
102
{ACAD_REACTORS
330
482
102
}
330
482
100
DictionaryVariables
280
     0
  1
STANDARD
  0
DICTIONARYVAR
  5
488
102
{ACAD_REACTORS
330
482
102
}
330
482
100
DictionaryVariables
280
     0
  1
1
  0
DICTIONARYVAR
  5
489
102
{ACAD_REACTORS
330
482
102
}
330
482
100
DictionaryVariables
280
     0
  1
15
  0
DICTIONARYVAR
  5
487
102
{ACAD_REACTORS
330
482
102
}
330
482
100
DictionaryVariables
280
     0
  1
0
  0
DICTIONARYVAR
  5
485
102
{ACAD_REACTORS
330
482
102
}
330
482
100
DictionaryVariables
280
     0
  1
0
  0
DICTIONARYVAR
  5
48A
102
{ACAD_REACTORS
330
482
102
}
330
482
100
DictionaryVariables
280
     0
  1
2
  0
DICTIONARY
  5
1A
330
19
100
AcDbDictionary
280
     1
281
     1
  3
BUMPTILE
360
1C
  3
DIFFUSETILE
360
1B
  3
OPACITYTILE
360
1F
  3
REFLECTIONTILE
360
1E
  3
REFRACTIONTILE
360
20
  3
SPECULARTILE
360
1D
  0
DICTIONARY
  5
12
330
11
100
AcDbDictionary
280
     1
281
     1
  3
BUMPTILE
360
14
  3
DIFFUSETILE
360
13
  3
OPACITYTILE
360
17
  3
REFLECTIONTILE
360
16
  3
REFRACTIONTILE
360
18
  3
SPECULARTILE
360
15
  0
DICTIONARY
  5
22
330
21
100
AcDbDictionary
280
     1
281
     1
  3
BUMPTILE
360
24
  3
DIFFUSETILE
360
23
  3
OPACITYTILE
360
27
  3
REFLECTIONTILE
360
26
  3
REFRACTIONTILE
360
28
  3
SPECULARTILE
360
25
  0
DICTIONARY
  5
48B
330
6F
100
AcDbDictionary
280
     1
281
     1
  3
ACAD_ROUNDTRIP_2008_TABLESTYLE_CELLSTYLEMAP
360
48C
  0
DICTIONARY
  5
498
330
2F
100
AcDbDictionary
280
     1
281
     1
  3
ACAD_XREC_ROUNDTRIP
360
499
  0
DICTIONARY
  5
49C
330
31
100
AcDbDictionary
280
     1
281
     1
  3
ACAD_XREC_ROUNDTRIP
360
49D
  0
DICTIONARY
  5
49A
330
30
100
AcDbDictionary
280
     1
281
     1
  3
ACAD_XREC_ROUNDTRIP
360
49B
  0
DICTIONARY
  5
496
330
2E
100
AcDbDictionary
280
     1
281
     1
  3
ACAD_XREC_ROUNDTRIP
360
497
  0
DICTIONARY
  5
4A4
330
35
100
AcDbDictionary
280
     1
281
     1
  3
ACAD_XREC_ROUNDTRIP
360
4A5
  0
DICTIONARY
  5
4AC
330
39
100
AcDbDictionary
280
     1
281
     1
  3
ACAD_XREC_ROUNDTRIP
360
4AD
  0
DICTIONARY
  5
49E
330
32
100
AcDbDictionary
280
     1
281
     1
  3
ACAD_XREC_ROUNDTRIP
360
49F
  0
DICTIONARY
  5
4A2
330
34
100
AcDbDictionary
280
     1
281
     1
  3
ACAD_XREC_ROUNDTRIP
360
4A3
  0
DICTIONARY
  5
4B2
330
3C
100
AcDbDictionary
280
     1
281
     1
  3
ACAD_XREC_ROUNDTRIP
360
4B3
  0
DICTIONARY
  5
4AA
330
38
100
AcDbDictionary
280
     1
281
     1
  3
ACAD_XREC_ROUNDTRIP
360
4AB
  0
DICTIONARY
  5
48E
330
2A
100
AcDbDictionary
280
     1
281
     1
  3
ACAD_XREC_ROUNDTRIP
360
48F
  0
DICTIONARY
  5
490
330
2B
100
AcDbDictionary
280
     1
281
     1
  3
ACAD_XREC_ROUNDTRIP
360
491
  0
DICTIONARY
  5
492
330
2C
100
AcDbDictionary
280
     1
281
     1
  3
ACAD_XREC_ROUNDTRIP
360
493
  0
DICTIONARY
  5
494
330
2D
100
AcDbDictionary
280
     1
281
     1
  3
ACAD_XREC_ROUNDTRIP
360
495
  0
DICTIONARY
  5
4AE
330
3A
100
AcDbDictionary
280
     1
281
     1
  3
ACAD_XREC_ROUNDTRIP
360
4AF
  0
DICTIONARY
  5
4A8
330
37
100
AcDbDictionary
280
     1
281
     1
  3
ACAD_XREC_ROUNDTRIP
360
4A9
  0
DICTIONARY
  5
4B0
330
3B
100
AcDbDictionary
280
     1
281
     1
  3
ACAD_XREC_ROUNDTRIP
360
4B1
  0
DICTIONARY
  5
4A0
330
33
100
AcDbDictionary
280
     1
281
     1
  3
ACAD_XREC_ROUNDTRIP
360
4A1
  0
DICTIONARY
  5
4A6
330
36
100
AcDbDictionary
280
     1
281
     1
  3
ACAD_XREC_ROUNDTRIP
360
4A7
  0
XRECORD
  5
1C
102
{ACAD_REACTORS
330
1A
102
}
330
1A
100
AcDbXrecord
280
     1
270
     1
271
     1
  0
XRECORD
  5
1B
102
{ACAD_REACTORS
330
1A
102
}
330
1A
100
AcDbXrecord
280
     1
270
     1
271
     1
  0
XRECORD
  5
1F
102
{ACAD_REACTORS
330
1A
102
}
330
1A
100
AcDbXrecord
280
     1
270
     1
271
     1
  0
XRECORD
  5
1E
102
{ACAD_REACTORS
330
1A
102
}
330
1A
100
AcDbXrecord
280
     1
270
     1
271
     1
  0
XRECORD
  5
20
102
{ACAD_REACTORS
330
1A
102
}
330
1A
100
AcDbXrecord
280
     1
270
     1
271
     1
  0
XRECORD
  5
1D
102
{ACAD_REACTORS
330
1A
102
}
330
1A
100
AcDbXrecord
280
     1
270
     1
271
     1
  0
XRECORD
  5
14
102
{ACAD_REACTORS
330
12
102
}
330
12
100
AcDbXrecord
280
     1
270
     1
271
     1
  0
XRECORD
  5
13
102
{ACAD_REACTORS
330
12
102
}
330
12
100
AcDbXrecord
280
     1
270
     1
271
     1
  0
XRECORD
  5
17
102
{ACAD_REACTORS
330
12
102
}
330
12
100
AcDbXrecord
280
     1
270
     1
271
     1
  0
XRECORD
  5
16
102
{ACAD_REACTORS
330
12
102
}
330
12
100
AcDbXrecord
280
     1
270
     1
271
     1
  0
XRECORD
  5
18
102
{ACAD_REACTORS
330
12
102
}
330
12
100
AcDbXrecord
280
     1
270
     1
271
     1
  0
XRECORD
  5
15
102
{ACAD_REACTORS
330
12
102
}
330
12
100
AcDbXrecord
280
     1
270
     1
271
     1
  0
XRECORD
  5
24
102
{ACAD_REACTORS
330
22
102
}
330
22
100
AcDbXrecord
280
     1
270
     1
271
     1
  0
XRECORD
  5
23
102
{ACAD_REACTORS
330
22
102
}
330
22
100
AcDbXrecord
280
     1
270
     1
271
     1
  0
XRECORD
  5
27
102
{ACAD_REACTORS
330
22
102
}
330
22
100
AcDbXrecord
280
     1
270
     1
271
     1
  0
XRECORD
  5
26
102
{ACAD_REACTORS
330
22
102
}
330
22
100
AcDbXrecord
280
     1
270
     1
271
     1
  0
XRECORD
  5
28
102
{ACAD_REACTORS
330
22
102
}
330
22
100
AcDbXrecord
280
     1
270
     1
271
     1
  0
XRECORD
  5
25
102
{ACAD_REACTORS
330
22
102
}
330
22
100
AcDbXrecord
280
     1
270
     1
271
     1
  0
CELLSTYLEMAP
  5
48C
102
{ACAD_REACTORS
330
48B
102
}
330
48B
100
AcDbCellStyleMap
 90
        3
300
CELLSTYLE
  1
TABLEFORMAT_BEGIN
 90
        5
170
     1
 91
        0
 92
    32768
 62
   257
 93
        1
300
CONTENTFORMAT
  1
CONTENTFORMAT_BEGIN
 90
        0
 91
        0
 92
      512
 93
        0
300

 40
0.0
140
1.0
 94
        5
 62
     0
340
60
144
0.25
309
CONTENTFORMAT_END
171
     0
 94
        0
309
TABLEFORMAT_END
  1
CELLSTYLE_BEGIN
 90
        1
 91
        1
300
_TITLE
309
CELLSTYLE_END
300
CELLSTYLE
  1
TABLEFORMAT_BEGIN
 90
        5
170
     1
 91
        0
 92
        0
 62
   257
 93
        1
300
CONTENTFORMAT
  1
CONTENTFORMAT_BEGIN
 90
        0
 91
        0
 92
      512
 93
        0
300

 40
0.0
140
1.0
 94
        5
 62
     0
340
60
144
0.18
309
CONTENTFORMAT_END
171
     0
 94
        0
309
TABLEFORMAT_END
  1
CELLSTYLE_BEGIN
 90
        2
 91
        1
300
_HEADER
309
CELLSTYLE_END
300
CELLSTYLE
  1
TABLEFORMAT_BEGIN
 90
        5
170
     1
 91
        0
 92
        0
 62
   257
 93
        1
300
CONTENTFORMAT
  1
CONTENTFORMAT_BEGIN
 90
        0
 91
        0
 92
      512
 93
        0
300

 40
0.0
140
1.0
 94
        2
 62
     0
340
60
144
0.18
309
CONTENTFORMAT_END
171
     0
 94
        0
309
TABLEFORMAT_END
  1
CELLSTYLE_BEGIN
 90
        3
 91
        2
300
_DATA
309
CELLSTYLE_END
  0
XRECORD
  5
499
102
{ACAD_REACTORS
330
498
102
}
330
498
100
AcDbXrecord
280
     1
102
RTVSPropertyOp0
 70
     1
102
RTVSPropertyOp1
 70
     1
102
RTVSPropertyOp2
 70
     1
102
RTVSPropertyOp3
 70
     1
102
RTVSPropertyOp4
 70
     1
102
RTVSPropertyOp5
 70
     1
102
RTVSPropertyOp6
 70
     1
102
RTVSPropertyOp7
 70
     1
102
RTVSPropertyOp8
 70
     1
102
RTVSPropertyOp9
 70
     1
102
RTVSPropertyOp10
 70
     1
102
RTVSPropertyOp11
 70
     1
102
RTVSPropertyOp12
 70
     1
102
RTVSPropertyOp13
 70
     1
102
RTVSPropertyOp14
 70
     1
102
RTVSPropertyOp15
 70
     1
102
RTVSPropertyOp16
 70
     1
102
RTVSPropertyOp17
 70
     1
102
RTVSPropertyOp18
 70
     1
102
RTVSPropertyOp19
 70
     1
102
RTVSPropertyOp20
 70
     1
102
RTVSPropertyOp21
 70
     1
102
RTVSPropertyOp22
 70
     1
102
RTVSPropertyOp23
 70
     1
102
RTVSPropertyOp24
 70
     1
102
RTVSPropertyOp25
 70
     1
102
RTVSPropertyOp26
 70
     1
102
RTVSPropertyOp27
 70
     1
  0
XRECORD
  5
49D
102
{ACAD_REACTORS
330
49C
102
}
330
49C
100
AcDbXrecord
280
     1
102
RTVSPropertyOp0
 70
     1
102
RTVSPropertyOp1
 70
     1
102
RTVSPropertyOp2
 70
     1
102
RTVSPropertyOp3
 70
     1
102
RTVSPropertyOp4
 70
     1
102
RTVSPropertyOp5
 70
     1
102
RTVSPropertyOp6
 70
     1
102
RTVSPropertyOp7
 70
     1
102
RTVSPropertyOp8
 70
     1
102
RTVSPropertyOp9
 70
     1
102
RTVSPropertyOp10
 70
     1
102
RTVSPropertyOp11
 70
     1
102
RTVSPropertyOp12
 70
     1
102
RTVSPropertyOp13
 70
     1
102
RTVSPropertyOp14
 70
     1
102
RTVSPropertyOp15
 70
     1
102
RTVSPropertyOp16
 70
     1
102
RTVSPropertyOp17
 70
     1
102
RTVSPropertyOp18
 70
     1
102
RTVSPropertyOp19
 70
     1
102
RTVSPropertyOp20
 70
     1
102
RTVSPropertyOp21
 70
     1
102
RTVSPropertyOp22
 70
     1
102
RTVSPropertyOp23
 70
     1
102
RTVSPropertyOp24
 70
     1
102
RTVSPropertyOp25
 70
     1
102
RTVSPropertyOp26
 70
     1
102
RTVSPropertyOp27
 70
     1
  0
XRECORD
  5
49B
102
{ACAD_REACTORS
330
49A
102
}
330
49A
100
AcDbXrecord
280
     1
102
RTVSPropertyOp0
 70
     1
102
RTVSPropertyOp1
 70
     1
102
RTVSPropertyOp2
 70
     1
102
RTVSPropertyOp3
 70
     1
102
RTVSPropertyOp4
 70
     1
102
RTVSPropertyOp5
 70
     1
102
RTVSPropertyOp6
 70
     1
102
RTVSPropertyOp7
 70
     1
102
RTVSPropertyOp8
 70
     1
102
RTVSPropertyOp9
 70
     1
102
RTVSPropertyOp10
 70
     1
102
RTVSPropertyOp11
 70
     1
102
RTVSPropertyOp12
 70
     1
102
RTVSPropertyOp13
 70
     1
102
RTVSPropertyOp14
 70
     1
102
RTVSPropertyOp15
 70
     1
102
RTVSPropertyOp16
 70
     1
102
RTVSPropertyOp17
 70
     1
102
RTVSPropertyOp18
 70
     1
102
RTVSPropertyOp19
 70
     1
102
RTVSPropertyOp20
 70
     1
102
RTVSPropertyOp21
 70
     1
102
RTVSPropertyOp22
 70
     1
102
RTVSPropertyOp23
 70
     1
102
RTVSPropertyOp24
 70
     1
102
RTVSPropertyOp25
 70
     1
102
RTVSPropertyOp26
 70
     1
102
RTVSPropertyOp27
 70
     1
  0
XRECORD
  5
497
102
{ACAD_REACTORS
330
496
102
}
330
496
100
AcDbXrecord
280
     1
102
RTVSPropertyOp0
 70
     1
102
RTVSPropertyOp1
 70
     1
102
RTVSPropertyOp2
 70
     1
102
RTVSPropertyOp3
 70
     1
102
RTVSPropertyOp4
 70
     1
102
RTVSPropertyOp5
 70
     1
102
RTVSPropertyOp6
 70
     1
102
RTVSPropertyOp7
 70
     1
102
RTVSPropertyOp8
 70
     1
102
RTVSPropertyOp9
 70
     1
102
RTVSPropertyOp10
 70
     1
102
RTVSPropertyOp11
 70
     1
102
RTVSPropertyOp12
 70
     1
102
RTVSPropertyOp13
 70
     1
102
RTVSPropertyOp14
 70
     1
102
RTVSPropertyOp15
 70
     1
102
RTVSPropertyOp16
 70
     1
102
RTVSPropertyOp17
 70
     1
102
RTVSPropertyOp18
 70
     1
102
RTVSPropertyOp19
 70
     1
102
RTVSPropertyOp20
 70
     1
102
RTVSPropertyOp21
 70
     1
102
RTVSPropertyOp22
 70
     1
102
RTVSPropertyOp23
 70
     1
102
RTVSPropertyOp24
 70
     1
102
RTVSPropertyOp25
 70
     1
102
RTVSPropertyOp26
 70
     1
102
RTVSPropertyOp27
 70
     1
  0
XRECORD
  5
4A5
102
{ACAD_REACTORS
330
4A4
102
}
330
4A4
100
AcDbXrecord
280
     1
102
RTVSPropertyOp0
 70
     1
102
RTVSPropertyOp1
 70
     1
102
RTVSPropertyOp2
 70
     1
102
RTVSPropertyOp3
 70
     1
102
RTVSPropertyOp4
 70
     1
102
RTVSPropertyOp5
 70
     1
102
RTVSPropertyOp6
 70
     1
102
RTVSPropertyOp7
 70
     1
102
RTVSPropertyOp8
 70
     1
102
RTVSPropertyOp9
 70
     1
102
RTVSPropertyOp10
 70
     1
102
RTVSPropertyOp11
 70
     1
102
RTVSPropertyOp12
 70
     1
102
RTVSPropertyOp13
 70
     1
102
RTVSPropertyOp14
 70
     1
102
RTVSPropertyOp15
 70
     1
102
RTVSPropertyOp16
 70
     1
102
RTVSPropertyOp17
 70
     1
102
RTVSPropertyOp18
 70
     1
102
RTVSPropertyOp19
 70
     1
102
RTVSPropertyOp20
 70
     1
102
RTVSPropertyOp21
 70
     1
102
RTVSPropertyOp22
 70
     1
102
RTVSPropertyOp23
 70
     1
102
RTVSPropertyOp24
 70
     1
102
RTVSPropertyOp25
 70
     1
102
RTVSPropertyOp26
 70
     1
102
RTVSPropertyOp27
 70
     1
  0
XRECORD
  5
4AD
102
{ACAD_REACTORS
330
4AC
102
}
330
4AC
100
AcDbXrecord
280
     1
102
RTVSPropertyOp0
 70
     1
102
RTVSPropertyOp1
 70
     1
102
RTVSPropertyOp2
 70
     1
102
RTVSPropertyOp3
 70
     1
102
RTVSPropertyOp4
 70
     1
102
RTVSPropertyOp5
 70
     1
102
RTVSPropertyOp6
 70
     1
102
RTVSPropertyOp7
 70
     1
102
RTVSPropertyOp8
 70
     1
102
RTVSPropertyOp9
 70
     1
102
RTVSPropertyOp10
 70
     1
102
RTVSPropertyOp11
 70
     1
102
RTVSPropertyOp12
 70
     1
102
RTVSPropertyOp13
 70
     1
102
RTVSPropertyOp14
 70
     1
102
RTVSPropertyOp15
 70
     1
102
RTVSPropertyOp16
 70
     1
102
RTVSPropertyOp17
 70
     1
102
RTVSPropertyOp18
 70
     1
102
RTVSPropertyOp19
 70
     1
102
RTVSPropertyOp20
 70
     1
102
RTVSPropertyOp21
 70
     1
102
RTVSPropertyOp22
 70
     1
102
RTVSPropertyOp23
 70
     1
102
RTVSPropertyOp24
 70
     1
102
RTVSPropertyOp25
 70
     1
102
RTVSPropertyOp26
 70
     1
102
RTVSPropertyOp27
 70
     1
  0
XRECORD
  5
49F
102
{ACAD_REACTORS
330
49E
102
}
330
49E
100
AcDbXrecord
280
     1
102
RTVSPropertyOp0
 70
     1
102
RTVSPropertyOp1
 70
     1
102
RTVSPropertyOp2
 70
     1
102
RTVSPropertyOp3
 70
     1
102
RTVSPropertyOp4
 70
     1
102
RTVSPropertyOp5
 70
     1
102
RTVSPropertyOp6
 70
     1
102
RTVSPropertyOp7
 70
     1
102
RTVSPropertyOp8
 70
     1
102
RTVSPropertyOp9
 70
     1
102
RTVSPropertyOp10
 70
     1
102
RTVSPropertyOp11
 70
     1
102
RTVSPropertyOp12
 70
     1
102
RTVSPropertyOp13
 70
     1
102
RTVSPropertyOp14
 70
     1
102
RTVSPropertyOp15
 70
     1
102
RTVSPropertyOp16
 70
     1
102
RTVSPropertyOp17
 70
     1
102
RTVSPropertyOp18
 70
     1
102
RTVSPropertyOp19
 70
     1
102
RTVSPropertyOp20
 70
     1
102
RTVSPropertyOp21
 70
     1
102
RTVSPropertyOp22
 70
     1
102
RTVSPropertyOp23
 70
     1
102
RTVSPropertyOp24
 70
     1
102
RTVSPropertyOp25
 70
     1
102
RTVSPropertyOp26
 70
     1
102
RTVSPropertyOp27
 70
     1
  0
XRECORD
  5
4A3
102
{ACAD_REACTORS
330
4A2
102
}
330
4A2
100
AcDbXrecord
280
     1
102
RTVSPropertyOp0
 70
     1
102
RTVSPropertyOp1
 70
     1
102
RTVSPropertyOp2
 70
     1
102
RTVSPropertyOp3
 70
     1
102
RTVSPropertyOp4
 70
     1
102
RTVSPropertyOp5
 70
     1
102
RTVSPropertyOp6
 70
     1
102
RTVSPropertyOp7
 70
     1
102
RTVSPropertyOp8
 70
     1
102
RTVSPropertyOp9
 70
     1
102
RTVSPropertyOp10
 70
     1
102
RTVSPropertyOp11
 70
     1
102
RTVSPropertyOp12
 70
     1
102
RTVSPropertyOp13
 70
     1
102
RTVSPropertyOp14
 70
     1
102
RTVSPropertyOp15
 70
     1
102
RTVSPropertyOp16
 70
     1
102
RTVSPropertyOp17
 70
     1
102
RTVSPropertyOp18
 70
     1
102
RTVSPropertyOp19
 70
     1
102
RTVSPropertyOp20
 70
     1
102
RTVSPropertyOp21
 70
     1
102
RTVSPropertyOp22
 70
     1
102
RTVSPropertyOp23
 70
     1
102
RTVSPropertyOp24
 70
     1
102
RTVSPropertyOp25
 70
     1
102
RTVSPropertyOp26
 70
     1
102
RTVSPropertyOp27
 70
     1
  0
XRECORD
  5
4B3
102
{ACAD_REACTORS
330
4B2
102
}
330
4B2
100
AcDbXrecord
280
     1
102
RTVSPropertyOp0
 70
     0
102
RTVSPropertyOp1
 70
     0
102
RTVSPropertyOp2
 70
     0
102
RTVSPropertyOp3
 70
     0
102
RTVSPropertyOp4
 70
     0
102
RTVSPropertyOp5
 70
     0
102
RTVSPropertyOp6
 70
     0
102
RTVSPropertyOp7
 70
     0
102
RTVSPropertyOp8
 70
     0
102
RTVSPropertyOp9
 70
     0
102
RTVSPropertyOp10
 70
     0
102
RTVSPropertyOp11
 70
     0
102
RTVSPropertyOp12
 70
     0
102
RTVSPropertyOp13
 70
     0
102
RTVSPropertyOp14
 70
     2
102
RTVSPropertyOp15
 70
     0
102
RTVSPropertyOp16
 70
     0
102
RTVSPropertyOp17
 70
     0
102
RTVSPropertyOp18
 70
     0
102
RTVSPropertyOp19
 70
     0
102
RTVSPropertyOp20
 70
     0
102
RTVSPropertyOp21
 70
     0
102
RTVSPropertyOp22
 70
     0
102
RTVSPropertyOp23
 70
     0
102
RTVSPropertyOp24
 70
     0
102
RTVSPropertyOp25
 70
     0
102
RTVSPropertyOp26
 70
     0
102
RTVSPropertyOp27
 70
     0
  0
XRECORD
  5
4AB
102
{ACAD_REACTORS
330
4AA
102
}
330
4AA
100
AcDbXrecord
280
     1
102
RTVSPropertyOp0
 70
     1
102
RTVSPropertyOp1
 70
     1
102
RTVSPropertyOp2
 70
     1
102
RTVSPropertyOp3
 70
     1
102
RTVSPropertyOp4
 70
     1
102
RTVSPropertyOp5
 70
     1
102
RTVSPropertyOp6
 70
     1
102
RTVSPropertyOp7
 70
     1
102
RTVSPropertyOp8
 70
     1
102
RTVSPropertyOp9
 70
     1
102
RTVSPropertyOp10
 70
     1
102
RTVSPropertyOp11
 70
     1
102
RTVSPropertyOp12
 70
     1
102
RTVSPropertyOp13
 70
     1
102
RTVSPropertyOp14
 70
     1
102
RTVSPropertyOp15
 70
     1
102
RTVSPropertyOp16
 70
     1
102
RTVSPropertyOp17
 70
     1
102
RTVSPropertyOp18
 70
     1
102
RTVSPropertyOp19
 70
     1
102
RTVSPropertyOp20
 70
     1
102
RTVSPropertyOp21
 70
     1
102
RTVSPropertyOp22
 70
     1
102
RTVSPropertyOp23
 70
     1
102
RTVSPropertyOp24
 70
     1
102
RTVSPropertyOp25
 70
     1
102
RTVSPropertyOp26
 70
     1
102
RTVSPropertyOp27
 70
     1
  0
XRECORD
  5
48F
102
{ACAD_REACTORS
330
48E
102
}
330
48E
100
AcDbXrecord
280
     1
102
RTVSPropertyOp0
 70
     1
102
RTVSPropertyOp1
 70
     1
102
RTVSPropertyOp2
 70
     1
102
RTVSPropertyOp3
 70
     1
102
RTVSPropertyOp4
 70
     1
102
RTVSPropertyOp5
 70
     1
102
RTVSPropertyOp6
 70
     1
102
RTVSPropertyOp7
 70
     1
102
RTVSPropertyOp8
 70
     1
102
RTVSPropertyOp9
 70
     1
102
RTVSPropertyOp10
 70
     1
102
RTVSPropertyOp11
 70
     1
102
RTVSPropertyOp12
 70
     1
102
RTVSPropertyOp13
 70
     1
102
RTVSPropertyOp14
 70
     1
102
RTVSPropertyOp15
 70
     1
102
RTVSPropertyOp16
 70
     1
102
RTVSPropertyOp17
 70
     1
102
RTVSPropertyOp18
 70
     1
102
RTVSPropertyOp19
 70
     1
102
RTVSPropertyOp20
 70
     1
102
RTVSPropertyOp21
 70
     1
102
RTVSPropertyOp22
 70
     1
102
RTVSPropertyOp23
 70
     1
102
RTVSPropertyOp24
 70
     1
102
RTVSPropertyOp25
 70
     1
102
RTVSPropertyOp26
 70
     1
102
RTVSPropertyOp27
 70
     1
  0
XRECORD
  5
491
102
{ACAD_REACTORS
330
490
102
}
330
490
100
AcDbXrecord
280
     1
102
RTVSPropertyOp0
 70
     1
102
RTVSPropertyOp1
 70
     1
102
RTVSPropertyOp2
 70
     1
102
RTVSPropertyOp3
 70
     1
102
RTVSPropertyOp4
 70
     1
102
RTVSPropertyOp5
 70
     1
102
RTVSPropertyOp6
 70
     1
102
RTVSPropertyOp7
 70
     1
102
RTVSPropertyOp8
 70
     1
102
RTVSPropertyOp9
 70
     1
102
RTVSPropertyOp10
 70
     1
102
RTVSPropertyOp11
 70
     1
102
RTVSPropertyOp12
 70
     1
102
RTVSPropertyOp13
 70
     1
102
RTVSPropertyOp14
 70
     1
102
RTVSPropertyOp15
 70
     1
102
RTVSPropertyOp16
 70
     1
102
RTVSPropertyOp17
 70
     1
102
RTVSPropertyOp18
 70
     1
102
RTVSPropertyOp19
 70
     1
102
RTVSPropertyOp20
 70
     1
102
RTVSPropertyOp21
 70
     1
102
RTVSPropertyOp22
 70
     1
102
RTVSPropertyOp23
 70
     1
102
RTVSPropertyOp24
 70
     1
102
RTVSPropertyOp25
 70
     1
102
RTVSPropertyOp26
 70
     1
102
RTVSPropertyOp27
 70
     1
  0
XRECORD
  5
493
102
{ACAD_REACTORS
330
492
102
}
330
492
100
AcDbXrecord
280
     1
102
RTVSPropertyOp0
 70
     1
102
RTVSPropertyOp1
 70
     1
102
RTVSPropertyOp2
 70
     1
102
RTVSPropertyOp3
 70
     1
102
RTVSPropertyOp4
 70
     1
102
RTVSPropertyOp5
 70
     1
102
RTVSPropertyOp6
 70
     1
102
RTVSPropertyOp7
 70
     1
102
RTVSPropertyOp8
 70
     1
102
RTVSPropertyOp9
 70
     1
102
RTVSPropertyOp10
 70
     1
102
RTVSPropertyOp11
 70
     1
102
RTVSPropertyOp12
 70
     1
102
RTVSPropertyOp13
 70
     1
102
RTVSPropertyOp14
 70
     1
102
RTVSPropertyOp15
 70
     1
102
RTVSPropertyOp16
 70
     1
102
RTVSPropertyOp17
 70
     1
102
RTVSPropertyOp18
 70
     1
102
RTVSPropertyOp19
 70
     1
102
RTVSPropertyOp20
 70
     1
102
RTVSPropertyOp21
 70
     1
102
RTVSPropertyOp22
 70
     1
102
RTVSPropertyOp23
 70
     1
102
RTVSPropertyOp24
 70
     1
102
RTVSPropertyOp25
 70
     1
102
RTVSPropertyOp26
 70
     1
102
RTVSPropertyOp27
 70
     1
  0
XRECORD
  5
495
102
{ACAD_REACTORS
330
494
102
}
330
494
100
AcDbXrecord
280
     1
102
RTVSPropertyOp0
 70
     1
102
RTVSPropertyOp1
 70
     1
102
RTVSPropertyOp2
 70
     1
102
RTVSPropertyOp3
 70
     1
102
RTVSPropertyOp4
 70
     1
102
RTVSPropertyOp5
 70
     1
102
RTVSPropertyOp6
 70
     1
102
RTVSPropertyOp7
 70
     1
102
RTVSPropertyOp8
 70
     1
102
RTVSPropertyOp9
 70
     1
102
RTVSPropertyOp10
 70
     1
102
RTVSPropertyOp11
 70
     1
102
RTVSPropertyOp12
 70
     1
102
RTVSPropertyOp13
 70
     1
102
RTVSPropertyOp14
 70
     1
102
RTVSPropertyOp15
 70
     1
102
RTVSPropertyOp16
 70
     1
102
RTVSPropertyOp17
 70
     1
102
RTVSPropertyOp18
 70
     1
102
RTVSPropertyOp19
 70
     1
102
RTVSPropertyOp20
 70
     1
102
RTVSPropertyOp21
 70
     1
102
RTVSPropertyOp22
 70
     1
102
RTVSPropertyOp23
 70
     1
102
RTVSPropertyOp24
 70
     1
102
RTVSPropertyOp25
 70
     1
102
RTVSPropertyOp26
 70
     1
102
RTVSPropertyOp27
 70
     1
  0
XRECORD
  5
4AF
102
{ACAD_REACTORS
330
4AE
102
}
330
4AE
100
AcDbXrecord
280
     1
102
RTVSPropertyOp0
 70
     0
102
RTVSPropertyOp1
 70
     0
102
RTVSPropertyOp2
 70
     0
102
RTVSPropertyOp3
 70
     0
102
RTVSPropertyOp4
 70
     0
102
RTVSPropertyOp5
 70
     0
102
RTVSPropertyOp6
 70
     0
102
RTVSPropertyOp7
 70
     0
102
RTVSPropertyOp8
 70
     0
102
RTVSPropertyOp9
 70
     0
102
RTVSPropertyOp10
 70
     0
102
RTVSPropertyOp11
 70
     0
102
RTVSPropertyOp12
 70
     0
102
RTVSPropertyOp13
 70
     0
102
RTVSPropertyOp14
 70
     2
102
RTVSPropertyOp15
 70
     0
102
RTVSPropertyOp16
 70
     0
102
RTVSPropertyOp17
 70
     0
102
RTVSPropertyOp18
 70
     0
102
RTVSPropertyOp19
 70
     0
102
RTVSPropertyOp20
 70
     0
102
RTVSPropertyOp21
 70
     0
102
RTVSPropertyOp22
 70
     0
102
RTVSPropertyOp23
 70
     0
102
RTVSPropertyOp24
 70
     0
102
RTVSPropertyOp25
 70
     0
102
RTVSPropertyOp26
 70
     0
102
RTVSPropertyOp27
 70
     0
  0
XRECORD
  5
4A9
102
{ACAD_REACTORS
330
4A8
102
}
330
4A8
100
AcDbXrecord
280
     1
102
RTVSPropertyOp0
 70
     1
102
RTVSPropertyOp1
 70
     1
102
RTVSPropertyOp2
 70
     1
102
RTVSPropertyOp3
 70
     1
102
RTVSPropertyOp4
 70
     1
102
RTVSPropertyOp5
 70
     1
102
RTVSPropertyOp6
 70
     1
102
RTVSPropertyOp7
 70
     1
102
RTVSPropertyOp8
 70
     1
102
RTVSPropertyOp9
 70
     1
102
RTVSPropertyOp10
 70
     1
102
RTVSPropertyOp11
 70
     1
102
RTVSPropertyOp12
 70
     1
102
RTVSPropertyOp13
 70
     1
102
RTVSPropertyOp14
 70
     1
102
RTVSPropertyOp15
 70
     1
102
RTVSPropertyOp16
 70
     1
102
RTVSPropertyOp17
 70
     1
102
RTVSPropertyOp18
 70
     1
102
RTVSPropertyOp19
 70
     1
102
RTVSPropertyOp20
 70
     1
102
RTVSPropertyOp21
 70
     1
102
RTVSPropertyOp22
 70
     1
102
RTVSPropertyOp23
 70
     1
102
RTVSPropertyOp24
 70
     1
102
RTVSPropertyOp25
 70
     1
102
RTVSPropertyOp26
 70
     1
102
RTVSPropertyOp27
 70
     1
  0
XRECORD
  5
4B1
102
{ACAD_REACTORS
330
4B0
102
}
330
4B0
100
AcDbXrecord
280
     1
102
RTVSPropertyOp0
 70
     0
102
RTVSPropertyOp1
 70
     0
102
RTVSPropertyOp2
 70
     0
102
RTVSPropertyOp3
 70
     0
102
RTVSPropertyOp4
 70
     0
102
RTVSPropertyOp5
 70
     0
102
RTVSPropertyOp6
 70
     0
102
RTVSPropertyOp7
 70
     0
102
RTVSPropertyOp8
 70
     0
102
RTVSPropertyOp9
 70
     0
102
RTVSPropertyOp10
 70
     0
102
RTVSPropertyOp11
 70
     0
102
RTVSPropertyOp12
 70
     0
102
RTVSPropertyOp13
 70
     0
102
RTVSPropertyOp14
 70
     2
102
RTVSPropertyOp15
 70
     0
102
RTVSPropertyOp16
 70
     0
102
RTVSPropertyOp17
 70
     0
102
RTVSPropertyOp18
 70
     0
102
RTVSPropertyOp19
 70
     0
102
RTVSPropertyOp20
 70
     0
102
RTVSPropertyOp21
 70
     0
102
RTVSPropertyOp22
 70
     0
102
RTVSPropertyOp23
 70
     0
102
RTVSPropertyOp24
 70
     0
102
RTVSPropertyOp25
 70
     0
102
RTVSPropertyOp26
 70
     0
102
RTVSPropertyOp27
 70
     0
  0
XRECORD
  5
4A1
102
{ACAD_REACTORS
330
4A0
102
}
330
4A0
100
AcDbXrecord
280
     1
102
RTVSPropertyOp0
 70
     1
102
RTVSPropertyOp1
 70
     1
102
RTVSPropertyOp2
 70
     1
102
RTVSPropertyOp3
 70
     1
102
RTVSPropertyOp4
 70
     1
102
RTVSPropertyOp5
 70
     1
102
RTVSPropertyOp6
 70
     1
102
RTVSPropertyOp7
 70
     1
102
RTVSPropertyOp8
 70
     1
102
RTVSPropertyOp9
 70
     1
102
RTVSPropertyOp10
 70
     1
102
RTVSPropertyOp11
 70
     1
102
RTVSPropertyOp12
 70
     1
102
RTVSPropertyOp13
 70
     1
102
RTVSPropertyOp14
 70
     1
102
RTVSPropertyOp15
 70
     1
102
RTVSPropertyOp16
 70
     1
102
RTVSPropertyOp17
 70
     1
102
RTVSPropertyOp18
 70
     1
102
RTVSPropertyOp19
 70
     1
102
RTVSPropertyOp20
 70
     1
102
RTVSPropertyOp21
 70
     1
102
RTVSPropertyOp22
 70
     1
102
RTVSPropertyOp23
 70
     1
102
RTVSPropertyOp24
 70
     1
102
RTVSPropertyOp25
 70
     1
102
RTVSPropertyOp26
 70
     1
102
RTVSPropertyOp27
 70
     1
  0
XRECORD
  5
4A7
102
{ACAD_REACTORS
330
4A6
102
}
330
4A6
100
AcDbXrecord
280
     1
102
RTVSPropertyOp0
 70
     1
102
RTVSPropertyOp1
 70
     1
102
RTVSPropertyOp2
 70
     1
102
RTVSPropertyOp3
 70
     1
102
RTVSPropertyOp4
 70
     1
102
RTVSPropertyOp5
 70
     1
102
RTVSPropertyOp6
 70
     1
102
RTVSPropertyOp7
 70
     1
102
RTVSPropertyOp8
 70
     1
102
RTVSPropertyOp9
 70
     1
102
RTVSPropertyOp10
 70
     1
102
RTVSPropertyOp11
 70
     1
102
RTVSPropertyOp12
 70
     1
102
RTVSPropertyOp13
 70
     1
102
RTVSPropertyOp14
 70
     1
102
RTVSPropertyOp15
 70
     1
102
RTVSPropertyOp16
 70
     1
102
RTVSPropertyOp17
 70
     1
102
RTVSPropertyOp18
 70
     1
102
RTVSPropertyOp19
 70
     1
102
RTVSPropertyOp20
 70
     1
102
RTVSPropertyOp21
 70
     1
102
RTVSPropertyOp22
 70
     1
102
RTVSPropertyOp23
 70
     1
102
RTVSPropertyOp24
 70
     1
102
RTVSPropertyOp25
 70
     1
102
RTVSPropertyOp26
 70
     1
102
RTVSPropertyOp27
 70
     1
  0
ENDSEC
  0
EOF
