  0
SECTION
  2
HEADER
  9
$ACADVER
  1
AC1021
  9
$ACADMAINTVER
 70
    50
  9
$DWGCODEPAGE
  3
ANSI_1252
  9
$LASTSAVEDBY
  1
Gianluca
  9
$INSBASE
 10
0.0
 20
0.0
 30
0.0
  9
$EXTMIN
 10
1579.28931600454
 20
1404.384804651435
 30
-0.0015258207003583
  9
$EXTMAX
 10
2133.080456429189
 20
1971.915739949774
 30
0.0000000349246037
  9
$LIMMIN
 10
0.0
 20
0.0
  9
$LIMMAX
 10
12.0
 20
9.0
  9
$ORTHOMODE
 70
     0
  9
$REGENMODE
 70
     1
  9
$FILLMODE
 70
     1
  9
$QTEXTMODE
 70
     0
  9
$MIRRTEXT
 70
     0
  9
$LTSCALE
 40
1.0
  9
$ATTMODE
 70
     1
  9
$TEXTSIZE
 40
0.2
  9
$TRACEWID
 40
0.05
  9
$TEXTSTYLE
  7
Standard
  9
$CLAYER
  8
0
  9
$CELTYPE
  6
ByLayer
  9
$CECOLOR
 62
   256
  9
$CELTSCALE
 40
1.0
  9
$DISPSILH
 70
     0
  9
$DIMSCALE
 40
1.0
  9
$DIMASZ
 40
0.18
  9
$DIMEXO
 40
0.0625
  9
$DIMDLI
 40
0.38
  9
$DIMRND
 40
0.0
  9
$DIMDLE
 40
0.0
  9
$DIMEXE
 40
0.18
  9
$DIMTP
 40
0.0
  9
$DIMTM
 40
0.0
  9
$DIMTXT
 40
0.18
  9
$DIMCEN
 40
0.09
  9
$DIMTSZ
 40
0.0
  9
$DIMTOL
 70
     0
  9
$DIMLIM
 70
     0
  9
$DIMTIH
 70
     1
  9
$DIMTOH
 70
     1
  9
$DIMSE1
 70
     0
  9
$DIMSE2
 70
     0
  9
$DIMTAD
 70
     0
  9
$DIMZIN
 70
     0
  9
$DIMBLK
  1

  9
$DIMASO
 70
     1
  9
$DIMSHO
 70
     1
  9
$DIMPOST
  1

  9
$DIMAPOST
  1

  9
$DIMALT
 70
     0
  9
$DIMALTD
 70
     2
  9
$DIMALTF
 40
25.4
  9
$DIMLFAC
 40
1.0
  9
$DIMTOFL
 70
     0
  9
$DIMTVP
 40
0.0
  9
$DIMTIX
 70
     0
  9
$DIMSOXD
 70
     0
  9
$DIMSAH
 70
     0
  9
$DIMBLK1
  1

  9
$DIMBLK2
  1

  9
$DIMSTYLE
  2
Standard
  9
$DIMCLRD
 70
     0
  9
$DIMCLRE
 70
     0
  9
$DIMCLRT
 70
     0
  9
$DIMTFAC
 40
1.0
  9
$DIMGAP
 40
0.09
  9
$DIMJUST
 70
     0
  9
$DIMSD1
 70
     0
  9
$DIMSD2
 70
     0
  9
$DIMTOLJ
 70
     1
  9
$DIMTZIN
 70
     0
  9
$DIMALTZ
 70
     0
  9
$DIMALTTZ
 70
     0
  9
$DIMUPT
 70
     0
  9
$DIMDEC
 70
     4
  9
$DIMTDEC
 70
     4
  9
$DIMALTU
 70
     2
  9
$DIMALTTD
 70
     2
  9
$DIMTXSTY
  7
Standard
  9
$DIMAUNIT
 70
     0
  9
$DIMADEC
 70
     0
  9
$DIMALTRND
 40
0.0
  9
$DIMAZIN
 70
     0
  9
$DIMDSEP
 70
    46
  9
$DIMATFIT
 70
     3
  9
$DIMFRAC
 70
     0
  9
$DIMLDRBLK
  1

  9
$DIMLUNIT
 70
     2
  9
$DIMLWD
 70
    -2
  9
$DIMLWE
 70
    -2
  9
$DIMTMOVE
 70
     0
  9
$DIMFXL
 40
1.0
  9
$DIMFXLON
 70
     0
  9
$DIMJOGANG
 40
0.7853981633974483
  9
$DIMTFILL
 70
     0
  9
$DIMTFILLCLR
 70
     0
  9
$DIMARCSYM
 70
     0
  9
$DIMLTYPE
  6

  9
$DIMLTEX1
  6

  9
$DIMLTEX2
  6

  9
$LUNITS
 70
     2
  9
$LUPREC
 70
     4
  9
$SKETCHINC
 40
0.1
  9
$FILLETRAD
 40
0.0
  9
$AUNITS
 70
     0
  9
$AUPREC
 70
     0
  9
$MENU
  1
.
  9
$ELEVATION
 40
0.0
  9
$PELEVATION
 40
0.0
  9
$THICKNESS
 40
0.0
  9
$LIMCHECK
 70
     0
  9
$CHAMFERA
 40
0.0
  9
$CHAMFERB
 40
0.0
  9
$CHAMFERC
 40
0.0
  9
$CHAMFERD
 40
0.0
  9
$SKPOLY
 70
     0
  9
$TDCREATE
 40
2456692.755468565
  9
$TDUCREATE
 40
2456692.713801898
  9
$TDUPDATE
 40
2456692.758714364
  9
$TDUUPDATE
 40
2456692.717047697
  9
$TDINDWG
 40
0.0032465278
  9
$TDUSRTIMER
 40
0.0032465278
  9
$USRTIMER
 70
     1
  9
$ANGBASE
 50
0.0
  9
$ANGDIR
 70
     0
  9
$PDMODE
 70
     0
  9
$PDSIZE
 40
0.0
  9
$PLINEWID
 40
0.0
  9
$SPLFRAME
 70
     0
  9
$SPLINETYPE
 70
     6
  9
$SPLINESEGS
 70
     8
  9
$HANDSEED
  5
4AF
  9
$SURFTAB1
 70
     6
  9
$SURFTAB2
 70
     6
  9
$SURFTYPE
 70
     6
  9
$SURFU
 70
     6
  9
$SURFV
 70
     6
  9
$UCSBASE
  2

  9
$UCSNAME
  2

  9
$UCSORG
 10
0.0
 20
0.0
 30
0.0
  9
$UCSXDIR
 10
1.0
 20
0.0
 30
0.0
  9
$UCSYDIR
 10
0.0
 20
1.0
 30
0.0
  9
$UCSORTHOREF
  2

  9
$UCSORTHOVIEW
 70
     0
  9
$UCSORGTOP
 10
0.0
 20
0.0
 30
0.0
  9
$UCSORGBOTTOM
 10
0.0
 20
0.0
 30
0.0
  9
$UCSORGLEFT
 10
0.0
 20
0.0
 30
0.0
  9
$UCSORGRIGHT
 10
0.0
 20
0.0
 30
0.0
  9
$UCSORGFRONT
 10
0.0
 20
0.0
 30
0.0
  9
$UCSORGBACK
 10
0.0
 20
0.0
 30
0.0
  9
$PUCSBASE
  2

  9
$PUCSNAME
  2

  9
$PUCSORG
 10
0.0
 20
0.0
 30
0.0
  9
$PUCSXDIR
 10
1.0
 20
0.0
 30
0.0
  9
$PUCSYDIR
 10
0.0
 20
1.0
 30
0.0
  9
$PUCSORTHOREF
  2

  9
$PUCSORTHOVIEW
 70
     0
  9
$PUCSORGTOP
 10
0.0
 20
0.0
 30
0.0
  9
$PUCSORGBOTTOM
 10
0.0
 20
0.0
 30
0.0
  9
$PUCSORGLEFT
 10
0.0
 20
0.0
 30
0.0
  9
$PUCSORGRIGHT
 10
0.0
 20
0.0
 30
0.0
  9
$PUCSORGFRONT
 10
0.0
 20
0.0
 30
0.0
  9
$PUCSORGBACK
 10
0.0
 20
0.0
 30
0.0
  9
$USERI1
 70
     0
  9
$USERI2
 70
     0
  9
$USERI3
 70
     0
  9
$USERI4
 70
     0
  9
$USERI5
 70
     0
  9
$USERR1
 40
0.0
  9
$USERR2
 40
0.0
  9
$USERR3
 40
0.0
  9
$USERR4
 40
0.0
  9
$USERR5
 40
0.0
  9
$WORLDVIEW
 70
     1
  9
$SHADEDGE
 70
     3
  9
$SHADEDIF
 70
    70
  9
$TILEMODE
 70
     1
  9
$MAXACTVP
 70
    64
  9
$PINSBASE
 10
0.0
 20
0.0
 30
0.0
  9
$PLIMCHECK
 70
     0
  9
$PEXTMIN
 10
1.000000000000000E+20
 20
1.000000000000000E+20
 30
1.000000000000000E+20
  9
$PEXTMAX
 10
-1.000000000000000E+20
 20
-1.000000000000000E+20
 30
-1.000000000000000E+20
  9
$PLIMMIN
 10
0.0
 20
0.0
  9
$PLIMMAX
 10
12.0
 20
9.0
  9
$UNITMODE
 70
     0
  9
$VISRETAIN
 70
     1
  9
$PLINEGEN
 70
     0
  9
$PSLTSCALE
 70
     1
  9
$TREEDEPTH
 70
  3020
  9
$CMLSTYLE
  2
Standard
  9
$CMLJUST
 70
     0
  9
$CMLSCALE
 40
1.0
  9
$PROXYGRAPHICS
 70
     1
  9
$MEASUREMENT
 70
     0
  9
$CELWEIGHT
370
    -1
  9
$ENDCAPS
280
     0
  9
$JOINSTYLE
280
     0
  9
$LWDISPLAY
290
     0
  9
$INSUNITS
 70
     0
  9
$HYPERLINKBASE
  1

  9
$STYLESHEET
  1

  9
$XEDIT
290
     1
  9
$CEPSNTYPE
380
     0
  9
$PSTYLEMODE
290
     1
  9
$FINGERPRINTGUID
  2
{2159C08C-0203-4BD3-9EA7-C7476B8A14FA}
  9
$VERSIONGUID
  2
{762BD0DA-EC26-4ECF-B8EF-536E4996CB25}
  9
$EXTNAMES
290
     1
  9
$PSVPSCALE
 40
0.0
  9
$OLESTARTUP
290
     0
  9
$SORTENTS
280
   127
  9
$INDEXCTL
280
     0
  9
$HIDETEXT
280
     0
  9
$XCLIPFRAME
290
     0
  9
$HALOGAP
280
     0
  9
$OBSCOLOR
 70
   257
  9
$OBSLTYPE
280
     0
  9
$INTERSECTIONDISPLAY
280
     0
  9
$INTERSECTIONCOLOR
 70
   257
  9
$DIMASSOC
280
     1
  9
$PROJECTNAME
  1

  9
$CAMERADISPLAY
290
     0
  9
$LENSLENGTH
 40
50.0
  9
$CAMERAHEIGHT
 40
0.0
  9
$STEPSPERSEC
 40
2.0
  9
$STEPSIZE
 40
6.0
  9
$3DDWFPREC
 40
2.0
  9
$PSOLWIDTH
 40
0.25
  9
$PSOLHEIGHT
 40
4.0
  9
$LOFTANG1
 40
1.570796326794896
  9
$LOFTANG2
 40
1.570796326794896
  9
$LOFTMAG1
 40
0.0
  9
$LOFTMAG2
 40
0.0
  9
$LOFTPARAM
 70
     7
  9
$LOFTNORMALS
280
     1
  9
$LATITUDE
 40
37.795
  9
$LONGITUDE
 40
-122.394
  9
$NORTHDIRECTION
 40
0.0
  9
$TIMEZONE
 70
 -8000
  9
$LIGHTGLYPHDISPLAY
280
     1
  9
$TILEMODELIGHTSYNCH
280
     1
  9
$CMATERIAL
347
11
  9
$SOLIDHIST
280
     1
  9
$SHOWHIST
280
     1
  9
$DWFFRAME
280
     2
  9
$DGNFRAME
280
     0
  9
$REALWORLDSCALE
290
     1
  9
$INTERFERECOLOR
 62
     1
  9
$INTERFEREOBJVS
345
33
  9
$INTERFEREVPVS
346
30
  9
$CSHADOW
280
     0
  9
$SHADOWPLANELOCATION
 40
0.0
  0
ENDSEC
  0
SECTION
  2
CLASSES
  0
CLASS
  1
ACDBDICTIONARYWDFLT
  2
AcDbDictionaryWithDefault
  3
ObjectDBX Classes
 90
        0
 91
        1
280
     0
281
     0
  0
CLASS
  1
MATERIAL
  2
AcDbMaterial
  3
ObjectDBX Classes
 90
     1153
 91
        3
280
     0
281
     0
  0
CLASS
  1
VISUALSTYLE
  2
AcDbVisualStyle
  3
ObjectDBX Classes
 90
     4095
 91
       19
280
     0
281
     0
  0
CLASS
  1
SCALE
  2
AcDbScale
  3
ObjectDBX Classes
 90
     1153
 91
       33
280
     0
281
     0
  0
CLASS
  1
TABLESTYLE
  2
AcDbTableStyle
  3
ObjectDBX Classes
 90
     4095
 91
        1
280
     0
281
     0
  0
CLASS
  1
MLEADERSTYLE
  2
AcDbMLeaderStyle
  3
ACDB_MLEADERSTYLE_CLASS
 90
     4095
 91
        1
280
     0
281
     0
  0
CLASS
  1
DICTIONARYVAR
  2
AcDbDictionaryVar
  3
ObjectDBX Classes
 90
        0
 91
        8
280
     0
281
     0
  0
CLASS
  1
CELLSTYLEMAP
  2
AcDbCellStyleMap
  3
ObjectDBX Classes
 90
     1152
 91
        1
280
     0
281
     0
  0
ENDSEC
  0
SECTION
  2
TABLES
  0
TABLE
  2
VPORT
  5
8
330
0
100
AcDbSymbolTable
 70
     1
  0
VPORT
  5
46F
330
8
100
AcDbSymbolTableRecord
100
AcDbViewportTableRecord
  2
*Active
 70
     0
 10
0.0
 20
0.0
 11
1.0
 21
1.0
 12
1856.184886216864
 22
1688.150272300604
 13
0.0
 23
0.0
 14
1.0
 24
1.0
 15
0.0
 25
0.0
 16
0.0
 26
0.0
 36
1.0
 17
0.0
 27
0.0
 37
0.0
 40
572.2148219720534
 41
1.59366391184573
 42
50.0
 43
0.0
 44
0.0
 50
0.0
 51
0.0
 71
     0
 72
  1000
 73
     1
 74
     3
 75
     0
 76
     0
 77
     0
 78
     0
281
     0
 65
     1
110
0.0
120
0.0
130
0.0
111
1.0
121
0.0
131
0.0
112
0.0
122
1.0
132
0.0
 79
     0
146
0.0
348
2F
 60
     3
 61
     5
292
     1
282
     1
141
0.0
142
0.0
 63
   250
421
  3355443
  0
ENDTAB
  0
TABLE
  2
LTYPE
  5
5
330
0
100
AcDbSymbolTable
 70
     2
  0
LTYPE
  5
65
330
5
100
AcDbSymbolTableRecord
100
AcDbLinetypeTableRecord
  2
ByBlock
 70
     0
  3

 72
    65
 73
     0
 40
0.0
  0
LTYPE
  5
66
330
5
100
AcDbSymbolTableRecord
100
AcDbLinetypeTableRecord
  2
ByLayer
 70
     0
  3

 72
    65
 73
     0
 40
0.0
  0
LTYPE
  5
67
330
5
100
AcDbSymbolTableRecord
100
AcDbLinetypeTableRecord
  2
Continuous
 70
     0
  3
Solid line
 72
    65
 73
     0
 40
0.0
  0
ENDTAB
  0
TABLE
  2
LAYER
  5
2
330
0
100
AcDbSymbolTable
 70
     4
  0
LAYER
  5
5F
102
{ACAD_XDICTIONARY
360
474
102
}
330
2
100
AcDbSymbolTableRecord
100
AcDbLayerTableRecord
  2
0
 70
     0
 62
    92
  6
Continuous
370
    -3
390
F
347
21
  0
LAYER
  5
7C
102
{ACAD_XDICTIONARY
360
476
102
}
330
2
100
AcDbSymbolTableRecord
100
AcDbLayerTableRecord
  2
QUOTATURA
 70
     0
 62
     7
  6
Continuous
370
    -3
390
F
347
21
  0
LAYER
  5
7E
102
{ACAD_XDICTIONARY
360
478
102
}
330
2
100
AcDbSymbolTableRecord
100
AcDbLayerTableRecord
  2
APS_GEOMETRY
 70
     0
 62
    84
  6
Continuous
370
    -3
390
F
347
21
  0
LAYER
  5
40C
102
{ACAD_XDICTIONARY
360
47A
102
}
330
2
100
AcDbSymbolTableRecord
100
AcDbLayerTableRecord
  2
INCISIONI
 70
     0
 62
     1
  6
Continuous
370
    -3
390
F
347
21
  0
ENDTAB
  0
TABLE
  2
STYLE
  5
3
330
0
100
AcDbSymbolTable
 70
     2
  0
STYLE
  5
60
330
3
100
AcDbSymbolTableRecord
100
AcDbTextStyleTableRecord
  2
Standard
 70
     0
 40
0.0
 41
1.0
 50
0.0
 71
     0
 42
0.2
  3
txt
  4

  0
STYLE
  5
64
330
3
100
AcDbSymbolTableRecord
100
AcDbTextStyleTableRecord
  2
Annotative
 70
     0
 40
0.0
 41
1.0
 50
0.0
 71
     0
 42
0.2
  3
txt
  4

1001
AcadAnnotative
1000
AnnotativeData
1002
{
1070
     1
1070
     1
1002
}
  0
ENDTAB
  0
TABLE
  2
VIEW
  5
6
330
0
100
AcDbSymbolTable
 70
     0
  0
ENDTAB
  0
TABLE
  2
UCS
  5
7
330
0
100
AcDbSymbolTable
 70
     0
  0
ENDTAB
  0
TABLE
  2
APPID
  5
9
330
0
100
AcDbSymbolTable
 70
     4
  0
APPID
  5
61
330
9
100
AcDbSymbolTableRecord
100
AcDbRegAppTableRecord
  2
ACAD
 70
     0
  0
APPID
  5
68
330
9
100
AcDbSymbolTableRecord
100
AcDbRegAppTableRecord
  2
AcadAnnotative
 70
     0
  0
APPID
  5
470
330
9
100
AcDbSymbolTableRecord
100
AcDbRegAppTableRecord
  2
ACAD_EXEMPT_FROM_CAD_STANDARDS
 70
     0
  0
APPID
  5
4AE
330
9
100
AcDbSymbolTableRecord
100
AcDbRegAppTableRecord
  2
ACAD_MLEADERVER
 70
     0
  0
ENDTAB
  0
TABLE
  2
DIMSTYLE
  5
A
330
0
100
AcDbSymbolTable
 70
     2
100
AcDbDimStyleTable
 71
     0
  0
DIMSTYLE
105
62
330
A
100
AcDbSymbolTableRecord
100
AcDbDimStyleTableRecord
  2
Standard
 70
     0
340
60
  0
DIMSTYLE
105
63
330
A
100
AcDbSymbolTableRecord
100
AcDbDimStyleTableRecord
  2
Annotative
 70
     0
340
60
1001
AcadAnnotative
1000
AnnotativeData
1002
{
1070
     1
1070
     1
1002
}
  0
ENDTAB
  0
TABLE
  2
BLOCK_RECORD
  5
1
330
0
100
AcDbSymbolTable
 70
     0
  0
BLOCK_RECORD
  5
76
330
1
100
AcDbSymbolTableRecord
100
AcDbBlockTableRecord
  2
*Model_Space
340
79
 70
     0
280
     1
281
     0
  0
BLOCK_RECORD
  5
72
330
1
100
AcDbSymbolTableRecord
100
AcDbBlockTableRecord
  2
*Paper_Space
340
75
 70
     0
280
     1
281
     0
  0
ENDTAB
  0
ENDSEC
  0
SECTION
  2
BLOCKS
  0
BLOCK
  5
77
330
76
100
AcDbEntity
  8
0
100
AcDbBlockBegin
  2
*Model_Space
 70
     0
 10
0.0
 20
0.0
 30
0.0
  3
*Model_Space
  1

  0
ENDBLK
  5
78
330
76
100
AcDbEntity
  8
0
100
AcDbBlockEnd
  0
BLOCK
  5
73
330
72
100
AcDbEntity
 67
     1
  8
0
100
AcDbBlockBegin
  2
*Paper_Space
 70
     0
 10
0.0
 20
0.0
 30
0.0
  3
*Paper_Space
  1

  0
ENDBLK
  5
74
330
72
100
AcDbEntity
 67
     1
  8
0
100
AcDbBlockEnd
  0
ENDSEC
  0
SECTION
  2
ENTITIES
  0
CIRCLE
  5
7B
330
76
100
AcDbEntity
  8
0
100
AcDbCircle
 10
1883.015357
 20
1654.439707
 30
0.0
 40
250.0
  0
CIRCLE
  5
243
330
76
100
AcDbEntity
  8
APS_GEOMETRY
100
AcDbCircle
 10
1883.015357
 20
1654.439707
 30
0.0
 40
10.0
  0
ARC
  5
244
330
76
100
AcDbEntity
  8
APS_GEOMETRY
100
AcDbCircle
 10
1883.015357
 20
1654.439707
 30
0.0
 40
236.631726
100
AcDbArc
 50
221.193196
 51
221.248088
  0
ARC
  5
245
330
76
100
AcDbEntity
  8
APS_GEOMETRY
100
AcDbCircle
 10
3684.564629
 20
4612.257109
 30
0.0
 40
3689.747413
100
AcDbArc
 50
237.555885
 51
237.7017
  0
ARC
  5
246
330
76
100
AcDbEntity
  8
APS_GEOMETRY
100
AcDbCircle
 10
2180.994984
 20
2233.688864
 30
0.0
 40
875.798484
100
AcDbArc
 50
237.7017
 51
238.139806
  0
ARC
  5
247
330
76
100
AcDbEntity
  8
APS_GEOMETRY
100
AcDbCircle
 10
2069.032863
 20
2053.535332
 30
0.0
 40
663.6881080000001
100
AcDbArc
 50
238.139806
 51
238.872075
  0
ARC
  5
248
330
76
100
AcDbEntity
  8
APS_GEOMETRY
100
AcDbCircle
 10
1943.503254
 20
1845.671648
 30
0.0
 40
420.8610219999999
100
AcDbArc
 50
238.872075
 51
239.901264
  0
ARC
  5
249
330
76
100
AcDbEntity
  8
APS_GEOMETRY
100
AcDbCircle
 10
1911.21971
 20
1789.97678
 30
0.0
 40
356.485984
100
AcDbArc
 50
239.901264
 51
241.23045
  0
ARC
  5
24A
330
76
100
AcDbEntity
  8
APS_GEOMETRY
100
AcDbCircle
 10
1869.81822
 20
1714.572854
 30
0.0
 40
270.463688
100
AcDbArc
 50
241.23045
 51
242.862199
  0
ARC
  5
24B
330
76
100
AcDbEntity
  8
APS_GEOMETRY
100
AcDbCircle
 10
1856.589693
 20
1688.764048
 30
0.0
 40
241.462164
100
AcDbArc
 50
242.862199
 51
244.797462
  0
ARC
  5
24C
330
76
100
AcDbEntity
  8
APS_GEOMETRY
100
AcDbCircle
 10
1838.457175
 20
1650.234917
 30
0.0
 40
198.879513
100
AcDbArc
 50
244.797462
 51
247.034196
  0
ARC
  5
24D
330
76
100
AcDbEntity
  8
APS_GEOMETRY
100
AcDbCircle
 10
1832.068879
 20
1635.160025
 30
0.0
 40
182.506893
100
AcDbArc
 50
247.034196
 51
249.543948
  0
ARC
  5
24E
330
76
100
AcDbEntity
  8
APS_GEOMETRY
100
AcDbCircle
 10
1831.286861
 20
1633.063521
 30
0.0
 40
180.269286
100
AcDbArc
 50
249.543948
 51
252.068638
  0
ARC
  5
24F
330
76
100
AcDbEntity
  8
APS_GEOMETRY
100
AcDbCircle
 10
1832.631315
 20
1637.218254
 30
0.0
 40
184.636135
100
AcDbArc
 50
252.068638
 51
254.539893
  0
ARC
  5
250
330
76
100
AcDbEntity
  8
APS_GEOMETRY
100
AcDbCircle
 10
1834.084516
 20
1642.472533
 30
0.0
 40
190.08767
100
AcDbArc
 50
254.539893
 51
256.962702
  0
ARC
  5
251
330
76
100
AcDbEntity
  8
APS_GEOMETRY
100
AcDbCircle
 10
1834.658505
 20
1644.951389
 30
0.0
 40
192.632114
100
AcDbArc
 50
256.962702
 51
259.342456
  0
ARC
  5
252
330
76
100
AcDbEntity
  8
APS_GEOMETRY
100
AcDbCircle
 10
1835.501627
 20
1649.431681
 30
0.0
 40
197.191047
100
AcDbArc
 50
259.342456
 51
261.684852
  0
ARC
  5
253
330
76
100
AcDbEntity
  8
APS_GEOMETRY
100
AcDbCircle
 10
1835.788872
 20
1651.397034
 30
0.0
 40
199.17728
100
AcDbArc
 50
261.684852
 51
263.995823
  0
ARC
  5
254
330
76
100
AcDbEntity
  8
APS_GEOMETRY
100
AcDbCircle
 10
1836.129005
 20
1654.630916
 30
0.0
 40
202.429
100
AcDbArc
 50
263.995823
 51
266.281482
  0
ARC
  5
255
330
76
100
AcDbEntity
  8
APS_GEOMETRY
100
AcDbCircle
 10
1836.198696
 20
1655.703217
 30
0.0
 40
203.503563
100
AcDbArc
 50
266.281482
 51
268.555379
  0
ARC
  5
256
330
76
100
AcDbEntity
  8
APS_GEOMETRY
100
AcDbCircle
 10
1836.133713
 20
1653.126463
 30
0.0
 40
200.925989
100
AcDbArc
 50
268.555379
 51
270.852803
  0
ARC
  5
257
330
76
100
AcDbEntity
  8
APS_GEOMETRY
100
AcDbCircle
 10
1836.163686
 20
1651.112891
 30
0.0
 40
198.912195
100
AcDbArc
 50
270.852803
 51
273.183179
  0
ARC
  5
258
330
76
100
AcDbEntity
  8
APS_GEOMETRY
100
AcDbCircle
 10
1836.412323
 20
1646.642143
 30
0.0
 40
194.434538
100
AcDbArc
 50
273.183179
 51
275.5527419999999
  0
ARC
  5
259
330
76
100
AcDbEntity
  8
APS_GEOMETRY
100
AcDbCircle
 10
1924.878008
 20
1632.034653
 30
0.0
 40
191.994361
100
AcDbArc
 50
246.481621
 51
248.728946
  0
ARC
  5
25A
330
76
100
AcDbEntity
  8
APS_GEOMETRY
100
AcDbCircle
 10
1922.863874
 20
1627.406522
 30
0.0
 40
186.946953
100
AcDbArc
 50
244.190663
 51
246.481621
  0
ARC
  5
25B
330
76
100
AcDbEntity
  8
APS_GEOMETRY
100
AcDbCircle
 10
1921.702497
 20
1625.005097
 30
0.0
 40
184.279437
100
AcDbArc
 50
241.851926
 51
244.190663
  0
ARC
  5
25C
330
76
100
AcDbEntity
  8
APS_GEOMETRY
100
AcDbCircle
 10
1919.128681
 20
1620.194486
 30
0.0
 40
178.823569
100
AcDbArc
 50
239.4616979999999
 51
241.851926
  0
ARC
  5
25D
330
76
100
AcDbEntity
  8
APS_GEOMETRY
100
AcDbCircle
 10
1917.724436
 20
1617.814192
 30
0.0
 40
176.059929
100
AcDbArc
 50
237.016784
 51
239.4616979999999
  0
ARC
  5
25E
330
76
100
AcDbEntity
  8
APS_GEOMETRY
100
AcDbCircle
 10
1914.769127
 20
1613.260495
 30
0.0
 40
170.631301
100
AcDbArc
 50
234.514619
 51
237.016784
  0
ARC
  5
25F
330
76
100
AcDbEntity
  8
APS_GEOMETRY
100
AcDbCircle
 10
1913.003378
 20
1610.78367
 30
0.0
 40
167.589503
100
AcDbArc
 50
231.953371
 51
234.514619
  0
ARC
  5
260
330
76
100
AcDbEntity
  8
APS_GEOMETRY
100
AcDbCircle
 10
1911.7334
 20
1609.160896
 30
0.0
 40
165.528862
100
AcDbArc
 50
229.366235
 51
231.953371
  0
ARC
  5
261
330
76
100
AcDbEntity
  8
APS_GEOMETRY
100
AcDbCircle
 10
1912.390234
 20
1609.926324
 30
0.0
 40
166.537482
100
AcDbArc
 50
226.791068
 51
229.366235
  0
ARC
  5
262
330
76
100
AcDbEntity
  8
APS_GEOMETRY
100
AcDbCircle
 10
1912.747095
 20
1610.306224
 30
0.0
 40
167.058704
100
AcDbArc
 50
224.2213
 51
226.791068
  0
ARC
  5
263
330
76
100
AcDbEntity
  8
APS_GEOMETRY
100
AcDbCircle
 10
1912.708813
 20
1610.268967999999
 30
0.0
 40
167.005286
100
AcDbArc
 50
221.650196
 51
224.2213
  0
ARC
  5
264
330
76
100
AcDbEntity
  8
APS_GEOMETRY
100
AcDbCircle
 10
1912.164201
 20
1609.784585
 30
0.0
 40
166.276431
100
AcDbArc
 50
219.071041
 51
221.650196
  0
ARC
  5
265
330
76
100
AcDbEntity
  8
APS_GEOMETRY
100
AcDbCircle
 10
1911.644395
 20
1609.362586
 30
0.0
 40
165.606893
100
AcDbArc
 50
216.477198
 51
219.071041
  0
ARC
  5
266
330
76
100
AcDbEntity
  8
APS_GEOMETRY
100
AcDbCircle
 10
1910.123585
 20
1608.238183
 30
0.0
 40
163.715559
100
AcDbArc
 50
213.862173
 51
216.477198
  0
ARC
  5
267
330
76
100
AcDbEntity
  8
APS_GEOMETRY
100
AcDbCircle
 10
1909.06296
 20
1607.526488
 30
0.0
 40
162.438283
100
AcDbArc
 50
211.219685
 51
213.862173
  0
ARC
  5
268
330
76
100
AcDbEntity
  8
APS_GEOMETRY
100
AcDbCircle
 10
1906.905766
 20
1606.219032
 30
0.0
 40
159.915798
100
AcDbArc
 50
208.546643
 51
211.219685
  0
ARC
  5
269
330
76
100
AcDbEntity
  8
APS_GEOMETRY
100
AcDbCircle
 10
1907.332258
 20
1606.451048
 30
0.0
 40
160.401315
100
AcDbArc
 50
205.881364
 51
208.546643
  0
ARC
  5
26A
330
76
100
AcDbEntity
  8
APS_GEOMETRY
100
AcDbCircle
 10
1908.682582
 20
1607.106187
 30
0.0
 40
161.902176
100
AcDbArc
 50
203.235068
 51
205.881364
  0
ARC
  5
26B
330
76
100
AcDbEntity
  8
APS_GEOMETRY
100
AcDbCircle
 10
1909.290747
 20
1607.367288
 30
0.0
 40
162.56402
100
AcDbArc
 50
200.604454
 51
203.235068
  0
ARC
  5
26C
330
76
100
AcDbEntity
  8
APS_GEOMETRY
100
AcDbCircle
 10
1910.313932
 20
1607.751968
 30
0.0
 40
163.657129
100
AcDbArc
 50
197.986003
 51
200.604454
  0
ARC
  5
26D
330
76
100
AcDbEntity
  8
APS_GEOMETRY
100
AcDbCircle
 10
1846.673882
 20
1694.203121
 30
0.0
 40
165.023447
100
AcDbArc
 50
193.5985179999999
 51
236.10901
  0
LINE
  5
26E
330
76
100
AcDbEntity
  8
APS_GEOMETRY
100
AcDbLine
 10
1686.276523
 20
1655.403309
 30
0.0
 11
1686.235293
 21
1655.672384
 31
0.0
  0
LINE
  5
26F
330
76
100
AcDbEntity
  8
APS_GEOMETRY
100
AcDbLine
 10
1686.235293
 20
1655.672384
 30
0.0
 11
1686.156785
 21
1655.380652
 31
0.0
  0
ARC
  5
270
330
76
100
AcDbEntity
  8
APS_GEOMETRY
100
AcDbCircle
 10
1870.658805999999
 20
1609.216423
 30
0.0
 40
190.189726
100
AcDbArc
 50
165.952439
 51
167.874985
  0
ARC
  5
271
330
76
100
AcDbEntity
  8
APS_GEOMETRY
100
AcDbCircle
 10
1869.746664
 20
1609.412386
 30
0.0
 40
189.2567709999999
100
AcDbArc
 50
167.874985
 51
169.803362
  0
ARC
  5
272
330
76
100
AcDbEntity
  8
APS_GEOMETRY
100
AcDbCircle
 10
1868.830973999999
 20
1609.577089
 30
0.0
 40
188.326387
100
AcDbArc
 50
169.803362
 51
171.743484
  0
ARC
  5
273
330
76
100
AcDbEntity
  8
APS_GEOMETRY
100
AcDbCircle
 10
1866.118548
 20
1609.970687
 30
0.0
 40
185.585552
100
AcDbArc
 50
171.743484
 51
173.701282
  0
ARC
  5
274
330
76
100
AcDbEntity
  8
APS_GEOMETRY
100
AcDbCircle
 10
1864.056979
 20
1610.19824
 30
0.0
 40
183.5114629999999
100
AcDbArc
 50
173.701282
 51
175.685859
  0
ARC
  5
275
330
76
100
AcDbEntity
  8
APS_GEOMETRY
100
AcDbCircle
 10
1859.947594
 20
1610.508246
 30
0.0
 40
179.390402
100
AcDbArc
 50
175.685859
 51
177.698775
  0
ARC
  5
276
330
76
100
AcDbEntity
  8
APS_GEOMETRY
100
AcDbCircle
 10
1857.890462
 20
1610.590913
 30
0.0
 40
177.331609
100
AcDbArc
 50
177.698775
 51
179.742051
  0
ARC
  5
277
330
76
100
AcDbEntity
  8
APS_GEOMETRY
100
AcDbCircle
 10
1853.302603
 20
1610.611568
 30
0.0
 40
172.743704
100
AcDbArc
 50
179.742051
 51
181.81966
  0
ARC
  5
278
330
76
100
AcDbEntity
  8
APS_GEOMETRY
100
AcDbCircle
 10
1850.691732
 20
1610.528621
 30
0.0
 40
170.131515
100
AcDbArc
 50
181.81966
 51
183.9354449999999
  0
ARC
  5
279
330
76
100
AcDbEntity
  8
APS_GEOMETRY
100
AcDbCircle
 10
1846.266912
 20
1610.224217
 30
0.0
 40
165.696237
100
AcDbArc
 50
183.9354449999999
 51
186.089382
  0
ARC
  5
27A
330
76
100
AcDbEntity
  8
APS_GEOMETRY
100
AcDbCircle
 10
1854.445514
 20
1611.096724
 30
0.0
 40
173.921247
100
AcDbArc
 50
186.089382
 51
188.113147
  0
ARC
  5
27B
330
76
100
AcDbEntity
  8
APS_GEOMETRY
100
AcDbCircle
 10
1884.145411
 20
1615.330599
 30
0.0
 40
203.921407
100
AcDbArc
 50
188.113147
 51
189.921603
  0
ARC
  5
27C
330
76
100
AcDbEntity
  8
APS_GEOMETRY
100
AcDbCircle
 10
1902.937243
 20
1618.6176
 30
0.0
 40
222.998548
100
AcDbArc
 50
189.921603
 51
191.514863
  0
ARC
  5
27D
330
76
100
AcDbEntity
  8
APS_GEOMETRY
100
AcDbCircle
 10
1952.075572
 20
1628.628182
 30
0.0
 40
273.146202
100
AcDbArc
 50
191.514863
 51
192.895378
  0
ARC
  5
27E
330
76
100
AcDbEntity
  8
APS_GEOMETRY
100
AcDbCircle
 10
1983.917393
 20
1635.918228
 30
0.0
 40
305.811877
100
AcDbArc
 50
192.895378
 51
194.066403
  0
ARC
  5
27F
330
76
100
AcDbEntity
  8
APS_GEOMETRY
100
AcDbCircle
 10
2082.127556
 20
1660.525704
 30
0.0
 40
407.057933
100
AcDbArc
 50
194.066403
 51
195.019185
  0
ARC
  5
280
330
76
100
AcDbEntity
  8
APS_GEOMETRY
100
AcDbCircle
 10
2156.170777
 20
1680.392101
 30
0.0
 40
483.719999
100
AcDbArc
 50
195.019185
 51
195.7562129999999
  0
ARC
  5
281
330
76
100
AcDbEntity
  8
APS_GEOMETRY
100
AcDbCircle
 10
2425.050519000001
 20
1756.255508
 30
0.0
 40
763.0971139999999
100
AcDbArc
 50
195.7562129999999
 51
196.283875
  0
ARC
  5
282
330
76
100
AcDbEntity
  8
APS_GEOMETRY
100
AcDbCircle
 10
2624.352131
 20
1814.474497
 30
0.0
 40
970.7279960000001
100
AcDbArc
 50
196.283875
 51
196.471038
  0
ARC
  5
283
330
76
100
AcDbEntity
  8
APS_GEOMETRY
100
AcDbCircle
 10
3111.411074
 20
1958.480166
 30
0.0
 40
1478.629607
100
AcDbArc
 50
196.471038
 51
196.607985
  0
LINE
  5
284
330
76
100
AcDbEntity
  8
APS_GEOMETRY
100
AcDbLine
 10
1694.465825
 20
1535.855421
 30
0.0
 11
1704.95161
 21
1498.594027
 31
0.0
  0
ARC
  5
285
330
76
100
AcDbEntity
  8
APS_GEOMETRY
100
AcDbCircle
 10
1883.015357
 20
1654.439707
 30
0.0
 40
50.0
100
AcDbArc
 50
159.860422
 51
249.860422
  0
ARC
  5
286
330
76
100
AcDbEntity
  8
APS_GEOMETRY
100
AcDbCircle
 10
1784.795517
 20
2129.608616
 30
0.0
 40
528.3582
100
AcDbArc
 50
278.098627
 51
278.818996
  0
ARC
  5
287
330
76
100
AcDbEntity
  8
APS_GEOMETRY
100
AcDbCircle
 10
1830.553693
 20
1808.039692
 30
0.0
 40
203.549974
100
AcDbArc
 50
276.621596
 51
278.098627
  0
ARC
  5
288
330
76
100
AcDbEntity
  8
APS_GEOMETRY
100
AcDbCircle
 10
1835.834549
 20
1762.548771
 30
0.0
 40
157.753562
100
AcDbArc
 50
274.369212
 51
276.621596
  0
ARC
  5
289
330
76
100
AcDbEntity
  8
APS_GEOMETRY
100
AcDbCircle
 10
1839.874102
 20
1709.678711
 30
0.0
 40
104.729405
100
AcDbArc
 50
271.322544
 51
274.369212
  0
ARC
  5
28A
330
76
100
AcDbEntity
  8
APS_GEOMETRY
100
AcDbCircle
 10
1840.222332999999
 20
1694.595187
 30
0.0
 40
89.64186099999999
100
AcDbArc
 50
267.475089
 51
271.322544
  0
ARC
  5
28B
330
76
100
AcDbEntity
  8
APS_GEOMETRY
100
AcDbCircle
 10
1839.365845
 20
1675.172175
 30
0.0
 40
70.19997499999999
100
AcDbArc
 50
262.852058
 51
267.475089
  0
ARC
  5
28C
330
76
100
AcDbEntity
  8
APS_GEOMETRY
100
AcDbCircle
 10
1839.246545
 20
1674.220873
 30
0.0
 40
69.24122199999999
100
AcDbArc
 50
258.0383240000001
 51
262.852058
  0
ARC
  5
28D
330
76
100
AcDbEntity
  8
APS_GEOMETRY
100
AcDbCircle
 10
1840.301237
 20
1679.199177
 30
0.0
 40
74.330021
100
AcDbArc
 50
253.447654
 51
258.0383240000001
  0
ARC
  5
28E
330
76
100
AcDbEntity
  8
APS_GEOMETRY
100
AcDbCircle
 10
1840.951718
 20
1681.387822
 30
0.0
 40
76.613285
100
AcDbArc
 50
249.035755
 51
253.447654
  0
ARC
  5
28F
330
76
100
AcDbEntity
  8
APS_GEOMETRY
100
AcDbCircle
 10
1842.20582
 20
1684.660971
 30
0.0
 40
80.118463
100
AcDbArc
 50
244.754861
 51
249.035755
  0
ARC
  5
290
330
76
100
AcDbEntity
  8
APS_GEOMETRY
100
AcDbCircle
 10
1842.688234
 20
1685.684062
 30
0.0
 40
81.24958599999999
100
AcDbArc
 50
240.555304
 51
244.754861
  0
ARC
  5
291
330
76
100
AcDbEntity
  8
APS_GEOMETRY
100
AcDbCircle
 10
1843.038976
 20
1686.305393
 30
0.0
 40
81.963079
100
AcDbArc
 50
236.386287
 51
240.555304
  0
ARC
  5
292
330
76
100
AcDbEntity
  8
APS_GEOMETRY
100
AcDbCircle
 10
1842.804018
 20
1685.951937
 30
0.0
 40
81.538654
100
AcDbArc
 50
232.202438
 51
236.386287
  0
ARC
  5
293
330
76
100
AcDbEntity
  8
APS_GEOMETRY
100
AcDbCircle
 10
1841.981366
 20
1684.891288
 30
0.0
 40
80.196368
100
AcDbArc
 50
227.9782910000001
 51
232.202438
  0
ARC
  5
294
330
76
100
AcDbEntity
  8
APS_GEOMETRY
100
AcDbCircle
 10
1841.367421
 20
1684.209951
 30
0.0
 40
79.27922599999999
100
AcDbArc
 50
223.69302
 51
227.9782910000001
  0
ARC
  5
295
330
76
100
AcDbEntity
  8
APS_GEOMETRY
100
AcDbCircle
 10
1839.793448
 20
1682.706198
 30
0.0
 40
77.102379
100
AcDbArc
 50
219.327226
 51
223.69302
  0
ARC
  5
296
330
76
100
AcDbEntity
  8
APS_GEOMETRY
100
AcDbCircle
 10
1838.349205
 20
1681.522952
 30
0.0
 40
75.23532
100
AcDbArc
 50
214.863932
 51
219.327226
  0
ARC
  5
297
330
76
100
AcDbEntity
  8
APS_GEOMETRY
100
AcDbCircle
 10
1840.518147
 20
1683.033998
 30
0.0
 40
77.87872199999999
100
AcDbArc
 50
210.516657
 51
214.863932
  0
ARC
  5
298
330
76
100
AcDbEntity
  8
APS_GEOMETRY
100
AcDbCircle
 10
1844.837661
 20
1685.580078
 30
0.0
 40
82.89277400000001
100
AcDbArc
 50
206.501959
 51
210.516657
  0
ARC
  5
299
330
76
100
AcDbEntity
  8
APS_GEOMETRY
100
AcDbCircle
 10
1853.873186
 20
1690.08541
 30
0.0
 40
92.98924599999999
100
AcDbArc
 50
202.809967
 51
206.501959
  0
ARC
  5
29A
330
76
100
AcDbEntity
  8
APS_GEOMETRY
100
AcDbCircle
 10
1870.928941
 20
1610.85012
 30
0.0
 40
111.47759
100
AcDbArc
 50
154.856098
 51
157.207642
  0
ARC
  5
29B
330
76
100
AcDbEntity
  8
APS_GEOMETRY
100
AcDbCircle
 10
1870.204296
 20
1611.190246
 30
0.0
 40
110.677093
100
AcDbArc
 50
152.48987
 51
154.856098
  0
ARC
  5
29C
330
76
100
AcDbEntity
  8
APS_GEOMETRY
100
AcDbCircle
 10
1870.08685
 20
1611.251412
 30
0.0
 40
110.544673
100
AcDbArc
 50
150.098086
 51
152.48987
  0
ARC
  5
29D
330
76
100
AcDbEntity
  8
APS_GEOMETRY
100
AcDbCircle
 10
1864.203857999999
 20
1614.634544
 30
0.0
 40
103.758277
100
AcDbArc
 50
147.600318
 51
150.098086
  0
ARC
  5
29E
330
76
100
AcDbEntity
  8
APS_GEOMETRY
100
AcDbCircle
 10
1859.254532
 20
1617.775443
 30
0.0
 40
97.89644500000001
100
AcDbArc
 50
144.914943
 51
147.600318
  0
ARC
  5
29F
330
76
100
AcDbEntity
  8
APS_GEOMETRY
100
AcDbCircle
 10
1850.559684
 20
1623.882897
 30
0.0
 40
87.27093999999999
100
AcDbArc
 50
142.020258
 51
144.914943
  0
ARC
  5
2A0
330
76
100
AcDbEntity
  8
APS_GEOMETRY
100
AcDbCircle
 10
1846.529932
 20
1627.02899
 30
0.0
 40
82.15852299999999
100
AcDbArc
 50
138.897592
 51
142.020258
  0
ARC
  5
2A1
330
76
100
AcDbEntity
  8
APS_GEOMETRY
100
AcDbCircle
 10
1839.865461
 20
1632.843272
 30
0.0
 40
73.314256
100
AcDbArc
 50
135.544387
 51
138.897592
  0
ARC
  5
2A2
330
76
100
AcDbEntity
  8
APS_GEOMETRY
100
AcDbCircle
 10
1836.62088
 20
1636.026776
 30
0.0
 40
68.768709
100
AcDbArc
 50
131.933106
 51
135.544387
  0
ARC
  5
2A3
330
76
100
AcDbEntity
  8
APS_GEOMETRY
100
AcDbCircle
 10
1832.880487
 20
1640.190669
 30
0.0
 40
63.17151800000001
100
AcDbArc
 50
128.128405
 51
131.933106
  0
ARC
  5
2A4
330
76
100
AcDbEntity
  8
APS_GEOMETRY
100
AcDbCircle
 10
1832.776616
 20
1640.323006
 30
0.0
 40
63.00328499999999
100
AcDbArc
 50
124.287417
 51
128.128405
  0
ARC
  5
2A5
330
76
100
AcDbEntity
  8
APS_GEOMETRY
100
AcDbCircle
 10
1834.1271
 20
1638.342336
 30
0.0
 40
65.400547
100
AcDbArc
 50
120.534223
 51
124.287417
  0
ARC
  5
2A6
330
76
100
AcDbEntity
  8
APS_GEOMETRY
100
AcDbCircle
 10
1834.630825
 20
1637.488348
 30
0.0
 40
66.392026
100
AcDbArc
 50
116.843794
 51
120.534223
  0
ARC
  5
2A7
330
76
100
AcDbEntity
  8
APS_GEOMETRY
100
AcDbCircle
 10
1835.316706
 20
1636.133108
 30
0.0
 40
67.910944
100
AcDbArc
 50
113.19715
 51
116.843794
  0
ARC
  5
2A8
330
76
100
AcDbEntity
  8
APS_GEOMETRY
100
AcDbCircle
 10
1835.498059
 20
1635.709922
 30
0.0
 40
68.371352
100
AcDbArc
 50
109.574074
 51
113.19715
  0
ARC
  5
2A9
330
76
100
AcDbEntity
  8
APS_GEOMETRY
100
AcDbCircle
 10
1835.903948
 20
1634.568419
 30
0.0
 40
69.58286899999999
100
AcDbArc
 50
105.986799
 51
109.574074
  0
ARC
  5
2AA
330
76
100
AcDbEntity
  8
APS_GEOMETRY
100
AcDbCircle
 10
1835.93972
 20
1634.44356
 30
0.0
 40
69.71275099999999
100
AcDbArc
 50
102.399655
 51
105.986799
  0
ARC
  5
2AB
330
76
100
AcDbEntity
  8
APS_GEOMETRY
100
AcDbCircle
 10
1835.654628
 20
1635.740269
 30
0.0
 40
68.38507199999999
100
AcDbArc
 50
98.76671099999999
 51
102.399655
  0
ARC
  5
2AC
330
76
100
AcDbEntity
  8
APS_GEOMETRY
100
AcDbCircle
 10
1835.495787
 20
1636.770276
 30
0.0
 40
67.34289
100
AcDbArc
 50
95.06684699999999
 51
98.76671099999999
  0
ARC
  5
2AD
330
76
100
AcDbEntity
  8
APS_GEOMETRY
100
AcDbCircle
 10
1835.239504
 20
1639.660767
 30
0.0
 40
64.44105999999999
100
AcDbArc
 50
91.27501500000001
 51
95.06684699999999
  0
ARC
  5
2AE
330
76
100
AcDbEntity
  8
APS_GEOMETRY
100
AcDbCircle
 10
1906.559076
 20
1697.877857
 30
0.0
 40
73.01785699999999
100
AcDbArc
 50
175.122797
 51
176.3791379999999
  0
ARC
  5
2AF
330
76
100
AcDbEntity
  8
APS_GEOMETRY
100
AcDbCircle
 10
1911.334452
 20
1697.57567
 30
0.0
 40
77.802785
100
AcDbArc
 50
176.3791379999999
 51
177.576767
  0
ARC
  5
2B0
330
76
100
AcDbEntity
  8
APS_GEOMETRY
100
AcDbCircle
 10
1914.04238
 20
1697.461075
 30
0.0
 40
80.513136
100
AcDbArc
 50
177.576767
 51
178.714629
  0
ARC
  5
2B1
330
76
100
AcDbEntity
  8
APS_GEOMETRY
100
AcDbCircle
 10
1920.19232
 20
1697.323084
 30
0.0
 40
86.66462499999999
100
AcDbArc
 50
178.714629
 51
179.7919629999999
  0
ARC
  5
2B2
330
76
100
AcDbEntity
  8
APS_GEOMETRY
100
AcDbCircle
 10
1923.677625
 20
1697.310429
 30
0.0
 40
90.14995199999999
100
AcDbArc
 50
179.7919629999999
 51
180.808268
  0
ARC
  5
2B3
330
76
100
AcDbEntity
  8
APS_GEOMETRY
100
AcDbCircle
 10
1931.621372
 20
1697.422498
 30
0.0
 40
98.09449
100
AcDbArc
 50
180.808268
 51
181.763267
  0
ARC
  5
2B4
330
76
100
AcDbEntity
  8
APS_GEOMETRY
100
AcDbCircle
 10
1936.146246
 20
1697.561794
 30
0.0
 40
102.621508
100
AcDbArc
 50
181.763267
 51
182.656876
  0
ARC
  5
2B5
330
76
100
AcDbEntity
  8
APS_GEOMETRY
100
AcDbCircle
 10
1946.559046
 20
1698.044995
 30
0.0
 40
113.045513
100
AcDbArc
 50
182.656876
 51
183.489167
  0
ARC
  5
2B6
330
76
100
AcDbEntity
  8
APS_GEOMETRY
100
AcDbCircle
 10
1952.555669
 20
1698.410626
 30
0.0
 40
119.053272
100
AcDbArc
 50
183.489167
 51
184.260341
  0
ARC
  5
2B7
330
76
100
AcDbEntity
  8
APS_GEOMETRY
100
AcDbCircle
 10
1966.586398
 20
1699.455836
 30
0.0
 40
133.122878
100
AcDbArc
 50
184.260341
 51
184.970696
  0
ARC
  5
2B8
330
76
100
AcDbEntity
  8
APS_GEOMETRY
100
AcDbCircle
 10
1974.81322
 20
1700.17135
 30
0.0
 40
141.380757
100
AcDbArc
 50
184.970696
 51
185.6206
  0
ARC
  5
2B9
330
76
100
AcDbEntity
  8
APS_GEOMETRY
100
AcDbCircle
 10
1994.568461
 20
1702.11554
 30
0.0
 40
161.231435
100
AcDbArc
 50
185.6206
 51
186.2104709999999
  0
ARC
  5
2BA
330
76
100
AcDbEntity
  8
APS_GEOMETRY
100
AcDbCircle
 10
2006.476183
 20
1703.411334
 30
0.0
 40
173.209454
100
AcDbArc
 50
186.2104709999999
 51
186.740749
  0
ARC
  5
2BB
330
76
100
AcDbEntity
  8
APS_GEOMETRY
100
AcDbCircle
 10
2036.247177
 20
1706.930089
 30
0.0
 40
203.187674
100
AcDbArc
 50
186.740749
 51
187.211884
  0
ARC
  5
2BC
330
76
100
AcDbEntity
  8
APS_GEOMETRY
100
AcDbCircle
 10
2054.972749
 20
1709.299625
 30
0.0
 40
222.062571
100
AcDbArc
 50
187.211884
 51
187.624316
  0
ARC
  5
2BD
330
76
100
AcDbEntity
  8
APS_GEOMETRY
100
AcDbCircle
 10
2104.981449
 20
1715.993813
 30
0.0
 40
272.517326
100
AcDbArc
 50
187.624316
 51
187.97846
  0
ARC
  5
2BE
330
76
100
AcDbEntity
  8
APS_GEOMETRY
100
AcDbCircle
 10
2138.693665
 20
1720.718833
 30
0.0
 40
306.559055
100
AcDbArc
 50
187.97846
 51
188.274694
  0
ARC
  5
2BF
330
76
100
AcDbEntity
  8
APS_GEOMETRY
100
AcDbCircle
 10
2240.412306
 20
1735.512099
 30
0.0
 40
409.347783
100
AcDbArc
 50
188.274694
 51
188.513353
  0
ARC
  5
2C0
330
76
100
AcDbEntity
  8
APS_GEOMETRY
100
AcDbCircle
 10
2318.078154
 20
1747.137842
 30
0.0
 40
487.8789349999999
100
AcDbArc
 50
188.513353
 51
188.6947139999999
  0
ARC
  5
2C1
330
76
100
AcDbEntity
  8
APS_GEOMETRY
100
AcDbCircle
 10
2633.608661
 20
1795.391002
 30
0.0
 40
807.077727
100
AcDbArc
 50
188.6947139999999
 51
188.818996
  0
ARC
  5
2C2
330
76
100
AcDbEntity
  8
APS_GEOMETRY
100
AcDbCircle
 10
1883.015357
 20
1654.439707
 30
0.0
 40
236.631726
100
AcDbArc
 50
131.248088
 51
213.0336
  0
ARC
  5
2C3
330
76
100
AcDbEntity
  8
APS_GEOMETRY
100
AcDbCircle
 10
5219.438679999999
 20
2587.67186
 30
0.0
 40
3690.957158
100
AcDbArc
 50
196.580084
 51
196.725803
  0
ARC
  5
2C4
330
76
100
AcDbEntity
  8
APS_GEOMETRY
100
AcDbCircle
 10
2521.606023
 20
1784.434033
 30
0.0
 40
876.087348
100
AcDbArc
 50
196.142265
 51
196.580084
  0
ARC
  5
2C5
330
76
100
AcDbEntity
  8
APS_GEOMETRY
100
AcDbCircle
 10
2317.792185
 20
1725.443283
 30
0.0
 40
663.9082039999999
100
AcDbArc
 50
195.410479
 51
196.142265
  0
ARC
  5
2C6
330
76
100
AcDbEntity
  8
APS_GEOMETRY
100
AcDbCircle
 10
2083.619543
 20
1660.895313
 30
0.0
 40
421.002323
100
AcDbArc
 50
194.381969
 51
195.410479
  0
ARC
  5
2C7
330
76
100
AcDbEntity
  8
APS_GEOMETRY
100
AcDbCircle
 10
2021.241692
 20
1644.900326
 30
0.0
 40
356.606392
100
AcDbArc
 50
193.053662
 51
194.381969
  0
ARC
  5
2C8
330
76
100
AcDbEntity
  8
APS_GEOMETRY
100
AcDbCircle
 10
1937.414331
 20
1625.464541
 30
0.0
 40
270.555384
100
AcDbArc
 50
191.422994
 51
193.053662
  0
ARC
  5
2C9
330
76
100
AcDbEntity
  8
APS_GEOMETRY
100
AcDbCircle
 10
1908.977357
 20
1619.718764
 30
0.0
 40
241.54374
100
AcDbArc
 50
189.489011
 51
191.422994
  0
ARC
  5
2CA
330
76
100
AcDbEntity
  8
APS_GEOMETRY
100
AcDbCircle
 10
1866.961163
 20
1612.695948
 30
0.0
 40
198.944673
100
AcDbArc
 50
187.2537439999999
 51
189.489011
  0
ARC
  5
2CB
330
76
100
AcDbEntity
  8
APS_GEOMETRY
100
AcDbCircle
 10
1850.694893
 20
1610.625537
 30
0.0
 40
182.547169
100
AcDbArc
 50
184.745268
 51
187.2537439999999
  0
ARC
  5
2CC
330
76
100
AcDbEntity
  8
APS_GEOMETRY
100
AcDbCircle
 10
1848.403391
 20
1610.435319
 30
0.0
 40
180.247785
100
AcDbArc
 50
182.221232
 51
184.745268
  0
ARC
  5
2CD
330
76
100
AcDbEntity
  8
APS_GEOMETRY
100
AcDbCircle
 10
1852.774067
 20
1610.604845
 30
0.0
 40
184.621748
100
AcDbArc
 50
179.750611
 51
182.221232
  0
ARC
  5
2CE
330
76
100
AcDbEntity
  8
APS_GEOMETRY
100
AcDbCircle
 10
1858.224962
 20
1610.581119
 30
0.0
 40
190.072695
100
AcDbArc
 50
177.328422
 51
179.750611
  0
ARC
  5
2CF
330
76
100
AcDbEntity
  8
APS_GEOMETRY
100
AcDbCircle
 10
1860.766685
 20
1610.462518
 30
0.0
 40
192.617183
100
AcDbArc
 50
174.949284
 51
177.328422
  0
ARC
  5
2D0
330
76
100
AcDbEntity
  8
APS_GEOMETRY
100
AcDbCircle
 10
1865.308794
 20
1610.061083999999
 30
0.0
 40
197.176997
100
AcDbArc
 50
172.607503
 51
174.949284
  0
ARC
  5
2D1
330
76
100
AcDbEntity
  8
APS_GEOMETRY
100
AcDbCircle
 10
1867.279366
 20
1609.805413
 30
0.0
 40
199.164086
100
AcDbArc
 50
170.297154
 51
172.607503
  0
ARC
  5
2D2
330
76
100
AcDbEntity
  8
APS_GEOMETRY
100
AcDbCircle
 10
1870.487115
 20
1609.256939
 30
0.0
 40
202.418388
100
AcDbArc
 50
168.012132
 51
170.297154
  0
ARC
  5
2D3
330
76
100
AcDbEntity
  8
APS_GEOMETRY
100
AcDbCircle
 10
1871.549062
 20
1609.031449999999
 30
0.0
 40
203.50401
100
AcDbArc
 50
165.739024
 51
168.012132
  0
ARC
  5
2D4
330
76
100
AcDbEntity
  8
APS_GEOMETRY
100
AcDbCircle
 10
1869.067609
 20
1609.662165
 30
0.0
 40
200.943657
100
AcDbArc
 50
163.442523
 51
165.739024
  0
ARC
  5
2D5
330
76
100
AcDbEntity
  8
APS_GEOMETRY
100
AcDbCircle
 10
1867.137894
 20
1610.235879
 30
0.0
 40
198.930464
100
AcDbArc
 50
161.113129
 51
163.442523
  0
ARC
  5
2D6
330
76
100
AcDbEntity
  8
APS_GEOMETRY
100
AcDbCircle
 10
1862.906284
 20
1611.6836
 30
0.0
 40
194.458057
100
AcDbArc
 50
158.744612
 51
161.113129
  0
LINE
  5
2D7
330
76
100
AcDbEntity
  8
APS_GEOMETRY
100
AcDbLine
 10
1681.676474
 20
1682.17964
 30
0.0
 11
1681.684182999999
 21
1682.34698
 31
0.0
  0
ARC
  5
2D8
330
76
100
AcDbEntity
  8
APS_GEOMETRY
100
AcDbCircle
 10
1875.270436
 20
1701.047063
 30
0.0
 40
194.487353
100
AcDbArc
 50
183.150335
 51
185.51755
  0
ARC
  5
2D9
330
76
100
AcDbEntity
  8
APS_GEOMETRY
100
AcDbCircle
 10
1879.729546
 20
1701.292489
 30
0.0
 40
198.953212
100
AcDbArc
 50
180.8221659999999
 51
183.150335
  0
ARC
  5
2DA
330
76
100
AcDbEntity
  8
APS_GEOMETRY
100
AcDbCircle
 10
1881.741796
 20
1701.321366
 30
0.0
 40
200.965669
100
AcDbArc
 50
178.526815
 51
180.8221659999999
  0
ARC
  5
2DB
330
76
100
AcDbEntity
  8
APS_GEOMETRY
100
AcDbCircle
 10
1884.279672
 20
1701.256098
 30
0.0
 40
203.504384
100
AcDbArc
 50
176.254689
 51
178.526815
  0
ARC
  5
2DC
330
76
100
AcDbEntity
  8
APS_GEOMETRY
100
AcDbCircle
 10
1883.182772
 20
1701.327903
 30
0.0
 40
202.405136
100
AcDbArc
 50
173.97046
 51
176.254689
  0
ARC
  5
2DD
330
76
100
AcDbEntity
  8
APS_GEOMETRY
100
AcDbCircle
 10
1879.943279
 20
1701.670076
 30
0.0
 40
199.147622
100
AcDbArc
 50
171.660886
 51
173.97046
  0
ARC
  5
2DE
330
76
100
AcDbEntity
  8
APS_GEOMETRY
100
AcDbCircle
 10
1877.976147
 20
1701.958421
 30
0.0
 40
197.15947
100
AcDbArc
 50
169.319873
 51
171.660886
  0
ARC
  5
2DF
330
76
100
AcDbEntity
  8
APS_GEOMETRY
100
AcDbCircle
 10
1873.494248
 20
1702.803675
 30
0.0
 40
192.598562
100
AcDbArc
 50
166.9415009999999
 51
169.319873
  0
ARC
  5
2E0
330
76
100
AcDbEntity
  8
APS_GEOMETRY
100
AcDbCircle
 10
1871.015507
 20
1703.378603
 30
0.0
 40
190.05402
100
AcDbArc
 50
164.520087
 51
166.9415009999999
  0
ARC
  5
2E1
330
76
100
AcDbEntity
  8
APS_GEOMETRY
100
AcDbCircle
 10
1865.763008
 20
1704.833267
 30
0.0
 40
184.603809
100
AcDbArc
 50
162.050257
 51
164.520087
  0
ARC
  5
2E2
330
76
100
AcDbEntity
  8
APS_GEOMETRY
100
AcDbCircle
 10
1861.593541
 20
1706.183967
 30
0.0
 40
180.22102
100
AcDbArc
 50
159.527036
 51
162.050257
  0
ARC
  5
2E3
330
76
100
AcDbEntity
  8
APS_GEOMETRY
100
AcDbCircle
 10
1863.820059
 20
1705.352703
 30
0.0
 40
182.597652
100
AcDbArc
 50
157.020154
 51
159.527036
  0
ARC
  5
2E4
330
76
100
AcDbEntity
  8
APS_GEOMETRY
100
AcDbCircle
 10
1878.944663
 20
1698.938968
 30
0.0
 40
199.025971
100
AcDbArc
 50
154.786715
 51
157.020154
  0
ARC
  5
2E5
330
76
100
AcDbEntity
  8
APS_GEOMETRY
100
AcDbCircle
 10
1917.50377
 20
1680.783508
 30
0.0
 40
241.645514
100
AcDbArc
 50
152.854326
 51
154.786715
  0
ARC
  5
2E6
330
76
100
AcDbEntity
  8
APS_GEOMETRY
100
AcDbCircle
 10
1943.330996
 20
1667.541058
 30
0.0
 40
270.669781
100
AcDbArc
 50
151.225005
 51
152.854326
  0
ARC
  5
2E7
330
76
100
AcDbEntity
  8
APS_GEOMETRY
100
AcDbCircle
 10
2018.787549
 20
1626.10134
 30
0.0
 40
356.756607
100
AcDbArc
 50
149.897795
 51
151.225005
  0
ARC
  5
2E8
330
76
100
AcDbEntity
  8
APS_GEOMETRY
100
AcDbCircle
 10
2074.521086
 20
1593.790873
 30
0.0
 40
421.1786019999999
100
AcDbArc
 50
148.870132
 51
149.897795
  0
ARC
  5
2E9
330
76
100
AcDbEntity
  8
APS_GEOMETRY
100
AcDbCircle
 10
2282.532106
 20
1468.162662
 30
0.0
 40
664.1827829999999
100
AcDbArc
 50
148.138945
 51
148.870132
  0
ARC
  5
2EA
330
76
100
AcDbEntity
  8
APS_GEOMETRY
100
AcDbCircle
 10
2462.81523
 20
1356.116248
 30
0.0
 40
876.4477199999999
100
AcDbArc
 50
147.701485
 51
148.138945
  0
ARC
  5
2EB
330
76
100
AcDbEntity
  8
APS_GEOMETRY
100
AcDbCircle
 10
4843.127321
 20
-148.568219
 30
0.0
 40
3692.466363000001
100
AcDbArc
 50
147.555885
 51
147.701485
  0
ARC
  5
2EC
330
76
100
AcDbEntity
  8
APS_GEOMETRY
100
AcDbCircle
 10
1883.015357
 20
1654.439707
 30
0.0
 40
236.631726
100
AcDbArc
 50
311.248088
 51
41.248088
  0
ARC
  5
2ED
330
76
100
AcDbEntity
  8
APS_GEOMETRY
100
AcDbCircle
 10
-331.47702
 20
-1952.965844
 30
0.0
 40
4459.479036
100
AcDbArc
 50
57.55588499999999
 51
57.65571
  0
ARC
  5
2EE
330
76
100
AcDbEntity
  8
APS_GEOMETRY
100
AcDbCircle
 10
1487.523783
 20
919.490447
 30
0.0
 40
1059.512997
100
AcDbArc
 50
57.65571
 51
57.95549799999999
  0
ARC
  5
2EF
330
76
100
AcDbEntity
  8
APS_GEOMETRY
100
AcDbCircle
 10
1623.297929
 20
1136.399428
 30
0.0
 40
803.614336
100
AcDbArc
 50
57.95549799999999
 51
58.45615099999999
  0
ARC
  5
2F0
330
76
100
AcDbEntity
  8
APS_GEOMETRY
100
AcDbCircle
 10
1776.546686
 20
1386.049602
 30
0.0
 40
510.680229
100
AcDbArc
 50
58.45615099999999
 51
59.159055
  0
ARC
  5
2F1
330
76
100
AcDbEntity
  8
APS_GEOMETRY
100
AcDbCircle
 10
1816.341729
 20
1452.698071
 30
0.0
 40
433.055079
100
AcDbArc
 50
59.159055
 51
60.06590600000001
  0
ARC
  5
2F2
330
76
100
AcDbEntity
  8
APS_GEOMETRY
100
AcDbCircle
 10
1868.273802
 20
1542.886481
 30
0.0
 40
328.98352
100
AcDbArc
 50
60.06590600000001
 51
61.178447
  0
ARC
  5
2F3
330
76
100
AcDbEntity
  8
APS_GEOMETRY
100
AcDbCircle
 10
1885.280995
 20
1573.794905
 30
0.0
 40
293.704981
100
AcDbArc
 50
61.178447
 51
62.49812900000002
  0
ARC
  5
2F4
330
76
100
AcDbEntity
  8
APS_GEOMETRY
100
AcDbCircle
 10
1909.536423
 20
1620.385432
 30
0.0
 40
241.178768
100
AcDbArc
 50
62.49812900000002
 51
64.025669
  0
ARC
  5
2F5
330
76
100
AcDbEntity
  8
APS_GEOMETRY
100
AcDbCircle
 10
1918.143112
 20
1638.051843
 30
0.0
 40
221.527378
100
AcDbArc
 50
64.025669
 51
65.76053299999999
  0
ARC
  5
2F6
330
76
100
AcDbEntity
  8
APS_GEOMETRY
100
AcDbCircle
 10
1930.740297
 20
1666.030291
 30
0.0
 40
190.843788
100
AcDbArc
 50
65.76053299999999
 51
67.70033399999999
  0
ARC
  5
2F7
330
76
100
AcDbEntity
  8
APS_GEOMETRY
100
AcDbCircle
 10
1935.014938
 20
1676.453116
 30
0.0
 40
179.578451
100
AcDbArc
 50
67.70033399999999
 51
69.80410299999999
  0
ARC
  5
2F8
330
76
100
AcDbEntity
  8
APS_GEOMETRY
100
AcDbCircle
 10
1934.531116
 20
1675.137833
 30
0.0
 40
180.979897
100
AcDbArc
 50
69.80410299999999
 51
71.892399
  0
ARC
  5
2F9
330
76
100
AcDbEntity
  8
APS_GEOMETRY
100
AcDbCircle
 10
1933.565697
 20
1672.185458
 30
0.0
 40
184.086109
100
AcDbArc
 50
71.892399
 51
73.943871
  0
ARC
  5
2FA
330
76
100
AcDbEntity
  8
APS_GEOMETRY
100
AcDbCircle
 10
1932.299746
 20
1667.78683
 30
0.0
 40
188.663287
100
AcDbArc
 50
73.943871
 51
75.96130699999999
  0
ARC
  5
2FB
330
76
100
AcDbEntity
  8
APS_GEOMETRY
100
AcDbCircle
 10
1931.771825
 20
1665.67553
 30
0.0
 40
190.839589
100
AcDbArc
 50
75.96130699999999
 51
77.947695
  0
ARC
  5
2FC
330
76
100
AcDbEntity
  8
APS_GEOMETRY
100
AcDbCircle
 10
1930.930284
 20
1661.734086
 30
0.0
 40
194.869871
100
AcDbArc
 50
77.947695
 51
79.906182
  0
ARC
  5
2FD
330
76
100
AcDbEntity
  8
APS_GEOMETRY
100
AcDbCircle
 10
1930.608256
 20
1659.925103
 30
0.0
 40
196.707294
100
AcDbArc
 50
79.906182
 51
81.84004599999999
  0
ARC
  5
2FE
330
76
100
AcDbEntity
  8
APS_GEOMETRY
100
AcDbCircle
 10
1930.149055
 20
1656.722609
 30
0.0
 40
199.942542
100
AcDbArc
 50
81.84004599999999
 51
83.752668
  0
ARC
  5
2FF
330
76
100
AcDbEntity
  8
APS_GEOMETRY
100
AcDbCircle
 10
1929.995964999999
 20
1655.324153
 30
0.0
 40
201.349353
100
AcDbArc
 50
83.752668
 51
85.647508
  0
ARC
  5
300
330
76
100
AcDbEntity
  8
APS_GEOMETRY
100
AcDbCircle
 10
1929.834219
 20
1653.199052999999
 30
0.0
 40
203.4806
100
AcDbArc
 50
85.647508
 51
87.52859499999999
  0
ARC
  5
301
330
76
100
AcDbEntity
  8
APS_GEOMETRY
100
AcDbCircle
 10
1854.816427
 20
1700.483776
 30
0.0
 40
177.085201
100
AcDbArc
 50
12.667249
 51
61.759502
  0
LINE
  5
302
330
76
100
AcDbEntity
  8
APS_GEOMETRY
100
AcDbLine
 10
2027.591383
 20
1739.316532
 30
0.0
 11
2027.666324
 21
1739.251615
 31
0.0
  0
ARC
  5
303
330
76
100
AcDbEntity
  8
APS_GEOMETRY
100
AcDbCircle
 10
1922.684546
 20
1618.133835
 30
0.0
 40
160.283156
100
AcDbArc
 50
43.91551299999999
 51
49.082096
  0
ARC
  5
304
330
76
100
AcDbEntity
  8
APS_GEOMETRY
100
AcDbCircle
 10
1921.042939
 20
1616.553225
 30
0.0
 40
162.562017
100
AcDbArc
 50
38.80541
 51
43.91551299999999
  0
ARC
  5
305
330
76
100
AcDbEntity
  8
APS_GEOMETRY
100
AcDbCircle
 10
1919.001734
 20
1614.911737
 30
0.0
 40
165.181368
100
AcDbArc
 50
33.783689
 51
38.80541
  0
ARC
  5
306
330
76
100
AcDbEntity
  8
APS_GEOMETRY
100
AcDbCircle
 10
1917.400278
 20
1613.840315
 30
0.0
 40
167.10818
100
AcDbArc
 50
28.803254
 51
33.783689
  0
ARC
  5
307
330
76
100
AcDbEntity
  8
APS_GEOMETRY
100
AcDbCircle
 10
1918.19694
 20
1614.278343
 30
0.0
 40
166.199038
100
AcDbArc
 50
23.815475
 51
28.803254
  0
ARC
  5
308
330
76
100
AcDbEntity
  8
APS_GEOMETRY
100
AcDbCircle
 10
1916.84232
 20
1613.680447
 30
0.0
 40
167.679739
100
AcDbArc
 50
18.85342
 51
23.815475
  0
ARC
  5
309
330
76
100
AcDbEntity
  8
APS_GEOMETRY
100
AcDbCircle
 10
1911.453062
 20
1611.840185
 30
0.0
 40
173.374532
100
AcDbArc
 50
14.099666
 51
18.85342
  0
ARC
  5
30A
330
76
100
AcDbEntity
  8
APS_GEOMETRY
100
AcDbCircle
 10
1901.184629
 20
1609.260997
 30
0.0
 40
183.961927
100
AcDbArc
 50
9.547133999999999
 51
14.099666
  0
ARC
  5
30B
330
76
100
AcDbEntity
  8
APS_GEOMETRY
100
AcDbCircle
 10
1896.090045
 20
1608.404147
 30
0.0
 40
189.128064
100
AcDbArc
 50
5.169903999999999
 51
9.547133999999999
  0
ARC
  5
30C
330
76
100
AcDbEntity
  8
APS_GEOMETRY
100
AcDbCircle
 10
1887.248254
 20
1607.604163
 30
0.0
 40
198.005972
100
AcDbArc
 50
0.9361989999999998
 51
5.169903999999999
  0
ARC
  5
30D
330
76
100
AcDbEntity
  8
APS_GEOMETRY
100
AcDbCircle
 10
1883.233283
 20
1607.538554
 30
0.0
 40
202.021479
100
AcDbArc
 50
356.809806
 51
0.9361989999999998
  0
ARC
  5
30E
330
76
100
AcDbEntity
  8
APS_GEOMETRY
100
AcDbCircle
 10
1883.660186
 20
1607.51476
 30
0.0
 40
201.593914
100
AcDbArc
 50
352.679382
 51
356.809806
  0
ARC
  5
30F
330
76
100
AcDbEntity
  8
APS_GEOMETRY
100
AcDbCircle
 10
1887.487978
 20
1607.023008
 30
0.0
 40
197.7346629999999
100
AcDbArc
 50
348.455294
 51
352.679382
  0
ARC
  5
310
330
76
100
AcDbEntity
  8
APS_GEOMETRY
100
AcDbCircle
 10
1895.866261
 20
1605.311618
 30
0.0
 40
189.183378
100
AcDbArc
 50
344.102792
 51
348.455294
  0
ARC
  5
311
330
76
100
AcDbEntity
  8
APS_GEOMETRY
100
AcDbCircle
 10
1904.088928
 20
1602.969763
 30
0.0
 40
180.633726
100
AcDbArc
 50
339.589954
 51
344.102792
  0
ARC
  5
312
330
76
100
AcDbEntity
  8
APS_GEOMETRY
100
AcDbCircle
 10
1893.579155
 20
1606.88041
 30
0.0
 40
191.84749
100
AcDbArc
 50
335.251815
 51
339.589954
  0
ARC
  5
313
330
76
100
AcDbEntity
  8
APS_GEOMETRY
100
AcDbCircle
 10
1859.766717
 20
1622.466859
 30
0.0
 40
229.079443
100
AcDbArc
 50
331.864075
 51
335.251815
  0
ARC
  5
314
330
76
100
AcDbEntity
  8
APS_GEOMETRY
100
AcDbCircle
 10
1741.24171
 20
1685.848855999999
 30
0.0
 40
363.487236
100
AcDbArc
 50
329.461402
 51
331.864075
  0
ARC
  5
315
330
76
100
AcDbEntity
  8
APS_GEOMETRY
100
AcDbCircle
 10
1638.943938
 20
1746.199711
 30
0.0
 40
482.2603809999999
100
AcDbArc
 50
328.030625
 51
329.461402
  0
ARC
  5
316
330
76
100
AcDbEntity
  8
APS_GEOMETRY
100
AcDbCircle
 10
313.612165
 20
2573.374241
 30
0.0
 40
2044.541409
100
AcDbArc
 50
327.555885
 51
328.030625
  0
ARC
  5
317
330
76
100
AcDbEntity
  8
APS_GEOMETRY
100
AcDbCircle
 10
1883.015357
 20
1654.439707
 30
0.0
 40
50.0
100
AcDbArc
 50
339.860422
 51
69.86042199999999
  0
ARC
  5
318
330
76
100
AcDbEntity
  8
APS_GEOMETRY
100
AcDbCircle
 10
1975.653328
 20
1215.248572
 30
0.0
 40
491.949994
100
AcDbArc
 50
97.92439600000001
 51
98.81899599999998
  0
ARC
  5
319
330
76
100
AcDbEntity
  8
APS_GEOMETRY
100
AcDbCircle
 10
1932.749815
 20
1523.473483
 30
0.0
 40
180.75342
100
AcDbArc
 50
96.02370700000001
 51
97.92439600000001
  0
ARC
  5
31A
330
76
100
AcDbEntity
  8
APS_GEOMETRY
100
AcDbCircle
 10
1928.379931
 20
1564.885316
 30
0.0
 40
139.111665
100
AcDbArc
 50
93.08759999999999
 51
96.02370700000001
  0
ARC
  5
31B
330
76
100
AcDbEntity
  8
APS_GEOMETRY
100
AcDbCircle
 10
1925.821231
 20
1612.320463
 30
0.0
 40
91.607558
100
AcDbArc
 50
89.09255899999999
 51
93.08759999999999
  0
ARC
  5
31C
330
76
100
AcDbEntity
  8
APS_GEOMETRY
100
AcDbCircle
 10
1926.048556
 20
1626.672546
 30
0.0
 40
77.253675
100
AcDbArc
 50
84.05046
 51
89.09255899999999
  0
ARC
  5
31D
330
76
100
AcDbEntity
  8
APS_GEOMETRY
100
AcDbCircle
 10
1926.946109
 20
1635.285148
 30
0.0
 40
68.59443
100
AcDbArc
 50
78.478356
 51
84.05046
  0
ARC
  5
31E
330
76
100
AcDbEntity
  8
APS_GEOMETRY
100
AcDbCircle
 10
1926.06944
 20
1630.984498
 30
0.0
 40
72.983524
100
AcDbArc
 50
73.189247
 51
78.478356
  0
ARC
  5
31F
330
76
100
AcDbEntity
  8
APS_GEOMETRY
100
AcDbCircle
 10
1924.595812999999
 20
1626.106918999999
 30
0.0
 40
78.078851
100
AcDbArc
 50
68.13334600000001
 51
73.189247
  0
ARC
  5
320
330
76
100
AcDbEntity
  8
APS_GEOMETRY
100
AcDbCircle
 10
1923.880892
 20
1624.325502
 30
0.0
 40
79.99836999999999
100
AcDbArc
 50
63.23739599999999
 51
68.13334600000001
  0
ARC
  5
321
330
76
100
AcDbEntity
  8
APS_GEOMETRY
100
AcDbCircle
 10
1923.004109
 20
1622.586947
 30
0.0
 40
81.94550300000001
100
AcDbArc
 50
58.425113
 51
63.23739599999999
  0
ARC
  5
322
330
76
100
AcDbEntity
  8
APS_GEOMETRY
100
AcDbCircle
 10
1923.068059
 20
1622.690998
 30
0.0
 40
81.82337099999999
100
AcDbArc
 50
53.62044700000001
 51
58.425113
  0
ARC
  5
323
330
76
100
AcDbEntity
  8
APS_GEOMETRY
100
AcDbCircle
 10
1923.85585
 20
1623.760331
 30
0.0
 40
80.495181
100
AcDbArc
 50
48.772323
 51
53.62044700000001
  0
ARC
  5
324
330
76
100
AcDbEntity
  8
APS_GEOMETRY
100
AcDbCircle
 10
1924.524415
 20
1624.523283
 30
0.0
 40
79.48074799999999
100
AcDbArc
 50
43.848308
 51
48.772323
  0
ARC
  5
325
330
76
100
AcDbEntity
  8
APS_GEOMETRY
100
AcDbCircle
 10
1926.319172
 20
1626.2473
 30
0.0
 40
76.99209499999999
100
AcDbArc
 50
38.818562
 51
43.848308
  0
ARC
  5
326
330
76
100
AcDbEntity
  8
APS_GEOMETRY
100
AcDbCircle
 10
1927.903214
 20
1627.521747
 30
0.0
 40
74.95901899999999
100
AcDbArc
 50
33.67401
 51
38.818562
  0
ARC
  5
327
330
76
100
AcDbEntity
  8
APS_GEOMETRY
100
AcDbCircle
 10
1923.563301
 20
1624.630229
 30
0.0
 40
80.17397
100
AcDbArc
 50
28.801169
 51
33.67401
  0
ARC
  5
328
330
76
100
AcDbEntity
  8
APS_GEOMETRY
100
AcDbCircle
 10
1918.248465
 20
1621.708232
 30
0.0
 40
86.239079
100
AcDbArc
 50
24.364944
 51
28.801169
  0
ARC
  5
329
330
76
100
AcDbEntity
  8
APS_GEOMETRY
100
AcDbCircle
 10
1906.948399
 20
1616.590629
 30
0.0
 40
98.64397099999999
100
AcDbArc
 50
20.342895
 51
24.364944
  0
ARC
  5
32A
330
76
100
AcDbEntity
  8
APS_GEOMETRY
100
AcDbCircle
 10
1900.385921
 20
1614.157508
 30
0.0
 40
105.642986
100
AcDbArc
 50
16.70033
 51
20.342895
  0
ARC
  5
32B
330
76
100
AcDbEntity
  8
APS_GEOMETRY
100
AcDbCircle
 10
1886.617856
 20
1610.026804
 30
0.0
 40
120.017349
100
AcDbArc
 50
13.393041
 51
16.70033
  0
ARC
  5
32C
330
76
100
AcDbEntity
  8
APS_GEOMETRY
100
AcDbCircle
 10
1897.491843
 20
1696.785576
 30
0.0
 40
121.188395
100
AcDbArc
 50
328.718923
 51
330.888647
  0
ARC
  5
32D
330
76
100
AcDbEntity
  8
APS_GEOMETRY
100
AcDbCircle
 10
1905.6212
 20
1691.846526
 30
0.0
 40
111.676261
100
AcDbArc
 50
326.408494
 51
328.718923
  0
ARC
  5
32E
330
76
100
AcDbEntity
  8
APS_GEOMETRY
100
AcDbCircle
 10
1909.701042
 20
1689.136758
 30
0.0
 40
106.778512
100
AcDbArc
 50
323.941362
 51
326.408494
  0
ARC
  5
32F
330
76
100
AcDbEntity
  8
APS_GEOMETRY
100
AcDbCircle
 10
1917.119429
 20
1683.735375
 30
0.0
 40
97.602053
100
AcDbArc
 50
321.305576
 51
323.941362
  0
ARC
  5
330
330
76
100
AcDbEntity
  8
APS_GEOMETRY
100
AcDbCircle
 10
1920.500009
 20
1681.027561
 30
0.0
 40
93.27070500000001
100
AcDbArc
 50
318.490337
 51
321.305576
  0
ARC
  5
331
330
76
100
AcDbEntity
  8
APS_GEOMETRY
100
AcDbCircle
 10
1926.443043
 20
1675.76782
 30
0.0
 40
85.33442499999999
100
AcDbArc
 50
315.486766
 51
318.490337
  0
ARC
  5
332
330
76
100
AcDbEntity
  8
APS_GEOMETRY
100
AcDbCircle
 10
1929.034453
 20
1673.220072
 30
0.0
 40
81.70036000000001
100
AcDbArc
 50
312.288864
 51
315.486766
  0
ARC
  5
333
330
76
100
AcDbEntity
  8
APS_GEOMETRY
100
AcDbCircle
 10
1933.203679
 20
1668.636364
 30
0.0
 40
75.504166
100
AcDbArc
 50
308.897223
 51
312.288864
  0
ARC
  5
334
330
76
100
AcDbEntity
  8
APS_GEOMETRY
100
AcDbCircle
 10
1933.313881
 20
1668.499775
 30
0.0
 40
75.328664
100
AcDbArc
 50
305.473383
 51
308.897223
  0
ARC
  5
335
330
76
100
AcDbEntity
  8
APS_GEOMETRY
100
AcDbCircle
 10
1932.228677
 20
1670.022672
 30
0.0
 40
77.19865899999999
100
AcDbArc
 50
302.108052
 51
305.473383
  0
ARC
  5
336
330
76
100
AcDbEntity
  8
APS_GEOMETRY
100
AcDbCircle
 10
1931.759052
 20
1670.771084
 30
0.0
 40
78.082214
100
AcDbArc
 50
298.79386
 51
302.108052
  0
ARC
  5
337
330
76
100
AcDbEntity
  8
APS_GEOMETRY
100
AcDbCircle
 10
1931.004496
 20
1672.143965
 30
0.0
 40
79.64878900000001
100
AcDbArc
 50
295.5224740000001
 51
298.79386
  0
ARC
  5
338
330
76
100
AcDbEntity
  8
APS_GEOMETRY
100
AcDbCircle
 10
1930.715853
 20
1672.748506
 30
0.0
 40
80.318702
100
AcDbArc
 50
292.284877
 51
295.5224740000001
  0
ARC
  5
339
330
76
100
AcDbEntity
  8
APS_GEOMETRY
100
AcDbCircle
 10
1930.31762
 20
1673.720229
 30
0.0
 40
81.36886199999999
100
AcDbArc
 50
289.071619
 51
292.284877
  0
ARC
  5
33A
330
76
100
AcDbEntity
  8
APS_GEOMETRY
100
AcDbCircle
 10
1930.185132
 20
1674.103446
 30
0.0
 40
81.77433499999999
100
AcDbArc
 50
285.872677
 51
289.071619
  0
ARC
  5
33B
330
76
100
AcDbEntity
  8
APS_GEOMETRY
100
AcDbCircle
 10
1930.166647
 20
1674.168454
 30
0.0
 40
81.84192000000001
100
AcDbArc
 50
282.67111
 51
285.872677
  0
ARC
  5
33C
330
76
100
AcDbEntity
  8
APS_GEOMETRY
100
AcDbCircle
 10
1930.260818
 20
1673.749601
 30
0.0
 40
81.41261099999999
100
AcDbArc
 50
279.443957
 51
282.67111
  0
ARC
  5
33D
330
76
100
AcDbEntity
  8
APS_GEOMETRY
100
AcDbCircle
 10
1930.5442
 20
1672.045946
 30
0.0
 40
79.68554899999999
100
AcDbArc
 50
276.168337
 51
279.443957
  0
ARC
  5
33E
330
76
100
AcDbEntity
  8
APS_GEOMETRY
100
AcDbCircle
 10
1930.680157
 20
1670.787966
 30
0.0
 40
78.420243
100
AcDbArc
 50
272.8217509999999
 51
276.168337
  0
ARC
  5
33F
330
76
100
AcDbEntity
  8
APS_GEOMETRY
100
AcDbCircle
 10
1930.834986
 20
1667.646686
 30
0.0
 40
75.27515
100
AcDbArc
 50
269.382266
 51
272.8217509999999
  0
ARC
  5
340
330
76
100
AcDbEntity
  8
APS_GEOMETRY
100
AcDbCircle
 10
1858.673603999999
 20
1611.628342
 30
0.0
 40
73.90164300000001
100
AcDbArc
 50
344.899422
 51
346.662413
  0
ARC
  5
341
330
76
100
AcDbEntity
  8
APS_GEOMETRY
100
AcDbCircle
 10
1860.533082
 20
1611.187492
 30
0.0
 40
71.99061999999999
100
AcDbArc
 50
346.662413
 51
348.456488
  0
ARC
  5
342
330
76
100
AcDbEntity
  8
APS_GEOMETRY
100
AcDbCircle
 10
1861.504892
 20
1610.989006
 30
0.0
 40
70.99874799999999
100
AcDbArc
 50
348.456488
 51
350.284055
  0
ARC
  5
343
330
76
100
AcDbEntity
  8
APS_GEOMETRY
100
AcDbCircle
 10
1863.498554
 20
1610.647652
 30
0.0
 40
68.976074
100
AcDbArc
 50
350.284055
 51
352.14739
  0
ARC
  5
344
330
76
100
AcDbEntity
  8
APS_GEOMETRY
100
AcDbCircle
 10
1864.581051
 20
1610.498356
 30
0.0
 40
67.88333
100
AcDbArc
 50
352.14739
 51
354.031838
  0
ARC
  5
345
330
76
100
AcDbEntity
  8
APS_GEOMETRY
100
AcDbCircle
 10
1860.512814
 20
1610.923659
 30
0.0
 40
71.973738
100
AcDbArc
 50
354.031838
 51
355.827811
  0
ARC
  5
346
330
76
100
AcDbEntity
  8
APS_GEOMETRY
100
AcDbCircle
 10
1857.143285
 20
1611.169458
 30
0.0
 40
75.35221999999999
100
AcDbArc
 50
355.827811
 51
357.511681
  0
ARC
  5
347
330
76
100
AcDbEntity
  8
APS_GEOMETRY
100
AcDbCircle
 10
1849.664138
 20
1611.494477
 30
0.0
 40
82.83842599999999
100
AcDbArc
 50
357.511681
 51
359.080401
  0
ARC
  5
348
330
76
100
AcDbEntity
  8
APS_GEOMETRY
100
AcDbCircle
 10
1845.219699
 20
1611.565816
 30
0.0
 40
87.28343700000001
100
AcDbArc
 50
359.080401
 51
0.532022
  0
ARC
  5
349
330
76
100
AcDbEntity
  8
APS_GEOMETRY
100
AcDbCircle
 10
1834.572462
 20
1611.466948
 30
0.0
 40
97.93113300000001
100
AcDbArc
 50
0.532022
 51
1.865522
  0
ARC
  5
34A
330
76
100
AcDbEntity
  8
APS_GEOMETRY
100
AcDbCircle
 10
1828.202857
 20
1611.259484
 30
0.0
 40
104.304116
100
AcDbArc
 50
1.865522
 51
3.080621999999999
  0
ARC
  5
34B
330
76
100
AcDbEntity
  8
APS_GEOMETRY
100
AcDbCircle
 10
1812.65511
 20
1610.422721
 30
0.0
 40
119.874363
100
AcDbArc
 50
3.080621999999999
 51
4.177622
  0
ARC
  5
34C
330
76
100
AcDbEntity
  8
APS_GEOMETRY
100
AcDbCircle
 10
1803.144642
 20
1609.728051
 30
0.0
 40
129.410168
100
AcDbArc
 50
4.177622
 51
5.157237999999999
  0
ARC
  5
34D
330
76
100
AcDbEntity
  8
APS_GEOMETRY
100
AcDbCircle
 10
1779.010143
 20
1607.5498
 30
0.0
 40
153.642766
100
AcDbArc
 50
5.157237999999999
 51
6.020464999999999
  0
ARC
  5
34E
330
76
100
AcDbEntity
  8
APS_GEOMETRY
100
AcDbCircle
 10
1763.605625
 20
1605.925156
 30
0.0
 40
169.1327189999999
100
AcDbArc
 50
6.020464999999999
 51
6.768452999999999
  0
ARC
  5
34F
330
76
100
AcDbEntity
  8
APS_GEOMETRY
100
AcDbCircle
 10
1721.602921
 20
1600.940091
 30
0.0
 40
211.430214
100
AcDbArc
 50
6.768452999999999
 51
7.402397
  0
ARC
  5
350
330
76
100
AcDbEntity
  8
APS_GEOMETRY
100
AcDbCircle
 10
1692.666014
 20
1597.180612
 30
0.0
 40
240.610314
100
AcDbArc
 50
7.402397
 51
7.92346
  0
ARC
  5
351
330
76
100
AcDbEntity
  8
APS_GEOMETRY
100
AcDbCircle
 10
1601.51916
 20
1584.4949
 30
0.0
 40
332.635725
100
AcDbArc
 50
7.92346
 51
8.332691
  0
ARC
  5
352
330
76
100
AcDbEntity
  8
APS_GEOMETRY
100
AcDbCircle
 10
1528.994044
 20
1573.872366
 30
0.0
 40
405.934638
100
AcDbArc
 50
8.332691
 51
8.630975999999998
  0
ARC
  5
353
330
76
100
AcDbEntity
  8
APS_GEOMETRY
100
AcDbCircle
 10
1188.618348
 20
1522.207137
 30
0.0
 40
750.209108
100
AcDbArc
 50
8.630975999999998
 51
8.818996
  0
LINE
  5
354
330
76
100
AcDbEntity
  8
APS_GEOMETRY
100
AcDbLine
 10
2011.041831
 20
1751.884768
 30
0.0
 11
2011.376311
 21
1751.662254
 31
0.0
  0
ARC
  5
355
330
76
100
AcDbEntity
  8
APS_GEOMETRY
100
AcDbCircle
 10
1855.716782
 20
1701.127445
 30
0.0
 40
163.657129
100
AcDbArc
 50
17.986003
 51
20.604454
  0
ARC
  5
356
330
76
100
AcDbEntity
  8
APS_GEOMETRY
100
AcDbCircle
 10
1856.739967
 20
1701.512126
 30
0.0
 40
162.56402
100
AcDbArc
 50
20.604454
 51
23.235068
  0
ARC
  5
357
330
76
100
AcDbEntity
  8
APS_GEOMETRY
100
AcDbCircle
 10
1857.348131
 20
1701.773227
 30
0.0
 40
161.902176
100
AcDbArc
 50
23.235068
 51
25.88136400000001
  0
ARC
  5
358
330
76
100
AcDbEntity
  8
APS_GEOMETRY
100
AcDbCircle
 10
1858.698456
 20
1702.428366
 30
0.0
 40
160.401315
100
AcDbArc
 50
25.88136400000001
 51
28.546643
  0
ARC
  5
359
330
76
100
AcDbEntity
  8
APS_GEOMETRY
100
AcDbCircle
 10
1859.124948
 20
1702.660382
 30
0.0
 40
159.915798
100
AcDbArc
 50
28.546643
 51
31.219685
  0
ARC
  5
35A
330
76
100
AcDbEntity
  8
APS_GEOMETRY
100
AcDbCircle
 10
1856.967753
 20
1701.352926
 30
0.0
 40
162.438283
100
AcDbArc
 50
31.219685
 51
33.862173
  0
ARC
  5
35B
330
76
100
AcDbEntity
  8
APS_GEOMETRY
100
AcDbCircle
 10
1855.907128
 20
1700.641231
 30
0.0
 40
163.715559
100
AcDbArc
 50
33.862173
 51
36.477198
  0
ARC
  5
35C
330
76
100
AcDbEntity
  8
APS_GEOMETRY
100
AcDbCircle
 10
1854.386319
 20
1699.516828
 30
0.0
 40
165.606893
100
AcDbArc
 50
36.477198
 51
39.071041
  0
ARC
  5
35D
330
76
100
AcDbEntity
  8
APS_GEOMETRY
100
AcDbCircle
 10
1853.866513
 20
1699.094829
 30
0.0
 40
166.276431
100
AcDbArc
 50
39.071041
 51
41.65019599999999
  0
ARC
  5
35E
330
76
100
AcDbEntity
  8
APS_GEOMETRY
100
AcDbCircle
 10
1853.321901
 20
1698.610446
 30
0.0
 40
167.005286
100
AcDbArc
 50
41.65019599999999
 51
44.2213
  0
ARC
  5
35F
330
76
100
AcDbEntity
  8
APS_GEOMETRY
100
AcDbCircle
 10
1853.283618
 20
1698.57319
 30
0.0
 40
167.058704
100
AcDbArc
 50
44.2213
 51
46.791068
  0
ARC
  5
360
330
76
100
AcDbEntity
  8
APS_GEOMETRY
100
AcDbCircle
 10
1853.640479
 20
1698.953089
 30
0.0
 40
166.537482
100
AcDbArc
 50
46.791068
 51
49.36623499999999
  0
ARC
  5
361
330
76
100
AcDbEntity
  8
APS_GEOMETRY
100
AcDbCircle
 10
1854.297314
 20
1699.718518
 30
0.0
 40
165.528862
100
AcDbArc
 50
49.36623499999999
 51
51.95337099999999
  0
ARC
  5
362
330
76
100
AcDbEntity
  8
APS_GEOMETRY
100
AcDbCircle
 10
1853.027335
 20
1698.095744
 30
0.0
 40
167.589503
100
AcDbArc
 50
51.95337099999999
 51
54.51461899999999
  0
ARC
  5
363
330
76
100
AcDbEntity
  8
APS_GEOMETRY
100
AcDbCircle
 10
1851.261586
 20
1695.618919
 30
0.0
 40
170.631301
100
AcDbArc
 50
54.51461899999999
 51
57.01678399999998
  0
ARC
  5
364
330
76
100
AcDbEntity
  8
APS_GEOMETRY
100
AcDbCircle
 10
1848.306277
 20
1691.065222
 30
0.0
 40
176.059929
100
AcDbArc
 50
57.01678399999998
 51
59.46169799999999
  0
ARC
  5
365
330
76
100
AcDbEntity
  8
APS_GEOMETRY
100
AcDbCircle
 10
1846.902033
 20
1688.684928
 30
0.0
 40
178.823569
100
AcDbArc
 50
59.46169799999999
 51
61.851926
  0
ARC
  5
366
330
76
100
AcDbEntity
  8
APS_GEOMETRY
100
AcDbCircle
 10
1844.328217
 20
1683.874317
 30
0.0
 40
184.279437
100
AcDbArc
 50
61.851926
 51
64.190663
  0
ARC
  5
367
330
76
100
AcDbEntity
  8
APS_GEOMETRY
100
AcDbCircle
 10
1843.166839
 20
1681.472892
 30
0.0
 40
186.946953
100
AcDbArc
 50
64.190663
 51
66.48162099999999
  0
ARC
  5
368
330
76
100
AcDbEntity
  8
APS_GEOMETRY
100
AcDbCircle
 10
1841.152705
 20
1676.844761
 30
0.0
 40
191.994361
100
AcDbArc
 50
66.48162099999999
 51
68.72894599999999
  0
ARC
  5
369
330
76
100
AcDbEntity
  8
APS_GEOMETRY
100
AcDbCircle
 10
1929.29115
 20
1665.603312
 30
0.0
 40
191.052627
100
AcDbArc
 50
95.55274199999999
 51
99.59384700000001
  0
ARC
  5
36A
330
76
100
AcDbEntity
  8
APS_GEOMETRY
100
AcDbCircle
 10
1927.73279
 20
1674.822911
 30
0.0
 40
181.702254
100
AcDbArc
 50
99.59384700000001
 51
103.784156
  0
ARC
  5
36B
330
76
100
AcDbEntity
  8
APS_GEOMETRY
100
AcDbCircle
 10
1926.547801
 20
1679.653088
 30
0.0
 40
176.7288439999999
100
AcDbArc
 50
103.784156
 51
108.14415
  0
ARC
  5
36C
330
76
100
AcDbEntity
  8
APS_GEOMETRY
100
AcDbCircle
 10
1923.577497
 20
1688.717085
 30
0.0
 40
167.190565
100
AcDbArc
 50
108.14415
 51
112.688122
  0
ARC
  5
36D
330
76
100
AcDbEntity
  8
APS_GEOMETRY
100
AcDbCircle
 10
1923.153867
 20
1689.730397
 30
0.0
 40
166.092265
100
AcDbArc
 50
112.688122
 51
117.293703
  0
ARC
  5
36E
330
76
100
AcDbEntity
  8
APS_GEOMETRY
100
AcDbCircle
 10
1923.617309
 20
1688.832253
 30
0.0
 40
167.102929
100
AcDbArc
 50
117.293703
 51
121.880479
  0
ARC
  5
36F
330
76
100
AcDbEntity
  8
APS_GEOMETRY
100
AcDbCircle
 10
1923.354209
 20
1689.255261
 30
0.0
 40
166.604775
100
AcDbArc
 50
121.880479
 51
126.486636
  0
ARC
  5
370
330
76
100
AcDbEntity
  8
APS_GEOMETRY
100
AcDbCircle
 10
1921.651729
 20
1691.557154
 30
0.0
 40
163.741709
100
AcDbArc
 50
126.486636
 51
131.149738
  0
ARC
  5
371
330
76
100
AcDbEntity
  8
APS_GEOMETRY
100
AcDbCircle
 10
1919.824809
 20
1693.647725
 30
0.0
 40
160.965357
100
AcDbArc
 50
131.149738
 51
135.901344
  0
ARC
  5
372
330
76
100
AcDbEntity
  8
APS_GEOMETRY
100
AcDbCircle
 10
1919.853881
 20
1693.619553
 30
0.0
 40
161.005841
100
AcDbArc
 50
135.901344
 51
140.642442
  0
ARC
  5
373
330
76
100
AcDbEntity
  8
APS_GEOMETRY
100
AcDbCircle
 10
1921.154923
 20
1692.552478
 30
0.0
 40
162.688505
100
AcDbArc
 50
140.642442
 51
145.332063
  0
ARC
  5
374
330
76
100
AcDbEntity
  8
APS_GEOMETRY
100
AcDbCircle
 10
1922.528461
 20
1691.602532
 30
0.0
 40
164.358536
100
AcDbArc
 50
145.332063
 51
149.990342
  0
ARC
  5
375
330
76
100
AcDbEntity
  8
APS_GEOMETRY
100
AcDbCircle
 10
1923.312192
 20
1691.149869
 30
0.0
 40
165.263599
100
AcDbArc
 50
149.990342
 51
154.638491
  0
ARC
  5
376
330
76
100
AcDbEntity
  8
APS_GEOMETRY
100
AcDbCircle
 10
1920.591378
 20
1692.439567
 30
0.0
 40
162.252593
100
AcDbArc
 50
154.638491
 51
159.354453
  0
ARC
  5
377
330
76
100
AcDbEntity
  8
APS_GEOMETRY
100
AcDbCircle
 10
1915.509509
 20
1694.354328
 30
0.0
 40
156.821967
100
AcDbArc
 50
159.354453
 51
164.297299
  0
ARC
  5
378
330
76
100
AcDbEntity
  8
APS_GEOMETRY
100
AcDbCircle
 10
1903.767454
 20
1697.655468
 30
0.0
 40
144.624698
100
AcDbArc
 50
164.297299
 51
169.538746
  0
ARC
  5
379
330
76
100
AcDbEntity
  8
APS_GEOMETRY
100
AcDbCircle
 10
1896.926873
 20
1698.918511
 30
0.0
 40
137.66849
100
AcDbArc
 50
169.538746
 51
175.1375379999999
  0
ARC
  5
37A
330
76
100
AcDbEntity
  8
APS_GEOMETRY
100
AcDbCircle
 10
1885.956733
 20
1699.851744
 30
0.0
 40
126.658726
100
AcDbArc
 50
175.1375379999999
 51
181.096314
  0
ARC
  5
37B
330
76
100
AcDbEntity
  8
APS_GEOMETRY
100
AcDbCircle
 10
1884.678847
 20
1699.827289
 30
0.0
 40
125.380606
100
AcDbArc
 50
181.096314
 51
187.1895719999999
  0
ARC
  5
37C
330
76
100
AcDbEntity
  8
APS_GEOMETRY
100
AcDbCircle
 10
1882.185293
 20
1699.512741
 30
0.0
 40
122.867291
100
AcDbArc
 50
187.1895719999999
 51
193.393041
  0
ARC
  5
37D
330
76
100
AcDbEntity
  8
APS_GEOMETRY
100
AcDbCircle
 10
1868.538872
 20
1612.093836999999
 30
0.0
 40
121.188396
100
AcDbArc
 50
148.718923
 51
150.888647
  0
ARC
  5
37E
330
76
100
AcDbEntity
  8
APS_GEOMETRY
100
AcDbCircle
 10
1860.409513
 20
1617.032888
 30
0.0
 40
111.676261
100
AcDbArc
 50
146.408494
 51
148.718923
  0
ARC
  5
37F
330
76
100
AcDbEntity
  8
APS_GEOMETRY
100
AcDbCircle
 10
1856.329672
 20
1619.742656
 30
0.0
 40
106.778512
100
AcDbArc
 50
143.941362
 51
146.408494
  0
ARC
  5
380
330
76
100
AcDbEntity
  8
APS_GEOMETRY
100
AcDbCircle
 10
1848.911284
 20
1625.144038
 30
0.0
 40
97.602053
100
AcDbArc
 50
141.305576
 51
143.941362
  0
ARC
  5
381
330
76
100
AcDbEntity
  8
APS_GEOMETRY
100
AcDbCircle
 10
1845.530705
 20
1627.851853
 30
0.0
 40
93.27070500000001
100
AcDbArc
 50
138.490337
 51
141.305576
  0
ARC
  5
382
330
76
100
AcDbEntity
  8
APS_GEOMETRY
100
AcDbCircle
 10
1839.58767
 20
1633.111593
 30
0.0
 40
85.33442499999999
100
AcDbArc
 50
135.486766
 51
138.490337
  0
ARC
  5
383
330
76
100
AcDbEntity
  8
APS_GEOMETRY
100
AcDbCircle
 10
1836.99626
 20
1635.659342
 30
0.0
 40
81.70036000000001
100
AcDbArc
 50
132.288864
 51
135.486766
  0
ARC
  5
384
330
76
100
AcDbEntity
  8
APS_GEOMETRY
100
AcDbCircle
 10
1832.827034
 20
1640.24305
 30
0.0
 40
75.504166
100
AcDbArc
 50
128.897223
 51
132.288864
  0
ARC
  5
385
330
76
100
AcDbEntity
  8
APS_GEOMETRY
100
AcDbCircle
 10
1832.716832
 20
1640.379639
 30
0.0
 40
75.328664
100
AcDbArc
 50
125.473383
 51
128.897223
  0
ARC
  5
386
330
76
100
AcDbEntity
  8
APS_GEOMETRY
100
AcDbCircle
 10
1833.802037
 20
1638.856742
 30
0.0
 40
77.19865899999999
100
AcDbArc
 50
122.108052
 51
125.473383
  0
ARC
  5
387
330
76
100
AcDbEntity
  8
APS_GEOMETRY
100
AcDbCircle
 10
1834.271661
 20
1638.10833
 30
0.0
 40
78.082214
100
AcDbArc
 50
118.79386
 51
122.108052
  0
ARC
  5
388
330
76
100
AcDbEntity
  8
APS_GEOMETRY
100
AcDbCircle
 10
1835.026218
 20
1636.735449
 30
0.0
 40
79.64878900000001
100
AcDbArc
 50
115.522474
 51
118.79386
  0
ARC
  5
389
330
76
100
AcDbEntity
  8
APS_GEOMETRY
100
AcDbCircle
 10
1835.31486
 20
1636.130908
 30
0.0
 40
80.318702
100
AcDbArc
 50
112.284877
 51
115.522474
  0
ARC
  5
38A
330
76
100
AcDbEntity
  8
APS_GEOMETRY
100
AcDbCircle
 10
1835.713093
 20
1635.159184
 30
0.0
 40
81.36886199999999
100
AcDbArc
 50
109.071619
 51
112.284877
  0
ARC
  5
38B
330
76
100
AcDbEntity
  8
APS_GEOMETRY
100
AcDbCircle
 10
1835.845581
 20
1634.775968
 30
0.0
 40
81.77433499999999
100
AcDbArc
 50
105.872677
 51
109.071619
  0
ARC
  5
38C
330
76
100
AcDbEntity
  8
APS_GEOMETRY
100
AcDbCircle
 10
1835.864066
 20
1634.710959
 30
0.0
 40
81.84192000000001
100
AcDbArc
 50
102.67111
 51
105.872677
  0
ARC
  5
38D
330
76
100
AcDbEntity
  8
APS_GEOMETRY
100
AcDbCircle
 10
1835.769895
 20
1635.129813
 30
0.0
 40
81.41261099999999
100
AcDbArc
 50
99.44395700000001
 51
102.67111
  0
ARC
  5
38E
330
76
100
AcDbEntity
  8
APS_GEOMETRY
100
AcDbCircle
 10
1835.486514
 20
1636.833468
 30
0.0
 40
79.68554899999999
100
AcDbArc
 50
96.168337
 51
99.44395700000001
  0
ARC
  5
38F
330
76
100
AcDbEntity
  8
APS_GEOMETRY
100
AcDbCircle
 10
1835.350557
 20
1638.091448
 30
0.0
 40
78.420243
100
AcDbArc
 50
92.82175100000001
 51
96.168337
  0
ARC
  5
390
330
76
100
AcDbEntity
  8
APS_GEOMETRY
100
AcDbCircle
 10
1835.195727
 20
1641.232728
 30
0.0
 40
75.27515
100
AcDbArc
 50
89.382266
 51
92.82175100000001
  0
ARC
  5
391
330
76
100
AcDbEntity
  8
APS_GEOMETRY
100
AcDbCircle
 10
1909.872976
 20
1696.572212
 30
0.0
 40
76.507489
100
AcDbArc
 50
157.156488
 51
164.899422
  0
ARC
  5
392
330
76
100
AcDbEntity
  8
APS_GEOMETRY
100
AcDbCircle
 10
1914.629137
 20
1694.568654
 30
0.0
 40
81.66843
100
AcDbArc
 50
149.750836
 51
157.156488
  0
ARC
  5
393
330
76
100
AcDbEntity
  8
APS_GEOMETRY
100
AcDbCircle
 10
1914.822607
 20
1694.45583
 30
0.0
 40
81.89239399999999
100
AcDbArc
 50
142.413898
 51
149.750836
  0
ARC
  5
394
330
76
100
AcDbEntity
  8
APS_GEOMETRY
100
AcDbCircle
 10
1913.045728
 20
1695.823524
 30
0.0
 40
79.650099
100
AcDbArc
 50
134.95819
 51
142.413898
  0
ARC
  5
395
330
76
100
AcDbEntity
  8
APS_GEOMETRY
100
AcDbCircle
 10
1911.05991
 20
1697.812242
 30
0.0
 40
76.83967800000001
100
AcDbArc
 50
127.272015
 51
134.95819
  0
ARC
  5
396
330
76
100
AcDbEntity
  8
APS_GEOMETRY
100
AcDbCircle
 10
1911.52238
 20
1697.204547
 30
0.0
 40
77.603334
100
AcDbArc
 50
119.603984
 51
127.272015
  0
ARC
  5
397
330
76
100
AcDbEntity
  8
APS_GEOMETRY
100
AcDbCircle
 10
1915.786088
 20
1689.70028
 30
0.0
 40
86.23428
100
AcDbArc
 50
112.890916
 51
119.603984
  0
ARC
  5
398
330
76
100
AcDbEntity
  8
APS_GEOMETRY
100
AcDbCircle
 10
1923.41632
 20
1671.628997
 30
0.0
 40
105.850389
100
AcDbArc
 50
107.1139
 51
112.890916
  0
ARC
  5
399
330
76
100
AcDbEntity
  8
APS_GEOMETRY
100
AcDbCircle
 10
1926.882251
 20
1660.372533
 30
0.0
 40
117.628362
100
AcDbArc
 50
102.09456
 51
107.1139
  0
ARC
  5
39A
330
76
100
AcDbEntity
  8
APS_GEOMETRY
100
AcDbCircle
 10
1928.333345
 20
1653.600643
 30
0.0
 40
124.553979
100
AcDbArc
 50
97.27851499999999
 51
102.09456
  0
ARC
  5
39B
330
76
100
AcDbEntity
  8
APS_GEOMETRY
100
AcDbCircle
 10
1928.336575
 20
1653.575356
 30
0.0
 40
124.579471
100
AcDbArc
 50
92.52951299999997
 51
97.27851499999999
  0
ARC
  5
39C
330
76
100
AcDbEntity
  8
APS_GEOMETRY
100
AcDbCircle
 10
1928.423911
 20
1651.598414
 30
0.0
 40
126.558342
100
AcDbArc
 50
87.83851999999999
 51
92.52951299999997
  0
ARC
  5
39D
330
76
100
AcDbEntity
  8
APS_GEOMETRY
100
AcDbCircle
 10
1928.303121
 20
1648.398084
 30
0.0
 40
129.76095
100
AcDbArc
 50
83.310337
 51
87.83851999999999
  0
ARC
  5
39E
330
76
100
AcDbEntity
  8
APS_GEOMETRY
100
AcDbCircle
 10
1927.147585
 20
1638.546139
 30
0.0
 40
139.680431
100
AcDbArc
 50
79.017183
 51
83.310337
  0
ARC
  5
39F
330
76
100
AcDbEntity
  8
APS_GEOMETRY
100
AcDbCircle
 10
1926.169539
 20
1633.506456
 30
0.0
 40
144.81414
100
AcDbArc
 50
74.93749
 51
79.017183
  0
ARC
  5
3A0
330
76
100
AcDbEntity
  8
APS_GEOMETRY
100
AcDbCircle
 10
1923.660826
 20
1624.184506
 30
0.0
 40
154.467761
100
AcDbArc
 50
71.04354100000001
 51
74.93749
  0
ARC
  5
3A1
330
76
100
AcDbEntity
  8
APS_GEOMETRY
100
AcDbCircle
 10
1922.196887
 20
1619.9224
 30
0.0
 40
158.974275
100
AcDbArc
 50
67.303549
 51
71.04354100000001
  0
ARC
  5
3A2
330
76
100
AcDbEntity
  8
APS_GEOMETRY
100
AcDbCircle
 10
1919.875992
 20
1614.373155
 30
0.0
 40
164.989313
100
AcDbArc
 50
63.672167
 51
67.303549
  0
ARC
  5
3A3
330
76
100
AcDbEntity
  8
APS_GEOMETRY
100
AcDbCircle
 10
1919.94327
 20
1614.509116
 30
0.0
 40
164.837615
100
AcDbArc
 50
60.05712
 51
63.672167
  0
ARC
  5
3A4
330
76
100
AcDbEntity
  8
APS_GEOMETRY
100
AcDbCircle
 10
1920.264498
 20
1615.066783
 30
0.0
 40
164.194048
100
AcDbArc
 50
56.43613299999999
 51
60.05712
  0
ARC
  5
3A5
330
76
100
AcDbEntity
  8
APS_GEOMETRY
100
AcDbCircle
 10
1908.191435
 20
1606.911527
 30
0.0
 40
148.967567
100
AcDbArc
 50
203.595741
 51
206.393087
  0
ARC
  5
3A6
330
76
100
AcDbEntity
  8
APS_GEOMETRY
100
AcDbCircle
 10
1907.983364999999
 20
1606.808271
 30
0.0
 40
148.735285
100
AcDbArc
 50
206.393087
 51
209.193538
  0
ARC
  5
3A7
330
76
100
AcDbEntity
  8
APS_GEOMETRY
100
AcDbCircle
 10
1907.749613
 20
1606.677666
 30
0.0
 40
148.467521
100
AcDbArc
 50
209.193538
 51
211.996888
  0
ARC
  5
3A8
330
76
100
AcDbEntity
  8
APS_GEOMETRY
100
AcDbCircle
 10
1908.898788
 20
1607.395663
 30
0.0
 40
149.822557
100
AcDbArc
 50
211.996888
 51
214.78874
  0
ARC
  5
3A9
330
76
100
AcDbEntity
  8
APS_GEOMETRY
100
AcDbCircle
 10
1910.600713
 20
1608.578036
 30
0.0
 40
151.894888
100
AcDbArc
 50
214.78874
 51
217.5378
  0
ARC
  5
3AA
330
76
100
AcDbEntity
  8
APS_GEOMETRY
100
AcDbCircle
 10
1912.076845
 20
1609.71226
 30
0.0
 40
153.756454
100
AcDbArc
 50
217.5378
 51
220.264839
  0
ARC
  5
3AB
330
76
100
AcDbEntity
  8
APS_GEOMETRY
100
AcDbCircle
 10
1912.474986
 20
1610.049489
 30
0.0
 40
154.27822
100
AcDbArc
 50
220.264839
 51
222.97958
  0
ARC
  5
3AC
330
76
100
AcDbEntity
  8
APS_GEOMETRY
100
AcDbCircle
 10
1912.693747
 20
1610.253341
 30
0.0
 40
154.577238
100
AcDbArc
 50
222.97958
 51
225.691124
  0
ARC
  5
3AD
330
76
100
AcDbEntity
  8
APS_GEOMETRY
100
AcDbCircle
 10
1912.595495
 20
1610.152689
 30
0.0
 40
154.436582
100
AcDbArc
 50
225.691124
 51
228.4046529999999
  0
ARC
  5
3AE
330
76
100
AcDbEntity
  8
APS_GEOMETRY
100
AcDbCircle
 10
1912.126449
 20
1609.624304
 30
0.0
 40
153.730044
100
AcDbArc
 50
228.4046529999999
 51
231.126183
  0
ARC
  5
3AF
330
76
100
AcDbEntity
  8
APS_GEOMETRY
100
AcDbCircle
 10
1911.902394
 20
1609.346369
 30
0.0
 40
153.373045
100
AcDbArc
 50
231.126183
 51
233.845224
  0
ARC
  5
3B0
330
76
100
AcDbEntity
  8
APS_GEOMETRY
100
AcDbCircle
 10
1914.945232
 20
1613.510773
 30
0.0
 40
158.530673
100
AcDbArc
 50
233.845224
 51
236.498924
  0
ARC
  5
3B1
330
76
100
AcDbEntity
  8
APS_GEOMETRY
100
AcDbCircle
 10
1916.603627
 20
1616.016233
 30
0.0
 40
161.53527
100
AcDbArc
 50
236.498924
 51
239.088403
  0
ARC
  5
3B2
330
76
100
AcDbEntity
  8
APS_GEOMETRY
100
AcDbCircle
 10
1919.499064
 20
1620.851935
 30
0.0
 40
167.171542
100
AcDbArc
 50
239.088403
 51
241.618336
  0
ARC
  5
3B3
330
76
100
AcDbEntity
  8
APS_GEOMETRY
100
AcDbCircle
 10
1920.913834
 20
1623.470499
 30
0.0
 40
170.147858
100
AcDbArc
 50
241.618336
 51
244.089484
  0
ARC
  5
3B4
330
76
100
AcDbEntity
  8
APS_GEOMETRY
100
AcDbCircle
 10
1923.439524
 20
1628.669524
 30
0.0
 40
175.927907
100
AcDbArc
 50
244.089484
 51
246.505432
  0
ARC
  5
3B5
330
76
100
AcDbEntity
  8
APS_GEOMETRY
100
AcDbCircle
 10
1924.513446
 20
1631.140016
 30
0.0
 40
178.621722
100
AcDbArc
 50
246.505432
 51
248.872483
  0
ARC
  5
3B6
330
76
100
AcDbEntity
  8
APS_GEOMETRY
100
AcDbCircle
 10
1926.248123999999
 20
1635.629118
 30
0.0
 40
183.434324
100
AcDbArc
 50
248.872483
 51
251.197238
  0
ARC
  5
3B7
330
76
100
AcDbEntity
  8
APS_GEOMETRY
100
AcDbCircle
 10
1935.768621
 20
1663.590977
 30
0.0
 40
212.972527
100
AcDbArc
 50
251.197238
 51
253.486525
  0
ARC
  5
3B8
330
76
100
AcDbEntity
  8
APS_GEOMETRY
100
AcDbCircle
 10
1892.70407
 20
1518.332949
 30
0.0
 40
61.465265
100
AcDbArc
 50
253.486525
 51
260.236719
  0
ARC
  5
3B9
330
76
100
AcDbEntity
  8
APS_GEOMETRY
100
AcDbCircle
 10
1843.259218
 20
1618.092093
 30
0.0
 40
165.014384
100
AcDbArc
 50
283.6785569999999
 51
326.066622
  0
ARC
  5
3BA
330
76
100
AcDbEntity
  8
APS_GEOMETRY
100
AcDbCircle
 10
1923.385385
 20
1707.405047
 30
0.0
 40
190.107368
100
AcDbArc
 50
285.562888
 51
287.3792509999999
  0
ARC
  5
3BB
330
76
100
AcDbEntity
  8
APS_GEOMETRY
100
AcDbCircle
 10
1926.638065
 20
1695.726055
 30
0.0
 40
177.9838879999999
100
AcDbArc
 50
283.670945
 51
285.562888
  0
ARC
  5
3BC
330
76
100
AcDbEntity
  8
APS_GEOMETRY
100
AcDbCircle
 10
1927.721123
 20
1691.273359
 30
0.0
 40
173.401365
100
AcDbArc
 50
281.715341
 51
283.670945
  0
ARC
  5
3BD
330
76
100
AcDbEntity
  8
APS_GEOMETRY
100
AcDbCircle
 10
1929.030629
 20
1684.958511
 30
0.0
 40
166.95217
100
AcDbArc
 50
279.709684
 51
281.715341
  0
ARC
  5
3BE
330
76
100
AcDbEntity
  8
APS_GEOMETRY
100
AcDbCircle
 10
1929.332683
 20
1683.193216
 30
0.0
 40
165.16122
100
AcDbArc
 50
277.667642
 51
279.709684
  0
ARC
  5
3BF
330
76
100
AcDbEntity
  8
APS_GEOMETRY
100
AcDbCircle
 10
1929.818626
 20
1679.583758999999
 30
0.0
 40
161.519198
100
AcDbArc
 50
275.5898049999999
 51
277.667642
  0
ARC
  5
3C0
330
76
100
AcDbEntity
  8
APS_GEOMETRY
100
AcDbCircle
 10
1930.027509
 20
1677.449493
 30
0.0
 40
159.374735
100
AcDbArc
 50
273.469771
 51
275.5898049999999
  0
ARC
  5
3C1
330
76
100
AcDbEntity
  8
APS_GEOMETRY
100
AcDbCircle
 10
1930.317586
 20
1672.665355
 30
0.0
 40
154.581811
100
AcDbArc
 50
271.301417
 51
273.469771
  0
ARC
  5
3C2
330
76
100
AcDbEntity
  8
APS_GEOMETRY
100
AcDbCircle
 10
1930.376953999999
 20
1670.052081
 30
0.0
 40
151.967862
100
AcDbArc
 50
269.078879
 51
271.301417
  0
ARC
  5
3C3
330
76
100
AcDbEntity
  8
APS_GEOMETRY
100
AcDbCircle
 10
1930.288695
 20
1664.562623
 30
0.0
 40
146.477696
100
AcDbArc
 50
266.796616
 51
269.078879
  0
ARC
  5
3C4
330
76
100
AcDbEntity
  8
APS_GEOMETRY
100
AcDbCircle
 10
1930.129642
 20
1661.72077
 30
0.0
 40
143.631394
100
AcDbArc
 50
264.449502
 51
266.796616
  0
ARC
  5
3C5
330
76
100
AcDbEntity
  8
APS_GEOMETRY
100
AcDbCircle
 10
1929.576302
 20
1656.026722
 30
0.0
 40
137.910523
100
AcDbArc
 50
262.032938
 51
264.449502
  0
ARC
  5
3C6
330
76
100
AcDbEntity
  8
APS_GEOMETRY
100
AcDbCircle
 10
1929.181261
 20
1653.204086
 30
0.0
 40
135.060378
100
AcDbArc
 50
259.542986
 51
262.032938
  0
ARC
  5
3C7
330
76
100
AcDbEntity
  8
APS_GEOMETRY
100
AcDbCircle
 10
1928.180761
 20
1647.783176
 30
0.0
 40
129.547913
100
AcDbArc
 50
256.976529
 51
259.542986
  0
ARC
  5
3C8
330
76
100
AcDbEntity
  8
APS_GEOMETRY
100
AcDbCircle
 10
1927.639248
 20
1645.442002
 30
0.0
 40
127.144929
100
AcDbArc
 50
254.345236
 51
256.976529
  0
ARC
  5
3C9
330
76
100
AcDbEntity
  8
APS_GEOMETRY
100
AcDbCircle
 10
1927.266461
 20
1644.11174
 30
0.0
 40
125.76342
100
AcDbArc
 50
251.693945
 51
254.345236
  0
ARC
  5
3CA
330
76
100
AcDbEntity
  8
APS_GEOMETRY
100
AcDbCircle
 10
1927.114014
 20
1643.650947
 30
0.0
 40
125.278064
100
AcDbArc
 50
249.024328
 51
251.693945
  0
ARC
  5
3CB
330
76
100
AcDbEntity
  8
APS_GEOMETRY
100
AcDbCircle
 10
1926.711706
 20
1642.601566999999
 30
0.0
 40
124.15421
100
AcDbArc
 50
246.334506
 51
249.024328
  0
ARC
  5
3CC
330
76
100
AcDbEntity
  8
APS_GEOMETRY
100
AcDbCircle
 10
1926.486659
 20
1642.088054
 30
0.0
 40
123.593547
100
AcDbArc
 50
243.62297
 51
246.334506
  0
ARC
  5
3CD
330
76
100
AcDbEntity
  8
APS_GEOMETRY
100
AcDbCircle
 10
1926.01648
 20
1641.13993
 30
0.0
 40
122.535244
100
AcDbArc
 50
240.888647
 51
243.62297
  0
ARC
  5
3CE
330
76
100
AcDbEntity
  8
APS_GEOMETRY
100
AcDbCircle
 10
1838.028747
 20
1653.246676
 30
0.0
 40
122.494177
100
AcDbArc
 50
281.109863
 51
283.393041
  0
ARC
  5
3CF
330
76
100
AcDbEntity
  8
APS_GEOMETRY
100
AcDbCircle
 10
1837.860369
 20
1654.104122
 30
0.0
 40
123.367999
100
AcDbArc
 50
278.842653
 51
281.109863
  0
ARC
  5
3D0
330
76
100
AcDbEntity
  8
APS_GEOMETRY
100
AcDbCircle
 10
1837.789401
 20
1654.560301
 30
0.0
 40
123.829665
100
AcDbArc
 50
276.590852
 51
278.842653
  0
ARC
  5
3D1
330
76
100
AcDbEntity
  8
APS_GEOMETRY
100
AcDbCircle
 10
1837.681894
 20
1655.490756
 30
0.0
 40
124.76631
100
AcDbArc
 50
274.353682
 51
276.590852
  0
ARC
  5
3D2
330
76
100
AcDbEntity
  8
APS_GEOMETRY
100
AcDbCircle
 10
1837.646154
 20
1655.960204
 30
0.0
 40
125.237117
100
AcDbArc
 50
272.130171
 51
274.353682
  0
ARC
  5
3D3
330
76
100
AcDbEntity
  8
APS_GEOMETRY
100
AcDbCircle
 10
1837.612101
 20
1656.875708
 30
0.0
 40
126.153254
100
AcDbArc
 50
269.919178
 51
272.130171
  0
ARC
  5
3D4
330
76
100
AcDbEntity
  8
APS_GEOMETRY
100
AcDbCircle
 10
1837.612463
 20
1657.132501
 30
0.0
 40
126.410048
100
AcDbArc
 50
267.720538
 51
269.919178
  0
ARC
  5
3D5
330
76
100
AcDbEntity
  8
APS_GEOMETRY
100
AcDbCircle
 10
1837.739784
 20
1660.331107
 30
0.0
 40
129.611186
100
AcDbArc
 50
265.563309
 51
267.720538
  0
ARC
  5
3D6
330
76
100
AcDbEntity
  8
APS_GEOMETRY
100
AcDbCircle
 10
1837.93095
 20
1662.794896
 30
0.0
 40
132.08238
100
AcDbArc
 50
263.459928
 51
265.563309
  0
ARC
  5
3D7
330
76
100
AcDbEntity
  8
APS_GEOMETRY
100
AcDbCircle
 10
1838.463939
 20
1667.443973
 30
0.0
 40
136.76191
100
AcDbArc
 50
261.408803
 51
263.459928
  0
ARC
  5
3D8
330
76
100
AcDbEntity
  8
APS_GEOMETRY
100
AcDbCircle
 10
1838.82067
 20
1669.805196
 30
0.0
 40
139.149928
100
AcDbArc
 50
259.407903
 51
261.408803
  0
ARC
  5
3D9
330
76
100
AcDbEntity
  8
APS_GEOMETRY
100
AcDbCircle
 10
1839.69828
 20
1674.498246
 30
0.0
 40
143.92433
100
AcDbArc
 50
257.454829
 51
259.407903
  0
ARC
  5
3DA
330
76
100
AcDbEntity
  8
APS_GEOMETRY
100
AcDbCircle
 10
1840.21347
 20
1676.813478
 30
0.0
 40
146.29619
100
AcDbArc
 50
255.546872
 51
257.454829
  0
ARC
  5
3DB
330
76
100
AcDbEntity
  8
APS_GEOMETRY
100
AcDbCircle
 10
1841.36452
 20
1681.279329
 30
0.0
 40
150.907995
100
AcDbArc
 50
253.681072
 51
255.546872
  0
ARC
  5
3DC
330
76
100
AcDbEntity
  8
APS_GEOMETRY
100
AcDbCircle
 10
1841.989077
 20
1683.41253
 30
0.0
 40
153.130745
100
AcDbArc
 50
251.854258
 51
253.681072
  0
ARC
  5
3DD
330
76
100
AcDbEntity
  8
APS_GEOMETRY
100
AcDbCircle
 10
1843.290337
 20
1687.383004
 30
0.0
 40
157.309015
100
AcDbArc
 50
250.063093
 51
251.854258
  0
ARC
  5
3DE
330
76
100
AcDbEntity
  8
APS_GEOMETRY
100
AcDbCircle
 10
1843.950788
 20
1689.203813
 30
0.0
 40
159.245905
100
AcDbArc
 50
248.304098
 51
250.063093
  0
ARC
  5
3DF
330
76
100
AcDbEntity
  8
APS_GEOMETRY
100
AcDbCircle
 10
1845.234779
 20
1692.431013
 30
0.0
 40
162.719153
100
AcDbArc
 50
246.573681
 51
248.304098
  0
ARC
  5
3E0
330
76
100
AcDbEntity
  8
APS_GEOMETRY
100
AcDbCircle
 10
1845.864456
 20
1693.884277
 30
0.0
 40
164.302968
100
AcDbArc
 50
244.866888
 51
246.573681
  0
ARC
  5
3E1
330
76
100
AcDbEntity
  8
APS_GEOMETRY
100
AcDbCircle
 10
1846.159507
 20
1694.513198
 30
0.0
 40
164.997659
100
AcDbArc
 50
243.166113
 51
244.866888
  0
ARC
  5
3E2
330
76
100
AcDbEntity
  8
APS_GEOMETRY
100
AcDbCircle
 10
1930.745074
 20
1672.199246
 30
0.0
 40
92.219163
100
AcDbArc
 50
266.783325
 51
325.025733
  0
ARC
  5
3E3
330
76
100
AcDbEntity
  8
APS_GEOMETRY
100
AcDbCircle
 10
1881.650044
 20
1609.081492
 30
0.0
 40
125.081549
100
AcDbArc
 50
2.904711999999999
 51
4.703655
  0
ARC
  5
3E4
330
76
100
AcDbEntity
  8
APS_GEOMETRY
100
AcDbCircle
 10
1880.903183
 20
1609.043596
 30
0.0
 40
125.829371
100
AcDbArc
 50
1.114212999999999
 51
2.904711999999999
  0
ARC
  5
3E5
330
76
100
AcDbEntity
  8
APS_GEOMETRY
100
AcDbCircle
 10
1880.591223
 20
1609.037529
 30
0.0
 40
126.14139
100
AcDbArc
 50
359.331512
 51
1.114212999999999
  0
ARC
  5
3E6
330
76
100
AcDbEntity
  8
APS_GEOMETRY
100
AcDbCircle
 10
1879.641017
 20
1609.048616
 30
0.0
 40
127.09166
100
AcDbArc
 50
357.5579
 51
359.331512
  0
ARC
  5
3E7
330
76
100
AcDbEntity
  8
APS_GEOMETRY
100
AcDbCircle
 10
1878.005781
 20
1609.118356
 30
0.0
 40
128.728384
100
AcDbArc
 50
355.814262
 51
357.5579
  0
ARC
  5
3E8
330
76
100
AcDbEntity
  8
APS_GEOMETRY
100
AcDbCircle
 10
1874.360502
 20
1609.385136
 30
0.0
 40
132.383412
100
AcDbArc
 50
354.105877
 51
355.814262
  0
ARC
  5
3E9
330
76
100
AcDbEntity
  8
APS_GEOMETRY
100
AcDbCircle
 10
1872.489264
 20
1609.578316
 30
0.0
 40
134.264595
100
AcDbArc
 50
352.431958
 51
354.105877
  0
ARC
  5
3EA
330
76
100
AcDbEntity
  8
APS_GEOMETRY
100
AcDbCircle
 10
1868.702854
 20
1610.081381
 30
0.0
 40
138.084277
100
AcDbArc
 50
350.791522
 51
352.431958
  0
ARC
  5
3EB
330
76
100
AcDbEntity
  8
APS_GEOMETRY
100
AcDbCircle
 10
1866.795593
 20
1610.39058
 30
0.0
 40
140.016438
100
AcDbArc
 50
349.183415
 51
350.791522
  0
ARC
  5
3EC
330
76
100
AcDbEntity
  8
APS_GEOMETRY
100
AcDbCircle
 10
1863.007247
 20
1611.114382
 30
0.0
 40
143.87331
100
AcDbArc
 50
347.606333
 51
349.183415
  0
ARC
  5
3ED
330
76
100
AcDbEntity
  8
APS_GEOMETRY
100
AcDbCircle
 10
1861.134958
 20
1611.525815
 30
0.0
 40
145.790272
100
AcDbArc
 50
346.058845
 51
347.606333
  0
ARC
  5
3EE
330
76
100
AcDbEntity
  8
APS_GEOMETRY
100
AcDbCircle
 10
1857.488019
 20
1612.431121
 30
0.0
 40
149.547896
100
AcDbArc
 50
344.5394100000001
 51
346.058845
  0
ARC
  5
3EF
330
76
100
AcDbEntity
  8
APS_GEOMETRY
100
AcDbCircle
 10
1855.722548
 20
1612.919422
 30
0.0
 40
151.379651
100
AcDbArc
 50
343.046395
 51
344.5394100000001
  0
ARC
  5
3F0
330
76
100
AcDbEntity
  8
APS_GEOMETRY
100
AcDbCircle
 10
1852.359409
 20
1613.94466
 30
0.0
 40
154.895589
100
AcDbArc
 50
341.578085
 51
343.046395
  0
ARC
  5
3F1
330
76
100
AcDbEntity
  8
APS_GEOMETRY
100
AcDbCircle
 10
1850.7707
 20
1614.473828
 30
0.0
 40
156.570108
100
AcDbArc
 50
340.132701
 51
341.578085
  0
ARC
  5
3F2
330
76
100
AcDbEntity
  8
APS_GEOMETRY
100
AcDbCircle
 10
1847.82693
 20
1615.537558
 30
0.0
 40
159.700172
100
AcDbArc
 50
338.708403
 51
340.132701
  0
ARC
  5
3F3
330
76
100
AcDbEntity
  8
APS_GEOMETRY
100
AcDbCircle
 10
1846.479944
 20
1616.062498
 30
0.0
 40
161.145833
100
AcDbArc
 50
337.3033069999999
 51
338.708403
  0
ARC
  5
3F4
330
76
100
AcDbEntity
  8
APS_GEOMETRY
100
AcDbCircle
 10
1844.077911
 20
1617.067128
 30
0.0
 40
163.749492
100
AcDbArc
 50
335.91548
 51
337.3033069999999
  0
ARC
  5
3F5
330
76
100
AcDbEntity
  8
APS_GEOMETRY
100
AcDbCircle
 10
1843.162385
 20
1617.476365
 30
0.0
 40
164.75232
100
AcDbArc
 50
334.539977
 51
335.91548
  0
ARC
  5
3F6
330
76
100
AcDbEntity
  8
APS_GEOMETRY
100
AcDbCircle
 10
1843.025818
 20
1617.541388
 30
0.0
 40
164.903576
100
AcDbArc
 50
333.166113
 51
334.539977
  0
ARC
  5
3F7
330
76
100
AcDbEntity
  8
APS_GEOMETRY
100
AcDbCircle
 10
1930.397093
 20
1679.95105
 30
0.0
 40
149.333419
100
AcDbArc
 50
291.479708
 51
293.595741
  0
ARC
  5
3F8
330
76
100
AcDbEntity
  8
APS_GEOMETRY
100
AcDbCircle
 10
1929.799221
 20
1681.470414
 30
0.0
 40
150.966184
100
AcDbArc
 50
289.379761
 51
291.479708
  0
ARC
  5
3F9
330
76
100
AcDbEntity
  8
APS_GEOMETRY
100
AcDbCircle
 10
1929.68292
 20
1681.801041
 30
0.0
 40
151.316669
100
AcDbArc
 50
287.286977
 51
289.379761
  0
ARC
  5
3FA
330
76
100
AcDbEntity
  8
APS_GEOMETRY
100
AcDbCircle
 10
1929.496618
 20
1682.399667
 30
0.0
 40
151.943615
100
AcDbArc
 50
285.19905
 51
287.286977
  0
ARC
  5
3FB
330
76
100
AcDbEntity
  8
APS_GEOMETRY
100
AcDbCircle
 10
1929.468852
 20
1682.501871
 30
0.0
 40
152.049524
100
AcDbArc
 50
283.113657
 51
285.19905
  0
ARC
  5
3FC
330
76
100
AcDbEntity
  8
APS_GEOMETRY
100
AcDbCircle
 10
1929.293404
 20
1683.254999
 30
0.0
 40
152.822818
100
AcDbArc
 50
281.03328
 51
283.113657
  0
ARC
  5
3FD
330
76
100
AcDbEntity
  8
APS_GEOMETRY
100
AcDbCircle
 10
1929.300646
 20
1683.217859
 30
0.0
 40
152.784979
100
AcDbArc
 50
278.947969
 51
281.03328
  0
ARC
  5
3FE
330
76
100
AcDbEntity
  8
APS_GEOMETRY
100
AcDbCircle
 10
1929.664603
 20
1680.906342
 30
0.0
 40
150.444983
100
AcDbArc
 50
276.838098
 51
278.947969
  0
ARC
  5
3FF
330
76
100
AcDbEntity
  8
APS_GEOMETRY
100
AcDbCircle
 10
1929.865956
 20
1679.227238
 30
0.0
 40
148.753849
100
AcDbArc
 50
274.694246
 51
276.838098
  0
ARC
  5
400
330
76
100
AcDbEntity
  8
APS_GEOMETRY
100
AcDbCircle
 10
1930.216225
 20
1674.961591
 30
0.0
 40
144.473846
100
AcDbArc
 50
272.507018
 51
274.694246
  0
ARC
  5
401
330
76
100
AcDbEntity
  8
APS_GEOMETRY
100
AcDbCircle
 10
1930.333362
 20
1672.286223
 30
0.0
 40
141.7959149999999
100
AcDbArc
 50
270.265095
 51
272.507018
  0
ARC
  5
402
330
76
100
AcDbEntity
  8
APS_GEOMETRY
100
AcDbCircle
 10
1930.359155999999
 20
1666.711479
 30
0.0
 40
136.221112
100
AcDbArc
 50
267.962984
 51
270.265095
  0
ARC
  5
403
330
76
100
AcDbEntity
  8
APS_GEOMETRY
100
AcDbCircle
 10
1930.260094
 20
1663.926304
 30
0.0
 40
133.434175
100
AcDbArc
 50
265.5965319999999
 51
267.962984
  0
ARC
  5
404
330
76
100
AcDbEntity
  8
APS_GEOMETRY
100
AcDbCircle
 10
1929.804791
 20
1658.013792
 30
0.0
 40
127.504159
100
AcDbArc
 50
263.158379
 51
265.5965319999999
  0
ARC
  5
405
330
76
100
AcDbEntity
  8
APS_GEOMETRY
100
AcDbCircle
 10
1929.413215
 20
1654.750102
 30
0.0
 40
124.217062
100
AcDbArc
 50
260.639104
 51
263.158379
  0
ARC
  5
406
330
76
100
AcDbEntity
  8
APS_GEOMETRY
100
AcDbCircle
 10
1928.550679
 20
1649.517789
 30
0.0
 40
118.914131
100
AcDbArc
 50
258.048548
 51
260.639104
  0
ARC
  5
407
330
76
100
AcDbEntity
  8
APS_GEOMETRY
100
AcDbCircle
 10
1928.095228
 20
1647.366098
 30
0.0
 40
116.714766
100
AcDbArc
 50
255.392592
 51
258.048548
  0
ARC
  5
408
330
76
100
AcDbEntity
  8
APS_GEOMETRY
100
AcDbCircle
 10
1927.153583
 20
1643.752983
 30
0.0
 40
112.980961
100
AcDbArc
 50
252.67632
 51
255.392592
  0
ARC
  5
409
330
76
100
AcDbEntity
  8
APS_GEOMETRY
100
AcDbCircle
 10
1927.210917
 20
1643.936791
 30
0.0
 40
113.173504
100
AcDbArc
 50
249.952217
 51
252.67632
  0
ARC
  5
40A
330
76
100
AcDbEntity
  8
APS_GEOMETRY
100
AcDbCircle
 10
1926.81874
 20
1642.862083
 30
0.0
 40
112.029475
100
AcDbArc
 50
247.207642
 51
249.952217
  0
ARC
  5
40B
330
76
100
AcDbEntity
  8
APS_GEOMETRY
100
AcDbCircle
 10
1853.480038
 20
1612.888735
 30
0.0
 40
79.18628199999999
100
AcDbArc
 50
292.215242
 51
335.55935
  0
CIRCLE
  5
40D
330
76
100
AcDbEntity
  8
INCISIONI
100
AcDbCircle
 10
1883.015357
 20
1654.439707
 30
0.0
 40
50.0
  0
ARC
  5
43D
330
76
100
AcDbEntity
  8
INCISIONI
100
AcDbCircle
 10
1984.976644
 20
1389.634924
 30
0.0
 40
508.3389349999999
100
AcDbArc
 50
94.431633
 51
99.79460500000001
  0
ARC
  5
43E
330
76
100
AcDbEntity
  8
INCISIONI
100
AcDbCircle
 10
2126.14832
 20
868.426733
 30
0.0
 40
1047.181476
100
AcDbArc
 50
102.555885
 51
104.358812
  0
ARC
  5
43F
330
76
100
AcDbEntity
  8
INCISIONI
100
AcDbCircle
 10
1926.78949
 20
1647.201827
 30
0.0
 40
243.2943
100
AcDbArc
 50
104.358812
 51
109.835791
  0
ARC
  5
440
330
76
100
AcDbEntity
  8
INCISIONI
100
AcDbCircle
 10
1908.249316
 20
1698.598381
 30
0.0
 40
188.656
100
AcDbArc
 50
109.835791
 51
118.378619
  0
ARC
  5
441
330
76
100
AcDbEntity
  8
INCISIONI
100
AcDbCircle
 10
1909.360451
 20
1696.541546
 30
0.0
 40
190.993775
100
AcDbArc
 50
118.378619
 51
126.770157
  0
ARC
  5
442
330
76
100
AcDbEntity
  8
INCISIONI
100
AcDbCircle
 10
1916.203233
 20
1687.384671
 30
0.0
 40
202.424962
100
AcDbArc
 50
126.770157
 51
134.805753
  0
ARC
  5
443
330
76
100
AcDbEntity
  8
INCISIONI
100
AcDbCircle
 10
1910.768823
 20
1692.856055
 30
0.0
 40
194.713357
100
AcDbArc
 50
134.805753
 51
143.101732
  0
ARC
  5
444
330
76
100
AcDbEntity
  8
INCISIONI
100
AcDbCircle
 10
1901.60627
 20
1699.73506
 30
0.0
 40
183.25591
100
AcDbArc
 50
143.101732
 51
152.019592
  0
ARC
  5
445
330
76
100
AcDbEntity
  8
INCISIONI
100
AcDbCircle
 10
1886.527599
 20
1707.74592
 30
0.0
 40
166.181361
100
AcDbArc
 50
152.019592
 51
161.638084
  0
ARC
  5
446
330
76
100
AcDbEntity
  8
INCISIONI
100
AcDbCircle
 10
1887.592704
 20
1707.392392
 30
0.0
 40
167.303605
100
AcDbArc
 50
161.638084
 51
171.340566
  0
ARC
  5
447
330
76
100
AcDbEntity
  8
INCISIONI
100
AcDbCircle
 10
1882.133867
 20
1708.223757
 30
0.0
 40
161.781824
100
AcDbArc
 50
171.340566
 51
181.281372
  0
ARC
  5
448
330
76
100
AcDbEntity
  8
INCISIONI
100
AcDbCircle
 10
1882.198537
 20
1708.225203
 30
0.0
 40
161.84651
100
AcDbArc
 50
181.281372
 51
191.2230909999999
  0
ARC
  5
449
330
76
100
AcDbEntity
  8
INCISIONI
100
AcDbCircle
 10
1885.243431
 20
1708.829384
 30
0.0
 40
164.950768
100
AcDbArc
 50
191.2230909999999
 51
201.045228
  0
ARC
  5
44A
330
76
100
AcDbEntity
  8
INCISIONI
100
AcDbCircle
 10
1880.134458
 20
1706.863604
 30
0.0
 40
159.476656
100
AcDbArc
 50
201.045228
 51
211.424032
  0
ARC
  5
44B
330
76
100
AcDbEntity
  8
INCISIONI
100
AcDbCircle
 10
1858.024418
 20
1693.354846
 30
0.0
 40
133.566418
100
AcDbArc
 50
211.424032
 51
223.232252
  0
ARC
  5
44C
330
76
100
AcDbEntity
  8
INCISIONI
100
AcDbCircle
 10
1854.989478
 20
1690.501631
 30
0.0
 40
129.400882
100
AcDbArc
 50
223.232252
 51
236.120167
  0
ARC
  5
44D
330
76
100
AcDbEntity
  8
INCISIONI
100
AcDbCircle
 10
1840.505648
 20
1668.931022
 30
0.0
 40
103.418724
100
AcDbArc
 50
236.120167
 51
251.212549
  0
ARC
  5
44E
330
76
100
AcDbEntity
  8
INCISIONI
100
AcDbCircle
 10
1833.255856
 20
1647.619599
 30
0.0
 40
80.90792099999999
100
AcDbArc
 50
251.212549
 51
261.254519
  0
ARC
  5
44F
330
76
100
AcDbEntity
  8
INCISIONI
100
AcDbCircle
 10
1832.589785
 20
1643.289795
 30
0.0
 40
76.52718399999999
100
AcDbArc
 50
261.254519
 51
271.672091
  0
ARC
  5
450
330
76
100
AcDbEntity
  8
INCISIONI
100
AcDbCircle
 10
1832.443148
 20
1648.313032
 30
0.0
 40
81.552562
100
AcDbArc
 50
271.672091
 51
291.720781
  0
ARC
  5
451
330
76
100
AcDbEntity
  8
INCISIONI
100
AcDbCircle
 10
1835.358041
 20
1640.995955
 30
0.0
 40
73.676254
100
AcDbArc
 50
291.720781
 51
313.435019
  0
ARC
  5
452
330
76
100
AcDbEntity
  8
INCISIONI
100
AcDbCircle
 10
1822.454879
 20
1654.623971
 30
0.0
 40
92.44362999999999
100
AcDbArc
 50
313.435019
 51
320.848602
  0
ARC
  5
453
330
76
100
AcDbEntity
  8
INCISIONI
100
AcDbCircle
 10
1651.95114
 20
1793.442755
 30
0.0
 40
312.312182
100
AcDbArc
 50
320.848602
 51
323.818996
  0
ARC
  5
454
330
76
100
AcDbEntity
  8
INCISIONI
100
AcDbCircle
 10
1813.458279
 20
1752.685808
 30
0.0
 40
338.714633
100
AcDbArc
 50
270.199056
 51
279.186059
  0
ARC
  5
455
330
76
100
AcDbEntity
  8
INCISIONI
100
AcDbCircle
 10
1639.882393
 20
2440.452681
 30
0.0
 40
1047.181476
100
AcDbArc
 50
282.555885
 51
284.358812
  0
ARC
  5
456
330
76
100
AcDbEntity
  8
INCISIONI
100
AcDbCircle
 10
1839.241224
 20
1661.677586999999
 30
0.0
 40
243.2943
100
AcDbArc
 50
284.358812
 51
289.8357910000001
  0
ARC
  5
457
330
76
100
AcDbEntity
  8
INCISIONI
100
AcDbCircle
 10
1857.781397
 20
1610.281033
 30
0.0
 40
188.656
100
AcDbArc
 50
289.8357910000001
 51
298.378619
  0
ARC
  5
458
330
76
100
AcDbEntity
  8
INCISIONI
100
AcDbCircle
 10
1856.670263
 20
1612.337868
 30
0.0
 40
190.993775
100
AcDbArc
 50
298.378619
 51
306.770157
  0
ARC
  5
459
330
76
100
AcDbEntity
  8
INCISIONI
100
AcDbCircle
 10
1849.827481
 20
1621.494743
 30
0.0
 40
202.424962
100
AcDbArc
 50
306.770157
 51
314.805753
  0
ARC
  5
45A
330
76
100
AcDbEntity
  8
INCISIONI
100
AcDbCircle
 10
1855.261891
 20
1616.023359
 30
0.0
 40
194.713357
100
AcDbArc
 50
314.805753
 51
323.101732
  0
ARC
  5
45B
330
76
100
AcDbEntity
  8
INCISIONI
100
AcDbCircle
 10
1864.424443
 20
1609.144353
 30
0.0
 40
183.25591
100
AcDbArc
 50
323.101732
 51
332.019592
  0
ARC
  5
45C
330
76
100
AcDbEntity
  8
INCISIONI
100
AcDbCircle
 10
1879.503114999999
 20
1601.133494
 30
0.0
 40
166.181361
100
AcDbArc
 50
332.019592
 51
341.638084
  0
ARC
  5
45D
330
76
100
AcDbEntity
  8
INCISIONI
100
AcDbCircle
 10
1878.438009
 20
1601.487021
 30
0.0
 40
167.303605
100
AcDbArc
 50
341.638084
 51
351.340566
  0
ARC
  5
45E
330
76
100
AcDbEntity
  8
INCISIONI
100
AcDbCircle
 10
1883.896847
 20
1600.655657
 30
0.0
 40
161.781824
100
AcDbArc
 50
351.340566
 51
1.281371999999999
  0
ARC
  5
45F
330
76
100
AcDbEntity
  8
INCISIONI
100
AcDbCircle
 10
1883.832176
 20
1600.65421
 30
0.0
 40
161.84651
100
AcDbArc
 50
1.281371999999999
 51
11.223091
  0
ARC
  5
460
330
76
100
AcDbEntity
  8
INCISIONI
100
AcDbCircle
 10
1880.787282
 20
1600.05003
 30
0.0
 40
164.950768
100
AcDbArc
 50
11.223091
 51
21.045228
  0
ARC
  5
461
330
76
100
AcDbEntity
  8
INCISIONI
100
AcDbCircle
 10
1885.896256
 20
1602.015809
 30
0.0
 40
159.476656
100
AcDbArc
 50
21.045228
 51
31.424032
  0
ARC
  5
462
330
76
100
AcDbEntity
  8
INCISIONI
100
AcDbCircle
 10
1908.006296
 20
1615.524568
 30
0.0
 40
133.566418
100
AcDbArc
 50
31.424032
 51
43.232252
  0
ARC
  5
463
330
76
100
AcDbEntity
  8
INCISIONI
100
AcDbCircle
 10
1911.041235
 20
1618.377783
 30
0.0
 40
129.400882
100
AcDbArc
 50
43.232252
 51
56.12016699999999
  0
ARC
  5
464
330
76
100
AcDbEntity
  8
INCISIONI
100
AcDbCircle
 10
1925.525065
 20
1639.948392
 30
0.0
 40
103.418724
100
AcDbArc
 50
56.12016699999999
 51
71.212549
  0
ARC
  5
465
330
76
100
AcDbEntity
  8
INCISIONI
100
AcDbCircle
 10
1932.774857
 20
1661.259815
 30
0.0
 40
80.90792099999999
100
AcDbArc
 50
71.212549
 51
81.25451899999999
  0
ARC
  5
466
330
76
100
AcDbEntity
  8
INCISIONI
100
AcDbCircle
 10
1933.440928
 20
1665.589619
 30
0.0
 40
76.52718399999999
100
AcDbArc
 50
81.25451899999999
 51
91.67209100000002
  0
ARC
  5
467
330
76
100
AcDbEntity
  8
INCISIONI
100
AcDbCircle
 10
1933.587566
 20
1660.566382
 30
0.0
 40
81.552562
100
AcDbArc
 50
91.67209100000002
 51
111.720781
  0
ARC
  5
468
330
76
100
AcDbEntity
  8
INCISIONI
100
AcDbCircle
 10
1930.672672
 20
1667.883459
 30
0.0
 40
73.676254
100
AcDbArc
 50
111.720781
 51
133.435019
  0
ARC
  5
469
330
76
100
AcDbEntity
  8
INCISIONI
100
AcDbCircle
 10
1943.575834
 20
1654.255443
 30
0.0
 40
92.44362999999999
100
AcDbArc
 50
133.435019
 51
140.848602
  0
ARC
  5
46A
330
76
100
AcDbEntity
  8
INCISIONI
100
AcDbCircle
 10
2114.079574
 20
1515.436659
 30
0.0
 40
312.312182
100
AcDbArc
 50
140.848602
 51
143.818996
  0
MTEXT
  5
473
330
76
100
AcDbEntity
  8
0
100
AcDbMText
 10
1580.264419252681
 20
1969.138708400915
 30
0.0
 40
10.0
 41
616.1613620421824
 46
0.0
 71
     1
 72
     5
  1
{\fArial|b0|i0|c0|p34;linea rossa = incisione ; linea verde = taglio passante}
 73
     1
 44
1.0
1001
ACAD
1000
ACAD_MTEXT_COLUMN_INFO_BEGIN
1070
    75
1070
     2
1070
    79
1070
     0
1070
    76
1070
     1
1070
    78
1070
     0
1070
    48
1040
616.1613620421824
1070
    49
1040
1.0
1070
    50
1070
     1
1040
0.0
1000
ACAD_MTEXT_COLUMN_INFO_END
  0
ENDSEC
  0
SECTION
  2
OBJECTS
  0
DICTIONARY
  5
C
330
0
100
AcDbDictionary
281
     1
  3
ACAD_COLOR
350
6D
  3
ACAD_GROUP
350
D
  3
ACAD_LAYOUT
350
6C
  3
ACAD_MATERIAL
350
10
  3
ACAD_MLEADERSTYLE
350
70
  3
ACAD_MLINESTYLE
350
69
  3
ACAD_PLOTSETTINGS
350
6B
  3
ACAD_PLOTSTYLENAME
350
E
  3
ACAD_SCALELIST
350
3D
  3
ACAD_TABLESTYLE
350
6E
  3
ACAD_VISUALSTYLE
350
29
  3
ACDB_RECOMPOSE_DATA
350
487
  3
AcDbVariableDictionary
350
47C
  0
DICTIONARY
  5
474
330
5F
100
AcDbDictionary
280
     1
281
     1
  3
ADSK_XREC_LAYER_RECONCILED
360
475
  0
DICTIONARY
  5
476
330
7C
100
AcDbDictionary
280
     1
281
     1
  3
ADSK_XREC_LAYER_RECONCILED
360
477
  0
DICTIONARY
  5
478
330
7E
100
AcDbDictionary
280
     1
281
     1
  3
ADSK_XREC_LAYER_RECONCILED
360
479
  0
DICTIONARY
  5
47A
330
40C
100
AcDbDictionary
280
     1
281
     1
  3
ADSK_XREC_LAYER_RECONCILED
360
47B
  0
DICTIONARY
  5
6D
102
{ACAD_REACTORS
330
C
102
}
330
C
100
AcDbDictionary
281
     1
  0
DICTIONARY
  5
D
102
{ACAD_REACTORS
330
C
102
}
330
C
100
AcDbDictionary
281
     1
  0
DICTIONARY
  5
6C
102
{ACAD_REACTORS
330
C
102
}
330
C
100
AcDbDictionary
281
     1
  3
Layout1
350
75
  3
Model
350
79
  0
DICTIONARY
  5
10
102
{ACAD_REACTORS
330
C
102
}
330
C
100
AcDbDictionary
281
     1
  3
ByBlock
350
19
  3
ByLayer
350
11
  3
Global
350
21
  0
DICTIONARY
  5
70
102
{ACAD_REACTORS
330
C
102
}
330
C
100
AcDbDictionary
281
     1
  3
Standard
350
71
  0
DICTIONARY
  5
69
102
{ACAD_REACTORS
330
C
102
}
330
C
100
AcDbDictionary
281
     1
  3
Standard
350
6A
  0
DICTIONARY
  5
6B
102
{ACAD_REACTORS
330
C
102
}
330
C
100
AcDbDictionary
281
     1
  0
ACDBDICTIONARYWDFLT
  5
E
102
{ACAD_REACTORS
330
C
102
}
330
C
100
AcDbDictionary
281
     1
  3
Normal
350
F
100
AcDbDictionaryWithDefault
340
F
  0
DICTIONARY
  5
3D
102
{ACAD_REACTORS
330
C
102
}
330
C
100
AcDbDictionary
281
     1
  3
A0
350
3E
  3
A1
350
3F
  3
A2
350
40
  3
A3
350
41
  3
A4
350
42
  3
A5
350
43
  3
A6
350
44
  3
A7
350
45
  3
A8
350
46
  3
A9
350
47
  3
B0
350
48
  3
B1
350
49
  3
B2
350
4A
  3
B3
350
4B
  3
B4
350
4C
  3
B5
350
4D
  3
B6
350
4E
  3
B7
350
4F
  3
B8
350
50
  3
B9
350
51
  3
C0
350
52
  3
C1
350
53
  3
C2
350
54
  3
C3
350
55
  3
C4
350
56
  3
C5
350
57
  3
C6
350
58
  3
C7
350
59
  3
C8
350
5A
  3
C9
350
5B
  3
D0
350
5C
  3
D1
350
5D
  3
D2
350
5E
  0
DICTIONARY
  5
6E
102
{ACAD_REACTORS
330
C
102
}
330
C
100
AcDbDictionary
281
     1
  3
Standard
350
6F
  0
DICTIONARY
  5
29
102
{ACAD_REACTORS
330
C
102
}
330
C
100
AcDbDictionary
281
     1
  3
2dWireframe
350
2F
  3
3D Hidden
350
31
  3
3dWireframe
350
30
  3
Basic
350
2E
  3
Brighten
350
35
  3
ColorChange
350
39
  3
Conceptual
350
32
  3
Dim
350
34
  3
EdgeColorOff
350
3C
  3
Facepattern
350
38
  3
Flat
350
2A
  3
FlatWithEdges
350
2B
  3
Gouraud
350
2C
  3
GouraudWithEdges
350
2D
  3
JitterOff
350
3A
  3
Linepattern
350
37
  3
OverhangOff
350
3B
  3
Realistic
350
33
  3
Thicken
350
36
  0
XRECORD
  5
487
102
{ACAD_REACTORS
330
C
102
}
330
C
100
AcDbXrecord
280
     1
 90
        1
330
6F
330
473
  0
DICTIONARY
  5
47C
102
{ACAD_REACTORS
330
C
102
}
330
C
100
AcDbDictionary
281
     1
  3
CANNOSCALE
350
480
  3
CMLEADERSTYLE
350
47E
  3
CTABLESTYLE
350
47D
  3
LAYEREVAL
350
482
  3
LAYERNOTIFY
350
483
  3
LIGHTINGUNITS
350
481
  3
MSLTSCALE
350
47F
  3
XCLIPFRAME
350
484
  0
XRECORD
  5
475
102
{ACAD_REACTORS
330
474
102
}
330
474
100
AcDbXrecord
280
     1
290
     1
  0
XRECORD
  5
477
102
{ACAD_REACTORS
330
476
102
}
330
476
100
AcDbXrecord
280
     1
290
     1
  0
XRECORD
  5
479
102
{ACAD_REACTORS
330
478
102
}
330
478
100
AcDbXrecord
280
     1
290
     1
  0
XRECORD
  5
47B
102
{ACAD_REACTORS
330
47A
102
}
330
47A
100
AcDbXrecord
280
     1
290
     1
  0
LAYOUT
  5
75
102
{ACAD_REACTORS
330
6C
102
}
330
6C
100
AcDbPlotSettings
  1

  2
Bullzip PDF Printer
  4

  6

 40
0.0
 41
0.0
 42
0.0
 43
0.0
 44
0.0
 45
0.0
 46
0.0
 47
0.0
 48
0.0
 49
0.0
140
0.0
141
0.0
142
1.0
143
1.0
 70
   688
 72
     0
 73
     0
 74
     5
  7

 75
    16
147
1.0
 76
     0
 77
     2
 78
   300
148
0.0
149
0.0
100
AcDbLayout
  1
Layout1
 70
     1
 71
     1
 10
0.0
 20
0.0
 11
12.0
 21
9.0
 12
0.0
 22
0.0
 32
0.0
 14
1.000000000000000E+20
 24
1.000000000000000E+20
 34
1.000000000000000E+20
 15
-1.000000000000000E+20
 25
-1.000000000000000E+20
 35
-1.000000000000000E+20
146
0.0
 13
0.0
 23
0.0
 33
0.0
 16
1.0
 26
0.0
 36
0.0
 17
0.0
 27
1.0
 37
0.0
 76
     0
330
72
  0
LAYOUT
  5
79
102
{ACAD_REACTORS
330
6C
102
}
330
6C
100
AcDbPlotSettings
  1

  2
Bullzip PDF Printer
  4

  6

 40
0.0
 41
0.0
 42
0.0
 43
0.0
 44
0.0
 45
0.0
 46
0.0
 47
0.0
 48
0.0
 49
0.0
140
0.0
141
0.0
142
1.0
143
1.0
 70
  1712
 72
     0
 73
     0
 74
     0
  7

 75
     0
147
1.0
 76
     0
 77
     2
 78
   300
148
0.0
149
0.0
100
AcDbLayout
  1
Model
 70
     1
 71
     0
 10
0.0
 20
0.0
 11
12.0
 21
9.0
 12
0.0
 22
0.0
 32
0.0
 14
0.0
 24
0.0
 34
0.0
 15
0.0
 25
0.0
 35
0.0
146
0.0
 13
0.0
 23
0.0
 33
0.0
 16
1.0
 26
0.0
 36
0.0
 17
0.0
 27
1.0
 37
0.0
 76
     0
330
76
331
46F
  0
MATERIAL
  5
19
102
{ACAD_XDICTIONARY
360
1A
102
}
102
{ACAD_REACTORS
330
10
102
}
330
10
100
AcDbMaterial
  1
ByBlock
 72
     0
 43
0.0208333333333333
 43
0.0
 43
0.0
 43
0.0
 43
0.0
 43
0.0208333333333333
 43
0.0
 43
0.0
 43
0.0
 43
0.0
 43
1.0
 43
0.0
 43
0.0
 43
0.0
 43
0.0
 43
1.0
 77
     0
 47
0.0208333333333333
 47
0.0
 47
0.0
 47
0.0
 47
0.0
 47
0.0208333333333333
 47
0.0
 47
0.0
 47
0.0
 47
0.0
 47
1.0
 47
0.0
 47
0.0
 47
0.0
 47
0.0
 47
1.0
171
     0
 49
0.0208333333333333
 49
0.0
 49
0.0
 49
0.0
 49
0.0
 49
0.0208333333333333
 49
0.0
 49
0.0
 49
0.0
 49
0.0
 49
1.0
 49
0.0
 49
0.0
 49
0.0
 49
0.0
 49
1.0
175
     0
142
0.0208333333333333
142
0.0
142
0.0
142
0.0
142
0.0
142
0.0208333333333333
142
0.0
142
0.0
142
0.0
142
0.0
142
1.0
142
0.0
142
0.0
142
0.0
142
0.0
142
1.0
179
     0
144
0.0208333333333333
144
0.0
144
0.0
144
0.0
144
0.0
144
0.0208333333333333
144
0.0
144
0.0
144
0.0
144
0.0
144
1.0
144
0.0
144
0.0
144
0.0
144
0.0
144
1.0
147
0.0208333333333333
147
0.0
147
0.0
147
0.0
147
0.0
147
0.0208333333333333
147
0.0
147
0.0
147
0.0
147
0.0
147
1.0
147
0.0
147
0.0
147
0.0
147
0.0
147
1.0
  0
MATERIAL
  5
11
102
{ACAD_XDICTIONARY
360
12
102
}
102
{ACAD_REACTORS
330
10
102
}
330
10
100
AcDbMaterial
  1
ByLayer
 72
     0
 43
0.0208333333333333
 43
0.0
 43
0.0
 43
0.0
 43
0.0
 43
0.0208333333333333
 43
0.0
 43
0.0
 43
0.0
 43
0.0
 43
1.0
 43
0.0
 43
0.0
 43
0.0
 43
0.0
 43
1.0
 77
     0
 47
0.0208333333333333
 47
0.0
 47
0.0
 47
0.0
 47
0.0
 47
0.0208333333333333
 47
0.0
 47
0.0
 47
0.0
 47
0.0
 47
1.0
 47
0.0
 47
0.0
 47
0.0
 47
0.0
 47
1.0
171
     0
 49
0.0208333333333333
 49
0.0
 49
0.0
 49
0.0
 49
0.0
 49
0.0208333333333333
 49
0.0
 49
0.0
 49
0.0
 49
0.0
 49
1.0
 49
0.0
 49
0.0
 49
0.0
 49
0.0
 49
1.0
175
     0
142
0.0208333333333333
142
0.0
142
0.0
142
0.0
142
0.0
142
0.0208333333333333
142
0.0
142
0.0
142
0.0
142
0.0
142
1.0
142
0.0
142
0.0
142
0.0
142
0.0
142
1.0
179
     0
144
0.0208333333333333
144
0.0
144
0.0
144
0.0
144
0.0
144
0.0208333333333333
144
0.0
144
0.0
144
0.0
144
0.0
144
1.0
144
0.0
144
0.0
144
0.0
144
0.0
144
1.0
147
0.0208333333333333
147
0.0
147
0.0
147
0.0
147
0.0
147
0.0208333333333333
147
0.0
147
0.0
147
0.0
147
0.0
147
1.0
147
0.0
147
0.0
147
0.0
147
0.0
147
1.0
  0
MATERIAL
  5
21
102
{ACAD_XDICTIONARY
360
22
102
}
102
{ACAD_REACTORS
330
10
102
}
330
10
100
AcDbMaterial
  1
Global
 72
     0
 43
0.0208333333333333
 43
0.0
 43
0.0
 43
0.0
 43
0.0
 43
0.0208333333333333
 43
0.0
 43
0.0
 43
0.0
 43
0.0
 43
1.0
 43
0.0
 43
0.0
 43
0.0
 43
0.0
 43
1.0
 77
     0
 47
0.0208333333333333
 47
0.0
 47
0.0
 47
0.0
 47
0.0
 47
0.0208333333333333
 47
0.0
 47
0.0
 47
0.0
 47
0.0
 47
1.0
 47
0.0
 47
0.0
 47
0.0
 47
0.0
 47
1.0
171
     0
 49
0.0208333333333333
 49
0.0
 49
0.0
 49
0.0
 49
0.0
 49
0.0208333333333333
 49
0.0
 49
0.0
 49
0.0
 49
0.0
 49
1.0
 49
0.0
 49
0.0
 49
0.0
 49
0.0
 49
1.0
175
     0
142
0.0208333333333333
142
0.0
142
0.0
142
0.0
142
0.0
142
0.0208333333333333
142
0.0
142
0.0
142
0.0
142
0.0
142
1.0
142
0.0
142
0.0
142
0.0
142
0.0
142
1.0
179
     0
144
0.0208333333333333
144
0.0
144
0.0
144
0.0
144
0.0
144
0.0208333333333333
144
0.0
144
0.0
144
0.0
144
0.0
144
1.0
144
0.0
144
0.0
144
0.0
144
0.0
144
1.0
147
0.0208333333333333
147
0.0
147
0.0
147
0.0
147
0.0
147
0.0208333333333333
147
0.0
147
0.0
147
0.0
147
0.0
147
1.0
147
0.0
147
0.0
147
0.0
147
0.0
147
1.0
  0
MLEADERSTYLE
  5
71
102
{ACAD_REACTORS
330
70
102
}
330
70
100
AcDbMLeaderStyle
170
     2
171
     1
172
     0
 90
        2
 40
0.0
 41
0.0
173
     1
 91
-1056964608
340
65
 92
       -2
290
     1
 42
0.09
291
     1
 43
0.36
  3
Standard
 44
0.18
300

342
60
174
     1
178
     6
175
     1
176
     0
 93
-1056964608
 45
0.18
292
     0
297
     0
 46
0.18
 94
-1056964608
 47
1.0
 49
1.0
140
1.0
293
     1
141
0.0
294
     1
177
     0
142
1.0
295
     0
296
     0
143
0.125
1001
ACAD_MLEADERVER
1070
     2
  0
MLINESTYLE
  5
6A
102
{ACAD_REACTORS
330
69
102
}
330
69
100
AcDbMlineStyle
  2
STANDARD
 70
     0
  3

 62
   256
 51
90.0
 52
90.0
 71
     2
 49
0.5
 62
   256
  6
BYLAYER
 49
-0.5
 62
   256
  6
BYLAYER
  0
ACDBPLACEHOLDER
  5
F
102
{ACAD_REACTORS
330
E
102
}
330
E
  0
SCALE
  5
3E
102
{ACAD_REACTORS
330
3D
102
}
330
3D
100
AcDbScale
 70
     0
300
1:1
140
1.0
141
1.0
290
     1
  0
SCALE
  5
3F
102
{ACAD_REACTORS
330
3D
102
}
330
3D
100
AcDbScale
 70
     0
300
1:2
140
1.0
141
2.0
290
     0
  0
SCALE
  5
40
102
{ACAD_REACTORS
330
3D
102
}
330
3D
100
AcDbScale
 70
     0
300
1:4
140
1.0
141
4.0
290
     0
  0
SCALE
  5
41
102
{ACAD_REACTORS
330
3D
102
}
330
3D
100
AcDbScale
 70
     0
300
1:5
140
1.0
141
5.0
290
     0
  0
SCALE
  5
42
102
{ACAD_REACTORS
330
3D
102
}
330
3D
100
AcDbScale
 70
     0
300
1:8
140
1.0
141
8.0
290
     0
  0
SCALE
  5
43
102
{ACAD_REACTORS
330
3D
102
}
330
3D
100
AcDbScale
 70
     0
300
1:10
140
1.0
141
10.0
290
     0
  0
SCALE
  5
44
102
{ACAD_REACTORS
330
3D
102
}
330
3D
100
AcDbScale
 70
     0
300
1:16
140
1.0
141
16.0
290
     0
  0
SCALE
  5
45
102
{ACAD_REACTORS
330
3D
102
}
330
3D
100
AcDbScale
 70
     0
300
1:20
140
1.0
141
20.0
290
     0
  0
SCALE
  5
46
102
{ACAD_REACTORS
330
3D
102
}
330
3D
100
AcDbScale
 70
     0
300
1:30
140
1.0
141
30.0
290
     0
  0
SCALE
  5
47
102
{ACAD_REACTORS
330
3D
102
}
330
3D
100
AcDbScale
 70
     0
300
1:40
140
1.0
141
40.0
290
     0
  0
SCALE
  5
48
102
{ACAD_REACTORS
330
3D
102
}
330
3D
100
AcDbScale
 70
     0
300
1:50
140
1.0
141
50.0
290
     0
  0
SCALE
  5
49
102
{ACAD_REACTORS
330
3D
102
}
330
3D
100
AcDbScale
 70
     0
300
1:100
140
1.0
141
100.0
290
     0
  0
SCALE
  5
4A
102
{ACAD_REACTORS
330
3D
102
}
330
3D
100
AcDbScale
 70
     0
300
2:1
140
2.0
141
1.0
290
     0
  0
SCALE
  5
4B
102
{ACAD_REACTORS
330
3D
102
}
330
3D
100
AcDbScale
 70
     0
300
4:1
140
4.0
141
1.0
290
     0
  0
SCALE
  5
4C
102
{ACAD_REACTORS
330
3D
102
}
330
3D
100
AcDbScale
 70
     0
300
8:1
140
8.0
141
1.0
290
     0
  0
SCALE
  5
4D
102
{ACAD_REACTORS
330
3D
102
}
330
3D
100
AcDbScale
 70
     0
300
10:1
140
10.0
141
1.0
290
     0
  0
SCALE
  5
4E
102
{ACAD_REACTORS
330
3D
102
}
330
3D
100
AcDbScale
 70
     0
300
100:1
140
100.0
141
1.0
290
     0
  0
SCALE
  5
4F
102
{ACAD_REACTORS
330
3D
102
}
330
3D
100
AcDbScale
 70
     0
300
1/128" = 1'-0"
140
0.0078125
141
12.0
290
     0
  0
SCALE
  5
50
102
{ACAD_REACTORS
330
3D
102
}
330
3D
100
AcDbScale
 70
     0
300
1/64" = 1'-0"
140
0.015625
141
12.0
290
     0
  0
SCALE
  5
51
102
{ACAD_REACTORS
330
3D
102
}
330
3D
100
AcDbScale
 70
     0
300
1/32" = 1'-0"
140
0.03125
141
12.0
290
     0
  0
SCALE
  5
52
102
{ACAD_REACTORS
330
3D
102
}
330
3D
100
AcDbScale
 70
     0
300
1/16" = 1'-0"
140
0.0625
141
12.0
290
     0
  0
SCALE
  5
53
102
{ACAD_REACTORS
330
3D
102
}
330
3D
100
AcDbScale
 70
     0
300
3/32" = 1'-0"
140
0.09375
141
12.0
290
     0
  0
SCALE
  5
54
102
{ACAD_REACTORS
330
3D
102
}
330
3D
100
AcDbScale
 70
     0
300
1/8" = 1'-0"
140
0.125
141
12.0
290
     0
  0
SCALE
  5
55
102
{ACAD_REACTORS
330
3D
102
}
330
3D
100
AcDbScale
 70
     0
300
3/16" = 1'-0"
140
0.1875
141
12.0
290
     0
  0
SCALE
  5
56
102
{ACAD_REACTORS
330
3D
102
}
330
3D
100
AcDbScale
 70
     0
300
1/4" = 1'-0"
140
0.25
141
12.0
290
     0
  0
SCALE
  5
57
102
{ACAD_REACTORS
330
3D
102
}
330
3D
100
AcDbScale
 70
     0
300
3/8" = 1'-0"
140
0.375
141
12.0
290
     0
  0
SCALE
  5
58
102
{ACAD_REACTORS
330
3D
102
}
330
3D
100
AcDbScale
 70
     0
300
1/2" = 1'-0"
140
0.5
141
12.0
290
     0
  0
SCALE
  5
59
102
{ACAD_REACTORS
330
3D
102
}
330
3D
100
AcDbScale
 70
     0
300
3/4" = 1'-0"
140
0.75
141
12.0
290
     0
  0
SCALE
  5
5A
102
{ACAD_REACTORS
330
3D
102
}
330
3D
100
AcDbScale
 70
     0
300
1" = 1'-0"
140
1.0
141
12.0
290
     0
  0
SCALE
  5
5B
102
{ACAD_REACTORS
330
3D
102
}
330
3D
100
AcDbScale
 70
     0
300
1-1/2" = 1'-0"
140
1.5
141
12.0
290
     0
  0
SCALE
  5
5C
102
{ACAD_REACTORS
330
3D
102
}
330
3D
100
AcDbScale
 70
     0
300
3" = 1'-0"
140
3.0
141
12.0
290
     0
  0
SCALE
  5
5D
102
{ACAD_REACTORS
330
3D
102
}
330
3D
100
AcDbScale
 70
     0
300
6" = 1'-0"
140
6.0
141
12.0
290
     0
  0
SCALE
  5
5E
102
{ACAD_REACTORS
330
3D
102
}
330
3D
100
AcDbScale
 70
     0
300
1'-0" = 1'-0"
140
12.0
141
12.0
290
     0
  0
TABLESTYLE
  5
6F
102
{ACAD_XDICTIONARY
360
485
102
}
102
{ACAD_REACTORS
330
6E
102
}
330
6E
100
AcDbTableStyle
  3
Standard
 70
     0
 71
     0
 40
0.06
 41
0.06
280
     0
281
     0
  7
Standard
140
0.18
170
     2
 62
     0
 63
     7
283
     0
 90
      512
 91
        0
  1

274
    -2
284
     1
 64
     0
275
    -2
285
     1
 65
     0
276
    -2
286
     1
 66
     0
277
    -2
287
     1
 67
     0
278
    -2
288
     1
 68
     0
279
    -2
289
     1
 69
     0
  7
Standard
140
0.25
170
     5
 62
     0
 63
     7
283
     0
 90
      512
 91
        0
  1

274
    -2
284
     1
 64
     0
275
    -2
285
     1
 65
     0
276
    -2
286
     1
 66
     0
277
    -2
287
     1
 67
     0
278
    -2
288
     1
 68
     0
279
    -2
289
     1
 69
     0
  7
Standard
140
0.18
170
     5
 62
     0
 63
     7
283
     0
 90
      512
 91
        0
  1

274
    -2
284
     1
 64
     0
275
    -2
285
     1
 65
     0
276
    -2
286
     1
 66
     0
277
    -2
287
     1
 67
     0
278
    -2
288
     1
 68
     0
279
    -2
289
     1
 69
     0
  0
VISUALSTYLE
  5
2F
102
{ACAD_XDICTIONARY
360
492
102
}
102
{ACAD_REACTORS
330
29
102
}
330
29
100
AcDbVisualStyle
  2
2dWireframe
 70
     4
 71
     0
 72
     2
 73
     0
 90
        0
 40
-0.6
 41
-30.0
 62
     5
 63
     7
421
 16777215
 74
     1
 91
        4
 64
     7
 65
   257
 75
     1
175
     1
 42
1.0
 92
        0
 66
   257
 43
1.0
 76
     1
 77
     6
 78
     2
 67
     7
 79
     5
170
     0
171
     0
290
     0
174
     0
 93
        1
 44
0.0
173
     0
291
     0
 45
0.0
1001
ACAD
1000
AcDbSavedByObjectVersion
1070
     0
  0
VISUALSTYLE
  5
31
102
{ACAD_XDICTIONARY
360
496
102
}
102
{ACAD_REACTORS
330
29
102
}
330
29
100
AcDbVisualStyle
  2
3D Hidden
 70
     6
 71
     1
 72
     2
 73
     2
 90
        0
 40
-0.6
 41
-30.0
 62
     5
 63
     7
421
 16777215
 74
     2
 91
        2
 64
     7
 65
   257
 75
     2
175
     1
 42
179.0
 92
        0
 66
   257
 43
1.0
 76
     1
 77
     6
 78
     2
 67
     7
 79
     3
170
     0
171
     0
290
     0
174
     0
 93
        1
 44
0.0
173
     0
291
     0
 45
0.0
1001
ACAD
1000
AcDbSavedByObjectVersion
1070
     0
  0
VISUALSTYLE
  5
30
102
{ACAD_XDICTIONARY
360
494
102
}
102
{ACAD_REACTORS
330
29
102
}
330
29
100
AcDbVisualStyle
  2
3dWireframe
 70
     5
 71
     0
 72
     2
 73
     0
 90
        0
 40
-0.6
 41
-30.0
 62
     5
 63
     7
421
 16777215
 74
     1
 91
        4
 64
     7
 65
   257
 75
     1
175
     1
 42
1.0
 92
        0
 66
   257
 43
1.0
 76
     1
 77
     6
 78
     2
 67
     7
 79
     5
170
     0
171
     0
290
     0
174
     0
 93
        1
 44
0.0
173
     0
291
     0
 45
0.0
1001
ACAD
1000
AcDbSavedByObjectVersion
1070
     0
  0
VISUALSTYLE
  5
2E
102
{ACAD_XDICTIONARY
360
490
102
}
102
{ACAD_REACTORS
330
29
102
}
330
29
100
AcDbVisualStyle
  2
Basic
 70
     7
 71
     1
 72
     0
 73
     1
 90
        0
 40
-0.6
 41
-30.0
 62
     5
 63
     7
421
 16777215
 74
     0
 91
        4
 64
     7
 65
   257
 75
     1
175
     1
 42
1.0
 92
        8
 66
     7
 43
1.0
 76
     1
 77
     6
 78
     2
 67
     7
 79
     5
170
     0
171
     0
290
     0
174
     0
 93
        1
 44
0.0
173
     0
291
     1
 45
0.0
1001
ACAD
1000
AcDbSavedByObjectVersion
1070
     0
  0
VISUALSTYLE
  5
35
102
{ACAD_XDICTIONARY
360
49E
102
}
102
{ACAD_REACTORS
330
29
102
}
330
29
100
AcDbVisualStyle
  2
Brighten
 70
    12
 71
     2
 72
     2
 73
     0
 90
        0
 40
-0.6
 41
-30.0
 62
     5
 63
     7
421
 16777215
 74
     1
 91
        4
 64
     7
 65
   257
 75
     1
175
     1
 42
1.0
 92
        8
 66
     7
 43
1.0
 76
     1
 77
     6
 78
     2
 67
     7
 79
     5
170
     0
171
     0
290
     0
174
     0
 93
        1
 44
50.0
173
     0
291
     1
 45
0.0
1001
ACAD
1000
AcDbSavedByObjectVersion
1070
     0
  0
VISUALSTYLE
  5
39
102
{ACAD_XDICTIONARY
360
4A6
102
}
102
{ACAD_REACTORS
330
29
102
}
330
29
100
AcDbVisualStyle
  2
ColorChange
 70
    16
 71
     2
 72
     2
 73
     3
 90
        0
 40
-0.6
 41
-30.0
 62
     5
 63
     8
421
  8421504
 74
     1
 91
        4
 64
     7
 65
   257
 75
     1
175
     1
 42
1.0
 92
        8
 66
     8
424
  8421504
 43
1.0
 76
     1
 77
     6
 78
     2
 67
     7
 79
     5
170
     0
171
     0
290
     0
174
     0
 93
        1
 44
0.0
173
     0
291
     1
 45
0.0
1001
ACAD
1000
AcDbSavedByObjectVersion
1070
     0
  0
VISUALSTYLE
  5
32
102
{ACAD_XDICTIONARY
360
498
102
}
102
{ACAD_REACTORS
330
29
102
}
330
29
100
AcDbVisualStyle
  2
Conceptual
 70
     9
 71
     3
 72
     2
 73
     0
 90
        0
 40
-0.6
 41
-30.0
 62
     5
 63
     7
421
 16777215
 74
     2
 91
        2
 64
     7
 65
   257
 75
     1
175
     1
 42
179.0
 92
        8
 66
     7
 43
1.0
 76
     1
 77
     6
 78
     2
 67
     7
 79
     3
170
     0
171
     0
290
     0
174
     0
 93
        1
 44
0.0
173
     0
291
     0
 45
0.0
1001
ACAD
1000
AcDbSavedByObjectVersion
1070
     0
  0
VISUALSTYLE
  5
34
102
{ACAD_XDICTIONARY
360
49C
102
}
102
{ACAD_REACTORS
330
29
102
}
330
29
100
AcDbVisualStyle
  2
Dim
 70
    11
 71
     2
 72
     2
 73
     0
 90
        0
 40
-0.6
 41
-30.0
 62
     5
 63
     7
421
 16777215
 74
     1
 91
        4
 64
     7
 65
   257
 75
     1
175
     1
 42
1.0
 92
        8
 66
     7
 43
1.0
 76
     1
 77
     6
 78
     2
 67
     7
 79
     5
170
     0
171
     0
290
     0
174
     0
 93
        1
 44
-50.0
173
     0
291
     1
 45
0.0
1001
ACAD
1000
AcDbSavedByObjectVersion
1070
     0
  0
VISUALSTYLE
  5
3C
102
{ACAD_XDICTIONARY
360
4AC
102
}
102
{ACAD_REACTORS
330
29
102
}
330
29
100
AcDbVisualStyle
  2
EdgeColorOff
 70
    22
 71
     2
 72
     2
 73
     0
 90
        0
 40
-0.6
 41
-30.0
 62
     5
 63
     7
421
 16777215
 74
     1
 91
        4
 64
     7
 65
   257
 75
     1
175
     1
 42
1.0
 92
        8
 66
     7
 43
1.0
 76
     1
 77
     6
 78
     2
 67
     7
 79
     5
170
     0
171
     0
290
     0
174
     0
 93
        1
 44
0.0
173
     0
291
     1
 45
0.0
1001
ACAD
1000
AcDbSavedByObjectVersion
1070
     0
  0
VISUALSTYLE
  5
38
102
{ACAD_XDICTIONARY
360
4A4
102
}
102
{ACAD_REACTORS
330
29
102
}
330
29
100
AcDbVisualStyle
  2
Facepattern
 70
    15
 71
     2
 72
     2
 73
     0
 90
        0
 40
-0.6
 41
-30.0
 62
     5
 63
     7
421
 16777215
 74
     1
 91
        4
 64
     7
 65
   257
 75
     1
175
     1
 42
1.0
 92
        8
 66
     7
 43
1.0
 76
     1
 77
     6
 78
     2
 67
     7
 79
     5
170
     0
171
     0
290
     0
174
     0
 93
        1
 44
0.0
173
     0
291
     1
 45
0.0
1001
ACAD
1000
AcDbSavedByObjectVersion
1070
     0
  0
VISUALSTYLE
  5
2A
102
{ACAD_XDICTIONARY
360
488
102
}
102
{ACAD_REACTORS
330
29
102
}
330
29
100
AcDbVisualStyle
  2
Flat
 70
     0
 71
     2
 72
     1
 73
     1
 90
        2
 40
-0.6
 41
30.0
 62
     5
 63
     7
421
 16777215
 74
     0
 91
        4
 64
     7
 65
   257
 75
     1
175
     1
 42
1.0
 92
        8
 66
     7
 43
1.0
 76
     1
 77
     6
 78
     2
 67
     7
 79
     5
170
     0
171
     0
290
     0
174
     0
 93
       13
 44
0.0
173
     0
291
     1
 45
0.0
1001
ACAD
1000
AcDbSavedByObjectVersion
1070
     0
  0
VISUALSTYLE
  5
2B
102
{ACAD_XDICTIONARY
360
48A
102
}
102
{ACAD_REACTORS
330
29
102
}
330
29
100
AcDbVisualStyle
  2
FlatWithEdges
 70
     1
 71
     2
 72
     1
 73
     1
 90
        2
 40
-0.6
 41
30.0
 62
     5
 63
     7
421
 16777215
 74
     1
 91
        4
 64
     7
 65
   257
 75
     1
175
     1
 42
1.0
 92
        0
 66
   257
 43
1.0
 76
     1
 77
     6
 78
     2
 67
     7
 79
     5
170
     0
171
     0
290
     0
174
     0
 93
       13
 44
0.0
173
     0
291
     1
 45
0.0
1001
ACAD
1000
AcDbSavedByObjectVersion
1070
     0
  0
VISUALSTYLE
  5
2C
102
{ACAD_XDICTIONARY
360
48C
102
}
102
{ACAD_REACTORS
330
29
102
}
330
29
100
AcDbVisualStyle
  2
Gouraud
 70
     2
 71
     2
 72
     2
 73
     1
 90
        2
 40
-0.6
 41
30.0
 62
     5
 63
     7
421
 16777215
 74
     0
 91
        4
 64
     7
 65
   257
 75
     1
175
     1
 42
1.0
 92
        0
 66
     7
 43
1.0
 76
     1
 77
     6
 78
     2
 67
     7
 79
     5
170
     0
171
     0
290
     0
174
     0
 93
       13
 44
0.0
173
     0
291
     1
 45
0.0
1001
ACAD
1000
AcDbSavedByObjectVersion
1070
     0
  0
VISUALSTYLE
  5
2D
102
{ACAD_XDICTIONARY
360
48E
102
}
102
{ACAD_REACTORS
330
29
102
}
330
29
100
AcDbVisualStyle
  2
GouraudWithEdges
 70
     3
 71
     2
 72
     2
 73
     1
 90
        2
 40
-0.6
 41
30.0
 62
     5
 63
     7
421
 16777215
 74
     1
 91
        4
 64
     7
 65
   257
 75
     1
175
     1
 42
1.0
 92
        0
 66
   257
 43
1.0
 76
     1
 77
     6
 78
     2
 67
     7
 79
     5
170
     0
171
     0
290
     0
174
     0
 93
       13
 44
0.0
173
     0
291
     1
 45
0.0
1001
ACAD
1000
AcDbSavedByObjectVersion
1070
     0
  0
VISUALSTYLE
  5
3A
102
{ACAD_XDICTIONARY
360
4A8
102
}
102
{ACAD_REACTORS
330
29
102
}
330
29
100
AcDbVisualStyle
  2
JitterOff
 70
    20
 71
     2
 72
     2
 73
     0
 90
        0
 40
-0.6
 41
-30.0
 62
     5
 63
     7
421
 16777215
 74
     1
 91
        4
 64
     7
 65
   257
 75
     1
175
     1
 42
1.0
 92
       10
 66
     7
 43
1.0
 76
     1
 77
     6
 78
     2
 67
     7
 79
     5
170
     0
171
     0
290
     0
174
     0
 93
        1
 44
0.0
173
     0
291
     1
 45
0.0
1001
ACAD
1000
AcDbSavedByObjectVersion
1070
     0
  0
VISUALSTYLE
  5
37
102
{ACAD_XDICTIONARY
360
4A2
102
}
102
{ACAD_REACTORS
330
29
102
}
330
29
100
AcDbVisualStyle
  2
Linepattern
 70
    14
 71
     2
 72
     2
 73
     0
 90
        0
 40
-0.6
 41
-30.0
 62
     5
 63
     7
421
 16777215
 74
     1
 91
        4
 64
     7
 65
   257
 75
     7
175
     7
 42
1.0
 92
        8
 66
     7
 43
1.0
 76
     1
 77
     6
 78
     2
 67
     7
 79
     5
170
     0
171
     0
290
     0
174
     0
 93
        1
 44
0.0
173
     0
291
     1
 45
0.0
1001
ACAD
1000
AcDbSavedByObjectVersion
1070
     0
  0
VISUALSTYLE
  5
3B
102
{ACAD_XDICTIONARY
360
4AA
102
}
102
{ACAD_REACTORS
330
29
102
}
330
29
100
AcDbVisualStyle
  2
OverhangOff
 70
    21
 71
     2
 72
     2
 73
     0
 90
        0
 40
-0.6
 41
-30.0
 62
     5
 63
     7
421
 16777215
 74
     1
 91
        4
 64
     7
 65
   257
 75
     1
175
     1
 42
1.0
 92
        9
 66
     7
 43
1.0
 76
     1
 77
     6
 78
     2
 67
     7
 79
     5
170
     0
171
     0
290
     0
174
     0
 93
        1
 44
0.0
173
     0
291
     1
 45
0.0
1001
ACAD
1000
AcDbSavedByObjectVersion
1070
     0
  0
VISUALSTYLE
  5
33
102
{ACAD_XDICTIONARY
360
49A
102
}
102
{ACAD_REACTORS
330
29
102
}
330
29
100
AcDbVisualStyle
  2
Realistic
 70
     8
 71
     2
 72
     2
 73
     0
 90
        0
 40
-0.6
 41
-30.0
 62
     5
 63
     7
421
 16777215
 74
     1
 91
        0
 64
     7
 65
   257
 75
     1
175
     1
 42
1.0
 92
        8
 66
     8
424
  7895160
 43
1.0
 76
     1
 77
     6
 78
     2
 67
     7
 79
     5
170
     0
171
     0
290
     0
174
     0
 93
       13
 44
0.0
173
     0
291
     0
 45
0.0
1001
ACAD
1000
AcDbSavedByObjectVersion
1070
     0
  0
VISUALSTYLE
  5
36
102
{ACAD_XDICTIONARY
360
4A0
102
}
102
{ACAD_REACTORS
330
29
102
}
330
29
100
AcDbVisualStyle
  2
Thicken
 70
    13
 71
     2
 72
     2
 73
     0
 90
        0
 40
-0.6
 41
-30.0
 62
     5
 63
     7
421
 16777215
 74
     1
 91
        4
 64
     7
 65
   257
 75
     1
175
     1
 42
1.0
 92
       12
 66
     7
 43
1.0
 76
     1
 77
     6
 78
     2
 67
     7
 79
     5
170
     0
171
     0
290
     0
174
     0
 93
        1
 44
0.0
173
     0
291
     1
 45
0.0
1001
ACAD
1000
AcDbSavedByObjectVersion
1070
     0
  0
DICTIONARYVAR
  5
480
102
{ACAD_REACTORS
330
47C
102
}
330
47C
100
DictionaryVariables
280
     0
  1
1:1
  0
DICTIONARYVAR
  5
47E
102
{ACAD_REACTORS
330
47C
102
}
330
47C
100
DictionaryVariables
280
     0
  1
STANDARD
  0
DICTIONARYVAR
  5
47D
102
{ACAD_REACTORS
330
47C
102
}
330
47C
100
DictionaryVariables
280
     0
  1
STANDARD
  0
DICTIONARYVAR
  5
482
102
{ACAD_REACTORS
330
47C
102
}
330
47C
100
DictionaryVariables
280
     0
  1
1
  0
DICTIONARYVAR
  5
483
102
{ACAD_REACTORS
330
47C
102
}
330
47C
100
DictionaryVariables
280
     0
  1
15
  0
DICTIONARYVAR
  5
481
102
{ACAD_REACTORS
330
47C
102
}
330
47C
100
DictionaryVariables
280
     0
  1
0
  0
DICTIONARYVAR
  5
47F
102
{ACAD_REACTORS
330
47C
102
}
330
47C
100
DictionaryVariables
280
     0
  1
0
  0
DICTIONARYVAR
  5
484
102
{ACAD_REACTORS
330
47C
102
}
330
47C
100
DictionaryVariables
280
     0
  1
2
  0
DICTIONARY
  5
1A
330
19
100
AcDbDictionary
280
     1
281
     1
  3
BUMPTILE
360
1C
  3
DIFFUSETILE
360
1B
  3
OPACITYTILE
360
1F
  3
REFLECTIONTILE
360
1E
  3
REFRACTIONTILE
360
20
  3
SPECULARTILE
360
1D
  0
DICTIONARY
  5
12
330
11
100
AcDbDictionary
280
     1
281
     1
  3
BUMPTILE
360
14
  3
DIFFUSETILE
360
13
  3
OPACITYTILE
360
17
  3
REFLECTIONTILE
360
16
  3
REFRACTIONTILE
360
18
  3
SPECULARTILE
360
15
  0
DICTIONARY
  5
22
330
21
100
AcDbDictionary
280
     1
281
     1
  3
BUMPTILE
360
24
  3
DIFFUSETILE
360
23
  3
OPACITYTILE
360
27
  3
REFLECTIONTILE
360
26
  3
REFRACTIONTILE
360
28
  3
SPECULARTILE
360
25
  0
DICTIONARY
  5
485
330
6F
100
AcDbDictionary
280
     1
281
     1
  3
ACAD_ROUNDTRIP_2008_TABLESTYLE_CELLSTYLEMAP
360
486
  0
DICTIONARY
  5
492
330
2F
100
AcDbDictionary
280
     1
281
     1
  3
ACAD_XREC_ROUNDTRIP
360
493
  0
DICTIONARY
  5
496
330
31
100
AcDbDictionary
280
     1
281
     1
  3
ACAD_XREC_ROUNDTRIP
360
497
  0
DICTIONARY
  5
494
330
30
100
AcDbDictionary
280
     1
281
     1
  3
ACAD_XREC_ROUNDTRIP
360
495
  0
DICTIONARY
  5
490
330
2E
100
AcDbDictionary
280
     1
281
     1
  3
ACAD_XREC_ROUNDTRIP
360
491
  0
DICTIONARY
  5
49E
330
35
100
AcDbDictionary
280
     1
281
     1
  3
ACAD_XREC_ROUNDTRIP
360
49F
  0
DICTIONARY
  5
4A6
330
39
100
AcDbDictionary
280
     1
281
     1
  3
ACAD_XREC_ROUNDTRIP
360
4A7
  0
DICTIONARY
  5
498
330
32
100
AcDbDictionary
280
     1
281
     1
  3
ACAD_XREC_ROUNDTRIP
360
499
  0
DICTIONARY
  5
49C
330
34
100
AcDbDictionary
280
     1
281
     1
  3
ACAD_XREC_ROUNDTRIP
360
49D
  0
DICTIONARY
  5
4AC
330
3C
100
AcDbDictionary
280
     1
281
     1
  3
ACAD_XREC_ROUNDTRIP
360
4AD
  0
DICTIONARY
  5
4A4
330
38
100
AcDbDictionary
280
     1
281
     1
  3
ACAD_XREC_ROUNDTRIP
360
4A5
  0
DICTIONARY
  5
488
330
2A
100
AcDbDictionary
280
     1
281
     1
  3
ACAD_XREC_ROUNDTRIP
360
489
  0
DICTIONARY
  5
48A
330
2B
100
AcDbDictionary
280
     1
281
     1
  3
ACAD_XREC_ROUNDTRIP
360
48B
  0
DICTIONARY
  5
48C
330
2C
100
AcDbDictionary
280
     1
281
     1
  3
ACAD_XREC_ROUNDTRIP
360
48D
  0
DICTIONARY
  5
48E
330
2D
100
AcDbDictionary
280
     1
281
     1
  3
ACAD_XREC_ROUNDTRIP
360
48F
  0
DICTIONARY
  5
4A8
330
3A
100
AcDbDictionary
280
     1
281
     1
  3
ACAD_XREC_ROUNDTRIP
360
4A9
  0
DICTIONARY
  5
4A2
330
37
100
AcDbDictionary
280
     1
281
     1
  3
ACAD_XREC_ROUNDTRIP
360
4A3
  0
DICTIONARY
  5
4AA
330
3B
100
AcDbDictionary
280
     1
281
     1
  3
ACAD_XREC_ROUNDTRIP
360
4AB
  0
DICTIONARY
  5
49A
330
33
100
AcDbDictionary
280
     1
281
     1
  3
ACAD_XREC_ROUNDTRIP
360
49B
  0
DICTIONARY
  5
4A0
330
36
100
AcDbDictionary
280
     1
281
     1
  3
ACAD_XREC_ROUNDTRIP
360
4A1
  0
XRECORD
  5
1C
102
{ACAD_REACTORS
330
1A
102
}
330
1A
100
AcDbXrecord
280
     1
270
     1
271
     1
  0
XRECORD
  5
1B
102
{ACAD_REACTORS
330
1A
102
}
330
1A
100
AcDbXrecord
280
     1
270
     1
271
     1
  0
XRECORD
  5
1F
102
{ACAD_REACTORS
330
1A
102
}
330
1A
100
AcDbXrecord
280
     1
270
     1
271
     1
  0
XRECORD
  5
1E
102
{ACAD_REACTORS
330
1A
102
}
330
1A
100
AcDbXrecord
280
     1
270
     1
271
     1
  0
XRECORD
  5
20
102
{ACAD_REACTORS
330
1A
102
}
330
1A
100
AcDbXrecord
280
     1
270
     1
271
     1
  0
XRECORD
  5
1D
102
{ACAD_REACTORS
330
1A
102
}
330
1A
100
AcDbXrecord
280
     1
270
     1
271
     1
  0
XRECORD
  5
14
102
{ACAD_REACTORS
330
12
102
}
330
12
100
AcDbXrecord
280
     1
270
     1
271
     1
  0
XRECORD
  5
13
102
{ACAD_REACTORS
330
12
102
}
330
12
100
AcDbXrecord
280
     1
270
     1
271
     1
  0
XRECORD
  5
17
102
{ACAD_REACTORS
330
12
102
}
330
12
100
AcDbXrecord
280
     1
270
     1
271
     1
  0
XRECORD
  5
16
102
{ACAD_REACTORS
330
12
102
}
330
12
100
AcDbXrecord
280
     1
270
     1
271
     1
  0
XRECORD
  5
18
102
{ACAD_REACTORS
330
12
102
}
330
12
100
AcDbXrecord
280
     1
270
     1
271
     1
  0
XRECORD
  5
15
102
{ACAD_REACTORS
330
12
102
}
330
12
100
AcDbXrecord
280
     1
270
     1
271
     1
  0
XRECORD
  5
24
102
{ACAD_REACTORS
330
22
102
}
330
22
100
AcDbXrecord
280
     1
270
     1
271
     1
  0
XRECORD
  5
23
102
{ACAD_REACTORS
330
22
102
}
330
22
100
AcDbXrecord
280
     1
270
     1
271
     1
  0
XRECORD
  5
27
102
{ACAD_REACTORS
330
22
102
}
330
22
100
AcDbXrecord
280
     1
270
     1
271
     1
  0
XRECORD
  5
26
102
{ACAD_REACTORS
330
22
102
}
330
22
100
AcDbXrecord
280
     1
270
     1
271
     1
  0
XRECORD
  5
28
102
{ACAD_REACTORS
330
22
102
}
330
22
100
AcDbXrecord
280
     1
270
     1
271
     1
  0
XRECORD
  5
25
102
{ACAD_REACTORS
330
22
102
}
330
22
100
AcDbXrecord
280
     1
270
     1
271
     1
  0
CELLSTYLEMAP
  5
486
102
{ACAD_REACTORS
330
485
102
}
330
485
100
AcDbCellStyleMap
 90
        3
300
CELLSTYLE
  1
TABLEFORMAT_BEGIN
 90
        5
170
     1
 91
        0
 92
    32768
 62
   257
 93
        1
300
CONTENTFORMAT
  1
CONTENTFORMAT_BEGIN
 90
        0
 91
        0
 92
      512
 93
        0
300

 40
0.0
140
1.0
 94
        5
 62
     0
340
60
144
0.25
309
CONTENTFORMAT_END
171
     0
 94
        0
309
TABLEFORMAT_END
  1
CELLSTYLE_BEGIN
 90
        1
 91
        1
300
_TITLE
309
CELLSTYLE_END
300
CELLSTYLE
  1
TABLEFORMAT_BEGIN
 90
        5
170
     1
 91
        0
 92
        0
 62
   257
 93
        1
300
CONTENTFORMAT
  1
CONTENTFORMAT_BEGIN
 90
        0
 91
        0
 92
      512
 93
        0
300

 40
0.0
140
1.0
 94
        5
 62
     0
340
60
144
0.18
309
CONTENTFORMAT_END
171
     0
 94
        0
309
TABLEFORMAT_END
  1
CELLSTYLE_BEGIN
 90
        2
 91
        1
300
_HEADER
309
CELLSTYLE_END
300
CELLSTYLE
  1
TABLEFORMAT_BEGIN
 90
        5
170
     1
 91
        0
 92
        0
 62
   257
 93
        1
300
CONTENTFORMAT
  1
CONTENTFORMAT_BEGIN
 90
        0
 91
        0
 92
      512
 93
        0
300

 40
0.0
140
1.0
 94
        2
 62
     0
340
60
144
0.18
309
CONTENTFORMAT_END
171
     0
 94
        0
309
TABLEFORMAT_END
  1
CELLSTYLE_BEGIN
 90
        3
 91
        2
300
_DATA
309
CELLSTYLE_END
  0
XRECORD
  5
493
102
{ACAD_REACTORS
330
492
102
}
330
492
100
AcDbXrecord
280
     1
102
RTVSPropertyOp0
 70
     1
102
RTVSPropertyOp1
 70
     1
102
RTVSPropertyOp2
 70
     1
102
RTVSPropertyOp3
 70
     1
102
RTVSPropertyOp4
 70
     1
102
RTVSPropertyOp5
 70
     1
102
RTVSPropertyOp6
 70
     1
102
RTVSPropertyOp7
 70
     1
102
RTVSPropertyOp8
 70
     1
102
RTVSPropertyOp9
 70
     1
102
RTVSPropertyOp10
 70
     1
102
RTVSPropertyOp11
 70
     1
102
RTVSPropertyOp12
 70
     1
102
RTVSPropertyOp13
 70
     1
102
RTVSPropertyOp14
 70
     1
102
RTVSPropertyOp15
 70
     1
102
RTVSPropertyOp16
 70
     1
102
RTVSPropertyOp17
 70
     1
102
RTVSPropertyOp18
 70
     1
102
RTVSPropertyOp19
 70
     1
102
RTVSPropertyOp20
 70
     1
102
RTVSPropertyOp21
 70
     1
102
RTVSPropertyOp22
 70
     1
102
RTVSPropertyOp23
 70
     1
102
RTVSPropertyOp24
 70
     1
102
RTVSPropertyOp25
 70
     1
102
RTVSPropertyOp26
 70
     1
102
RTVSPropertyOp27
 70
     1
  0
XRECORD
  5
497
102
{ACAD_REACTORS
330
496
102
}
330
496
100
AcDbXrecord
280
     1
102
RTVSPropertyOp0
 70
     1
102
RTVSPropertyOp1
 70
     1
102
RTVSPropertyOp2
 70
     1
102
RTVSPropertyOp3
 70
     1
102
RTVSPropertyOp4
 70
     1
102
RTVSPropertyOp5
 70
     1
102
RTVSPropertyOp6
 70
     1
102
RTVSPropertyOp7
 70
     1
102
RTVSPropertyOp8
 70
     1
102
RTVSPropertyOp9
 70
     1
102
RTVSPropertyOp10
 70
     1
102
RTVSPropertyOp11
 70
     1
102
RTVSPropertyOp12
 70
     1
102
RTVSPropertyOp13
 70
     1
102
RTVSPropertyOp14
 70
     1
102
RTVSPropertyOp15
 70
     1
102
RTVSPropertyOp16
 70
     1
102
RTVSPropertyOp17
 70
     1
102
RTVSPropertyOp18
 70
     1
102
RTVSPropertyOp19
 70
     1
102
RTVSPropertyOp20
 70
     1
102
RTVSPropertyOp21
 70
     1
102
RTVSPropertyOp22
 70
     1
102
RTVSPropertyOp23
 70
     1
102
RTVSPropertyOp24
 70
     1
102
RTVSPropertyOp25
 70
     1
102
RTVSPropertyOp26
 70
     1
102
RTVSPropertyOp27
 70
     1
  0
XRECORD
  5
495
102
{ACAD_REACTORS
330
494
102
}
330
494
100
AcDbXrecord
280
     1
102
RTVSPropertyOp0
 70
     1
102
RTVSPropertyOp1
 70
     1
102
RTVSPropertyOp2
 70
     1
102
RTVSPropertyOp3
 70
     1
102
RTVSPropertyOp4
 70
     1
102
RTVSPropertyOp5
 70
     1
102
RTVSPropertyOp6
 70
     1
102
RTVSPropertyOp7
 70
     1
102
RTVSPropertyOp8
 70
     1
102
RTVSPropertyOp9
 70
     1
102
RTVSPropertyOp10
 70
     1
102
RTVSPropertyOp11
 70
     1
102
RTVSPropertyOp12
 70
     1
102
RTVSPropertyOp13
 70
     1
102
RTVSPropertyOp14
 70
     1
102
RTVSPropertyOp15
 70
     1
102
RTVSPropertyOp16
 70
     1
102
RTVSPropertyOp17
 70
     1
102
RTVSPropertyOp18
 70
     1
102
RTVSPropertyOp19
 70
     1
102
RTVSPropertyOp20
 70
     1
102
RTVSPropertyOp21
 70
     1
102
RTVSPropertyOp22
 70
     1
102
RTVSPropertyOp23
 70
     1
102
RTVSPropertyOp24
 70
     1
102
RTVSPropertyOp25
 70
     1
102
RTVSPropertyOp26
 70
     1
102
RTVSPropertyOp27
 70
     1
  0
XRECORD
  5
491
102
{ACAD_REACTORS
330
490
102
}
330
490
100
AcDbXrecord
280
     1
102
RTVSPropertyOp0
 70
     1
102
RTVSPropertyOp1
 70
     1
102
RTVSPropertyOp2
 70
     1
102
RTVSPropertyOp3
 70
     1
102
RTVSPropertyOp4
 70
     1
102
RTVSPropertyOp5
 70
     1
102
RTVSPropertyOp6
 70
     1
102
RTVSPropertyOp7
 70
     1
102
RTVSPropertyOp8
 70
     1
102
RTVSPropertyOp9
 70
     1
102
RTVSPropertyOp10
 70
     1
102
RTVSPropertyOp11
 70
     1
102
RTVSPropertyOp12
 70
     1
102
RTVSPropertyOp13
 70
     1
102
RTVSPropertyOp14
 70
     1
102
RTVSPropertyOp15
 70
     1
102
RTVSPropertyOp16
 70
     1
102
RTVSPropertyOp17
 70
     1
102
RTVSPropertyOp18
 70
     1
102
RTVSPropertyOp19
 70
     1
102
RTVSPropertyOp20
 70
     1
102
RTVSPropertyOp21
 70
     1
102
RTVSPropertyOp22
 70
     1
102
RTVSPropertyOp23
 70
     1
102
RTVSPropertyOp24
 70
     1
102
RTVSPropertyOp25
 70
     1
102
RTVSPropertyOp26
 70
     1
102
RTVSPropertyOp27
 70
     1
  0
XRECORD
  5
49F
102
{ACAD_REACTORS
330
49E
102
}
330
49E
100
AcDbXrecord
280
     1
102
RTVSPropertyOp0
 70
     1
102
RTVSPropertyOp1
 70
     1
102
RTVSPropertyOp2
 70
     1
102
RTVSPropertyOp3
 70
     1
102
RTVSPropertyOp4
 70
     1
102
RTVSPropertyOp5
 70
     1
102
RTVSPropertyOp6
 70
     1
102
RTVSPropertyOp7
 70
     1
102
RTVSPropertyOp8
 70
     1
102
RTVSPropertyOp9
 70
     1
102
RTVSPropertyOp10
 70
     1
102
RTVSPropertyOp11
 70
     1
102
RTVSPropertyOp12
 70
     1
102
RTVSPropertyOp13
 70
     1
102
RTVSPropertyOp14
 70
     1
102
RTVSPropertyOp15
 70
     1
102
RTVSPropertyOp16
 70
     1
102
RTVSPropertyOp17
 70
     1
102
RTVSPropertyOp18
 70
     1
102
RTVSPropertyOp19
 70
     1
102
RTVSPropertyOp20
 70
     1
102
RTVSPropertyOp21
 70
     1
102
RTVSPropertyOp22
 70
     1
102
RTVSPropertyOp23
 70
     1
102
RTVSPropertyOp24
 70
     1
102
RTVSPropertyOp25
 70
     1
102
RTVSPropertyOp26
 70
     1
102
RTVSPropertyOp27
 70
     1
  0
XRECORD
  5
4A7
102
{ACAD_REACTORS
330
4A6
102
}
330
4A6
100
AcDbXrecord
280
     1
102
RTVSPropertyOp0
 70
     1
102
RTVSPropertyOp1
 70
     1
102
RTVSPropertyOp2
 70
     1
102
RTVSPropertyOp3
 70
     1
102
RTVSPropertyOp4
 70
     1
102
RTVSPropertyOp5
 70
     1
102
RTVSPropertyOp6
 70
     1
102
RTVSPropertyOp7
 70
     1
102
RTVSPropertyOp8
 70
     1
102
RTVSPropertyOp9
 70
     1
102
RTVSPropertyOp10
 70
     1
102
RTVSPropertyOp11
 70
     1
102
RTVSPropertyOp12
 70
     1
102
RTVSPropertyOp13
 70
     1
102
RTVSPropertyOp14
 70
     1
102
RTVSPropertyOp15
 70
     1
102
RTVSPropertyOp16
 70
     1
102
RTVSPropertyOp17
 70
     1
102
RTVSPropertyOp18
 70
     1
102
RTVSPropertyOp19
 70
     1
102
RTVSPropertyOp20
 70
     1
102
RTVSPropertyOp21
 70
     1
102
RTVSPropertyOp22
 70
     1
102
RTVSPropertyOp23
 70
     1
102
RTVSPropertyOp24
 70
     1
102
RTVSPropertyOp25
 70
     1
102
RTVSPropertyOp26
 70
     1
102
RTVSPropertyOp27
 70
     1
  0
XRECORD
  5
499
102
{ACAD_REACTORS
330
498
102
}
330
498
100
AcDbXrecord
280
     1
102
RTVSPropertyOp0
 70
     1
102
RTVSPropertyOp1
 70
     1
102
RTVSPropertyOp2
 70
     1
102
RTVSPropertyOp3
 70
     1
102
RTVSPropertyOp4
 70
     1
102
RTVSPropertyOp5
 70
     1
102
RTVSPropertyOp6
 70
     1
102
RTVSPropertyOp7
 70
     1
102
RTVSPropertyOp8
 70
     1
102
RTVSPropertyOp9
 70
     1
102
RTVSPropertyOp10
 70
     1
102
RTVSPropertyOp11
 70
     1
102
RTVSPropertyOp12
 70
     1
102
RTVSPropertyOp13
 70
     1
102
RTVSPropertyOp14
 70
     1
102
RTVSPropertyOp15
 70
     1
102
RTVSPropertyOp16
 70
     1
102
RTVSPropertyOp17
 70
     1
102
RTVSPropertyOp18
 70
     1
102
RTVSPropertyOp19
 70
     1
102
RTVSPropertyOp20
 70
     1
102
RTVSPropertyOp21
 70
     1
102
RTVSPropertyOp22
 70
     1
102
RTVSPropertyOp23
 70
     1
102
RTVSPropertyOp24
 70
     1
102
RTVSPropertyOp25
 70
     1
102
RTVSPropertyOp26
 70
     1
102
RTVSPropertyOp27
 70
     1
  0
XRECORD
  5
49D
102
{ACAD_REACTORS
330
49C
102
}
330
49C
100
AcDbXrecord
280
     1
102
RTVSPropertyOp0
 70
     1
102
RTVSPropertyOp1
 70
     1
102
RTVSPropertyOp2
 70
     1
102
RTVSPropertyOp3
 70
     1
102
RTVSPropertyOp4
 70
     1
102
RTVSPropertyOp5
 70
     1
102
RTVSPropertyOp6
 70
     1
102
RTVSPropertyOp7
 70
     1
102
RTVSPropertyOp8
 70
     1
102
RTVSPropertyOp9
 70
     1
102
RTVSPropertyOp10
 70
     1
102
RTVSPropertyOp11
 70
     1
102
RTVSPropertyOp12
 70
     1
102
RTVSPropertyOp13
 70
     1
102
RTVSPropertyOp14
 70
     1
102
RTVSPropertyOp15
 70
     1
102
RTVSPropertyOp16
 70
     1
102
RTVSPropertyOp17
 70
     1
102
RTVSPropertyOp18
 70
     1
102
RTVSPropertyOp19
 70
     1
102
RTVSPropertyOp20
 70
     1
102
RTVSPropertyOp21
 70
     1
102
RTVSPropertyOp22
 70
     1
102
RTVSPropertyOp23
 70
     1
102
RTVSPropertyOp24
 70
     1
102
RTVSPropertyOp25
 70
     1
102
RTVSPropertyOp26
 70
     1
102
RTVSPropertyOp27
 70
     1
  0
XRECORD
  5
4AD
102
{ACAD_REACTORS
330
4AC
102
}
330
4AC
100
AcDbXrecord
280
     1
102
RTVSPropertyOp0
 70
     0
102
RTVSPropertyOp1
 70
     0
102
RTVSPropertyOp2
 70
     0
102
RTVSPropertyOp3
 70
     0
102
RTVSPropertyOp4
 70
     0
102
RTVSPropertyOp5
 70
     0
102
RTVSPropertyOp6
 70
     0
102
RTVSPropertyOp7
 70
     0
102
RTVSPropertyOp8
 70
     0
102
RTVSPropertyOp9
 70
     0
102
RTVSPropertyOp10
 70
     0
102
RTVSPropertyOp11
 70
     0
102
RTVSPropertyOp12
 70
     0
102
RTVSPropertyOp13
 70
     0
102
RTVSPropertyOp14
 70
     2
102
RTVSPropertyOp15
 70
     0
102
RTVSPropertyOp16
 70
     0
102
RTVSPropertyOp17
 70
     0
102
RTVSPropertyOp18
 70
     0
102
RTVSPropertyOp19
 70
     0
102
RTVSPropertyOp20
 70
     0
102
RTVSPropertyOp21
 70
     0
102
RTVSPropertyOp22
 70
     0
102
RTVSPropertyOp23
 70
     0
102
RTVSPropertyOp24
 70
     0
102
RTVSPropertyOp25
 70
     0
102
RTVSPropertyOp26
 70
     0
102
RTVSPropertyOp27
 70
     0
  0
XRECORD
  5
4A5
102
{ACAD_REACTORS
330
4A4
102
}
330
4A4
100
AcDbXrecord
280
     1
102
RTVSPropertyOp0
 70
     1
102
RTVSPropertyOp1
 70
     1
102
RTVSPropertyOp2
 70
     1
102
RTVSPropertyOp3
 70
     1
102
RTVSPropertyOp4
 70
     1
102
RTVSPropertyOp5
 70
     1
102
RTVSPropertyOp6
 70
     1
102
RTVSPropertyOp7
 70
     1
102
RTVSPropertyOp8
 70
     1
102
RTVSPropertyOp9
 70
     1
102
RTVSPropertyOp10
 70
     1
102
RTVSPropertyOp11
 70
     1
102
RTVSPropertyOp12
 70
     1
102
RTVSPropertyOp13
 70
     1
102
RTVSPropertyOp14
 70
     1
102
RTVSPropertyOp15
 70
     1
102
RTVSPropertyOp16
 70
     1
102
RTVSPropertyOp17
 70
     1
102
RTVSPropertyOp18
 70
     1
102
RTVSPropertyOp19
 70
     1
102
RTVSPropertyOp20
 70
     1
102
RTVSPropertyOp21
 70
     1
102
RTVSPropertyOp22
 70
     1
102
RTVSPropertyOp23
 70
     1
102
RTVSPropertyOp24
 70
     1
102
RTVSPropertyOp25
 70
     1
102
RTVSPropertyOp26
 70
     1
102
RTVSPropertyOp27
 70
     1
  0
XRECORD
  5
489
102
{ACAD_REACTORS
330
488
102
}
330
488
100
AcDbXrecord
280
     1
102
RTVSPropertyOp0
 70
     1
102
RTVSPropertyOp1
 70
     1
102
RTVSPropertyOp2
 70
     1
102
RTVSPropertyOp3
 70
     1
102
RTVSPropertyOp4
 70
     1
102
RTVSPropertyOp5
 70
     1
102
RTVSPropertyOp6
 70
     1
102
RTVSPropertyOp7
 70
     1
102
RTVSPropertyOp8
 70
     1
102
RTVSPropertyOp9
 70
     1
102
RTVSPropertyOp10
 70
     1
102
RTVSPropertyOp11
 70
     1
102
RTVSPropertyOp12
 70
     1
102
RTVSPropertyOp13
 70
     1
102
RTVSPropertyOp14
 70
     1
102
RTVSPropertyOp15
 70
     1
102
RTVSPropertyOp16
 70
     1
102
RTVSPropertyOp17
 70
     1
102
RTVSPropertyOp18
 70
     1
102
RTVSPropertyOp19
 70
     1
102
RTVSPropertyOp20
 70
     1
102
RTVSPropertyOp21
 70
     1
102
RTVSPropertyOp22
 70
     1
102
RTVSPropertyOp23
 70
     1
102
RTVSPropertyOp24
 70
     1
102
RTVSPropertyOp25
 70
     1
102
RTVSPropertyOp26
 70
     1
102
RTVSPropertyOp27
 70
     1
  0
XRECORD
  5
48B
102
{ACAD_REACTORS
330
48A
102
}
330
48A
100
AcDbXrecord
280
     1
102
RTVSPropertyOp0
 70
     1
102
RTVSPropertyOp1
 70
     1
102
RTVSPropertyOp2
 70
     1
102
RTVSPropertyOp3
 70
     1
102
RTVSPropertyOp4
 70
     1
102
RTVSPropertyOp5
 70
     1
102
RTVSPropertyOp6
 70
     1
102
RTVSPropertyOp7
 70
     1
102
RTVSPropertyOp8
 70
     1
102
RTVSPropertyOp9
 70
     1
102
RTVSPropertyOp10
 70
     1
102
RTVSPropertyOp11
 70
     1
102
RTVSPropertyOp12
 70
     1
102
RTVSPropertyOp13
 70
     1
102
RTVSPropertyOp14
 70
     1
102
RTVSPropertyOp15
 70
     1
102
RTVSPropertyOp16
 70
     1
102
RTVSPropertyOp17
 70
     1
102
RTVSPropertyOp18
 70
     1
102
RTVSPropertyOp19
 70
     1
102
RTVSPropertyOp20
 70
     1
102
RTVSPropertyOp21
 70
     1
102
RTVSPropertyOp22
 70
     1
102
RTVSPropertyOp23
 70
     1
102
RTVSPropertyOp24
 70
     1
102
RTVSPropertyOp25
 70
     1
102
RTVSPropertyOp26
 70
     1
102
RTVSPropertyOp27
 70
     1
  0
XRECORD
  5
48D
102
{ACAD_REACTORS
330
48C
102
}
330
48C
100
AcDbXrecord
280
     1
102
RTVSPropertyOp0
 70
     1
102
RTVSPropertyOp1
 70
     1
102
RTVSPropertyOp2
 70
     1
102
RTVSPropertyOp3
 70
     1
102
RTVSPropertyOp4
 70
     1
102
RTVSPropertyOp5
 70
     1
102
RTVSPropertyOp6
 70
     1
102
RTVSPropertyOp7
 70
     1
102
RTVSPropertyOp8
 70
     1
102
RTVSPropertyOp9
 70
     1
102
RTVSPropertyOp10
 70
     1
102
RTVSPropertyOp11
 70
     1
102
RTVSPropertyOp12
 70
     1
102
RTVSPropertyOp13
 70
     1
102
RTVSPropertyOp14
 70
     1
102
RTVSPropertyOp15
 70
     1
102
RTVSPropertyOp16
 70
     1
102
RTVSPropertyOp17
 70
     1
102
RTVSPropertyOp18
 70
     1
102
RTVSPropertyOp19
 70
     1
102
RTVSPropertyOp20
 70
     1
102
RTVSPropertyOp21
 70
     1
102
RTVSPropertyOp22
 70
     1
102
RTVSPropertyOp23
 70
     1
102
RTVSPropertyOp24
 70
     1
102
RTVSPropertyOp25
 70
     1
102
RTVSPropertyOp26
 70
     1
102
RTVSPropertyOp27
 70
     1
  0
XRECORD
  5
48F
102
{ACAD_REACTORS
330
48E
102
}
330
48E
100
AcDbXrecord
280
     1
102
RTVSPropertyOp0
 70
     1
102
RTVSPropertyOp1
 70
     1
102
RTVSPropertyOp2
 70
     1
102
RTVSPropertyOp3
 70
     1
102
RTVSPropertyOp4
 70
     1
102
RTVSPropertyOp5
 70
     1
102
RTVSPropertyOp6
 70
     1
102
RTVSPropertyOp7
 70
     1
102
RTVSPropertyOp8
 70
     1
102
RTVSPropertyOp9
 70
     1
102
RTVSPropertyOp10
 70
     1
102
RTVSPropertyOp11
 70
     1
102
RTVSPropertyOp12
 70
     1
102
RTVSPropertyOp13
 70
     1
102
RTVSPropertyOp14
 70
     1
102
RTVSPropertyOp15
 70
     1
102
RTVSPropertyOp16
 70
     1
102
RTVSPropertyOp17
 70
     1
102
RTVSPropertyOp18
 70
     1
102
RTVSPropertyOp19
 70
     1
102
RTVSPropertyOp20
 70
     1
102
RTVSPropertyOp21
 70
     1
102
RTVSPropertyOp22
 70
     1
102
RTVSPropertyOp23
 70
     1
102
RTVSPropertyOp24
 70
     1
102
RTVSPropertyOp25
 70
     1
102
RTVSPropertyOp26
 70
     1
102
RTVSPropertyOp27
 70
     1
  0
XRECORD
  5
4A9
102
{ACAD_REACTORS
330
4A8
102
}
330
4A8
100
AcDbXrecord
280
     1
102
RTVSPropertyOp0
 70
     0
102
RTVSPropertyOp1
 70
     0
102
RTVSPropertyOp2
 70
     0
102
RTVSPropertyOp3
 70
     0
102
RTVSPropertyOp4
 70
     0
102
RTVSPropertyOp5
 70
     0
102
RTVSPropertyOp6
 70
     0
102
RTVSPropertyOp7
 70
     0
102
RTVSPropertyOp8
 70
     0
102
RTVSPropertyOp9
 70
     0
102
RTVSPropertyOp10
 70
     0
102
RTVSPropertyOp11
 70
     0
102
RTVSPropertyOp12
 70
     0
102
RTVSPropertyOp13
 70
     0
102
RTVSPropertyOp14
 70
     2
102
RTVSPropertyOp15
 70
     0
102
RTVSPropertyOp16
 70
     0
102
RTVSPropertyOp17
 70
     0
102
RTVSPropertyOp18
 70
     0
102
RTVSPropertyOp19
 70
     0
102
RTVSPropertyOp20
 70
     0
102
RTVSPropertyOp21
 70
     0
102
RTVSPropertyOp22
 70
     0
102
RTVSPropertyOp23
 70
     0
102
RTVSPropertyOp24
 70
     0
102
RTVSPropertyOp25
 70
     0
102
RTVSPropertyOp26
 70
     0
102
RTVSPropertyOp27
 70
     0
  0
XRECORD
  5
4A3
102
{ACAD_REACTORS
330
4A2
102
}
330
4A2
100
AcDbXrecord
280
     1
102
RTVSPropertyOp0
 70
     1
102
RTVSPropertyOp1
 70
     1
102
RTVSPropertyOp2
 70
     1
102
RTVSPropertyOp3
 70
     1
102
RTVSPropertyOp4
 70
     1
102
RTVSPropertyOp5
 70
     1
102
RTVSPropertyOp6
 70
     1
102
RTVSPropertyOp7
 70
     1
102
RTVSPropertyOp8
 70
     1
102
RTVSPropertyOp9
 70
     1
102
RTVSPropertyOp10
 70
     1
102
RTVSPropertyOp11
 70
     1
102
RTVSPropertyOp12
 70
     1
102
RTVSPropertyOp13
 70
     1
102
RTVSPropertyOp14
 70
     1
102
RTVSPropertyOp15
 70
     1
102
RTVSPropertyOp16
 70
     1
102
RTVSPropertyOp17
 70
     1
102
RTVSPropertyOp18
 70
     1
102
RTVSPropertyOp19
 70
     1
102
RTVSPropertyOp20
 70
     1
102
RTVSPropertyOp21
 70
     1
102
RTVSPropertyOp22
 70
     1
102
RTVSPropertyOp23
 70
     1
102
RTVSPropertyOp24
 70
     1
102
RTVSPropertyOp25
 70
     1
102
RTVSPropertyOp26
 70
     1
102
RTVSPropertyOp27
 70
     1
  0
XRECORD
  5
4AB
102
{ACAD_REACTORS
330
4AA
102
}
330
4AA
100
AcDbXrecord
280
     1
102
RTVSPropertyOp0
 70
     0
102
RTVSPropertyOp1
 70
     0
102
RTVSPropertyOp2
 70
     0
102
RTVSPropertyOp3
 70
     0
102
RTVSPropertyOp4
 70
     0
102
RTVSPropertyOp5
 70
     0
102
RTVSPropertyOp6
 70
     0
102
RTVSPropertyOp7
 70
     0
102
RTVSPropertyOp8
 70
     0
102
RTVSPropertyOp9
 70
     0
102
RTVSPropertyOp10
 70
     0
102
RTVSPropertyOp11
 70
     0
102
RTVSPropertyOp12
 70
     0
102
RTVSPropertyOp13
 70
     0
102
RTVSPropertyOp14
 70
     2
102
RTVSPropertyOp15
 70
     0
102
RTVSPropertyOp16
 70
     0
102
RTVSPropertyOp17
 70
     0
102
RTVSPropertyOp18
 70
     0
102
RTVSPropertyOp19
 70
     0
102
RTVSPropertyOp20
 70
     0
102
RTVSPropertyOp21
 70
     0
102
RTVSPropertyOp22
 70
     0
102
RTVSPropertyOp23
 70
     0
102
RTVSPropertyOp24
 70
     0
102
RTVSPropertyOp25
 70
     0
102
RTVSPropertyOp26
 70
     0
102
RTVSPropertyOp27
 70
     0
  0
XRECORD
  5
49B
102
{ACAD_REACTORS
330
49A
102
}
330
49A
100
AcDbXrecord
280
     1
102
RTVSPropertyOp0
 70
     1
102
RTVSPropertyOp1
 70
     1
102
RTVSPropertyOp2
 70
     1
102
RTVSPropertyOp3
 70
     1
102
RTVSPropertyOp4
 70
     1
102
RTVSPropertyOp5
 70
     1
102
RTVSPropertyOp6
 70
     1
102
RTVSPropertyOp7
 70
     1
102
RTVSPropertyOp8
 70
     1
102
RTVSPropertyOp9
 70
     1
102
RTVSPropertyOp10
 70
     1
102
RTVSPropertyOp11
 70
     1
102
RTVSPropertyOp12
 70
     1
102
RTVSPropertyOp13
 70
     1
102
RTVSPropertyOp14
 70
     1
102
RTVSPropertyOp15
 70
     1
102
RTVSPropertyOp16
 70
     1
102
RTVSPropertyOp17
 70
     1
102
RTVSPropertyOp18
 70
     1
102
RTVSPropertyOp19
 70
     1
102
RTVSPropertyOp20
 70
     1
102
RTVSPropertyOp21
 70
     1
102
RTVSPropertyOp22
 70
     1
102
RTVSPropertyOp23
 70
     1
102
RTVSPropertyOp24
 70
     1
102
RTVSPropertyOp25
 70
     1
102
RTVSPropertyOp26
 70
     1
102
RTVSPropertyOp27
 70
     1
  0
XRECORD
  5
4A1
102
{ACAD_REACTORS
330
4A0
102
}
330
4A0
100
AcDbXrecord
280
     1
102
RTVSPropertyOp0
 70
     1
102
RTVSPropertyOp1
 70
     1
102
RTVSPropertyOp2
 70
     1
102
RTVSPropertyOp3
 70
     1
102
RTVSPropertyOp4
 70
     1
102
RTVSPropertyOp5
 70
     1
102
RTVSPropertyOp6
 70
     1
102
RTVSPropertyOp7
 70
     1
102
RTVSPropertyOp8
 70
     1
102
RTVSPropertyOp9
 70
     1
102
RTVSPropertyOp10
 70
     1
102
RTVSPropertyOp11
 70
     1
102
RTVSPropertyOp12
 70
     1
102
RTVSPropertyOp13
 70
     1
102
RTVSPropertyOp14
 70
     1
102
RTVSPropertyOp15
 70
     1
102
RTVSPropertyOp16
 70
     1
102
RTVSPropertyOp17
 70
     1
102
RTVSPropertyOp18
 70
     1
102
RTVSPropertyOp19
 70
     1
102
RTVSPropertyOp20
 70
     1
102
RTVSPropertyOp21
 70
     1
102
RTVSPropertyOp22
 70
     1
102
RTVSPropertyOp23
 70
     1
102
RTVSPropertyOp24
 70
     1
102
RTVSPropertyOp25
 70
     1
102
RTVSPropertyOp26
 70
     1
102
RTVSPropertyOp27
 70
     1
  0
ENDSEC
  0
EOF
