  0
SECTION
  2
ENTITIES
  0
LINE
  8
APS_GEOMETRY
 10
148.750231
 11
148.442626
 20
293.211114
 21
293.218095
  0
LINE
  8
APS_GEOMETRY
 10
117.510765
 11
108.962493
 20
68.707939
 21
55.76324
  0
LINE
  8
APS_GEOMETRY
 10
108.962493
 11
96.853653
 20
55.76324
 21
65.377835
  0
LINE
  8
APS_GEOMETRY
 10
96.853653
 11
92.164955
 20
65.377835
 21
69.113243
  0
LINE
  8
APS_GEOMETRY
 10
92.164955
 11
97.685739
 20
69.113243
 21
75.926762
  0
LINE
  8
APS_GEOMETRY
 10
97.685739
 11
99.64907
 20
75.926762
 21
78.357578
  0
ARC
  8
APS_GEOMETRY
 10
149.482683
 20
149.244675
 40
86.650848
 50
234.89279
 51
248.347639
  0
LINE
  8
APS_GEOMETRY
 10
114.783622
 11
114.765471
 20
327.871489
 21
327.871713
  0
LINE
  8
APS_GEOMETRY
 10
137.077095
 11
126.841569
 20
63.604225
 21
43.975892
  0
LINE
  8
APS_GEOMETRY
 10
126.841569
 11
131.22654
 20
43.975892
 21
41.571801
  0
LINE
  8
APS_GEOMETRY
 10
131.22654
 11
145.632853
 20
41.571801
 21
33.808586
  0
LINE
  8
APS_GEOMETRY
 10
145.632853
 11
148.487733
 20
33.808586
 21
41.092664
  0
LINE
  8
APS_GEOMETRY
 10
148.487733
 11
157.052642
 20
41.092664
 21
62.925123
  0
ARC
  8
APS_GEOMETRY
 10
149.482683
 20
149.244675
 40
86.650848
 50
261.730675
 51
275.011841
  0
LINE
  8
APS_GEOMETRY
 10
126.662025
 11
108.050306
 20
150.750136
 21
153.870675
  0
LINE
  8
APS_GEOMETRY
 10
108.050306
 11
102.059566
 20
153.870675
 21
154.834802
  0
LINE
  8
APS_GEOMETRY
 10
102.059566
 11
61.558178
 20
154.834802
 21
126.047202
  0
LINE
  8
APS_GEOMETRY
 10
61.558178
 11
49.695747
 20
126.047202
 21
117.684095
  0
LINE
  8
APS_GEOMETRY
 10
49.695747
 11
38.697445
 20
117.684095
 21
136.083456
  0
LINE
  8
APS_GEOMETRY
 10
38.697445
 11
78.67174
 20
136.083456
 21
159.853426
  0
LINE
  8
APS_GEOMETRY
 10
78.67174
 11
96.128977
 20
159.853426
 21
170.177169
  0
LINE
  8
APS_GEOMETRY
 10
96.128977
 11
114.700589
 20
170.177169
 21
164.925028
  0
LINE
  8
APS_GEOMETRY
 10
114.700589
 11
122.135711
 20
164.925028
 21
162.769635
  0
LINE
  8
APS_GEOMETRY
 10
122.135711
 11
126.662025
 20
162.769635
 21
150.750136
  0
LINE
  8
APS_GEOMETRY
 10
112.278288
 11
117.433642
 20
189.109986
 21
175.362781
  0
LINE
  8
APS_GEOMETRY
 10
117.433642
 11
98.364183
 20
175.362781
 21
183.38822
  0
LINE
  8
APS_GEOMETRY
 10
98.364183
 11
91.845958
 20
183.38822
 21
186.120849
  0
LINE
  8
APS_GEOMETRY
 10
91.845958
 11
44.154048
 20
186.120849
 21
162.914677
  0
LINE
  8
APS_GEOMETRY
 10
44.154048
 11
29.245262
 20
162.914677
 21
155.689559
  0
LINE
  8
APS_GEOMETRY
 10
29.245262
 11
21.658837
 20
155.689559
 21
175.937098
  0
LINE
  8
APS_GEOMETRY
 10
21.658837
 11
71.354056
 20
175.937098
 21
195.445179
  0
LINE
  8
APS_GEOMETRY
 10
71.354056
 11
88.874894
 20
195.445179
 21
202.320259
  0
LINE
  8
APS_GEOMETRY
 10
88.874894
 11
106.567876
 20
202.320259
 21
192.327202
  0
LINE
  8
APS_GEOMETRY
 10
106.567876
 11
112.278288
 20
192.327202
 21
189.109986
  0
ARC
  8
APS_GEOMETRY
 10
114.607743
 20
97.104983
 40
0.206843
 50
247.228151
 51
320.93486
  0
LINE
  8
APS_GEOMETRY
 10
114.768342
 11
127.391961
 20
96.97463
 21
112.527314
  0
LINE
  8
APS_GEOMETRY
 10
127.391961
 11
134.739626
 20
112.527314
 21
113.940112
  0
LINE
  8
APS_GEOMETRY
 10
134.739626
 11
140.107355
 20
113.940112
 21
114.900767
  0
LINE
  8
APS_GEOMETRY
 10
140.107355
 11
144.86843
 20
114.900767
 21
102.204975
  0
LINE
  8
APS_GEOMETRY
 10
144.86843
 11
138.351411
 20
102.204975
 21
100.269529
  0
LINE
  8
APS_GEOMETRY
 10
138.351411
 11
133.426709
 20
100.269529
 21
92.812262
  0
ARC
  8
APS_GEOMETRY
 10
134.699115
 20
144.262055
 40
51.465524
 50
246.92469
 51
268.583306
  0
LINE
  8
APS_GEOMETRY
 10
96.027034
 11
80.458093
 20
104.196829
 21
88.633631
  0
LINE
  8
APS_GEOMETRY
 10
80.458093
 11
76.145632
 20
88.633631
 21
84.454668
  0
LINE
  8
APS_GEOMETRY
 10
76.145632
 11
62.460781
 20
84.454668
 21
100.135353
  0
LINE
  8
APS_GEOMETRY
 10
62.460781
 11
95.580639
 20
100.135353
 21
128.392112
  0
LINE
  8
APS_GEOMETRY
 10
95.580639
 11
109.231963
 20
128.392112
 21
140.003117
  0
LINE
  8
APS_GEOMETRY
 10
109.231963
 11
125.086774
 20
140.003117
 21
139.250126
  0
LINE
  8
APS_GEOMETRY
 10
125.086774
 11
131.08616
 20
139.250126
 21
138.945679
  0
LINE
  8
APS_GEOMETRY
 10
131.08616
 11
135.414036
 20
138.945679
 21
127.063244
  0
LINE
  8
APS_GEOMETRY
 10
135.414036
 11
117.900419
 20
127.063244
 21
125.942883
  0
LINE
  8
APS_GEOMETRY
 10
117.900419
 11
106.303355
 20
125.942883
 21
114.470279
  0
LINE
  8
APS_GEOMETRY
 10
106.303355
 11
97.818168
 20
114.470279
 21
105.987948
  0
LINE
  8
APS_GEOMETRY
 10
97.818168
 11
96.128019
 20
105.987948
 21
107.160877
  0
LINE
  8
APS_GEOMETRY
 10
96.128019
 11
96.027034
 20
107.160877
 21
104.196829
  0
LINE
  8
APS_GEOMETRY
 10
96.669212
 11
99.031813
 20
226.584021
 21
224.432705
  0
LINE
  8
APS_GEOMETRY
 10
99.031813
 11
106.952908
 20
224.432705
 21
203.215455
  0
LINE
  8
APS_GEOMETRY
 10
106.952908
 11
86.266174
 20
203.215455
 21
217.672909
  0
LINE
  8
APS_GEOMETRY
 10
86.266174
 11
37.522298
 20
217.672909
 21
203.273565
  0
LINE
  8
APS_GEOMETRY
 10
37.522298
 11
16.116097
 20
203.273565
 21
196.899119
  0
LINE
  8
APS_GEOMETRY
 10
16.116097
 11
15.913248
 20
196.899119
 21
196.846727
  0
LINE
  8
APS_GEOMETRY
 10
15.913248
 11
12.97411
 20
196.846727
 21
213.193142
  0
LINE
  8
APS_GEOMETRY
 10
12.97411
 11
12.198133
 20
213.193142
 21
218.215204
  0
LINE
  8
APS_GEOMETRY
 10
12.198133
 11
70.913508
 20
218.215204
 21
231.476527
  0
LINE
  8
APS_GEOMETRY
 10
70.913508
 11
87.35739
 20
231.476527
 21
235.13973
  0
LINE
  8
APS_GEOMETRY
 10
87.35739
 11
96.669212
 20
235.13973
 21
226.584021
  0
ARC
  8
APS_GEOMETRY
 10
10.434562
 20
261.350778
 40
0.192838
 50
94.400217
 51
177.297674
  0
ARC
  8
APS_GEOMETRY
 10
292.097247
 20
248.056442
 40
282.169092
 50
177.297674
 51
177.518079
  0
ARC
  8
APS_GEOMETRY
 10
248.481737
 20
249.946948
 40
238.512629
 50
177.518079
 51
178.398422
  0
ARC
  8
APS_GEOMETRY
 10
249.161138
 20
249.927952
 40
239.192296
 50
178.398422
 51
179.276991
  0
ARC
  8
APS_GEOMETRY
 10
363.693239
 20
248.482608
 40
353.733517
 50
179.276991
 51
181.03024
  0
ARC
  8
APS_GEOMETRY
 10
12.238947
 20
241.992058
 40
2.225863
 50
176.64186
 51
244.843001
  0
LINE
  8
APS_GEOMETRY
 10
11.292732
 11
88.743588
 20
239.977326
 21
251.583457
  0
LINE
  8
APS_GEOMETRY
 10
88.743588
 11
93.954122
 20
251.583457
 21
245.586268
  0
LINE
  8
APS_GEOMETRY
 10
93.954122
 11
108.569653
 20
245.586268
 21
228.757493
  0
LINE
  8
APS_GEOMETRY
 10
108.569653
 11
118.610497
 20
228.757493
 21
228.757493
  0
LINE
  8
APS_GEOMETRY
 10
118.610497
 11
111.803778
 20
228.757493
 21
238.607814
  0
LINE
  8
APS_GEOMETRY
 10
111.803778
 11
91.639457
 20
238.607814
 21
267.792872
  0
LINE
  8
APS_GEOMETRY
 10
91.639457
 11
10.419767
 20
267.792872
 21
261.543048
  0
LINE
  8
APS_GEOMETRY
 10
125.644124
 11
95.985821
 20
228.835183
 21
283.66714
  0
LINE
  8
APS_GEOMETRY
 10
95.985821
 11
33.924725
 20
283.66714
 21
283.299153
  0
LINE
  8
APS_GEOMETRY
 10
33.924725
 11
12.297833
 20
283.299153
 21
283.268327
  0
ARC
  8
APS_GEOMETRY
 10
250.757251
 20
249.777388
 40
240.799787
 50
170.258031
 51
172.005265
  0
ARC
  8
APS_GEOMETRY
 10
250.475966
 20
249.825681
 40
240.514386
 50
168.509436
 51
170.258031
  0
ARC
  8
APS_GEOMETRY
 10
453.399888
 20
208.575145
 40
447.588587
 50
167.634184
 51
168.509436
  0
ARC
  8
APS_GEOMETRY
 10
16.334554
 20
304.39686
 40
0.142604
 50
86.361717
 51
167.634184
  0
LINE
  8
APS_GEOMETRY
 10
16.343603
 11
101.687189
 20
304.539177
 21
299.112561
  0
LINE
  8
APS_GEOMETRY
 10
101.687189
 11
122.940361
 20
299.112561
 21
247.3891
  0
LINE
  8
APS_GEOMETRY
 10
122.940361
 11
130.582153
 20
247.3891
 21
228.757493
  0
LINE
  8
APS_GEOMETRY
 10
130.582153
 11
125.644124
 20
228.757493
 21
228.835183
  0
LINE
  8
APS_GEOMETRY
 10
142.635328
 11
160.25787
 20
228.764307
 21
240.015889
  0
LINE
  8
APS_GEOMETRY
 10
160.25787
 11
165.557355
 20
240.015889
 21
243.415596
  0
LINE
  8
APS_GEOMETRY
 10
165.557355
 11
175.714065
 20
243.415596
 21
243.415596
  0
LINE
  8
APS_GEOMETRY
 10
175.714065
 11
156.348005
 20
243.415596
 21
228.757493
  0
LINE
  8
APS_GEOMETRY
 10
156.348005
 11
142.635328
 20
228.757493
 21
228.764307
  0
LINE
  8
APS_GEOMETRY
 10
148.931514
 11
134.56637
 20
258.948801
 21
254.14158
  0
LINE
  8
APS_GEOMETRY
 10
134.56637
 11
134.162808
 20
254.14158
 21
254.107216
  0
LINE
  8
APS_GEOMETRY
 10
134.162808
 11
133.005761
 20
254.107216
 21
267.992402
  0
ARC
  8
APS_GEOMETRY
 10
167.400274
 20
313.757831
 40
57.249079
 50
233.073703
 51
239.663626
  0
ARC
  8
APS_GEOMETRY
 10
173.733566
 20
324.580183
 40
69.788372
 50
239.663626
 51
246.20866
  0
LINE
  8
APS_GEOMETRY
 10
145.580449
 11
148.931514
 20
260.722381
 21
259.325026
  0
LINE
  8
APS_GEOMETRY
 10
148.931514
 11
148.931514
 20
259.325026
 21
258.948801
  0
LINE
  8
APS_GEOMETRY
 10
182.894752
 11
195.050207
 20
228.757493
 21
243.415596
  0
LINE
  8
APS_GEOMETRY
 10
195.050207
 11
199.412141
 20
243.415596
 21
243.415596
  0
LINE
  8
APS_GEOMETRY
 10
199.412141
 11
188.997207
 20
243.415596
 21
228.757493
  0
LINE
  8
APS_GEOMETRY
 10
188.997207
 11
182.894752
 20
228.757493
 21
228.757493
  0
LINE
  8
APS_GEOMETRY
 10
189.694456
 11
175.589512
 20
243.415596
 21
228.757493
  0
LINE
  8
APS_GEOMETRY
 10
175.589512
 11
167.024096
 20
228.757493
 21
228.757493
  0
LINE
  8
APS_GEOMETRY
 10
167.024096
 11
183.513851
 20
228.757493
 21
243.415596
  0
LINE
  8
APS_GEOMETRY
 10
183.513851
 11
189.694456
 20
243.415596
 21
243.415596
  0
LINE
  8
APS_GEOMETRY
 10
133.26085
 11
132.572559
 20
233.530929
 21
233.165883
  0
LINE
  8
APS_GEOMETRY
 10
132.572559
 11
151.818543
 20
233.165883
 21
243.373289
  0
LINE
  8
APS_GEOMETRY
 10
151.818543
 11
148.931514
 20
243.373289
 21
243.373289
  0
LINE
  8
APS_GEOMETRY
 10
148.931514
 11
148.931514
 20
243.373289
 21
250.509861
  0
LINE
  8
APS_GEOMETRY
 10
148.931514
 11
132.984523
 20
250.509861
 21
243.656053
  0
LINE
  8
APS_GEOMETRY
 10
132.984523
 11
132.723814
 20
243.656053
 21
244.403647
  0
LINE
  8
APS_GEOMETRY
 10
132.723814
 11
127.471773
 20
244.403647
 21
272.79856
  0
ARC
  8
APS_GEOMETRY
 10
163.868658
 20
309.119557
 40
51.419336
 50
218.357505
 51
224.940207
  0
ARC
  8
APS_GEOMETRY
 10
160.904625
 20
306.773871
 40
47.639424
 50
204.812117
 51
218.357505
  0
ARC
  8
APS_GEOMETRY
 10
163.847665
 20
308.134502
 40
50.881769
 50
193.273776
 51
204.812117
  0
ARC
  8
APS_GEOMETRY
 10
173.527751
 20
310.418099
 40
60.827566
 50
184.037816
 51
193.273776
  0
ARC
  8
APS_GEOMETRY
 10
183.030538
 20
311.088902
 40
70.353999
 50
171.208787
 51
184.037816
  0
ARC
  8
APS_GEOMETRY
 10
157.627485
 20
315.017513
 40
44.64896
 50
162.343699
 51
171.208787
  0
LINE
  8
APS_GEOMETRY
 10
115.0818
 11
114.440714
 20
328.559828
 21
328.679996
  0
LINE
  8
APS_GEOMETRY
 10
114.440714
 11
98.72884
 20
328.679996
 21
331.86949
  0
LINE
  8
APS_GEOMETRY
 10
98.72884
 11
30.16235
 20
331.86949
 21
345.764382
  0
LINE
  8
APS_GEOMETRY
 10
30.16235
 11
29.887994
 20
345.764382
 21
345.619849
  0
LINE
  8
APS_GEOMETRY
 10
29.887994
 11
22.180235
 20
345.619849
 21
325.492624
  0
LINE
  8
APS_GEOMETRY
 10
22.180235
 11
43.328859
 20
325.492624
 21
322.666752
  0
LINE
  8
APS_GEOMETRY
 10
43.328859
 11
108.828749
 20
322.666752
 21
313.96263
  0
LINE
  8
APS_GEOMETRY
 10
108.828749
 11
109.918206
 20
313.96263
 21
310.251317
  0
LINE
  8
APS_GEOMETRY
 10
109.918206
 11
112.966109
 20
310.251317
 21
299.805742
  0
LINE
  8
APS_GEOMETRY
 10
112.966109
 11
116.339535
 20
299.805742
 21
288.327056
  0
LINE
  8
APS_GEOMETRY
 10
116.339535
 11
121.086235
 20
288.327056
 21
272.119892
  0
LINE
  8
APS_GEOMETRY
 10
121.086235
 11
132.572559
 20
272.119892
 21
233.165883
  0
LINE
  8
APS_GEOMETRY
 10
214.779544
 11
228.47664
 20
357.41519
 21
370.649488
  0
LINE
  8
APS_GEOMETRY
 10
228.47664
 11
228.203724
 20
370.649488
 21
362.441855
  0
LINE
  8
APS_GEOMETRY
 10
228.203724
 11
222.232537
 20
362.441855
 21
357.556838
  0
LINE
  8
APS_GEOMETRY
 10
222.232537
 11
214.779544
 20
357.556838
 21
357.41519
  0
LINE
  8
APS_GEOMETRY
 10
205.191455
 11
192.580529
 20
327.881019
 21
335.967153
  0
LINE
  8
APS_GEOMETRY
 10
192.580529
 11
205.191455
 20
335.967153
 21
348.151914
  0
LINE
  8
APS_GEOMETRY
 10
205.191455
 11
205.191455
 20
348.151914
 21
343.61369
  0
LINE
  8
APS_GEOMETRY
 10
205.191455
 11
202.327972
 20
343.61369
 21
341.271007
  0
LINE
  8
APS_GEOMETRY
 10
202.327972
 11
205.191455
 20
341.271007
 21
338.775686
  0
LINE
  8
APS_GEOMETRY
 10
205.191455
 11
205.191455
 20
338.775686
 21
327.881019
  0
LINE
  8
APS_GEOMETRY
 10
207.035929
 11
228.47664
 20
357.268658
 21
381.55573
  0
LINE
  8
APS_GEOMETRY
 10
228.47664
 11
228.47664
 20
381.55573
 21
383.535162
  0
LINE
  8
APS_GEOMETRY
 10
228.47664
 11
230.224157
 20
383.535162
 21
383.535162
  0
LINE
  8
APS_GEOMETRY
 10
230.224157
 11
243.545032
 20
383.535162
 21
398.623703
  0
LINE
  8
APS_GEOMETRY
 10
243.545032
 11
230.285091
 20
398.623703
 21
398.623703
  0
LINE
  8
APS_GEOMETRY
 10
230.285091
 11
175.567533
 20
398.623703
 21
324.913131
  0
LINE
  8
APS_GEOMETRY
 10
175.567533
 11
205.191455
 20
324.913131
 21
312.54032
  0
LINE
  8
APS_GEOMETRY
 10
205.191455
 11
205.191455
 20
312.54032
 21
319.74604
  0
LINE
  8
APS_GEOMETRY
 10
205.191455
 11
183.986417
 20
319.74604
 21
331.160287
  0
LINE
  8
APS_GEOMETRY
 10
183.986417
 11
205.191455
 20
331.160287
 21
355.179407
  0
LINE
  8
APS_GEOMETRY
 10
205.191455
 11
205.191455
 20
355.179407
 21
357.41519
  0
LINE
  8
APS_GEOMETRY
 10
205.191455
 11
207.165288
 20
357.41519
 21
357.41519
  0
LINE
  8
APS_GEOMETRY
 10
162.691203
 11
160.561985
 20
314.494532
 21
310.311356
  0
LINE
  8
APS_GEOMETRY
 10
160.561985
 11
163.042632
 20
310.311356
 21
309.793275
  0
LINE
  8
APS_GEOMETRY
 10
163.042632
 11
162.691203
 20
309.793275
 21
314.494532
  0
LINE
  8
APS_GEOMETRY
 10
205.191455
 11
167.742104
 20
305.604464
 21
317.935147
  0
LINE
  8
APS_GEOMETRY
 10
167.742104
 11
220.233594
 20
317.935147
 21
404.039899
  0
LINE
  8
APS_GEOMETRY
 10
220.233594
 11
215.031091
 20
404.039899
 21
408.716107
  0
LINE
  8
APS_GEOMETRY
 10
215.031091
 11
191.819164
 20
408.716107
 21
409.824947
  0
LINE
  8
APS_GEOMETRY
 10
191.819164
 11
205.695024
 20
409.824947
 21
399.08237
  0
LINE
  8
APS_GEOMETRY
 10
205.695024
 11
205.066036
 20
399.08237
 21
397.77158
  0
LINE
  8
APS_GEOMETRY
 10
205.066036
 11
190.041041
 20
397.77158
 21
368.227471
  0
LINE
  8
APS_GEOMETRY
 10
190.041041
 11
163.095141
 20
368.227471
 21
315.288129
  0
LINE
  8
APS_GEOMETRY
 10
163.095141
 11
172.095343
 20
315.288129
 21
313.651255
  0
ARC
  8
APS_GEOMETRY
 10
172.086383
 20
313.601993
 40
0.050071
 50
35.587947
 51
79.692232
  0
ARC
  8
APS_GEOMETRY
 10
157.148386
 20
302.912189
 40
18.418948
 50
32.418892
 51
35.587947
  0
ARC
  8
APS_GEOMETRY
 10
153.332791
 20
300.488974
 40
22.938985
 50
24.679102
 51
32.418892
  0
ARC
  8
APS_GEOMETRY
 10
148.708672
 20
298.36416
 40
28.027926
 50
18.449594
 51
24.679102
  0
LINE
  8
APS_GEOMETRY
 10
175.29603
 11
205.191455
 20
307.234164
 21
300.990532
  0
LINE
  8
APS_GEOMETRY
 10
205.191455
 11
205.191455
 20
300.990532
 21
305.604464
  0
LINE
  8
APS_GEOMETRY
 10
176.160789
 11
205.191455
 20
292.588509
 21
291.929348
  0
LINE
  8
APS_GEOMETRY
 10
205.191455
 11
205.191455
 20
291.929348
 21
296.22152
  0
LINE
  8
APS_GEOMETRY
 10
205.191455
 11
176.625433
 20
296.22152
 21
299.466922
  0
ARC
  8
APS_GEOMETRY
 10
136.899439
 20
298.695558
 40
39.733482
 50
351.158573
 51
1.112378
  0
LINE
  8
APS_GEOMETRY
 10
174.629955
 11
173.000837
 20
280.496641
 21
280.497285
  0
ARC
  8
APS_GEOMETRY
 10
169.229128
 20
283.049033
 40
4.553812
 50
325.919698
 51
342.316038
  0
ARC
  8
APS_GEOMETRY
 10
102.685588
 20
304.265264
 40
74.397718
 50
342.316038
 51
345.790159
  0
LINE
  8
APS_GEOMETRY
 10
174.806974
 11
205.191455
 20
286.002567
 21
288.012054
  0
LINE
  8
APS_GEOMETRY
 10
205.191455
 11
205.191455
 20
288.012054
 21
285.931908
  0
LINE
  8
APS_GEOMETRY
 10
205.191455
 11
203.757271
 20
285.931908
 21
284.166195
  0
LINE
  8
APS_GEOMETRY
 10
203.757271
 11
181.511855
 20
284.166195
 21
280.733068
  0
LINE
  8
APS_GEOMETRY
 10
181.511855
 11
174.629955
 20
280.733068
 21
280.496641
  0
LINE
  8
APS_GEOMETRY
 10
141.339088
 11
149.554777
 20
290.622807
 21
365.300095
  0
LINE
  8
APS_GEOMETRY
 10
149.554777
 11
85.488995
 20
365.300095
 21
392.334296
  0
LINE
  8
APS_GEOMETRY
 10
85.488995
 11
63.869855
 20
392.334296
 21
401.462139
  0
LINE
  8
APS_GEOMETRY
 10
63.869855
 11
74.958883
 20
401.462139
 21
413.879238
  0
LINE
  8
APS_GEOMETRY
 10
74.958883
 11
78.503796
 20
413.879238
 21
417.656053
  0
LINE
  8
APS_GEOMETRY
 10
78.503796
 11
162.384481
 20
417.656053
 21
375.611168
  0
LINE
  8
APS_GEOMETRY
 10
162.384481
 11
149.281012
 20
375.611168
 21
311.767408
  0
LINE
  8
APS_GEOMETRY
 10
149.281012
 11
144.836432
 20
311.767408
 21
289.552935
  0
ARC
  8
APS_GEOMETRY
 10
150.685152
 20
314.923268
 40
26.03577
 50
248.963038
 51
257.018189
  0
LINE
  8
APS_GEOMETRY
 10
136.870075
 11
137.025305
 20
293.207422
 21
307.892614
  0
LINE
  8
APS_GEOMETRY
 10
137.025305
 11
137.683462
 20
307.892614
 21
353.891866
  0
LINE
  8
APS_GEOMETRY
 10
137.683462
 11
114.87903
 20
353.891866
 21
361.790346
  0
LINE
  8
APS_GEOMETRY
 10
114.87903
 11
50.884146
 20
361.790346
 21
383.946152
  0
LINE
  8
APS_GEOMETRY
 10
50.884146
 11
39.565115
 20
383.946152
 21
365.370503
  0
LINE
  8
APS_GEOMETRY
 10
39.565115
 11
60.515336
 20
365.370503
 21
359.617839
  0
LINE
  8
APS_GEOMETRY
 10
60.515336
 11
126.872635
 20
359.617839
 21
341.46856
  0
LINE
  8
APS_GEOMETRY
 10
126.872635
 11
127.722189
 20
341.46856
 21
331.392944
  0
LINE
  8
APS_GEOMETRY
 10
127.722189
 11
129.920887
 20
331.392944
 21
304.37334
  0
ARC
  8
APS_GEOMETRY
 10
173.123704
 20
318.245013
 40
45.375177
 50
197.80092
 51
202.346104
  0
ARC
  8
APS_GEOMETRY
 10
149.71395
 20
308.62321
 40
20.065186
 50
202.349405
 51
230.200166
  0
LINE
  8
APS_GEOMETRY
 10
191.819164
 11
147.668194
 20
409.824947
 21
444.006262
  0
LINE
  8
APS_GEOMETRY
 10
147.668194
 11
129.970071
 20
444.006262
 21
457.748641
  0
LINE
  8
APS_GEOMETRY
 10
129.970071
 11
149.186731
 20
457.748641
 21
467.711131
  0
LINE
  8
APS_GEOMETRY
 10
149.186731
 11
149.517816
 20
467.711131
 21
467.600627
  0
LINE
  8
APS_GEOMETRY
 10
149.517816
 11
191.309051
 20
467.600627
 21
430.037808
  0
LINE
  8
APS_GEOMETRY
 10
191.309051
 11
202.034908
 20
430.037808
 21
420.538696
  0
LINE
  8
APS_GEOMETRY
 10
202.034908
 11
191.819164
 20
420.538696
 21
409.824947
  0
LINE
  8
APS_GEOMETRY
 10
148.750231
 11
160.919693
 20
293.211114
 21
292.934904
  0
ARC
  8
APS_GEOMETRY
 10
151.481552
 20
302.280905
 40
13.282554
 50
315.281048
 51
331.45812
  0
ARC
  8
APS_GEOMETRY
 10
158.051827
 20
298.707316
 40
5.803313
 50
331.45812
 51
23.081938
  0
LINE
  8
APS_GEOMETRY
 10
163.390556
 11
161.009805
 20
300.982488
 21
301.241051
  0
LINE
  8
APS_GEOMETRY
 10
161.009805
 11
154.123584
 20
301.241051
 21
302.023397
  0
LINE
  8
APS_GEOMETRY
 10
154.123584
 11
163.401887
 20
302.023397
 21
325.055
  0
LINE
  8
APS_GEOMETRY
 10
163.401887
 11
190.592877
 20
325.055
 21
392.555286
  0
LINE
  8
APS_GEOMETRY
 10
190.592877
 11
111.703123
 20
392.555286
 21
445.874639
  0
LINE
  8
APS_GEOMETRY
 10
111.703123
 11
111.382355
 20
445.874639
 21
445.837268
  0
LINE
  8
APS_GEOMETRY
 10
111.382355
 11
94.333217
 20
445.837268
 21
432.603407
  0
LINE
  8
APS_GEOMETRY
 10
94.333217
 11
114.628228
 20
432.603407
 21
420.711263
  0
LINE
  8
APS_GEOMETRY
 10
114.628228
 11
176.120081
 20
420.711263
 21
384.712304
  0
LINE
  8
APS_GEOMETRY
 10
176.120081
 11
168.788741
 20
384.712304
 21
360.48174
  0
LINE
  8
APS_GEOMETRY
 10
168.788741
 11
148.442626
 20
360.48174
 21
293.218095
  0
LINE
  8
APS_GEOMETRY
 10
212.611881
 11
181.590457
 20
431.632076
 21
463.615671
  0
LINE
  8
APS_GEOMETRY
 10
181.590457
 11
169.557968
 20
463.615671
 21
476.007413
  0
LINE
  8
APS_GEOMETRY
 10
169.557968
 11
184.945362
 20
476.007413
 21
480.723089
  0
LINE
  8
APS_GEOMETRY
 10
184.945362
 11
190.434691
 20
480.723089
 21
482.3977
  0
LINE
  8
APS_GEOMETRY
 10
190.434691
 11
215.910923
 20
482.3977
 21
453.314486
  0
LINE
  8
APS_GEOMETRY
 10
215.910923
 11
224.231993
 20
453.314486
 21
443.819099
  0
LINE
  8
APS_GEOMETRY
 10
224.231993
 11
212.611881
 20
443.819099
 21
431.632076
  0
LINE
  8
APS_GEOMETRY
 10
241.81351
 11
252.186768
 20
383.535162
 21
393.557353
  0
LINE
  8
APS_GEOMETRY
 10
252.186768
 11
252.186768
 20
393.557353
 21
383.535162
  0
LINE
  8
APS_GEOMETRY
 10
252.186768
 11
241.81351
 20
383.535162
 21
383.535162
  0
LINE
  8
APS_GEOMETRY
 10
242.427683
 11
221.337221
 20
446.911551
 21
474.472957
  0
LINE
  8
APS_GEOMETRY
 10
221.337221
 11
211.925105
 20
474.472957
 21
486.719679
  0
LINE
  8
APS_GEOMETRY
 10
211.925105
 11
211.833833
 20
486.719679
 21
486.846496
  0
LINE
  8
APS_GEOMETRY
 10
211.833833
 11
228.422141
 20
486.846496
 21
488.744874
  0
LINE
  8
APS_GEOMETRY
 10
228.422141
 11
233.587527
 20
488.744874
 21
489.271389
  0
LINE
  8
APS_GEOMETRY
 10
233.587527
 11
255.749106
 20
489.271389
 21
456.241761
  0
LINE
  8
APS_GEOMETRY
 10
255.749106
 11
262.072878
 20
456.241761
 21
446.911551
  0
LINE
  8
APS_GEOMETRY
 10
262.072878
 11
242.427683
 20
446.911551
 21
446.911551
  0
LINE
  8
APS_GEOMETRY
 10
297.182792
 11
334.674591
 20
381.248602
 21
399.40096
  0
LINE
  8
APS_GEOMETRY
 10
334.674591
 11
307.952027
 20
399.40096
 21
463.116511
  0
LINE
  8
APS_GEOMETRY
 10
307.952027
 11
298.836708
 20
463.116511
 21
484.856291
  0
LINE
  8
APS_GEOMETRY
 10
298.836708
 11
314.990607
 20
484.856291
 21
480.717116
  0
LINE
  8
APS_GEOMETRY
 10
314.990607
 11
320.073657
 20
480.717116
 21
479.318427
  0
LINE
  8
APS_GEOMETRY
 10
320.073657
 11
349.826784
 20
479.318427
 21
392.992656
  0
LINE
  8
APS_GEOMETRY
 10
349.826784
 11
310.82093
 20
392.992656
 21
377.644594
  0
LINE
  8
APS_GEOMETRY
 10
310.82093
 11
297.067131
 20
377.644594
 21
372.241578
  0
LINE
  8
APS_GEOMETRY
 10
297.067131
 11
297.182792
 20
372.241578
 21
381.248602
  0
LINE
  8
APS_GEOMETRY
 10
299.460706
 11
390.988471
 20
352.250768
 21
365.932376
  0
LINE
  8
APS_GEOMETRY
 10
390.988471
 11
382.519861
 20
365.932376
 21
429.325821
  0
LINE
  8
APS_GEOMETRY
 10
382.519861
 11
379.490394
 20
429.325821
 21
451.915533
  0
LINE
  8
APS_GEOMETRY
 10
379.490394
 11
392.968363
 20
451.915533
 21
442.376846
  0
LINE
  8
APS_GEOMETRY
 10
392.968363
 11
397.372912
 20
442.376846
 21
439.2122
  0
LINE
  8
APS_GEOMETRY
 10
397.372912
 11
402.947241
 20
439.2122
 21
354.652151
  0
LINE
  8
APS_GEOMETRY
 10
402.947241
 11
327.531523
 20
354.652151
 21
348.991604
  0
LINE
  8
APS_GEOMETRY
 10
327.531523
 11
299.77611
 20
348.991604
 21
346.931037
  0
LINE
  8
APS_GEOMETRY
 10
299.77611
 11
299.460706
 20
346.931037
 21
352.250768
  0
LINE
  8
APS_GEOMETRY
 10
278.91668
 11
295.636002
 20
358.923861
 21
364.067141
  0
LINE
  8
APS_GEOMETRY
 10
295.636002
 11
297.074415
 20
364.067141
 21
364.509538
  0
LINE
  8
APS_GEOMETRY
 10
297.074415
 11
364.315141
 20
364.509538
 21
385.194067
  0
LINE
  8
APS_GEOMETRY
 10
364.315141
 11
346.986968
 20
385.194067
 21
448.890497
  0
LINE
  8
APS_GEOMETRY
 10
346.986968
 11
340.663072
 20
448.890497
 21
472.079039
  0
LINE
  8
APS_GEOMETRY
 10
340.663072
 11
355.56153
 20
472.079039
 21
465.18789
  0
LINE
  8
APS_GEOMETRY
 10
355.56153
 11
360.54137
 20
465.18789
 21
462.856328
  0
LINE
  8
APS_GEOMETRY
 10
360.54137
 11
378.101872
 20
462.856328
 21
376.261624
  0
LINE
  8
APS_GEOMETRY
 10
378.101872
 11
312.806215
 20
376.261624
 21
360.529465
  0
LINE
  8
APS_GEOMETRY
 10
312.806215
 11
288.7949
 20
360.529465
 21
354.779069
  0
LINE
  8
APS_GEOMETRY
 10
288.7949
 11
280.178092
 20
354.779069
 21
354.782223
  0
LINE
  8
APS_GEOMETRY
 10
280.178092
 11
278.91668
 20
354.782223
 21
354.882638
  0
LINE
  8
APS_GEOMETRY
 10
278.91668
 11
278.91668
 20
354.882638
 21
358.923861
  0
LINE
  8
APS_GEOMETRY
 10
307.942057
 11
319.005442
 20
426.664221
 21
404.448357
  0
LINE
  8
APS_GEOMETRY
 10
319.005442
 11
302.587908
 20
404.448357
 21
394.868096
  0
LINE
  8
APS_GEOMETRY
 10
302.587908
 11
297.167238
 20
394.868096
 21
391.700065
  0
LINE
  8
APS_GEOMETRY
 10
297.167238
 11
297.233202
 20
391.700065
 21
404.10828
  0
LINE
  8
APS_GEOMETRY
 10
297.233202
 11
302.943073
 20
404.10828
 21
408.070144
  0
LINE
  8
APS_GEOMETRY
 10
302.943073
 11
297.304026
 20
408.070144
 21
417.770574
  0
LINE
  8
APS_GEOMETRY
 10
297.304026
 11
297.855774
 20
417.770574
 21
446.911551
  0
LINE
  8
APS_GEOMETRY
 10
297.855774
 11
307.942057
 20
446.911551
 21
426.664221
  0
LINE
  8
APS_GEOMETRY
 10
262.868997
 11
255.455262
 20
477.000143
 21
489.751695
  0
LINE
  8
APS_GEOMETRY
 10
255.455262
 11
271.082248
 20
489.751695
 21
488.756433
  0
LINE
  8
APS_GEOMETRY
 10
271.082248
 11
277.220195
 20
488.756433
 21
488.335673
  0
LINE
  8
APS_GEOMETRY
 10
277.220195
 11
297.855774
 20
488.335673
 21
446.911551
  0
LINE
  8
APS_GEOMETRY
 10
297.855774
 11
280.286972
 20
446.911551
 21
446.911551
  0
LINE
  8
APS_GEOMETRY
 10
280.286972
 11
262.868997
 20
446.911551
 21
477.000143
  0
LINE
  8
APS_GEOMETRY
 10
432.01807
 11
442.026606
 20
107.077998
 21
109.23171
  0
LINE
  8
APS_GEOMETRY
 10
442.026606
 11
444.701581
 20
109.23171
 21
109.746393
  0
LINE
  8
APS_GEOMETRY
 10
444.701581
 11
434.372593
 20
109.746393
 21
96.630048
  0
LINE
  8
APS_GEOMETRY
 10
434.372593
 11
431.779636
 20
96.630048
 21
93.36106
  0
LINE
  8
APS_GEOMETRY
 10
431.779636
 11
429.260654
 20
93.36106
 21
93.121493
  0
ARC
  8
APS_GEOMETRY
 10
400.499167
 20
106.054607
 40
31.535512
 50
335.788086
 51
1.859692
  0
LINE
  8
APS_GEOMETRY
 10
431.083068
 11
458.377215
 20
129.954195
 21
142.443823
  0
LINE
  8
APS_GEOMETRY
 10
458.377215
 11
466.234325
 20
142.443823
 21
145.998837
  0
LINE
  8
APS_GEOMETRY
 10
466.234325
 11
458.359501
 20
145.998837
 21
131.298332
  0
LINE
  8
APS_GEOMETRY
 10
458.359501
 11
456.148387
 20
131.298332
 21
127.374851
  0
LINE
  8
APS_GEOMETRY
 10
456.148387
 11
432.42818
 20
127.374851
 21
119.428945
  0
ARC
  8
APS_GEOMETRY
 10
101.58391
 20
82.4961
 40
332.899333
 50
6.369677
 51
8.196004
  0
LINE
  8
APS_GEOMETRY
 10
431.69942
 11
431.890774
 20
165.227828
 21
150.594339
  0
LINE
  8
APS_GEOMETRY
 10
431.890774
 11
431.890774
 20
150.594339
 21
143.298198
  0
LINE
  8
APS_GEOMETRY
 10
431.890774
 11
430.780824
 20
143.298198
 21
143.297265
  0
LINE
  8
APS_GEOMETRY
 10
430.780824
 11
430.993597
 20
143.297265
 21
143.00514
  0
LINE
  8
APS_GEOMETRY
 10
430.993597
 11
432.465913
 20
143.00514
 21
140.904827
  0
LINE
  8
APS_GEOMETRY
 10
432.465913
 11
442.325697
 20
140.904827
 21
146.676856
  0
LINE
  8
APS_GEOMETRY
 10
442.325697
 11
474.585628
 20
146.676856
 21
165.582337
  0
LINE
  8
APS_GEOMETRY
 10
474.585628
 11
476.253709
 20
165.582337
 21
170.670756
  0
LINE
  8
APS_GEOMETRY
 10
476.253709
 11
481.205272
 20
170.670756
 21
185.886841
  0
LINE
  8
APS_GEOMETRY
 10
481.205272
 11
470.093311
 20
185.886841
 21
177.843609
  0
LINE
  8
APS_GEOMETRY
 10
470.093311
 11
439.57111
 20
177.843609
 21
155.759562
  0
LINE
  8
APS_GEOMETRY
 10
439.57111
 11
431.69942
 20
155.759562
 21
165.227828
  0
LINE
  8
APS_GEOMETRY
 10
408.160453
 11
452.552244
 20
237.746347
 21
203.279756
  0
LINE
  8
APS_GEOMETRY
 10
452.552244
 11
452.709723
 20
203.279756
 21
203.467747
  0
LINE
  8
APS_GEOMETRY
 10
452.709723
 11
489.776557
 20
203.467747
 21
249.545892
  0
LINE
  8
APS_GEOMETRY
 10
489.776557
 11
489.858591
 20
249.545892
 21
250.774705
  0
LINE
  8
APS_GEOMETRY
 10
489.858591
 11
488.947497
 20
250.774705
 21
271.331701
  0
LINE
  8
APS_GEOMETRY
 10
488.947497
 11
480.697937
 20
271.331701
 21
259.166378
  0
LINE
  8
APS_GEOMETRY
 10
480.697937
 11
454.001267
 20
259.166378
 21
219.692146
  0
LINE
  8
APS_GEOMETRY
 10
454.001267
 11
453.802383
 20
219.692146
 21
219.802726
  0
LINE
  8
APS_GEOMETRY
 10
453.802383
 11
435.385958
 20
219.802726
 21
231.851162
  0
LINE
  8
APS_GEOMETRY
 10
435.385958
 11
393.939317
 20
231.851162
 21
259.024934
  0
LINE
  8
APS_GEOMETRY
 10
393.939317
 11
393.981115
 20
259.024934
 21
248.745425
  0
LINE
  8
APS_GEOMETRY
 10
393.981115
 11
408.160453
 20
248.745425
 21
237.746347
  0
LINE
  8
APS_GEOMETRY
 10
388.048336
 11
387.963407
 20
236.09093
 21
235.688524
  0
ARC
  8
APS_GEOMETRY
 10
301.567252
 20
244.845154
 40
86.880029
 50
352.295708
 51
353.950136
  0
ARC
  8
APS_GEOMETRY
 10
251.477423
 20
252.690355
 40
137.573514
 50
351.246674
 51
351.854524
  0
LINE
  8
APS_GEOMETRY
 10
387.448575
 11
402.178374
 20
231.754314
 21
216.392858
  0
LINE
  8
APS_GEOMETRY
 10
402.178374
 11
445.321298
 20
216.392858
 21
171.187339
  0
LINE
  8
APS_GEOMETRY
 10
445.321298
 11
485.923397
 20
171.187339
 21
206.719355
  0
LINE
  8
APS_GEOMETRY
 10
485.923397
 11
486.569927
 20
206.719355
 21
211.576981
  0
LINE
  8
APS_GEOMETRY
 10
486.569927
 11
488.461437
 20
211.576981
 21
227.436426
  0
LINE
  8
APS_GEOMETRY
 10
488.461437
 11
478.830965
 20
227.436426
 21
217.42311
  0
LINE
  8
APS_GEOMETRY
 10
478.830965
 11
449.65964
 20
217.42311
 21
187.066645
  0
LINE
  8
APS_GEOMETRY
 10
449.65964
 11
394.171659
 20
187.066645
 21
237.156731
  0
LINE
  8
APS_GEOMETRY
 10
394.171659
 11
393.900928
 20
237.156731
 21
236.479503
  0
LINE
  8
APS_GEOMETRY
 10
393.900928
 11
388.037694
 20
236.479503
 21
236.062056
  0
LINE
  8
APS_GEOMETRY
 10
393.672553
 11
413.734717
 20
342.216761
 21
342.21979
  0
LINE
  8
APS_GEOMETRY
 10
413.734717
 11
413.959118
 20
342.21979
 21
400.273116
  0
LINE
  8
APS_GEOMETRY
 10
413.959118
 11
414.018979
 20
400.273116
 21
424.876123
  0
LINE
  8
APS_GEOMETRY
 10
414.018979
 11
424.995708
 20
424.876123
 21
413.760384
  0
LINE
  8
APS_GEOMETRY
 10
424.995708
 11
429.294332
 20
413.760384
 21
409.347382
  0
LINE
  8
APS_GEOMETRY
 10
429.294332
 11
425.059734
 20
409.347382
 21
350.221087
  0
LINE
  8
APS_GEOMETRY
 10
425.059734
 11
423.531731
 20
350.221087
 21
328.92445
  0
LINE
  8
APS_GEOMETRY
 10
423.531731
 11
401.06457
 20
328.92445
 21
330.578229
  0
LINE
  8
APS_GEOMETRY
 10
401.06457
 11
393.646513
 20
330.578229
 21
331.119316
  0
LINE
  8
APS_GEOMETRY
 10
393.646513
 11
393.672553
 20
331.119316
 21
342.216761
  0
LINE
  8
APS_GEOMETRY
 10
393.761109
 11
432.009763
 20
320.469469
 21
314.810721
  0
LINE
  8
APS_GEOMETRY
 10
432.009763
 11
440.267233
 20
314.810721
 21
372.606394
  0
LINE
  8
APS_GEOMETRY
 10
440.267233
 11
443.086226
 20
372.606394
 21
392.32439
  0
LINE
  8
APS_GEOMETRY
 10
443.086226
 11
452.35902
 20
392.32439
 21
378.467294
  0
LINE
  8
APS_GEOMETRY
 10
452.35902
 11
455.236339
 20
378.467294
 21
374.047646
  0
LINE
  8
APS_GEOMETRY
 10
455.236339
 11
439.20023
 20
374.047646
 21
300.015982
  0
LINE
  8
APS_GEOMETRY
 10
439.20023
 11
405.58214
 20
300.015982
 21
307.516614
  0
LINE
  8
APS_GEOMETRY
 10
405.58214
 11
393.731971
 20
307.516614
 21
310.167425
  0
LINE
  8
APS_GEOMETRY
 10
393.731971
 11
393.761109
 20
310.167425
 21
320.469469
  0
LINE
  8
APS_GEOMETRY
 10
393.853923
 11
435.044927
 20
280.124902
 21
260.714467
  0
LINE
  8
APS_GEOMETRY
 10
435.044927
 11
452.334078
 20
260.714467
 21
252.583134
  0
LINE
  8
APS_GEOMETRY
 10
452.334078
 11
473.123929
 20
252.583134
 21
296.909706
  0
LINE
  8
APS_GEOMETRY
 10
473.123929
 11
481.146498
 20
296.909706
 21
314.110693
  0
LINE
  8
APS_GEOMETRY
 10
481.146498
 11
485.769724
 20
314.110693
 21
298.549838
  0
LINE
  8
APS_GEOMETRY
 10
485.769724
 11
487.413412
 20
298.549838
 21
292.996175
  0
LINE
  8
APS_GEOMETRY
 10
487.413412
 11
462.184334
 20
292.996175
 21
250.140893
  0
LINE
  8
APS_GEOMETRY
 10
462.184334
 11
453.910417
 20
250.140893
 21
236.165556
  0
LINE
  8
APS_GEOMETRY
 10
453.910417
 11
407.705271
 20
236.165556
 21
261.275169
  0
LINE
  8
APS_GEOMETRY
 10
407.705271
 11
393.899345
 20
261.275169
 21
268.757474
  0
LINE
  8
APS_GEOMETRY
 10
393.899345
 11
393.853923
 20
268.757474
 21
280.124902
  0
LINE
  8
APS_GEOMETRY
 10
393.810632
 11
444.991778
 20
300.060436
 21
284.605118
  0
LINE
  8
APS_GEOMETRY
 10
444.991778
 11
460.19025
 20
284.605118
 21
336.155444
  0
LINE
  8
APS_GEOMETRY
 10
460.19025
 11
465.71331
 20
336.155444
 21
354.929123
  0
LINE
  8
APS_GEOMETRY
 10
465.71331
 11
472.202432
 20
354.929123
 21
339.890022
  0
LINE
  8
APS_GEOMETRY
 10
472.202432
 11
474.35975
 20
339.890022
 21
334.84582
  0
LINE
  8
APS_GEOMETRY
 10
474.35975
 11
455.275686
 20
334.84582
 21
284.205872
  0
LINE
  8
APS_GEOMETRY
 10
455.275686
 11
449.35448
 20
284.205872
 21
268.767935
  0
LINE
  8
APS_GEOMETRY
 10
449.35448
 11
405.938799
 20
268.767935
 21
285.428449
  0
LINE
  8
APS_GEOMETRY
 10
405.938799
 11
393.81272
 20
285.428449
 21
290.044025
  0
LINE
  8
APS_GEOMETRY
 10
393.81272
 11
393.810632
 20
290.044025
 21
300.060436
  0
LINE
  8
APS_GEOMETRY
 10
379.237368
 11
399.196176
 20
202.340875
 21
168.681741
  0
LINE
  8
APS_GEOMETRY
 10
399.196176
 11
386.666677
 20
168.681741
 21
168.681741
  0
LINE
  8
APS_GEOMETRY
 10
386.666677
 11
374.033819
 20
168.681741
 21
193.84741
  0
ARC
  8
APS_GEOMETRY
 10
338.575531
 20
221.324484
 40
44.858441
 50
322.227444
 51
332.360289
  0
ARC
  8
APS_GEOMETRY
 10
316.796533
 20
232.729497
 40
69.442971
 50
332.360289
 51
334.048801
  0
LINE
  8
APS_GEOMETRY
 10
411.680941
 11
382.933958
 20
170.55369
 21
211.559537
  0
ARC
  8
APS_GEOMETRY
 10
316.796533
 20
232.729497
 40
69.442971
 50
342.250627
 51
344.061624
  0
ARC
  8
APS_GEOMETRY
 10
249.425463
 20
251.969446
 40
139.507489
 50
344.061624
 51
347.129262
  0
LINE
  8
APS_GEOMETRY
 10
385.427838
 11
417.983238
 20
220.893839
 21
181.729541
  0
LINE
  8
APS_GEOMETRY
 10
417.983238
 11
427.286666
 20
181.729541
 21
170.55369
  0
LINE
  8
APS_GEOMETRY
 10
427.286666
 11
411.680941
 20
170.55369
 21
170.55369
  0
ARC
  8
APS_GEOMETRY
 10
151.870096
 20
174.52114
 40
111.719696
 50
272.559825
 51
272.658139
  0
LINE
  8
APS_GEOMETRY
 10
344.779232
 11
336.125081
 20
215.826028
 21
216.528344
  0
ARC
  8
APS_GEOMETRY
 10
340.583724
 20
206.294556
 40
11.162882
 50
92.778935
 51
113.541727
  0
ARC
  8
APS_GEOMETRY
 10
340.375741
 20
210.678329
 40
6.774182
 50
49.455363
 51
92.819521
  0
LINE
  8
APS_GEOMETRY
 10
356.101724
 11
351.243063
 20
255.076404
 21
254.246405
  0
ARC
  8
APS_GEOMETRY
 10
360.303024
 20
212.459919
 40
42.757377
 50
102.233271
 51
122.793935
  0
LINE
  8
APS_GEOMETRY
 10
337.144806
 11
306.045775
 20
248.402793
 21
239.257559
  0
LINE
  8
APS_GEOMETRY
 10
306.045775
 11
301.684854
 20
239.257559
 21
237.974131
  0
LINE
  8
APS_GEOMETRY
 10
301.684854
 11
301.651901
 20
237.974131
 21
243.70024
  0
LINE
  8
APS_GEOMETRY
 10
301.651901
 11
345.151907
 20
243.70024
 21
260.276681
  0
LINE
  8
APS_GEOMETRY
 10
345.151907
 11
354.8495
 20
260.276681
 21
263.957007
  0
LINE
  8
APS_GEOMETRY
 10
354.8495
 11
356.24904
 20
263.957007
 21
264.488225
  0
LINE
  8
APS_GEOMETRY
 10
356.24904
 11
356.101724
 20
264.488225
 21
255.076404
  0
LINE
  8
APS_GEOMETRY
 10
301.336103
 11
303.663523
 20
298.575193
 21
305.517155
  0
LINE
  8
APS_GEOMETRY
 10
303.663523
 11
311.116949
 20
305.517155
 21
305.574992
  0
LINE
  8
APS_GEOMETRY
 10
311.116949
 11
302.895405
 20
305.574992
 21
288.761589
  0
LINE
  8
APS_GEOMETRY
 10
302.895405
 11
301.410106
 20
288.761589
 21
285.716092
  0
LINE
  8
APS_GEOMETRY
 10
301.410106
 11
301.336103
 20
285.716092
 21
298.575193
  0
LINE
  8
APS_GEOMETRY
 10
331.331563
 11
301.504068
 20
305.731851
 21
269.38854
  0
LINE
  8
APS_GEOMETRY
 10
301.504068
 11
301.468016
 20
269.38854
 21
275.65317
  0
LINE
  8
APS_GEOMETRY
 10
301.468016
 11
316.588304
 20
275.65317
 21
299.622331
  0
LINE
  8
APS_GEOMETRY
 10
316.588304
 11
320.400216
 20
299.622331
 21
305.647027
  0
LINE
  8
APS_GEOMETRY
 10
320.400216
 11
331.331563
 20
305.647027
 21
305.731851
  0
LINE
  8
APS_GEOMETRY
 10
301.553148
 11
343.098099
 20
260.86008
 21
303.881833
  0
LINE
  8
APS_GEOMETRY
 10
343.098099
 11
354.745624
 20
303.881833
 21
298.480511
  0
LINE
  8
APS_GEOMETRY
 10
354.745624
 11
356.808979
 20
298.480511
 21
297.510075
  0
LINE
  8
APS_GEOMETRY
 10
356.808979
 11
356.662761
 20
297.510075
 21
288.887061
  0
LINE
  8
APS_GEOMETRY
 10
356.662761
 11
349.55873
 20
288.887061
 21
292.874646
  0
LINE
  8
APS_GEOMETRY
 10
349.55873
 11
347.403772
 20
292.874646
 21
294.045887
  0
LINE
  8
APS_GEOMETRY
 10
347.403772
 11
308.515054
 20
294.045887
 21
262.428683
  0
LINE
  8
APS_GEOMETRY
 10
308.515054
 11
301.576606
 20
262.428683
 21
256.783961
  0
LINE
  8
APS_GEOMETRY
 10
301.576606
 11
301.553148
 20
256.783961
 21
260.86008
  0
LINE
  8
APS_GEOMETRY
 10
301.6307
 11
310.301486
 20
247.384195
 21
251.835136
  0
LINE
  8
APS_GEOMETRY
 10
310.301486
 11
356.435569
 20
251.835136
 21
275.488629
  0
LINE
  8
APS_GEOMETRY
 10
356.435569
 11
356.570377
 20
275.488629
 21
283.438795
  0
LINE
  8
APS_GEOMETRY
 10
356.570377
 11
353.866706
 20
283.438795
 21
285.043051
  0
LINE
  8
APS_GEOMETRY
 10
353.866706
 11
301.603002
 20
285.043051
 21
252.197163
  0
LINE
  8
APS_GEOMETRY
 10
301.603002
 11
301.6307
 20
252.197163
 21
247.384195
  0
ARC
  8
APS_GEOMETRY
 10
509.250951
 20
-186.367737
 40
400.150845
 50
112.601181
 51
112.817854
  0
ARC
  8
APS_GEOMETRY
 10
-610.389935
 20
2474.831079
 40
2486.988717
 50
292.6216
 51
292.817854
  0
ARC
  8
APS_GEOMETRY
 10
337.451219
 20
200.206284
 40
22.780769
 50
286.586666
 51
292.6216
  0
ARC
  8
APS_GEOMETRY
 10
339.77745
 20
192.396461
 40
14.631862
 50
285.999186
 51
286.586666
  0
LINE
  8
APS_GEOMETRY
 10
343.810338
 11
350.224123
 20
178.331356
 21
175.406347
  0
LINE
  8
APS_GEOMETRY
 10
350.224123
 11
351.249849
 20
175.406347
 21
168.194522
  0
LINE
  8
APS_GEOMETRY
 10
351.249849
 11
358.798698
 20
168.194522
 21
168.298315
  0
LINE
  8
APS_GEOMETRY
 10
358.798698
 11
355.467239
 20
168.298315
 21
183.052443
  0
LINE
  8
APS_GEOMETRY
 10
362.488867
 11
367.798216
 20
185.901715
 21
168.421647
  0
LINE
  8
APS_GEOMETRY
 10
367.798216
 11
376.587705
 20
168.421647
 21
168.543757
  0
LINE
  8
APS_GEOMETRY
 10
376.587705
 11
368.525229
 20
168.543757
 21
188.699947
  0
ARC
  8
APS_GEOMETRY
 10
360.052597
 20
201.930791
 40
15.711166
 50
296.531613
 51
302.634268
  0
ARC
  8
APS_GEOMETRY
 10
348.399544
 20
225.27094
 40
41.798638
 50
291.348251
 51
296.531613
  0
ARC
  8
APS_GEOMETRY
 10
509.132447
 20
-189.194521
 40
402.742505
 50
111.180946
 51
111.352975
  0
ARC
  8
APS_GEOMETRY
 10
316.796533
 20
232.729497
 40
69.442971
 50
342.250627
 51
344.061624
  0
LINE
  8
APS_GEOMETRY
 10
303.195818
 11
332.001166
 20
203.302795
 21
192.969143
  0
LINE
  8
APS_GEOMETRY
 10
332.001166
 11
340.692491
 20
192.969143
 21
189.852061
  0
ARC
  8
APS_GEOMETRY
 10
325.832764
 20
217.281645
 40
31.19605
 50
292.925241
 51
298.446216
  0
ARC
  8
APS_GEOMETRY
 10
323.738213
 20
222.234053
 40
36.573178
 50
288.401988
 51
292.925241
  0
ARC
  8
APS_GEOMETRY
 10
326.156057
 20
214.966589
 40
28.914065
 50
284.995093
 51
288.401988
  0
LINE
  8
APS_GEOMETRY
 10
333.637175
 11
333.244981
 20
187.037106
 21
186.910976
  0
ARC
  8
APS_GEOMETRY
 10
348.599318
 20
188.59487
 40
15.446396
 50
186.258558
 51
191.137882
  0
ARC
  8
APS_GEOMETRY
 10
351.580729
 20
189.181847
 40
18.485039
 50
191.137882
 51
199.337965
  0
LINE
  8
APS_GEOMETRY
 10
334.138583
 11
334.27898
 20
183.060717
 21
182.676786
  0
LINE
  8
APS_GEOMETRY
 10
334.27898
 11
303.24957
 20
182.676786
 21
196.829352
  0
LINE
  8
APS_GEOMETRY
 10
303.24957
 11
303.195818
 20
196.829352
 21
203.302795
  0
LINE
  8
APS_GEOMETRY
 10
347.355824
 11
349.728454
 20
119.390666
 21
78.758241
  0
LINE
  8
APS_GEOMETRY
 10
349.728454
 11
350.697398
 20
78.758241
 21
62.359154
  0
LINE
  8
APS_GEOMETRY
 10
350.697398
 11
375.980192
 20
62.359154
 21
54.675532
  0
LINE
  8
APS_GEOMETRY
 10
375.980192
 11
385.382241
 20
54.675532
 21
51.836447
  0
LINE
  8
APS_GEOMETRY
 10
385.382241
 11
372.250524
 20
51.836447
 21
43.665478
  0
LINE
  8
APS_GEOMETRY
 10
372.250524
 11
367.763047
 20
43.665478
 21
40.880312
  0
LINE
  8
APS_GEOMETRY
 10
367.763047
 11
343.242424
 20
40.880312
 21
52.248043
  0
LINE
  8
APS_GEOMETRY
 10
343.242424
 11
335.58379
 20
52.248043
 21
55.87714
  0
LINE
  8
APS_GEOMETRY
 10
335.58379
 11
336.789472
 20
55.87714
 21
105.302489
  0
LINE
  8
APS_GEOMETRY
 10
336.789472
 11
337.103446
 20
105.302489
 21
119.422603
  0
LINE
  8
APS_GEOMETRY
 10
337.103446
 11
347.355824
 20
119.422603
 21
119.390666
  0
LINE
  8
APS_GEOMETRY
 10
327.532654
 11
322.210485
 20
119.452898
 21
71.381516
  0
LINE
  8
APS_GEOMETRY
 10
322.210485
 11
319.951627
 20
71.381516
 21
50.812623
  0
LINE
  8
APS_GEOMETRY
 10
319.951627
 11
340.94631
 20
50.812623
 21
36.927639
  0
LINE
  8
APS_GEOMETRY
 10
340.94631
 11
349.258085
 20
36.927639
 21
31.491275
  0
LINE
  8
APS_GEOMETRY
 10
349.258085
 11
335.158778
 20
31.491275
 21
25.785039
  0
LINE
  8
APS_GEOMETRY
 10
335.158778
 11
330.018698
 20
25.785039
 21
23.711406
  0
LINE
  8
APS_GEOMETRY
 10
330.018698
 11
310.430803
 20
23.711406
 21
41.143132
  0
LINE
  8
APS_GEOMETRY
 10
310.430803
 11
303.896996
 20
41.143132
 21
46.98818
  0
LINE
  8
APS_GEOMETRY
 10
303.896996
 11
314.915843
 20
46.98818
 21
102.516251
  0
LINE
  8
APS_GEOMETRY
 10
314.915843
 11
318.268193
 20
102.516251
 21
119.482386
  0
LINE
  8
APS_GEOMETRY
 10
318.268193
 11
327.532654
 20
119.482386
 21
119.452898
  0
LINE
  8
APS_GEOMETRY
 10
292.493496
 11
267.03678
 20
119.565116
 21
69.162564
  0
LINE
  8
APS_GEOMETRY
 10
267.03678
 11
254.908081
 20
69.162564
 21
45.071603
  0
LINE
  8
APS_GEOMETRY
 10
254.908081
 11
254.746391
 20
45.071603
 21
44.472732
  0
LINE
  8
APS_GEOMETRY
 10
254.746391
 11
268.923233
 20
44.472732
 21
10.817426
  0
LINE
  8
APS_GEOMETRY
 10
268.923233
 11
254.134029
 20
10.817426
 21
10.180669
  0
LINE
  8
APS_GEOMETRY
 10
254.134029
 11
248.027653
 20
10.180669
 21
9.96266
  0
LINE
  8
APS_GEOMETRY
 10
248.027653
 11
241.014875
 20
9.96266
 21
36.650438
  0
LINE
  8
APS_GEOMETRY
 10
241.014875
 11
238.361381
 20
36.650438
 21
46.785901
  0
LINE
  8
APS_GEOMETRY
 10
238.361381
 11
272.239827
 20
46.785901
 21
100.767892
  0
LINE
  8
APS_GEOMETRY
 10
272.239827
 11
284.054523
 20
100.767892
 21
119.59102
  0
LINE
  8
APS_GEOMETRY
 10
284.054523
 11
292.493496
 20
119.59102
 21
119.565116
  0
LINE
  8
APS_GEOMETRY
 10
214.291874
 11
218.136285
 20
63.613909
 21
63.633388
  0
LINE
  8
APS_GEOMETRY
 10
218.136285
 11
217.181451
 20
63.633388
 21
66.6697
  0
LINE
  8
APS_GEOMETRY
 10
217.181451
 11
267.072198
 20
66.6697
 21
119.645127
  0
LINE
  8
APS_GEOMETRY
 10
267.072198
 11
275.661217
 20
119.645127
 21
119.617874
  0
LINE
  8
APS_GEOMETRY
 10
275.661217
 11
234.353504
 20
119.617874
 21
66.047629
  0
LINE
  8
APS_GEOMETRY
 10
234.353504
 11
222.309998
 20
66.047629
 21
50.311173
  0
LINE
  8
APS_GEOMETRY
 10
222.309998
 11
225.995366
 20
50.311173
 21
19.325626
  0
LINE
  8
APS_GEOMETRY
 10
225.995366
 11
226.87043
 20
19.325626
 21
11.07113
  0
LINE
  8
APS_GEOMETRY
 10
226.87043
 11
206.118747
 20
11.07113
 21
13.992299
  0
LINE
  8
APS_GEOMETRY
 10
206.118747
 11
206.463514
 20
13.992299
 21
43.512526
  0
LINE
  8
APS_GEOMETRY
 10
206.463514
 11
206.624537
 20
43.512526
 21
55.423666
  0
LINE
  8
APS_GEOMETRY
 10
206.624537
 11
214.291874
 20
55.423666
 21
63.613909
  0
LINE
  8
APS_GEOMETRY
 10
192.677802
 11
186.670078
 20
70.521037
 21
27.679811
  0
LINE
  8
APS_GEOMETRY
 10
186.670078
 11
185.303005
 20
27.679811
 21
18.83103
  0
LINE
  8
APS_GEOMETRY
 10
185.303005
 11
165.268628
 20
18.83103
 21
25.390047
  0
LINE
  8
APS_GEOMETRY
 10
165.268628
 11
172.826909
 20
25.390047
 21
54.098843
  0
LINE
  8
APS_GEOMETRY
 10
172.826909
 11
175.819838
 20
54.098843
 21
65.398731
  0
ARC
  8
APS_GEOMETRY
 10
151.870096
 20
174.52114
 40
111.719696
 50
282.378774
 51
291.437303
  0
LINE
  8
APS_GEOMETRY
 10
309.49229
 11
294.446408
 20
119.510234
 21
68.214374
  0
LINE
  8
APS_GEOMETRY
 10
294.446408
 11
287.663031
 20
68.214374
 21
44.994717
  0
LINE
  8
APS_GEOMETRY
 10
287.663031
 11
287.73394
 20
44.994717
 21
44.527367
  0
LINE
  8
APS_GEOMETRY
 10
287.73394
 11
310.086581
 20
44.527367
 21
17.670538
  0
LINE
  8
APS_GEOMETRY
 10
310.086581
 11
295.429345
 20
17.670538
 21
14.493259
  0
LINE
  8
APS_GEOMETRY
 10
295.429345
 11
289.733137
 20
14.493259
 21
13.278586
  0
LINE
  8
APS_GEOMETRY
 10
289.733137
 11
276.019237
 20
13.278586
 21
35.875651
  0
LINE
  8
APS_GEOMETRY
 10
276.019237
 11
271.134817
 20
35.875651
 21
43.92968
  0
LINE
  8
APS_GEOMETRY
 10
271.134817
 11
293.524151
 20
43.92968
 21
100.926151
  0
LINE
  8
APS_GEOMETRY
 10
293.524151
 11
300.830502
 20
100.926151
 21
119.538527
  0
LINE
  8
APS_GEOMETRY
 10
300.830502
 11
309.49229
 20
119.538527
 21
119.510234
  0
ARC
  8
APS_GEOMETRY
 10
399.823121
 20
79.140546
 40
0.479864
 50
268.364081
 51
349.374702
  0
LINE
  8
APS_GEOMETRY
 10
399.809422
 11
378.93965
 20
78.660877
 21
79.256917
  0
LINE
  8
APS_GEOMETRY
 10
378.93965
 11
378.511884
 20
79.256917
 21
80.979393
  0
LINE
  8
APS_GEOMETRY
 10
378.511884
 11
375.388493
 20
80.979393
 21
94.815349
  0
LINE
  8
APS_GEOMETRY
 10
375.388493
 11
369.880714
 20
94.815349
 21
119.318638
  0
LINE
  8
APS_GEOMETRY
 10
369.880714
 11
358.13422
 20
119.318638
 21
119.35553
  0
LINE
  8
APS_GEOMETRY
 10
358.13422
 11
359.660013
 20
119.35553
 21
109.016269
  0
LINE
  8
APS_GEOMETRY
 10
359.660013
 11
365.165713
 20
109.016269
 21
70.277366
  0
LINE
  8
APS_GEOMETRY
 10
365.165713
 11
365.525594
 20
70.277366
 21
70.118645
  0
LINE
  8
APS_GEOMETRY
 10
365.525594
 11
378.655832
 20
70.118645
 21
68.920157
  0
LINE
  8
APS_GEOMETRY
 10
378.655832
 11
404.84232
 20
68.920157
 21
66.656337
  0
LINE
  8
APS_GEOMETRY
 10
404.84232
 11
408.225285
 20
66.656337
 21
69.726808
  0
LINE
  8
APS_GEOMETRY
 10
408.225285
 11
414.634323
 20
69.726808
 21
75.425268
  0
LINE
  8
APS_GEOMETRY
 10
414.634323
 11
399.592063
 20
75.425268
 21
75.447587
  0
LINE
  8
APS_GEOMETRY
 10
399.592063
 11
400.074808
 20
75.447587
 21
78.731983
  0
LINE
  8
APS_GEOMETRY
 10
204.501533
 11
209.251007
 20
126.425523
 21
180.003794
  0
LINE
  8
APS_GEOMETRY
 10
209.251007
 11
215.108631
 20
180.003794
 21
180.063628
  0
LINE
  8
APS_GEOMETRY
 10
215.108631
 11
214.352159
 20
180.063628
 21
122.839148
  0
LINE
  8
APS_GEOMETRY
 10
214.352159
 11
196.858658
 20
122.839148
 21
117.643361
  0
LINE
  8
APS_GEOMETRY
 10
196.858658
 11
193.860244
 20
117.643361
 21
124.520605
  0
LINE
  8
APS_GEOMETRY
 10
193.860244
 11
204.501533
 20
124.520605
 21
126.425523
  0
LINE
  8
APS_GEOMETRY
 10
203.014842
 11
195.008079
 20
179.941518
 21
130.875217
  0
LINE
  8
APS_GEOMETRY
 10
195.008079
 11
191.1958
 20
130.875217
 21
130.630997
  0
LINE
  8
APS_GEOMETRY
 10
191.1958
 11
186.962241
 20
130.630997
 21
140.341196
  0
LINE
  8
APS_GEOMETRY
 10
186.962241
 11
196.474622
 20
140.341196
 21
179.875579
  0
LINE
  8
APS_GEOMETRY
 10
196.474622
 11
203.014842
 20
179.875579
 21
179.941518
  0
LINE
  8
APS_GEOMETRY
 10
174.244469
 11
171.82913
 20
179.652117
 21
175.047343
  0
LINE
  8
APS_GEOMETRY
 10
171.82913
 11
169.707683
 20
175.047343
 21
179.680591
  0
LINE
  8
APS_GEOMETRY
 10
169.707683
 11
174.244469
 20
179.680591
 21
179.652117
  0
LINE
  8
APS_GEOMETRY
 10
243.009579
 11
255.635158
 20
180.344482
 21
146.755642
  0
LINE
  8
APS_GEOMETRY
 10
255.635158
 11
255.635158
 20
146.755642
 21
165.534963
  0
LINE
  8
APS_GEOMETRY
 10
255.635158
 11
248.726777
 20
165.534963
 21
180.400652
  0
LINE
  8
APS_GEOMETRY
 10
248.726777
 11
243.009579
 20
180.400652
 21
180.344482
  0
LINE
  8
APS_GEOMETRY
 10
176.061468
 11
181.900776
 20
165.340807
 21
179.729047
  0
LINE
  8
APS_GEOMETRY
 10
181.900776
 11
189.4771
 20
179.729047
 21
179.804755
  0
LINE
  8
APS_GEOMETRY
 10
189.4771
 11
181.112555
 20
179.804755
 21
153.757439
  0
LINE
  8
APS_GEOMETRY
 10
181.112555
 11
176.061468
 20
153.757439
 21
165.340807
  0
LINE
  8
APS_GEOMETRY
 10
208.22284
 11
209.661207
 20
91.580171
 21
88.473882
  0
LINE
  8
APS_GEOMETRY
 10
209.661207
 11
203.680953
 20
88.473882
 21
88.396759
  0
LINE
  8
APS_GEOMETRY
 10
203.680953
 11
196.445316
 20
88.396759
 21
83.324304
  0
LINE
  8
APS_GEOMETRY
 10
196.445316
 11
211.671319
 20
83.324304
 21
83.370968
  0
LINE
  8
APS_GEOMETRY
 10
211.671319
 11
212.888669
 20
83.370968
 21
80.473032
  0
LINE
  8
APS_GEOMETRY
 10
212.888669
 11
255.751163
 20
80.473032
 21
117.654351
  0
LINE
  8
APS_GEOMETRY
 10
255.751163
 11
237.195915
 20
117.654351
 21
180.285869
  0
LINE
  8
APS_GEOMETRY
 10
237.195915
 11
231.918314
 20
180.285869
 21
180.23214
  0
LINE
  8
APS_GEOMETRY
 10
231.918314
 11
245.269228
 20
180.23214
 21
117.550558
  0
LINE
  8
APS_GEOMETRY
 10
245.269228
 11
208.22284
 20
117.550558
 21
91.580171
  0
LINE
  8
APS_GEOMETRY
 10
203.984396
 11
234.819041
 20
101.300139
 21
118.387012
  0
LINE
  8
APS_GEOMETRY
 10
234.819041
 11
226.403209
 20
118.387012
 21
180.17597
  0
LINE
  8
APS_GEOMETRY
 10
226.403209
 11
220.820333
 20
180.17597
 21
180.119799
  0
LINE
  8
APS_GEOMETRY
 10
220.820333
 11
224.48547
 20
180.119799
 21
120.151504
  0
LINE
  8
APS_GEOMETRY
 10
224.48547
 11
200.217909
 20
120.151504
 21
109.938211
  0
LINE
  8
APS_GEOMETRY
 10
200.217909
 11
203.984396
 20
109.938211
 21
101.300139
  0
LINE
  8
APS_GEOMETRY
 10
303.451051
 11
309.616393
 20
172.522105
 21
167.620604
  0
LINE
  8
APS_GEOMETRY
 10
309.616393
 11
303.451051
 20
167.620604
 21
167.620604
  0
LINE
  8
APS_GEOMETRY
 10
303.451051
 11
303.451051
 20
167.620604
 21
172.522105
  0
LINE
  8
APS_GEOMETRY
 10
323.967999
 11
341.920633
 20
167.818422
 21
168.065085
  0
LINE
  8
APS_GEOMETRY
 10
341.920633
 11
303.309403
 20
168.065085
 21
189.673697
  0
LINE
  8
APS_GEOMETRY
 10
303.309403
 11
303.375343
 20
189.673697
 21
181.648618
  0
LINE
  8
APS_GEOMETRY
 10
303.375343
 11
323.967999
 20
181.648618
 21
167.818422
  0
ARC
  8
APS_GEOMETRY
 10
338.522387
 20
203.007616
 40
11.806513
 50
334.413138
 51
17.450562
  0
LINE
  8
APS_GEOMETRY
 10
349.785517
 11
327.907054
 20
206.548186
 21
210.371489
  0
ARC
  8
APS_GEOMETRY
 10
377.653018
 20
163.240398
 40
68.527371
 50
136.546133
 51
142.752319
  0
LINE
  8
APS_GEOMETRY
 10
323.103414
 11
322.913375
 20
204.717396
 21
204.453815
  0
LINE
  8
APS_GEOMETRY
 10
322.913375
 11
349.15566
 20
204.453815
 21
197.912469
  0
LINE
  8
APS_GEOMETRY
 10
316.127306
 11
303.101816
 20
212.430145
 21
214.706278
  0
LINE
  8
APS_GEOMETRY
 10
303.101816
 11
303.145868
 20
214.706278
 21
209.368624
  0
LINE
  8
APS_GEOMETRY
 10
303.145868
 11
303.294321
 20
209.368624
 21
209.342807
  0
LINE
  8
APS_GEOMETRY
 10
303.294321
 11
315.544883
 20
209.342807
 21
206.289214
  0
ARC
  8
APS_GEOMETRY
 10
378.009082
 20
203.685203
 40
62.518453
 50
171.955747
 51
177.612833
  0
ARC
  8
APS_GEOMETRY
 10
360.303024
 20
212.459919
 40
42.757377
 50
142.576605
 51
153.638042
  0
ARC
  8
APS_GEOMETRY
 10
378.009082
 20
203.685203
 40
62.518453
 50
153.638042
 51
153.960708
  0
LINE
  8
APS_GEOMETRY
 10
321.836676
 11
304.683779
 20
231.130017
 21
229.596215
  0
LINE
  8
APS_GEOMETRY
 10
304.683779
 11
301.734696
 20
229.596215
 21
229.313206
  0
LINE
  8
APS_GEOMETRY
 10
301.734696
 11
301.706765
 20
229.313206
 21
234.166618
  0
LINE
  8
APS_GEOMETRY
 10
301.706765
 11
326.346545
 20
234.166618
 21
238.443584
  0
LINE
  8
APS_GEOMETRY
 10
0.0
 11
499.901862
 20
0.0
 21
0.0
  0
LINE
  8
APS_GEOMETRY
 10
499.901862
 11
499.901862
 20
0.0
 21
500.348174
  0
LINE
  8
APS_GEOMETRY
 10
499.901862
 11
0.0
 20
500.348174
 21
500.348174
  0
LINE
  8
APS_GEOMETRY
 10
0.0
 11
0.0
 20
500.348174
 21
0.0
  0
CIRCLE
  8
APS_GEOMETRY
 10
249.950931
 20
250.174087
 40
250.174087
  0
LINE
  8
APS_GEOMETRY
 10
382.722519
 11
386.560469
 20
119.278416
 21
106.639821
  0
LINE
  8
APS_GEOMETRY
 10
386.560469
 11
391.820372
 20
106.639821
 21
89.564932
  0
LINE
  8
APS_GEOMETRY
 10
391.820372
 11
401.512603
 20
89.564932
 21
90.139846
  0
ARC
  8
APS_GEOMETRY
 10
332.880597
 20
93.376461
 40
68.708281
 50
357.29999
 51
11.851367
  0
ARC
  8
APS_GEOMETRY
 10
385.667485
 20
104.453616
 40
14.771661
 50
11.851367
 51
89.818207
  0
LINE
  8
APS_GEOMETRY
 10
385.714354
 11
382.722519
 20
119.225203
 21
119.278416
  0
CIRCLE
  8
APS_GEOMETRY
 10
249.950931
 20
250.174087
 40
250.174087
  0
ARC
  8
APS_GEOMETRY
 10
250.965666
 20
422.650584
 40
9.790669
 50
251.588146
 51
258.418258
  0
ARC
  8
APS_GEOMETRY
 10
250.945763
 20
422.590793
 40
9.727653
 50
251.292838
 51
251.588146
  0
LINE
  8
APS_GEOMETRY
 10
247.825799
 11
247.825799
 20
413.37705
 21
400.580776
  0
LINE
  8
APS_GEOMETRY
 10
247.825799
 11
249.000035
 20
400.580776
 21
400.580776
  0
LINE
  8
APS_GEOMETRY
 10
249.000035
 11
249.000035
 20
400.580776
 21
413.05926
  0
ARC
  8
APS_GEOMETRY
 10
251.008091
 20
422.675823
 40
9.83308
 50
216.241816
 51
222.523741
  0
ARC
  8
APS_GEOMETRY
 10
250.927689
 20
422.616888
 40
9.733392
 50
207.20141
 51
216.241816
  0
LINE
  8
APS_GEOMETRY
 10
242.270761
 11
242.270761
 20
418.167562
 21
400.580776
  0
LINE
  8
APS_GEOMETRY
 10
242.270761
 11
243.761137
 20
400.580776
 21
400.580776
  0
LINE
  8
APS_GEOMETRY
 10
243.761137
 11
243.761137
 20
400.580776
 21
416.029687
  0
ARC
  8
APS_GEOMETRY
 10
250.926531
 20
422.645648
 40
9.73221
 50
143.756203
 51
152.797209
  0
ARC
  8
APS_GEOMETRY
 10
251.007259
 20
422.586469
 40
9.832306
 50
137.474008
 51
143.756203
  0
LINE
  8
APS_GEOMETRY
 10
243.761137
 11
243.761137
 20
429.232367
 21
444.868625
  0
LINE
  8
APS_GEOMETRY
 10
243.761137
 11
242.270761
 20
444.868625
 21
444.868625
  0
LINE
  8
APS_GEOMETRY
 10
242.270761
 11
242.270761
 20
444.868625
 21
427.094643
  0
ARC
  8
APS_GEOMETRY
 10
250.945373
 20
422.670905
 40
9.727619
 50
108.409777
 51
108.704804
  0
ARC
  8
APS_GEOMETRY
 10
250.965666
 20
422.609936
 40
9.791877
 50
101.580294
 51
108.409777
  0
LINE
  8
APS_GEOMETRY
 10
249.000035
 11
249.000035
 20
432.202493
 21
444.868625
  0
LINE
  8
APS_GEOMETRY
 10
249.000035
 11
247.825799
 20
444.868625
 21
444.868625
  0
LINE
  8
APS_GEOMETRY
 10
247.825799
 11
247.825799
 20
444.868625
 21
431.884744
  0
ARC
  8
APS_GEOMETRY
 10
250.965666
 20
422.612223
 40
9.78959
 50
71.588149
 51
75.171013
  0
ARC
  8
APS_GEOMETRY
 10
250.985753
 20
422.672565
 40
9.725992
 50
70.6805
 51
71.588149
  0
LINE
  8
APS_GEOMETRY
 10
254.203458
 11
254.203458
 20
431.850871
 21
444.868625
  0
LINE
  8
APS_GEOMETRY
 10
254.203458
 11
253.471164
 20
444.868625
 21
444.868625
  0
LINE
  8
APS_GEOMETRY
 10
253.471164
 11
253.471164
 20
444.868625
 21
432.075761
  0
ARC
  8
APS_GEOMETRY
 10
251.002963
 20
422.645838
 40
9.732801
 50
27.433173
 51
34.527214
  0
LINE
  8
APS_GEOMETRY
 10
259.641298
 11
259.641298
 20
427.129873
 21
444.868625
  0
LINE
  8
APS_GEOMETRY
 10
259.641298
 11
259.0214
 20
444.868625
 21
444.868625
  0
LINE
  8
APS_GEOMETRY
 10
259.0214
 11
259.0214
 20
444.868625
 21
428.162366
  0
LINE
  8
APS_GEOMETRY
 10
426.367482
 11
428.368657
 20
144.903613
 21
145.236591
  0
LINE
  8
APS_GEOMETRY
 10
428.368657
 11
428.368657
 20
145.236591
 21
168.508689
  0
LINE
  8
APS_GEOMETRY
 10
428.368657
 11
426.367482
 20
168.508689
 21
168.508898
  0
LINE
  8
APS_GEOMETRY
 10
426.367482
 11
426.367482
 20
168.508898
 21
144.903613
  0
LINE
  8
APS_GEOMETRY
 10
429.407325
 11
429.406987
 20
168.48754
 21
168.50858
  0
LINE
  8
APS_GEOMETRY
 10
422.630941
 11
421.178178
 20
168.50929
 21
168.509442
  0
LINE
  8
APS_GEOMETRY
 10
421.178178
 11
421.178178
 20
168.509442
 21
78.653352
  0
ARC
  8
APS_GEOMETRY
 10
324.133056
 20
126.918185
 40
108.384731
 50
333.556809
 51
334.30339
  0
ARC
  8
APS_GEOMETRY
 10
341.870948
 20
118.382806
 40
88.700079
 50
334.30339
 51
335.572307
  0
LINE
  8
APS_GEOMETRY
 10
422.630941
 11
422.630941
 20
81.701372
 21
168.50929
  0
LINE
  8
APS_GEOMETRY
 10
417.028666
 11
415.937116
 20
168.509877
 21
168.509991
  0
LINE
  8
APS_GEOMETRY
 10
415.937116
 11
415.937116
 20
168.509991
 21
77.439148
  0
LINE
  8
APS_GEOMETRY
 10
415.937116
 11
417.028666
 20
77.439148
 21
77.480447
  0
LINE
  8
APS_GEOMETRY
 10
417.028666
 11
417.028666
 20
77.480447
 21
168.509877
  0
LINE
  8
APS_GEOMETRY
 10
411.388991
 11
410.721933
 20
168.510468
 21
168.510538
  0
LINE
  8
APS_GEOMETRY
 10
410.721933
 11
410.721933
 20
168.510538
 21
77.241833
  0
LINE
  8
APS_GEOMETRY
 10
410.721933
 11
411.388991
 20
77.241833
 21
77.267071
  0
LINE
  8
APS_GEOMETRY
 10
411.388991
 11
411.388991
 20
77.267071
 21
168.510468
  0
LINE
  8
APS_GEOMETRY
 10
405.819486
 11
405.145053
 20
151.977441
 21
151.910007
  0
LINE
  8
APS_GEOMETRY
 10
405.145053
 11
405.145053
 20
151.910007
 21
77.030834
  0
LINE
  8
APS_GEOMETRY
 10
405.145053
 11
405.819486
 20
77.030834
 21
77.056351
  0
LINE
  8
APS_GEOMETRY
 10
405.819486
 11
405.819486
 20
77.056351
 21
151.977441
  0
LINE
  8
APS_GEOMETRY
 10
400.60796
 11
399.626967
 20
151.456362
 21
151.358277
  0
LINE
  8
APS_GEOMETRY
 10
399.626967
 11
399.626967
 20
151.358277
 21
113.749932
  0
ARC
  8
APS_GEOMETRY
 10
385.667485
 20
104.453616
 40
16.771661
 50
27.023956
 51
33.661629
  0
LINE
  8
APS_GEOMETRY
 10
400.60796
 11
400.60796
 20
112.074039
 21
151.456362
  0
LINE
  8
APS_GEOMETRY
 10
395.428245
 11
394.072621
 20
166.749518
 21
166.731057
  0
LINE
  8
APS_GEOMETRY
 10
394.072621
 11
394.072621
 20
166.731057
 21
118.967138
  0
ARC
  8
APS_GEOMETRY
 10
385.667485
 20
104.453616
 40
16.771661
 50
54.410124
 51
59.923816
  0
LINE
  8
APS_GEOMETRY
 10
395.428245
 11
395.428245
 20
118.092392
 21
166.749518
  0
LINE
  8
APS_GEOMETRY
 10
390.313848
 11
388.403651
 20
166.67987
 21
166.653858
  0
LINE
  8
APS_GEOMETRY
 10
388.403651
 11
388.403651
 20
166.653858
 21
121.00058
  0
ARC
  8
APS_GEOMETRY
 10
385.667485
 20
104.453616
 40
16.771661
 50
73.916587
 51
80.610671
  0
LINE
  8
APS_GEOMETRY
 10
390.313848
 11
390.313848
 20
120.568825
 21
166.67987
  0
LINE
  8
APS_GEOMETRY
 10
385.014593
 11
382.734681
 20
166.607706
 21
166.576658
  0
LINE
  8
APS_GEOMETRY
 10
382.734681
 11
382.734681
 20
166.576658
 21
121.234667
  0
LINE
  8
APS_GEOMETRY
 10
382.734681
 11
385.014593
 20
121.234667
 21
121.227434
  0
LINE
  8
APS_GEOMETRY
 10
385.014593
 11
385.014593
 20
121.227434
 21
166.607706
  0
LINE
  8
APS_GEOMETRY
 10
379.900196
 11
377.06571
 20
166.538058
 21
166.499458
  0
LINE
  8
APS_GEOMETRY
 10
377.06571
 11
377.06571
 20
166.499458
 21
121.252654
  0
LINE
  8
APS_GEOMETRY
 10
377.06571
 11
379.900196
 20
121.252654
 21
121.243661
  0
LINE
  8
APS_GEOMETRY
 10
379.900196
 11
379.900196
 20
121.243661
 21
166.538058
  0
LINE
  8
APS_GEOMETRY
 10
374.66256
 11
371.42755
 20
166.466732
 21
166.422678
  0
LINE
  8
APS_GEOMETRY
 10
371.42755
 11
371.42755
 20
166.422678
 21
121.270544
  0
LINE
  8
APS_GEOMETRY
 10
371.42755
 11
374.66256
 20
121.270544
 21
121.260279
  0
LINE
  8
APS_GEOMETRY
 10
374.66256
 11
374.66256
 20
121.260279
 21
166.466732
  0
LINE
  8
APS_GEOMETRY
 10
369.455734
 11
366.251533
 20
166.395826
 21
166.352192
  0
LINE
  8
APS_GEOMETRY
 10
366.251533
 11
366.251533
 20
166.352192
 21
121.286967
  0
LINE
  8
APS_GEOMETRY
 10
366.251533
 11
369.455734
 20
121.286967
 21
121.2768
  0
LINE
  8
APS_GEOMETRY
 10
369.455734
 11
369.455734
 20
121.2768
 21
166.395826
  0
LINE
  8
APS_GEOMETRY
 10
363.848383
 11
360.952279
 20
166.319466
 21
166.280027
  0
LINE
  8
APS_GEOMETRY
 10
360.952279
 11
360.952279
 20
166.280027
 21
121.303781
  0
LINE
  8
APS_GEOMETRY
 10
360.952279
 11
363.848383
 20
121.303781
 21
121.294592
  0
LINE
  8
APS_GEOMETRY
 10
363.848383
 11
363.848383
 20
121.294592
 21
166.319466
  0
LINE
  8
APS_GEOMETRY
 10
358.179413
 11
355.837881
 20
166.242266
 21
166.210379
  0
LINE
  8
APS_GEOMETRY
 10
355.837881
 11
355.837881
 20
166.210379
 21
121.320008
  0
LINE
  8
APS_GEOMETRY
 10
355.837881
 11
358.179413
 20
121.320008
 21
121.312579
  0
LINE
  8
APS_GEOMETRY
 10
358.179413
 11
358.179413
 20
121.312579
 21
166.242266
  0
LINE
  8
APS_GEOMETRY
 10
352.572062
 11
350.538627
 20
166.165906
 21
166.138215
  0
LINE
  8
APS_GEOMETRY
 10
350.538627
 11
350.538627
 20
166.138215
 21
121.336822
  0
LINE
  8
APS_GEOMETRY
 10
350.538627
 11
352.572062
 20
121.336822
 21
121.33037
  0
LINE
  8
APS_GEOMETRY
 10
352.572062
 11
352.572062
 20
121.33037
 21
166.165906
  0
LINE
  8
APS_GEOMETRY
 10
346.96471
 11
345.36261
 20
166.089545
 21
166.067728
  0
LINE
  8
APS_GEOMETRY
 10
345.36261
 11
345.36261
 20
166.067728
 21
121.353245
  0
LINE
  8
APS_GEOMETRY
 10
345.36261
 11
346.96471
 20
121.353245
 21
121.348162
  0
LINE
  8
APS_GEOMETRY
 10
346.96471
 11
346.96471
 20
121.348162
 21
166.089545
  0
LINE
  8
APS_GEOMETRY
 10
341.357359
 11
340.186594
 20
166.013185
 21
165.997241
  0
LINE
  8
APS_GEOMETRY
 10
340.186594
 11
340.186594
 20
165.997241
 21
121.369668
  0
LINE
  8
APS_GEOMETRY
 10
340.186594
 11
341.357359
 20
121.369668
 21
121.365953
  0
LINE
  8
APS_GEOMETRY
 10
341.357359
 11
341.357359
 20
121.365953
 21
166.013185
  0
LINE
  8
APS_GEOMETRY
 10
335.565151
 11
334.948958
 20
165.934307
 21
165.925916
  0
LINE
  8
APS_GEOMETRY
 10
334.948958
 11
334.948958
 20
165.925916
 21
121.386287
  0
LINE
  8
APS_GEOMETRY
 10
334.948958
 11
335.565151
 20
121.386287
 21
121.384331
  0
LINE
  8
APS_GEOMETRY
 10
335.565151
 11
335.565151
 20
121.384331
 21
165.934307
  0
LINE
  8
APS_GEOMETRY
 10
329.834561
 11
329.341607
 20
165.856268
 21
165.849555
  0
LINE
  8
APS_GEOMETRY
 10
329.341607
 11
329.341607
 20
165.849555
 21
121.404078
  0
LINE
  8
APS_GEOMETRY
 10
329.341607
 11
329.834561
 20
121.404078
 21
121.402514
  0
LINE
  8
APS_GEOMETRY
 10
329.834561
 11
329.834561
 20
121.402514
 21
165.856268
  0
LINE
  8
APS_GEOMETRY
 10
324.781783
 11
323.672637
 20
165.78746
 21
165.772356
  0
LINE
  8
APS_GEOMETRY
 10
323.672637
 11
323.672637
 20
165.772356
 21
121.422065
  0
LINE
  8
APS_GEOMETRY
 10
323.672637
 11
324.781783
 20
121.422065
 21
121.418546
  0
LINE
  8
APS_GEOMETRY
 10
324.781783
 11
324.781783
 20
121.418546
 21
165.78746
  0
LINE
  8
APS_GEOMETRY
 10
319.420909
 11
318.065286
 20
165.714456
 21
165.695995
  0
LINE
  8
APS_GEOMETRY
 10
318.065286
 11
318.065286
 20
165.695995
 21
121.439857
  0
LINE
  8
APS_GEOMETRY
 10
318.065286
 11
319.420909
 20
121.439857
 21
121.435555
  0
LINE
  8
APS_GEOMETRY
 10
319.420909
 11
319.420909
 20
121.435555
 21
165.714456
  0
LINE
  8
APS_GEOMETRY
 10
314.368131
 11
312.457935
 20
165.645647
 21
165.619635
  0
LINE
  8
APS_GEOMETRY
 10
312.457935
 11
312.457935
 20
165.619635
 21
121.457648
  0
LINE
  8
APS_GEOMETRY
 10
312.457935
 11
314.368131
 20
121.457648
 21
121.451587
  0
LINE
  8
APS_GEOMETRY
 10
314.368131
 11
314.368131
 20
121.451587
 21
165.645647
  0
LINE
  8
APS_GEOMETRY
 10
309.233205
 11
306.8156
 20
165.575704
 21
165.54244
  0
LINE
  8
APS_GEOMETRY
 10
306.8156
 11
306.8156
 20
165.54244
 21
121.475551
  0
LINE
  8
APS_GEOMETRY
 10
306.8156
 11
309.233205
 20
121.475551
 21
121.46788
  0
LINE
  8
APS_GEOMETRY
 10
309.233205
 11
309.233205
 20
121.46788
 21
165.575704
  0
LINE
  8
APS_GEOMETRY
 10
298.880895
 11
295.595431
 20
217.833241
 21
218.03848
  0
LINE
  8
APS_GEOMETRY
 10
295.595431
 11
295.595431
 20
218.03848
 21
121.511151
  0
LINE
  8
APS_GEOMETRY
 10
295.595431
 11
298.880895
 20
121.511151
 21
121.500727
  0
LINE
  8
APS_GEOMETRY
 10
298.880895
 11
298.880895
 20
121.500727
 21
217.833241
  0
LINE
  8
APS_GEOMETRY
 10
301.17452
 11
304.088045
 20
307.455996
 21
307.478609
  0
LINE
  8
APS_GEOMETRY
 10
304.088045
 11
304.088045
 20
307.478609
 21
341.396757
  0
LINE
  8
APS_GEOMETRY
 10
304.088045
 11
301.17452
 20
341.396757
 21
341.396757
  0
LINE
  8
APS_GEOMETRY
 10
301.17452
 11
301.17452
 20
341.396757
 21
307.455996
  0
LINE
  8
APS_GEOMETRY
 10
306.8156
 11
309.233205
 20
307.499779
 21
307.518543
  0
LINE
  8
APS_GEOMETRY
 10
309.233205
 11
309.233205
 20
307.518543
 21
341.395612
  0
LINE
  8
APS_GEOMETRY
 10
309.233205
 11
306.8156
 20
341.395612
 21
341.396318
  0
LINE
  8
APS_GEOMETRY
 10
306.8156
 11
306.8156
 20
341.396318
 21
307.499779
  0
LINE
  8
APS_GEOMETRY
 10
312.457935
 11
314.368131
 20
307.543571
 21
307.558397
  0
LINE
  8
APS_GEOMETRY
 10
314.368131
 11
314.368131
 20
307.558397
 21
341.394112
  0
LINE
  8
APS_GEOMETRY
 10
314.368131
 11
312.457935
 20
341.394112
 21
341.39467
  0
LINE
  8
APS_GEOMETRY
 10
312.457935
 11
312.457935
 20
341.39467
 21
307.543571
  0
LINE
  8
APS_GEOMETRY
 10
318.065286
 11
319.420909
 20
307.587092
 21
307.597613
  0
LINE
  8
APS_GEOMETRY
 10
319.420909
 11
319.420909
 20
307.597613
 21
341.392636
  0
LINE
  8
APS_GEOMETRY
 10
319.420909
 11
318.065286
 20
341.392636
 21
341.393032
  0
LINE
  8
APS_GEOMETRY
 10
318.065286
 11
318.065286
 20
341.393032
 21
307.587092
  0
LINE
  8
APS_GEOMETRY
 10
323.672637
 11
324.781783
 20
307.630613
 21
307.639221
  0
LINE
  8
APS_GEOMETRY
 10
324.781783
 11
324.781783
 20
307.639221
 21
341.391071
  0
LINE
  8
APS_GEOMETRY
 10
324.781783
 11
323.672637
 20
341.391071
 21
341.391395
  0
LINE
  8
APS_GEOMETRY
 10
323.672637
 11
323.672637
 20
341.391395
 21
307.630613
  0
LINE
  8
APS_GEOMETRY
 10
329.341607
 11
329.834561
 20
307.674612
 21
307.678438
  0
LINE
  8
APS_GEOMETRY
 10
329.834561
 11
329.834561
 20
307.678438
 21
341.389595
  0
LINE
  8
APS_GEOMETRY
 10
329.834561
 11
329.341607
 20
341.389595
 21
341.389739
  0
LINE
  8
APS_GEOMETRY
 10
329.341607
 11
329.341607
 20
341.389739
 21
307.674612
  0
LINE
  8
APS_GEOMETRY
 10
334.948958
 11
335.565151
 20
307.718133
 21
307.722915
  0
LINE
  8
APS_GEOMETRY
 10
335.565151
 11
335.565151
 20
307.722915
 21
341.387921
  0
LINE
  8
APS_GEOMETRY
 10
335.565151
 11
334.948958
 20
341.387921
 21
341.388101
  0
LINE
  8
APS_GEOMETRY
 10
334.948958
 11
334.948958
 20
341.388101
 21
307.718133
  0
LINE
  8
APS_GEOMETRY
 10
340.186594
 11
341.357359
 20
307.758784
 21
307.767871
  0
LINE
  8
APS_GEOMETRY
 10
341.357359
 11
341.357359
 20
307.767871
 21
341.386229
  0
LINE
  8
APS_GEOMETRY
 10
341.357359
 11
340.186594
 20
341.386229
 21
341.386571
  0
LINE
  8
APS_GEOMETRY
 10
340.186594
 11
340.186594
 20
341.386571
 21
307.758784
  0
LINE
  8
APS_GEOMETRY
 10
345.36261
 11
346.96471
 20
307.798957
 21
307.811391
  0
LINE
  8
APS_GEOMETRY
 10
346.96471
 11
346.96471
 20
307.811391
 21
341.384592
  0
LINE
  8
APS_GEOMETRY
 10
346.96471
 11
345.36261
 20
341.384592
 21
341.38506
  0
LINE
  8
APS_GEOMETRY
 10
345.36261
 11
345.36261
 20
341.38506
 21
307.798957
  0
LINE
  8
APS_GEOMETRY
 10
350.538627
 11
352.572062
 20
307.83913
 21
307.854912
  0
LINE
  8
APS_GEOMETRY
 10
352.572062
 11
352.572062
 20
307.854912
 21
341.382954
  0
LINE
  8
APS_GEOMETRY
 10
352.572062
 11
350.538627
 20
341.382954
 21
341.383548
  0
LINE
  8
APS_GEOMETRY
 10
350.538627
 11
350.538627
 20
341.383548
 21
307.83913
  0
LINE
  8
APS_GEOMETRY
 10
355.837881
 11
358.179413
 20
307.88026
 21
307.898433
  0
LINE
  8
APS_GEOMETRY
 10
358.179413
 11
358.179413
 20
307.898433
 21
341.381316
  0
LINE
  8
APS_GEOMETRY
 10
358.179413
 11
355.837881
 20
341.381316
 21
341.382
  0
LINE
  8
APS_GEOMETRY
 10
355.837881
 11
355.837881
 20
341.382
 21
307.88026
  0
LINE
  8
APS_GEOMETRY
 10
358.179413
 11
357.975171
 20
270.157735
 21
257.920588
  0
LINE
  8
APS_GEOMETRY
 10
357.975171
 11
357.897571
 20
257.920588
 21
253.341313
  0
LINE
  8
APS_GEOMETRY
 10
357.897571
 11
355.837881
 20
253.341313
 21
252.989459
  0
LINE
  8
APS_GEOMETRY
 10
355.837881
 11
355.837881
 20
252.989459
 21
185.400621
  0
ARC
  8
APS_GEOMETRY
 10
509.075186
 20
-186.410664
 40
402.150845
 50
112.157249
 51
112.398387
  0
ARC
  8
APS_GEOMETRY
 10
510.05263
 20
-188.810935
 40
404.742505
 50
112.038787
 51
112.157249
  0
LINE
  8
APS_GEOMETRY
 10
358.179413
 11
358.179413
 20
186.357056
 21
270.157735
  0
LINE
  8
APS_GEOMETRY
 10
352.572062
 11
351.44829
 20
252.431563
 21
252.23959
  0
ARC
  8
APS_GEOMETRY
 10
360.127258
 20
212.416992
 40
40.757377
 50
102.294832
 51
103.607024
  0
LINE
  8
APS_GEOMETRY
 10
350.538627
 11
350.538627
 20
252.030398
 21
210.675195
  0
ARC
  8
APS_GEOMETRY
 10
328.45561
 20
201.339708
 40
23.975216
 50
17.017677
 51
22.915973
  0
ARC
  8
APS_GEOMETRY
 10
334.269335
 20
203.119103
 40
17.895278
 50
357.864911
 51
17.017677
  0
ARC
  8
APS_GEOMETRY
 10
338.355261
 20
202.966773
 40
13.806513
 50
337.533593
 51
357.864911
  0
ARC
  8
APS_GEOMETRY
 10
336.016083
 20
203.934086
 40
16.337806
 50
332.734331
 51
337.533593
  0
LINE
  8
APS_GEOMETRY
 10
350.538627
 11
350.538627
 20
196.449459
 21
183.184479
  0
ARC
  8
APS_GEOMETRY
 10
-610.565701
 20
2474.788153
 40
2484.988717
 50
292.753299
 51
292.804149
  0
LINE
  8
APS_GEOMETRY
 10
352.572062
 11
352.572062
 20
184.038368
 21
252.431563
  0
ARC
  8
APS_GEOMETRY
 10
360.127258
 20
212.416992
 40
40.757377
 50
108.841353
 51
111.238876
  0
LINE
  8
APS_GEOMETRY
 10
345.36261
 11
345.36261
 20
250.406056
 21
217.754117
  0
ARC
  8
APS_GEOMETRY
 10
339.107801
 20
208.610907
 40
11.077947
 50
44.826991
 51
55.624229
  0
LINE
  8
APS_GEOMETRY
 10
346.96471
 11
346.96471
 20
216.42051
 21
250.990443
  0
ARC
  8
APS_GEOMETRY
 10
360.127258
 20
212.416992
 40
40.757377
 50
117.421161
 51
119.291488
  0
LINE
  8
APS_GEOMETRY
 10
340.186594
 11
340.186594
 20
247.963211
 21
219.411417
  0
ARC
  8
APS_GEOMETRY
 10
340.203822
 20
210.637252
 40
8.774182
 50
82.445483
 51
90.112502
  0
LINE
  8
APS_GEOMETRY
 10
341.357359
 11
341.357359
 20
219.335276
 21
248.595089
  0
LINE
  8
APS_GEOMETRY
 10
334.948958
 11
334.948958
 20
218.227283
 21
244.467218
  0
ARC
  8
APS_GEOMETRY
 10
360.127258
 20
212.416992
 40
40.757377
 50
127.059353
 51
128.152783
  0
LINE
  8
APS_GEOMETRY
 10
335.565151
 11
335.565151
 20
244.941854
 21
218.489926
  0
ARC
  8
APS_GEOMETRY
 10
340.416598
 20
206.253713
 40
13.162882
 50
111.62747
 51
114.543448
  0
ARC
  8
APS_GEOMETRY
 10
360.127258
 20
212.416992
 40
40.757377
 50
138.008538
 51
139.055032
  0
LINE
  8
APS_GEOMETRY
 10
329.341607
 11
329.341607
 20
239.126681
 21
214.672773
  0
ARC
  8
APS_GEOMETRY
 10
345.095194
 20
196.021141
 40
24.414317
 50
128.687253
 51
130.185187
  0
LINE
  8
APS_GEOMETRY
 10
329.834561
 11
329.834561
 20
215.078212
 21
239.684487
  0
ARC
  8
APS_GEOMETRY
 10
360.127258
 20
212.416992
 40
40.757377
 50
150.136788
 51
153.638042
  0
LINE
  8
APS_GEOMETRY
 10
324.781783
 11
324.781783
 20
232.711355
 21
210.065183
  0
ARC
  8
APS_GEOMETRY
 10
377.485892
 20
163.199556
 40
70.527371
 50
138.355816
 51
139.730484
  0
LINE
  8
APS_GEOMETRY
 10
323.672637
 11
323.672637
 20
208.787313
 21
230.644014
  0
ARC
  8
APS_GEOMETRY
 10
377.833317
 20
203.642277
 40
60.518453
 50
164.840141
 51
170.967743
  0
LINE
  8
APS_GEOMETRY
 10
318.065286
 11
318.065286
 20
213.143099
 21
207.09006
  0
LINE
  8
APS_GEOMETRY
 10
318.065286
 11
319.420909
 20
207.09006
 21
205.942448
  0
LINE
  8
APS_GEOMETRY
 10
319.420909
 11
319.420909
 20
205.942448
 21
219.468641
  0
LINE
  8
APS_GEOMETRY
 10
345.36261
 11
345.36261
 20
181.020512
 21
190.519891
  0
ARC
  8
APS_GEOMETRY
 10
325.665638
 20
217.240802
 40
33.19605
 50
306.395301
 51
307.877068
  0
ARC
  8
APS_GEOMETRY
 10
336.016083
 20
203.934086
 40
16.337806
 50
307.877068
 51
312.077918
  0
LINE
  8
APS_GEOMETRY
 10
346.96471
 11
346.96471
 20
191.807608
 21
181.688845
  0
ARC
  8
APS_GEOMETRY
 10
-610.565701
 20
2474.788153
 40
2484.988717
 50
292.6216
 51
292.663971
  0
LINE
  8
APS_GEOMETRY
 10
340.186594
 11
340.186594
 20
179.735222
 21
187.389175
  0
ARC
  8
APS_GEOMETRY
 10
325.665638
 20
217.240802
 40
33.19605
 50
295.940034
 51
298.209601
  0
LINE
  8
APS_GEOMETRY
 10
341.357359
 11
341.357359
 20
187.987637
 21
179.844277
  0
ARC
  8
APS_GEOMETRY
 10
339.601685
 20
192.353535
 40
12.631862
 50
272.037721
 51
277.989279
  0
ARC
  8
APS_GEOMETRY
 10
510.05263
 20
-188.810935
 40
404.742505
 50
111.348251
 51
111.615941
  0
ARC
  8
APS_GEOMETRY
 10
348.223779
 20
225.228014
 40
39.798638
 50
291.348251
 51
293.115842
  0
LINE
  8
APS_GEOMETRY
 10
363.848383
 11
363.848383
 20
188.62469
 21
341.379661
  0
LINE
  8
APS_GEOMETRY
 10
363.848383
 11
360.952279
 20
341.379661
 21
341.380507
  0
LINE
  8
APS_GEOMETRY
 10
360.952279
 11
360.952279
 20
341.380507
 21
187.46766
  0
ARC
  8
APS_GEOMETRY
 10
359.876831
 20
201.887865
 40
13.711166
 50
297.705547
 51
306.634353
  0
ARC
  8
APS_GEOMETRY
 10
355.150474
 20
208.243945
 40
21.631911
 50
306.634353
 51
311.399364
  0
LINE
  8
APS_GEOMETRY
 10
369.455734
 11
369.455734
 20
192.01745
 21
341.378023
  0
LINE
  8
APS_GEOMETRY
 10
369.455734
 11
366.251533
 20
341.378023
 21
341.378959
  0
LINE
  8
APS_GEOMETRY
 10
366.251533
 11
366.251533
 20
341.378959
 21
189.748703
  0
ARC
  8
APS_GEOMETRY
 10
355.150474
 20
208.243945
 40
21.631911
 50
318.80363
 51
322.105235
  0
ARC
  8
APS_GEOMETRY
 10
338.399766
 20
221.281558
 40
42.858441
 50
322.105235
 51
327.790653
  0
LINE
  8
APS_GEOMETRY
 10
374.66256
 11
374.66256
 20
198.437395
 21
341.376502
  0
LINE
  8
APS_GEOMETRY
 10
374.66256
 11
371.42755
 20
341.376502
 21
341.377447
  0
LINE
  8
APS_GEOMETRY
 10
371.42755
 11
371.42755
 20
341.377447
 21
193.996264
  0
ARC
  8
APS_GEOMETRY
 10
316.620767
 20
232.68657
 40
67.442971
 50
333.667872
 51
339.762318
  0
LINE
  8
APS_GEOMETRY
 10
379.900196
 11
379.900196
 20
209.357012
 21
341.374973
  0
LINE
  8
APS_GEOMETRY
 10
379.900196
 11
377.06571
 20
341.374973
 21
341.3758
  0
LINE
  8
APS_GEOMETRY
 10
377.06571
 11
377.06571
 20
341.3758
 21
202.770635
  0
ARC
  8
APS_GEOMETRY
 10
249.249697
 20
251.92652
 40
137.507489
 50
346.107282
 51
350.226424
  0
ARC
  8
APS_GEOMETRY
 10
251.155603
 20
251.598218
 40
135.573514
 50
350.226424
 51
350.878194
  0
LINE
  8
APS_GEOMETRY
 10
385.014593
 11
385.014593
 20
230.105225
 21
341.373479
  0
LINE
  8
APS_GEOMETRY
 10
385.014593
 11
382.734681
 20
341.373479
 21
341.374145
  0
LINE
  8
APS_GEOMETRY
 10
382.734681
 11
382.734681
 20
341.374145
 21
218.910329
  0
LINE
  8
APS_GEOMETRY
 10
388.403651
 11
390.313848
 20
238.090877
 21
238.226879
  0
LINE
  8
APS_GEOMETRY
 10
390.313848
 11
390.313848
 20
238.226879
 21
341.371931
  0
LINE
  8
APS_GEOMETRY
 10
390.313848
 11
388.403651
 20
341.371931
 21
341.372489
  0
LINE
  8
APS_GEOMETRY
 10
388.403651
 11
388.403651
 20
341.372489
 21
238.090877
  0
LINE
  8
APS_GEOMETRY
 10
279.91199
 11
282.453576
 20
365.28505
 21
365.406818
  0
LINE
  8
APS_GEOMETRY
 10
282.453576
 11
282.453576
 20
365.406818
 21
444.868625
  0
LINE
  8
APS_GEOMETRY
 10
282.453576
 11
279.91199
 20
444.868625
 21
444.868625
  0
LINE
  8
APS_GEOMETRY
 10
279.91199
 11
279.91199
 20
444.868625
 21
365.28505
  0
LINE
  8
APS_GEOMETRY
 10
285.24312
 11
288.032665
 20
365.540465
 21
365.674113
  0
LINE
  8
APS_GEOMETRY
 10
288.032665
 11
288.032665
 20
365.674113
 21
444.868625
  0
LINE
  8
APS_GEOMETRY
 10
288.032665
 11
285.24312
 20
444.868625
 21
444.868625
  0
LINE
  8
APS_GEOMETRY
 10
285.24312
 11
285.24312
 20
444.868625
 21
365.540465
  0
LINE
  8
APS_GEOMETRY
 10
290.264301
 11
293.673745
 20
365.781031
 21
365.944378
  0
LINE
  8
APS_GEOMETRY
 10
293.673745
 11
293.673745
 20
365.944378
 21
444.868625
  0
LINE
  8
APS_GEOMETRY
 10
293.673745
 11
290.264301
 20
444.868625
 21
444.868625
  0
LINE
  8
APS_GEOMETRY
 10
290.264301
 11
290.264301
 20
444.868625
 21
365.781031
  0
LINE
  8
APS_GEOMETRY
 10
238.522239
 11
236.580234
 20
444.868625
 21
444.868625
  0
LINE
  8
APS_GEOMETRY
 10
236.580234
 11
236.580234
 20
444.868625
 21
400.580776
  0
LINE
  8
APS_GEOMETRY
 10
236.580234
 11
238.522239
 20
400.580776
 21
400.580776
  0
LINE
  8
APS_GEOMETRY
 10
238.522239
 11
238.522239
 20
400.580776
 21
444.868625
  0
LINE
  8
APS_GEOMETRY
 10
233.373667
 11
231.025195
 20
444.868625
 21
444.868625
  0
LINE
  8
APS_GEOMETRY
 10
231.025195
 11
231.025195
 20
444.868625
 21
400.580776
  0
LINE
  8
APS_GEOMETRY
 10
231.025195
 11
233.373667
 20
400.580776
 21
400.580776
  0
LINE
  8
APS_GEOMETRY
 10
233.373667
 11
233.373667
 20
400.580776
 21
444.868625
  0
LINE
  8
APS_GEOMETRY
 10
228.270257
 11
227.87312
 20
444.868625
 21
444.868625
  0
LINE
  8
APS_GEOMETRY
 10
227.87312
 11
225.424994
 20
444.868625
 21
442.301122
  0
LINE
  8
APS_GEOMETRY
 10
225.424994
 11
225.424994
 20
442.301122
 21
410.153294
  0
LINE
  8
APS_GEOMETRY
 10
225.424994
 11
228.270257
 20
410.153294
 21
409.950832
  0
LINE
  8
APS_GEOMETRY
 10
228.270257
 11
228.270257
 20
409.950832
 21
444.868625
  0
LINE
  8
APS_GEOMETRY
 10
222.986196
 11
219.604927
 20
439.743404
 21
436.197257
  0
LINE
  8
APS_GEOMETRY
 10
219.604927
 11
219.604927
 20
436.197257
 21
410.464007
  0
LINE
  8
APS_GEOMETRY
 10
219.604927
 11
222.986196
 20
410.464007
 21
410.289846
  0
LINE
  8
APS_GEOMETRY
 10
222.986196
 11
222.986196
 20
410.289846
 21
439.743404
  0
LINE
  8
APS_GEOMETRY
 10
217.728274
 11
214.427952
 20
434.229093
 21
430.767841
  0
LINE
  8
APS_GEOMETRY
 10
214.427952
 11
214.427952
 20
430.767841
 21
410.730662
  0
LINE
  8
APS_GEOMETRY
 10
214.427952
 11
217.728274
 20
410.730662
 21
410.56067
  0
LINE
  8
APS_GEOMETRY
 10
217.728274
 11
217.728274
 20
410.56067
 21
434.229093
  0
LINE
  8
APS_GEOMETRY
 10
212.0336
 11
209.186263
 20
428.256735
 21
425.270556
  0
LINE
  8
APS_GEOMETRY
 10
209.186263
 11
209.186263
 20
425.270556
 21
411.00065
  0
LINE
  8
APS_GEOMETRY
 10
209.186263
 11
212.0336
 20
411.00065
 21
410.85399
  0
LINE
  8
APS_GEOMETRY
 10
212.0336
 11
212.0336
 20
410.85399
 21
428.256735
  0
LINE
  8
APS_GEOMETRY
 10
206.403639
 11
204.009288
 20
422.352245
 21
419.84114
  0
LINE
  8
APS_GEOMETRY
 10
204.009288
 11
204.009288
 20
419.84114
 21
411.267305
  0
LINE
  8
APS_GEOMETRY
 10
204.009288
 11
206.403639
 20
411.267305
 21
411.143977
  0
LINE
  8
APS_GEOMETRY
 10
206.403639
 11
206.403639
 20
411.143977
 21
422.352245
  0
LINE
  8
APS_GEOMETRY
 10
200.708966
 11
198.7676
 20
416.379887
 21
414.343856
  0
LINE
  8
APS_GEOMETRY
 10
198.7676
 11
198.7676
 20
414.343856
 21
411.537293
  0
LINE
  8
APS_GEOMETRY
 10
198.7676
 11
200.708966
 20
411.537293
 21
411.437298
  0
LINE
  8
APS_GEOMETRY
 10
200.708966
 11
200.708966
 20
411.437298
 21
416.379887
  0
LINE
  8
APS_GEOMETRY
 10
200.708966
 11
198.7676
 20
279.198681
 21
279.147635
  0
LINE
  8
APS_GEOMETRY
 10
198.7676
 11
198.7676
 20
279.147635
 21
245.373029
  0
LINE
  8
APS_GEOMETRY
 10
198.7676
 11
199.414008
 20
245.373029
 21
245.372652
  0
LINE
  8
APS_GEOMETRY
 10
199.414008
 11
199.680449
 20
245.372652
 21
245.364858
  0
LINE
  8
APS_GEOMETRY
 10
200.708966
 11
200.708966
 20
261.375821
 21
279.198681
  0
LINE
  8
APS_GEOMETRY
 10
195.079004
 11
193.655336
 20
279.050648
 21
279.013214
  0
LINE
  8
APS_GEOMETRY
 10
193.655336
 11
193.655336
 20
279.013214
 21
245.376008
  0
LINE
  8
APS_GEOMETRY
 10
193.655336
 11
195.079004
 20
245.376008
 21
245.375178
  0
LINE
  8
APS_GEOMETRY
 10
195.079004
 11
195.079004
 20
245.375178
 21
279.050648
  0
LINE
  8
APS_GEOMETRY
 10
189.610824
 11
188.575428
 20
278.906869
 21
278.879645
  0
LINE
  8
APS_GEOMETRY
 10
188.575428
 11
188.575428
 20
278.879645
 21
245.378968
  0
LINE
  8
APS_GEOMETRY
 10
188.575428
 11
189.610824
 20
245.378968
 21
245.378365
  0
LINE
  8
APS_GEOMETRY
 10
189.610824
 11
189.610824
 20
245.378365
 21
278.906869
  0
LINE
  8
APS_GEOMETRY
 10
184.045575
 11
183.33374
 20
278.760538
 21
278.741821
  0
LINE
  8
APS_GEOMETRY
 10
183.33374
 11
183.33374
 20
278.741821
 21
245.382022
  0
LINE
  8
APS_GEOMETRY
 10
183.33374
 11
184.045575
 20
245.382022
 21
245.381607
  0
LINE
  8
APS_GEOMETRY
 10
184.045575
 11
184.045575
 20
245.381607
 21
278.760538
  0
LINE
  8
APS_GEOMETRY
 10
178.286189
 11
177.703779
 20
278.609102
 21
278.593789
  0
LINE
  8
APS_GEOMETRY
 10
177.703779
 11
177.703779
 20
278.593789
 21
245.385303
  0
LINE
  8
APS_GEOMETRY
 10
177.703779
 11
178.286189
 20
245.385303
 21
245.384964
  0
LINE
  8
APS_GEOMETRY
 10
178.286189
 11
178.286189
 20
245.384964
 21
278.609102
  0
LINE
  8
APS_GEOMETRY
 10
173.173925
 11
172.073818
 20
278.49538
 21
278.495815
  0
LINE
  8
APS_GEOMETRY
 10
172.073818
 11
172.073818
 20
278.495815
 21
245.388584
  0
LINE
  8
APS_GEOMETRY
 10
172.073818
 11
173.173925
 20
245.388584
 21
245.387942
  0
LINE
  8
APS_GEOMETRY
 10
173.173925
 11
173.173925
 20
245.387942
 21
278.49538
  0
LINE
  8
APS_GEOMETRY
 10
173.173925
 11
173.173925
 20
304.983884
 21
291.120624
  0
ARC
  8
APS_GEOMETRY
 10
101.9792
 20
304.263707
 40
72.397718
 50
345.50929
 51
349.540525
  0
LINE
  8
APS_GEOMETRY
 10
172.073818
 11
172.073818
 20
286.148131
 21
308.262812
  0
ARC
  8
APS_GEOMETRY
 10
148.002284
 20
298.362603
 40
26.027926
 50
14.653835
 51
22.356526
  0
LINE
  8
APS_GEOMETRY
 10
167.932237
 11
166.379144
 20
312.245566
 21
312.528028
  0
LINE
  8
APS_GEOMETRY
 10
166.379144
 11
166.379144
 20
312.528028
 21
245.391902
  0
LINE
  8
APS_GEOMETRY
 10
166.379144
 11
167.932237
 20
245.391902
 21
245.390997
  0
LINE
  8
APS_GEOMETRY
 10
167.932237
 11
167.932237
 20
245.390997
 21
312.245566
  0
ARC
  8
APS_GEOMETRY
 10
150.775163
 20
302.279348
 40
15.282554
 50
310.74101
 51
321.23059
  0
LINE
  8
APS_GEOMETRY
 10
160.749183
 11
160.749183
 20
290.700254
 21
245.395182
  0
LINE
  8
APS_GEOMETRY
 10
160.749183
 11
162.690549
 20
245.395182
 21
245.394051
  0
LINE
  8
APS_GEOMETRY
 10
162.690549
 11
162.690549
 20
245.394051
 21
292.709601
  0
ARC
  8
APS_GEOMETRY
 10
150.775163
 20
302.279348
 40
15.282554
 50
286.604095
 51
295.892709
  0
LINE
  8
APS_GEOMETRY
 10
155.142258
 11
155.142258
 20
287.634043
 21
245.39845
  0
LINE
  8
APS_GEOMETRY
 10
155.142258
 11
157.448861
 20
245.39845
 21
245.397106
  0
LINE
  8
APS_GEOMETRY
 10
157.448861
 11
157.448861
 20
245.397106
 21
288.530958
  0
ARC
  8
APS_GEOMETRY
 10
150.145786
 20
304.553323
 40
17.64202
 50
272.473957
 51
276.978459
  0
ARC
  8
APS_GEOMETRY
 10
149.758866
 20
313.508641
 40
26.605693
 50
269.444739
 51
272.473957
  0
LINE
  8
APS_GEOMETRY
 10
149.501031
 11
149.501031
 20
286.904197
 21
260.901211
  0
LINE
  8
APS_GEOMETRY
 10
149.501031
 11
150.128205
 20
260.901211
 21
260.639687
  0
ARC
  8
APS_GEOMETRY
 10
216.964252
 20
259.461225
 40
66.846435
 50
178.989858
 51
181.595203
  0
ARC
  8
APS_GEOMETRY
 10
9786.4215
 20
525.95855
 40
9640.013772
 50
181.595203
 51
181.667739
  0
LINE
  8
APS_GEOMETRY
 10
150.491183
 11
152.289224
 20
245.40116
 21
245.400112
  0
LINE
  8
APS_GEOMETRY
 10
152.289224
 11
152.289224
 20
245.400112
 21
287.041996
  0
ARC
  8
APS_GEOMETRY
 10
149.758866
 20
313.508641
 40
26.605693
 50
261.154762
 51
264.549214
  0
ARC
  8
APS_GEOMETRY
 10
149.978764
 20
314.92171
 40
28.03577
 50
257.529166
 51
261.154762
  0
LINE
  8
APS_GEOMETRY
 10
143.924646
 11
143.924646
 20
287.547415
 21
263.291942
  0
ARC
  8
APS_GEOMETRY
 10
172.920032
 20
324.56617
 40
67.788372
 50
244.676165
 51
246.191734
  0
LINE
  8
APS_GEOMETRY
 10
145.555406
 11
147.231572
 20
262.54649
 21
261.847548
  0
LINE
  8
APS_GEOMETRY
 10
147.231572
 11
147.231572
 20
261.847548
 21
287.023255
  0
ARC
  8
APS_GEOMETRY
 10
149.978764
 20
314.92171
 40
28.03577
 50
248.117805
 51
253.49071
  0
ARC
  8
APS_GEOMETRY
 10
146.070816
 20
305.191649
 40
17.550249
 50
244.950599
 51
248.117805
  0
LINE
  8
APS_GEOMETRY
 10
138.640049
 11
138.640049
 20
289.292123
 21
266.084159
  0
ARC
  8
APS_GEOMETRY
 10
166.586741
 20
313.743818
 40
55.249079
 50
239.613474
 51
239.663626
  0
ARC
  8
APS_GEOMETRY
 10
172.920032
 20
324.56617
 40
67.788372
 50
239.663626
 51
242.873822
  0
LINE
  8
APS_GEOMETRY
 10
142.011816
 11
142.011816
 20
264.234208
 21
288.041752
  0
LINE
  8
APS_GEOMETRY
 10
133.452714
 11
133.452714
 20
269.532994
 21
292.971129
  0
ARC
  8
APS_GEOMETRY
 10
149.008001
 20
308.620584
 40
22.065186
 50
225.172902
 51
229.417024
  0
ARC
  8
APS_GEOMETRY
 10
146.070816
 20
305.191649
 40
17.550249
 50
229.417024
 51
236.44676
  0
LINE
  8
APS_GEOMETRY
 10
136.37059
 11
136.37059
 20
290.565752
 21
267.489684
  0
ARC
  8
APS_GEOMETRY
 10
166.586741
 20
313.743818
 40
55.249079
 50
232.714087
 51
236.844869
  0
ARC
  8
APS_GEOMETRY
 10
149.008001
 20
308.620584
 40
22.065186
 50
202.346104
 51
213.764257
  0
ARC
  8
APS_GEOMETRY
 10
172.417316
 20
318.243455
 40
47.375177
 50
201.472269
 51
202.346104
  0
LINE
  8
APS_GEOMETRY
 10
128.33022
 11
128.33022
 20
300.901731
 21
273.942327
  0
ARC
  8
APS_GEOMETRY
 10
163.055124
 20
309.105544
 40
49.419336
 50
225.359334
 51
229.048216
  0
LINE
  8
APS_GEOMETRY
 10
130.664521
 11
130.664521
 20
271.781026
 21
296.357258
  0
ARC
  8
APS_GEOMETRY
 10
189.22288
 20
320.260594
 40
64.31174
 50
180.260438
 51
183.675568
  0
LINE
  8
APS_GEOMETRY
 10
124.911804
 11
124.956043
 20
319.968266
 21
321.750338
  0
LINE
  8
APS_GEOMETRY
 10
124.956043
 11
123.078044
 20
321.750338
 21
322.439017
  0
LINE
  8
APS_GEOMETRY
 10
123.078044
 11
123.078044
 20
322.439017
 21
280.05796
  0
ARC
  8
APS_GEOMETRY
 10
160.091092
 20
306.759857
 40
45.639424
 50
215.807377
 51
218.357505
  0
ARC
  8
APS_GEOMETRY
 10
163.055124
 20
309.105544
 40
49.419336
 50
218.357505
 51
219.684361
  0
LINE
  8
APS_GEOMETRY
 10
125.023294
 11
125.023294
 20
277.548442
 21
316.464127
  0
LINE
  8
APS_GEOMETRY
 10
119.382068
 11
117.890709
 20
323.794365
 21
324.34126
  0
LINE
  8
APS_GEOMETRY
 10
117.890709
 11
117.890709
 20
324.34126
 21
289.372189
  0
ARC
  8
APS_GEOMETRY
 10
163.034132
 20
308.120488
 40
48.881769
 50
202.553367
 51
204.812117
  0
ARC
  8
APS_GEOMETRY
 10
160.091092
 20
306.759857
 40
45.639424
 50
204.812117
 51
206.878076
  0
LINE
  8
APS_GEOMETRY
 10
119.382068
 11
119.382068
 20
286.126574
 21
323.794365
  0
LINE
  8
APS_GEOMETRY
 10
200.708966
 11
198.7676
 20
226.756705
 21
226.755848
  0
LINE
  8
APS_GEOMETRY
 10
198.7676
 11
198.7676
 20
226.755848
 21
181.85726
  0
LINE
  8
APS_GEOMETRY
 10
198.7676
 11
200.708966
 20
181.85726
 21
181.876823
  0
LINE
  8
APS_GEOMETRY
 10
200.708966
 11
200.708966
 20
181.876823
 21
226.756705
  0
LINE
  8
APS_GEOMETRY
 10
195.079004
 11
193.655336
 20
226.754219
 21
226.75359
  0
LINE
  8
APS_GEOMETRY
 10
193.655336
 11
193.655336
 20
226.75359
 21
181.805744
  0
LINE
  8
APS_GEOMETRY
 10
193.655336
 11
195.079004
 20
181.805744
 21
181.820091
  0
LINE
  8
APS_GEOMETRY
 10
195.079004
 11
195.079004
 20
181.820091
 21
226.754219
  0
LINE
  8
APS_GEOMETRY
 10
189.610824
 11
188.575428
 20
226.751804
 21
226.751347
  0
LINE
  8
APS_GEOMETRY
 10
188.575428
 11
188.575428
 20
226.751347
 21
181.754554
  0
LINE
  8
APS_GEOMETRY
 10
188.575428
 11
189.610824
 20
181.754554
 21
181.764988
  0
LINE
  8
APS_GEOMETRY
 10
189.610824
 11
189.610824
 20
181.764988
 21
226.751804
  0
LINE
  8
APS_GEOMETRY
 10
184.045575
 11
183.33374
 20
226.749347
 21
226.749032
  0
LINE
  8
APS_GEOMETRY
 10
183.33374
 11
183.33374
 20
226.749032
 21
181.701734
  0
LINE
  8
APS_GEOMETRY
 10
183.33374
 11
184.045575
 20
181.701734
 21
181.708907
  0
LINE
  8
APS_GEOMETRY
 10
184.045575
 11
184.045575
 20
181.708907
 21
226.749347
  0
LINE
  8
APS_GEOMETRY
 10
178.286189
 11
177.703779
 20
226.746803
 21
226.746546
  0
LINE
  8
APS_GEOMETRY
 10
177.703779
 11
177.703779
 20
226.746546
 21
181.645002
  0
LINE
  8
APS_GEOMETRY
 10
177.703779
 11
178.286189
 20
181.645002
 21
181.650871
  0
LINE
  8
APS_GEOMETRY
 10
178.286189
 11
178.286189
 20
181.650871
 21
226.746803
  0
LINE
  8
APS_GEOMETRY
 10
173.173925
 11
172.073818
 20
226.744546
 21
226.74406
  0
LINE
  8
APS_GEOMETRY
 10
172.073818
 11
172.073818
 20
226.74406
 21
181.588269
  0
LINE
  8
APS_GEOMETRY
 10
172.073818
 11
173.173925
 20
181.588269
 21
181.599355
  0
LINE
  8
APS_GEOMETRY
 10
173.173925
 11
173.173925
 20
181.599355
 21
226.744546
  0
LINE
  8
APS_GEOMETRY
 10
167.932237
 11
167.932237
 20
178.574561
 21
66.005859
  0
ARC
  8
APS_GEOMETRY
 10
150.492073
 20
182.731703
 40
118.021532
 50
277.736163
 51
278.497777
  0
LINE
  8
APS_GEOMETRY
 10
166.379144
 11
166.379144
 20
65.784352
 21
226.741545
  0
LINE
  8
APS_GEOMETRY
 10
166.379144
 11
167.932237
 20
226.741545
 21
226.742231
  0
LINE
  8
APS_GEOMETRY
 10
167.932237
 11
167.932237
 20
226.742231
 21
181.546535
  0
LINE
  8
APS_GEOMETRY
 10
167.932237
 11
167.183917
 20
181.546535
 21
181.538994
  0
LINE
  8
APS_GEOMETRY
 10
167.183917
 11
167.940696
 20
181.538994
 21
178.541051
  0
LINE
  8
APS_GEOMETRY
 10
162.690549
 11
160.749183
 20
226.739916
 21
226.739059
  0
LINE
  8
APS_GEOMETRY
 10
160.749183
 11
160.749183
 20
226.739059
 21
65.156733
  0
ARC
  8
APS_GEOMETRY
 10
150.492073
 20
182.731703
 40
118.021532
 50
274.985798
 51
275.932575
  0
LINE
  8
APS_GEOMETRY
 10
162.690549
 11
162.690549
 20
65.342269
 21
226.739916
  0
LINE
  8
APS_GEOMETRY
 10
157.448861
 11
155.142258
 20
226.737601
 21
226.736582
  0
LINE
  8
APS_GEOMETRY
 10
155.142258
 11
155.142258
 20
226.736582
 21
64.803436
  0
ARC
  8
APS_GEOMETRY
 10
151.438463
 20
164.411765
 40
99.677166
 50
272.129482
 51
272.957216
  0
ARC
  8
APS_GEOMETRY
 10
150.492073
 20
182.731703
 40
118.021532
 50
272.957216
 51
273.379263
  0
LINE
  8
APS_GEOMETRY
 10
157.448861
 11
157.448861
 20
64.915384
 21
226.737601
  0
LINE
  8
APS_GEOMETRY
 10
152.289224
 11
149.501031
 20
226.735323
 21
226.734091
  0
LINE
  8
APS_GEOMETRY
 10
149.501031
 11
149.501031
 20
226.734091
 21
64.753431
  0
ARC
  8
APS_GEOMETRY
 10
151.438463
 20
164.411765
 40
99.677166
 50
268.886268
 51
270.489035
  0
LINE
  8
APS_GEOMETRY
 10
152.289224
 11
152.289224
 20
64.738231
 21
226.735323
  0
LINE
  8
APS_GEOMETRY
 10
147.231572
 11
143.924646
 20
226.733089
 21
226.731629
  0
LINE
  8
APS_GEOMETRY
 10
143.924646
 11
143.924646
 20
226.731629
 21
109.936658
  0
LINE
  8
APS_GEOMETRY
 10
143.924646
 11
145.470701
 20
109.936658
 21
105.812364
  0
LINE
  8
APS_GEOMETRY
 10
145.470701
 11
147.231572
 20
105.812364
 21
101.11678
  0
LINE
  8
APS_GEOMETRY
 10
147.231572
 11
147.231572
 20
101.11678
 21
226.733089
  0
LINE
  8
APS_GEOMETRY
 10
142.011816
 11
138.640049
 20
226.730784
 21
226.729295
  0
LINE
  8
APS_GEOMETRY
 10
138.640049
 11
138.640049
 20
226.729295
 21
124.033982
  0
LINE
  8
APS_GEOMETRY
 10
138.640049
 11
142.011816
 20
124.033982
 21
115.039371
  0
LINE
  8
APS_GEOMETRY
 10
142.011816
 11
142.011816
 20
115.039371
 21
226.730784
  0
LINE
  8
APS_GEOMETRY
 10
136.37059
 11
133.452714
 20
226.728293
 21
226.727004
  0
LINE
  8
APS_GEOMETRY
 10
133.452714
 11
133.452714
 20
226.727004
 21
137.871846
  0
LINE
  8
APS_GEOMETRY
 10
133.452714
 11
136.37059
 20
137.871846
 21
130.088047
  0
LINE
  8
APS_GEOMETRY
 10
136.37059
 11
136.37059
 20
130.088047
 21
226.728293
  0
LINE
  8
APS_GEOMETRY
 10
130.664521
 11
128.33022
 20
226.725773
 21
226.724742
  0
LINE
  8
APS_GEOMETRY
 10
128.33022
 11
128.33022
 20
226.724742
 21
151.536736
  0
LINE
  8
APS_GEOMETRY
 10
128.33022
 11
130.664521
 20
151.536736
 21
145.309697
  0
LINE
  8
APS_GEOMETRY
 10
130.664521
 11
130.664521
 20
145.309697
 21
226.725773
  0
LINE
  8
APS_GEOMETRY
 10
125.023294
 11
123.078044
 20
226.723281
 21
226.722422
  0
LINE
  8
APS_GEOMETRY
 10
123.078044
 11
123.078044
 20
226.722422
 21
165.547573
  0
LINE
  8
APS_GEOMETRY
 10
123.078044
 11
125.023294
 20
165.547573
 21
160.358374
  0
LINE
  8
APS_GEOMETRY
 10
125.023294
 11
125.023294
 20
160.358374
 21
226.723281
  0
LINE
  8
APS_GEOMETRY
 10
119.382068
 11
117.890709
 20
226.72079
 21
226.720132
  0
LINE
  8
APS_GEOMETRY
 10
117.890709
 11
117.890709
 20
226.720132
 21
179.385437
  0
LINE
  8
APS_GEOMETRY
 10
117.890709
 11
119.382068
 20
179.385437
 21
175.407051
  0
LINE
  8
APS_GEOMETRY
 10
119.382068
 11
119.382068
 20
175.407051
 21
226.72079
  0
LINE
  8
APS_GEOMETRY
 10
113.675999
 11
112.494677
 20
226.71827
 21
226.717749
  0
LINE
  8
APS_GEOMETRY
 10
112.494677
 11
112.494677
 20
226.717749
 21
193.780025
  0
LINE
  8
APS_GEOMETRY
 10
112.494677
 11
113.675999
 20
193.780025
 21
190.628701
  0
LINE
  8
APS_GEOMETRY
 10
113.675999
 11
113.675999
 20
190.628701
 21
226.71827
  0
LINE
  8
APS_GEOMETRY
 10
108.039711
 11
107.516291
 20
226.715781
 21
226.71555
  0
LINE
  8
APS_GEOMETRY
 10
107.516291
 11
107.516291
 20
226.71555
 21
207.060493
  0
LINE
  8
APS_GEOMETRY
 10
107.516291
 11
108.039711
 20
207.060493
 21
205.664202
  0
LINE
  8
APS_GEOMETRY
 10
108.039711
 11
108.039711
 20
205.664202
 21
226.715781
  0
LINE
  8
APS_GEOMETRY
 10
102.412938
 11
101.889517
 20
226.714567
 21
226.714567
  0
LINE
  8
APS_GEOMETRY
 10
101.889517
 11
101.889517
 20
226.714567
 21
222.070614
  0
LINE
  8
APS_GEOMETRY
 10
101.889517
 11
102.412938
 20
222.070614
 21
220.674324
  0
LINE
  8
APS_GEOMETRY
 10
102.412938
 11
102.412938
 20
220.674324
 21
226.714567
  0
ARC
  8
APS_GEOMETRY
 10
128.37444
 20
120.645874
 40
31.296842
 50
302.335192
 51
307.050957
  0
ARC
  8
APS_GEOMETRY
 10
133.187895
 20
113.042087
 40
22.297569
 50
298.7848
 51
302.335192
  0
LINE
  8
APS_GEOMETRY
 10
143.924646
 11
143.924646
 20
93.499729
 21
65.018205
  0
ARC
  8
APS_GEOMETRY
 10
151.438463
 20
164.411765
 40
99.677166
 50
265.676856
 51
267.581104
  0
LINE
  8
APS_GEOMETRY
 10
147.231572
 11
147.231572
 20
64.823416
 21
95.667865
  0
ARC
  8
APS_GEOMETRY
 10
133.187895
 20
113.042087
 40
22.297569
 50
284.153343
 51
293.311804
  0
LINE
  8
APS_GEOMETRY
 10
138.640049
 11
138.640049
 20
91.421365
 21
65.559664
  0
ARC
  8
APS_GEOMETRY
 10
151.438463
 20
164.411765
 40
99.677166
 50
262.622933
 51
264.573326
  0
LINE
  8
APS_GEOMETRY
 10
142.011816
 11
142.011816
 20
65.181348
 21
92.564783
  0
ARC
  8
APS_GEOMETRY
 10
133.187895
 20
113.042087
 40
22.297569
 50
270.680495
 51
278.206274
  0
LINE
  8
APS_GEOMETRY
 10
133.452714
 11
133.452714
 20
90.746091
 21
66.370702
  0
ARC
  8
APS_GEOMETRY
 10
151.438463
 20
164.411765
 40
99.677166
 50
259.604609
 51
261.305452
  0
LINE
  8
APS_GEOMETRY
 10
136.37059
 11
136.37059
 20
65.880062
 21
90.972832
  0
ARC
  8
APS_GEOMETRY
 10
134.861775
 20
144.991366
 40
54.290667
 50
263.090172
 51
265.565994
  0
LINE
  8
APS_GEOMETRY
 10
128.33022
 11
128.33022
 20
91.095028
 21
67.45125
  0
ARC
  8
APS_GEOMETRY
 10
147.366058
 20
146.568365
 40
81.374941
 50
256.471588
 51
257.143573
  0
ARC
  8
APS_GEOMETRY
 10
151.438463
 20
164.411765
 40
99.677166
 50
257.143573
 51
257.970678
  0
LINE
  8
APS_GEOMETRY
 10
130.664521
 11
130.664521
 20
66.923404
 21
90.863189
  0
ARC
  8
APS_GEOMETRY
 10
134.861775
 20
144.991366
 40
54.290667
 50
257.464239
 51
259.55925
  0
LINE
  8
APS_GEOMETRY
 10
123.078044
 11
123.078044
 20
91.994949
 21
68.902585
  0
ARC
  8
APS_GEOMETRY
 10
147.366058
 20
146.568365
 40
81.374941
 50
252.634243
 51
254.063869
  0
LINE
  8
APS_GEOMETRY
 10
125.023294
 11
125.023294
 20
68.320797
 21
91.599599
  0
ARC
  8
APS_GEOMETRY
 10
134.861775
 20
144.991366
 40
54.290667
 50
251.78423
 51
253.433591
  0
LINE
  8
APS_GEOMETRY
 10
117.890709
 11
117.890709
 20
93.421419
 21
70.719273
  0
ARC
  8
APS_GEOMETRY
 10
147.366058
 20
146.568365
 40
81.374941
 50
248.763616
 51
249.885977
  0
LINE
  8
APS_GEOMETRY
 10
119.382068
 11
119.382068
 20
70.156473
 21
92.95431
  0
ARC
  8
APS_GEOMETRY
 10
146.302211
 20
175.10321
 40
86.50257
 50
246.994037
 51
247.841477
  0
LINE
  8
APS_GEOMETRY
 10
112.494677
 11
112.494677
 20
95.480692
 21
73.043758
  0
ARC
  8
APS_GEOMETRY
 10
147.366058
 20
146.568365
 40
81.374941
 50
244.625867
 51
245.542998
  0
LINE
  8
APS_GEOMETRY
 10
113.675999
 11
113.675999
 20
72.495016
 21
94.989385
  0
ARC
  8
APS_GEOMETRY
 10
146.302211
 20
175.10321
 40
86.50257
 50
243.360282
 51
243.747495
  0
LINE
  8
APS_GEOMETRY
 10
107.516291
 11
107.516291
 20
97.783439
 21
75.618544
  0
ARC
  8
APS_GEOMETRY
 10
147.366058
 20
146.568365
 40
81.374941
 50
240.678764
 51
241.100586
  0
LINE
  8
APS_GEOMETRY
 10
108.039711
 11
108.039711
 20
75.327088
 21
97.523085
  0
ARC
  8
APS_GEOMETRY
 10
153.832451
 20
188.27129
 40
101.671712
 50
239.276953
 51
239.619472
  0
LINE
  8
APS_GEOMETRY
 10
101.889517
 11
101.889517
 20
100.869525
 21
79.086773
  0
ARC
  8
APS_GEOMETRY
 10
147.366058
 20
146.568365
 40
81.374941
 50
236.023563
 51
236.466827
  0
LINE
  8
APS_GEOMETRY
 10
102.412938
 11
102.412938
 20
78.736971
 21
100.560569
  0
ARC
  8
APS_GEOMETRY
 10
150.492073
 20
182.731703
 40
118.021532
 50
280.536553
 51
281.080269
  0
LINE
  8
APS_GEOMETRY
 10
173.173925
 11
173.173925
 20
66.910222
 21
166.538156
  0
LINE
  8
APS_GEOMETRY
 10
173.173925
 11
172.073818
 20
166.538156
 21
169.061461
  0
LINE
  8
APS_GEOMETRY
 10
172.073818
 11
172.073818
 20
169.061461
 21
66.700198
  0
ARC
  8
APS_GEOMETRY
 10
150.492073
 20
182.731703
 40
118.021532
 50
283.330374
 51
283.618369
  0
ARC
  8
APS_GEOMETRY
 10
154.749689
 20
165.157482
 40
99.938928
 50
283.618369
 51
283.621618
  0
LINE
  8
APS_GEOMETRY
 10
178.286189
 11
178.286189
 20
68.029615
 21
154.812207
  0
LINE
  8
APS_GEOMETRY
 10
178.286189
 11
177.703779
 20
154.812207
 21
156.148074
  0
LINE
  8
APS_GEOMETRY
 10
177.703779
 11
177.703779
 20
156.148074
 21
67.890051
  0
ARC
  8
APS_GEOMETRY
 10
154.749689
 20
165.157482
 40
99.938928
 50
286.619541
 51
287.04591
  0
LINE
  8
APS_GEOMETRY
 10
184.045575
 11
184.045575
 20
69.608853
 21
141.60196
  0
LINE
  8
APS_GEOMETRY
 10
184.045575
 11
183.33374
 20
141.60196
 21
143.234687
  0
LINE
  8
APS_GEOMETRY
 10
183.33374
 11
183.33374
 20
143.234687
 21
69.393494
  0
ARC
  8
APS_GEOMETRY
 10
154.749689
 20
165.157482
 40
99.938928
 50
289.783326
 51
290.415426
  0
LINE
  8
APS_GEOMETRY
 10
189.610824
 11
189.610824
 20
71.495906
 21
81.417727
  0
LINE
  8
APS_GEOMETRY
 10
189.610824
 11
188.575428
 20
81.417727
 21
81.457426
  0
LINE
  8
APS_GEOMETRY
 10
188.575428
 11
188.575428
 20
81.457426
 21
71.117018
  0
LINE
  8
APS_GEOMETRY
 10
193.655336
 11
195.079004
 20
72.230408
 21
70.616989
  0
LINE
  8
APS_GEOMETRY
 10
195.079004
 11
195.079004
 20
70.616989
 21
81.294662
  0
LINE
  8
APS_GEOMETRY
 10
195.079004
 11
193.655336
 20
81.294662
 21
81.323661
  0
LINE
  8
APS_GEOMETRY
 10
193.655336
 11
193.655336
 20
81.323661
 21
72.230408
  0
LINE
  8
APS_GEOMETRY
 10
198.7676
 11
199.868973
 20
66.436767
 21
65.188598
  0
LINE
  8
APS_GEOMETRY
 10
199.868973
 11
200.708966
 20
65.188598
 21
65.20722
  0
LINE
  8
APS_GEOMETRY
 10
200.708966
 11
200.708966
 20
65.20722
 21
81.179984
  0
LINE
  8
APS_GEOMETRY
 10
200.708966
 11
198.7676
 20
81.179984
 21
81.219528
  0
LINE
  8
APS_GEOMETRY
 10
198.7676
 11
198.7676
 20
81.219528
 21
66.436767
  0
LINE
  8
APS_GEOMETRY
 10
204.009288
 11
206.403639
 20
65.280385
 21
65.333465
  0
LINE
  8
APS_GEOMETRY
 10
206.403639
 11
206.403639
 20
65.333465
 21
81.063987
  0
LINE
  8
APS_GEOMETRY
 10
206.403639
 11
204.009288
 20
81.063987
 21
81.112759
  0
LINE
  8
APS_GEOMETRY
 10
204.009288
 11
204.009288
 20
81.112759
 21
65.280385
  0
LINE
  8
APS_GEOMETRY
 10
209.186263
 11
212.0336
 20
65.395153
 21
65.458276
  0
LINE
  8
APS_GEOMETRY
 10
212.0336
 11
212.0336
 20
65.458276
 21
75.914643
  0
LINE
  8
APS_GEOMETRY
 10
212.0336
 11
210.457991
 20
75.914643
 21
80.981403
  0
LINE
  8
APS_GEOMETRY
 10
210.457991
 11
209.186263
 20
80.981403
 21
81.007307
  0
LINE
  8
APS_GEOMETRY
 10
209.186263
 11
209.186263
 20
81.007307
 21
65.395153
  0
LINE
  8
APS_GEOMETRY
 10
214.427952
 11
215.262952
 20
65.511356
 21
65.529868
  0
LINE
  8
APS_GEOMETRY
 10
215.262952
 11
214.427952
 20
65.529868
 21
68.215018
  0
LINE
  8
APS_GEOMETRY
 10
214.427952
 11
214.427952
 20
68.215018
 21
65.511356
  0
LINE
  8
APS_GEOMETRY
 10
188.575428
 11
189.610824
 20
89.642409
 21
89.690763
  0
LINE
  8
APS_GEOMETRY
 10
189.610824
 11
189.610824
 20
89.690763
 21
128.837002
  0
LINE
  8
APS_GEOMETRY
 10
189.610824
 11
188.575428
 20
128.837002
 21
131.211878
  0
LINE
  8
APS_GEOMETRY
 10
188.575428
 11
188.575428
 20
131.211878
 21
89.642409
  0
LINE
  8
APS_GEOMETRY
 10
193.655336
 11
195.079004
 20
89.879649
 21
89.946136
  0
LINE
  8
APS_GEOMETRY
 10
195.079004
 11
195.079004
 20
89.946136
 21
116.294689
  0
LINE
  8
APS_GEOMETRY
 10
195.079004
 11
193.655336
 20
116.294689
 21
119.560144
  0
LINE
  8
APS_GEOMETRY
 10
193.655336
 11
193.655336
 20
119.560144
 21
89.879649
  0
LINE
  8
APS_GEOMETRY
 10
198.7676
 11
200.708966
 20
90.1184
 21
90.209065
  0
LINE
  8
APS_GEOMETRY
 10
200.708966
 11
200.708966
 20
90.209065
 21
103.381302
  0
LINE
  8
APS_GEOMETRY
 10
200.708966
 11
198.7676
 20
103.381302
 21
107.834194
  0
LINE
  8
APS_GEOMETRY
 10
198.7676
 11
198.7676
 20
107.834194
 21
90.1184
  0
LINE
  8
APS_GEOMETRY
 10
204.009288
 11
206.337184
 20
90.363195
 21
90.471912
  0
LINE
  8
APS_GEOMETRY
 10
206.337184
 11
204.009288
 20
90.471912
 21
95.811385
  0
LINE
  8
APS_GEOMETRY
 10
204.009288
 11
204.009288
 20
95.811385
 21
90.363195
  0
ARC
  8
APS_GEOMETRY
 10
371.91976
 20
118.279398
 40
58.08088
 50
15.673822
 51
20.448867
  0
ARC
  8
APS_GEOMETRY
 10
366.603
 20
116.787545
 40
63.602978
 50
13.805193
 51
15.673822
  0
LINE
  8
APS_GEOMETRY
 10
428.368657
 11
428.368657
 20
131.964581
 21
98.739733
  0
ARC
  8
APS_GEOMETRY
 10
341.870948
 20
118.382806
 40
88.700079
 50
342.290199
 51
347.205495
  0
LINE
  8
APS_GEOMETRY
 10
426.367482
 11
426.367482
 20
91.400595
 21
138.499047
  0
LINE
  8
APS_GEOMETRY
 10
301.17452
 11
301.17452
 20
165.509748
 21
121.493449
  0
LINE
  8
APS_GEOMETRY
 10
301.17452
 11
304.088045
 20
121.493449
 21
121.484205
  0
LINE
  8
APS_GEOMETRY
 10
304.088045
 11
304.088045
 20
121.484205
 21
165.504912
  0
LINE
  8
APS_GEOMETRY
 10
304.088045
 11
303.919704
 20
165.504912
 21
165.502596
  0
LINE
  8
APS_GEOMETRY
 10
303.919704
 11
301.17452
 20
165.502596
 21
165.509748
  0
ARC
  8
APS_GEOMETRY
 10
250.965666
 20
422.650584
 40
8.790669
 50
251.588146
 51
270.0
  0
ARC
  8
APS_GEOMETRY
 10
250.945763
 20
422.590793
 40
8.727653
 50
233.758184
 51
251.588146
  0
ARC
  8
APS_GEOMETRY
 10
251.008091
 20
422.675823
 40
8.83308
 50
216.241816
 51
233.758184
  0
ARC
  8
APS_GEOMETRY
 10
250.927689
 20
422.616888
 40
8.733392
 50
198.411854
 51
216.241816
  0
ARC
  8
APS_GEOMETRY
 10
250.970671
 20
422.631196
 40
8.778692
 50
180.0
 51
198.411854
  0
ARC
  8
APS_GEOMETRY
 10
250.969943
 20
422.631196
 40
8.777964
 50
161.587455
 51
180.0
  0
ARC
  8
APS_GEOMETRY
 10
250.926531
 20
422.645648
 40
8.73221
 50
143.756203
 51
161.587455
  0
ARC
  8
APS_GEOMETRY
 10
251.007259
 20
422.586469
 40
8.832306
 50
126.239114
 51
143.756203
  0
ARC
  8
APS_GEOMETRY
 10
250.945373
 20
422.670905
 40
8.727619
 50
108.409777
 51
126.239114
  0
ARC
  8
APS_GEOMETRY
 10
250.965666
 20
422.609936
 40
8.791877
 50
90.0
 51
108.409777
  0
ARC
  8
APS_GEOMETRY
 10
250.965666
 20
422.612223
 40
8.78959
 50
71.588149
 51
90.0
  0
ARC
  8
APS_GEOMETRY
 10
250.985753
 20
422.672565
 40
8.725992
 50
53.75742
 51
71.588149
  0
ARC
  8
APS_GEOMETRY
 10
250.923428
 20
422.587542
 40
8.831412
 50
36.240194
 51
53.75742
  0
ARC
  8
APS_GEOMETRY
 10
251.002963
 20
422.645838
 40
8.732801
 50
18.410209
 51
36.240194
  0
ARC
  8
APS_GEOMETRY
 10
250.958974
 20
422.631196
 40
8.779162
 50
360.0
 51
18.410209
  0
ARC
  8
APS_GEOMETRY
 10
250.958246
 20
422.631196
 40
8.77989
 50
341.590482
 51
0.0
  0
ARC
  8
APS_GEOMETRY
 10
251.001805
 20
422.616698
 40
8.733982
 50
323.761786
 51
341.590482
  0
ARC
  8
APS_GEOMETRY
 10
250.922597
 20
422.674751
 40
8.832186
 50
306.245282
 51
323.761786
  0
ARC
  8
APS_GEOMETRY
 10
250.985363
 20
422.589133
 40
8.726026
 50
288.413927
 51
306.245282
  0
ARC
  8
APS_GEOMETRY
 10
250.965666
 20
422.648297
 40
8.788382
 50
270.0
 51
288.413927
  0
ARC
  8
APS_GEOMETRY
 10
249.950931
 20
250.174087
 40
50.5
 50
167.184252
 51
185.464688
  0
LINE
  8
APS_GEOMETRY
 10
249.000035
 11
249.000035
 20
300.665134
 21
381.558192
  0
LINE
  8
APS_GEOMETRY
 10
249.000035
 11
247.825799
 20
381.558192
 21
381.553955
  0
LINE
  8
APS_GEOMETRY
 10
247.825799
 11
247.825799
 20
381.553955
 21
300.629353
  0
ARC
  8
APS_GEOMETRY
 10
249.950931
 20
250.174087
 40
50.5
 50
91.078921
 51
92.411822
  0
LINE
  8
APS_GEOMETRY
 10
243.761137
 11
243.761137
 20
300.29331
 21
381.539288
  0
LINE
  8
APS_GEOMETRY
 10
243.761137
 11
242.270761
 20
381.539288
 21
381.53391
  0
LINE
  8
APS_GEOMETRY
 10
242.270761
 11
242.270761
 20
381.53391
 21
300.086661
  0
ARC
  8
APS_GEOMETRY
 10
249.950931
 20
250.174087
 40
50.5
 50
97.040458
 51
98.747634
  0
LINE
  8
APS_GEOMETRY
 10
254.203458
 11
254.203458
 20
300.494719
 21
413.410928
  0
ARC
  8
APS_GEOMETRY
 10
250.985363
 20
422.589133
 40
9.726026
 50
288.413927
 51
289.321865
  0
ARC
  8
APS_GEOMETRY
 10
250.965666
 20
422.648297
 40
9.788382
 50
284.830859
 51
288.413927
  0
LINE
  8
APS_GEOMETRY
 10
253.471164
 11
253.471164
 20
413.186008
 21
400.580776
  0
LINE
  8
APS_GEOMETRY
 10
253.471164
 11
254.009437
 20
400.580776
 21
400.580776
  0
LINE
  8
APS_GEOMETRY
 10
254.009437
 11
254.022102
 20
400.580776
 21
384.405143
  0
LINE
  8
APS_GEOMETRY
 10
254.022102
 11
254.022102
 20
384.405143
 21
381.576314
  0
LINE
  8
APS_GEOMETRY
 10
254.022102
 11
253.471164
 20
381.576314
 21
381.574326
  0
LINE
  8
APS_GEOMETRY
 10
253.471164
 11
253.471164
 20
381.574326
 21
300.551244
  0
ARC
  8
APS_GEOMETRY
 10
249.950931
 20
250.174087
 40
50.5
 50
85.169491
 51
86.002808
  0
LINE
  8
APS_GEOMETRY
 10
238.522239
 11
236.580234
 20
381.520383
 21
381.513376
  0
LINE
  8
APS_GEOMETRY
 10
236.580234
 11
236.580234
 20
381.513376
 21
298.871874
  0
ARC
  8
APS_GEOMETRY
 10
249.950931
 20
250.174087
 40
50.5
 50
103.079966
 51
105.353066
  0
LINE
  8
APS_GEOMETRY
 10
238.522239
 11
238.522239
 20
299.363873
 21
381.520383
  0
LINE
  8
APS_GEOMETRY
 10
233.373667
 11
231.025195
 20
381.501805
 21
381.493331
  0
LINE
  8
APS_GEOMETRY
 10
231.025195
 11
231.025195
 20
381.493331
 21
296.993597
  0
ARC
  8
APS_GEOMETRY
 10
249.950931
 20
250.174087
 40
50.5
 50
109.16336
 51
112.009915
  0
LINE
  8
APS_GEOMETRY
 10
233.373667
 11
233.373667
 20
297.875705
 21
381.501805
  0
LINE
  8
APS_GEOMETRY
 10
228.270257
 11
225.424994
 20
355.63085
 21
355.576955
  0
LINE
  8
APS_GEOMETRY
 10
225.424994
 11
225.424994
 20
355.576955
 21
294.318491
  0
ARC
  8
APS_GEOMETRY
 10
249.950931
 20
250.174087
 40
50.5
 50
115.42443
 51
119.055862
  0
LINE
  8
APS_GEOMETRY
 10
228.270257
 11
228.270257
 20
295.783279
 21
355.63085
  0
LINE
  8
APS_GEOMETRY
 10
222.986196
 11
219.604927
 20
355.530759
 21
355.466711
  0
LINE
  8
APS_GEOMETRY
 10
219.604927
 11
219.604927
 20
355.466711
 21
290.539544
  0
ARC
  8
APS_GEOMETRY
 10
249.950931
 20
250.174087
 40
50.5
 50
122.273079
 51
126.935168
  0
LINE
  8
APS_GEOMETRY
 10
222.986196
 11
222.986196
 20
292.872484
 21
355.530759
  0
LINE
  8
APS_GEOMETRY
 10
217.728274
 11
214.427952
 20
355.431163
 21
355.368648
  0
LINE
  8
APS_GEOMETRY
 10
214.427952
 11
214.427952
 20
355.368648
 21
286.06793
  0
ARC
  8
APS_GEOMETRY
 10
249.950931
 20
250.174087
 40
50.5
 50
129.648235
 51
134.702469
  0
LINE
  8
APS_GEOMETRY
 10
217.728274
 11
217.728274
 20
289.057893
 21
355.431163
  0
LINE
  8
APS_GEOMETRY
 10
212.0336
 11
209.186263
 20
355.323295
 21
355.26936
  0
LINE
  8
APS_GEOMETRY
 10
209.186263
 11
209.186263
 20
355.26936
 21
279.981668
  0
ARC
  8
APS_GEOMETRY
 10
249.950931
 20
250.174087
 40
50.5
 50
138.66304
 51
143.825311
  0
LINE
  8
APS_GEOMETRY
 10
212.0336
 11
212.0336
 20
283.528638
 21
355.323295
  0
LINE
  8
APS_GEOMETRY
 10
206.403639
 11
204.009288
 20
279.348415
 21
279.285458
  0
LINE
  8
APS_GEOMETRY
 10
204.009288
 11
204.009288
 20
279.285458
 21
271.141095
  0
ARC
  8
APS_GEOMETRY
 10
249.950931
 20
250.174087
 40
50.5
 50
149.578375
 51
155.468827
  0
LINE
  8
APS_GEOMETRY
 10
206.403639
 11
206.403639
 20
275.74523
 21
279.348415
  0
LINE
  8
APS_GEOMETRY
 10
282.453576
 11
282.453576
 20
288.82416
 21
352.604354
  0
LINE
  8
APS_GEOMETRY
 10
282.453576
 11
279.933582
 20
352.604354
 21
352.605277
  0
LINE
  8
APS_GEOMETRY
 10
279.933582
 11
279.91199
 20
352.605277
 21
352.606996
  0
LINE
  8
APS_GEOMETRY
 10
279.91199
 11
279.91199
 20
352.606996
 21
290.826085
  0
ARC
  8
APS_GEOMETRY
 10
249.950931
 20
250.174087
 40
50.5
 50
49.937959
 51
53.609295
  0
LINE
  8
APS_GEOMETRY
 10
288.032665
 11
288.032665
 20
283.34081
 21
352.602312
  0
LINE
  8
APS_GEOMETRY
 10
288.032665
 11
285.24312
 20
352.602312
 21
352.603333
  0
LINE
  8
APS_GEOMETRY
 10
285.24312
 11
285.24312
 20
352.603333
 21
286.294876
  0
ARC
  8
APS_GEOMETRY
 10
249.950931
 20
250.174087
 40
50.5
 50
41.053754
 51
45.664769
  0
LINE
  8
APS_GEOMETRY
 10
293.673745
 11
293.673745
 20
275.443942
 21
352.600247
  0
LINE
  8
APS_GEOMETRY
 10
293.673745
 11
290.264301
 20
352.600247
 21
352.601495
  0
LINE
  8
APS_GEOMETRY
 10
290.264301
 11
290.264301
 20
352.601495
 21
280.589251
  0
ARC
  8
APS_GEOMETRY
 10
249.950931
 20
250.174087
 40
50.5
 50
30.026015
 51
37.0334
  0
LINE
  8
APS_GEOMETRY
 10
276.688516
 11
274.64285
 20
444.868625
 21
444.868625
  0
LINE
  8
APS_GEOMETRY
 10
274.64285
 11
274.64285
 20
444.868625
 21
294.225865
  0
ARC
  8
APS_GEOMETRY
 10
249.950931
 20
250.174087
 40
50.5
 50
58.031217
 51
60.728481
  0
LINE
  8
APS_GEOMETRY
 10
276.688516
 11
276.688516
 20
293.01509
 21
444.868625
  0
LINE
  8
APS_GEOMETRY
 10
271.047437
 11
269.49769
 20
444.868625
 21
444.868625
  0
LINE
  8
APS_GEOMETRY
 10
269.49769
 11
269.49769
 20
444.868625
 21
296.737745
  0
ARC
  8
APS_GEOMETRY
 10
249.950931
 20
250.174087
 40
50.5
 50
65.307219
 51
67.228031
  0
LINE
  8
APS_GEOMETRY
 10
271.047437
 11
271.047437
 20
296.056409
 21
444.868625
  0
LINE
  8
APS_GEOMETRY
 10
295.595431
 11
295.595431
 20
271.780328
 21
352.599543
  0
LINE
  8
APS_GEOMETRY
 10
295.595431
 11
297.16358
 20
352.599543
 21
352.598969
  0
LINE
  8
APS_GEOMETRY
 10
297.16358
 11
298.023153
 20
352.598969
 21
341.439109
  0
LINE
  8
APS_GEOMETRY
 10
298.023153
 11
298.880895
 20
341.439109
 21
341.422929
  0
LINE
  8
APS_GEOMETRY
 10
298.880895
 11
298.880895
 20
341.422929
 21
262.668432
  0
ARC
  8
APS_GEOMETRY
 10
249.950931
 20
250.174087
 40
50.5
 50
14.324465
 51
25.330961
  0
ARC
  8
APS_GEOMETRY
 10
249.950931
 20
250.174087
 40
50.5
 50
72.252633
 51
73.503746
  0
LINE
  8
APS_GEOMETRY
 10
265.344368
 11
265.344368
 20
298.270783
 21
444.868625
  0
LINE
  8
APS_GEOMETRY
 10
265.344368
 11
264.29054
 20
444.868625
 21
444.868625
  0
LINE
  8
APS_GEOMETRY
 10
264.29054
 11
264.29054
 20
444.868625
 21
298.595422
  0
ARC
  8
APS_GEOMETRY
 10
251.001805
 20
422.616698
 40
9.733982
 50
325.474704
 51
332.568226
  0
LINE
  8
APS_GEOMETRY
 10
259.0214
 11
259.0214
 20
417.099769
 21
299.852821
  0
ARC
  8
APS_GEOMETRY
 10
249.950931
 20
250.174087
 40
50.5
 50
78.936987
 51
79.652767
  0
LINE
  8
APS_GEOMETRY
 10
259.641298
 11
259.641298
 20
299.735633
 21
418.13233
  0
LINE
  8
APS_GEOMETRY
 10
290.914778
 11
302.847884
 20
220.640831
 21
220.640831
  0
LINE
  8
APS_GEOMETRY
 10
302.847884
 11
302.908471
 20
220.640831
 21
219.224875
  0
LINE
  8
APS_GEOMETRY
 10
302.908471
 11
317.167164
 20
219.224875
 21
218.066372
  0
ARC
  8
APS_GEOMETRY
 10
378.009082
 20
203.685203
 40
62.518453
 50
159.156269
 51
166.701116
  0
LINE
  8
APS_GEOMETRY
 10
319.582189
 11
319.002403
 20
225.930543
 21
225.895862
  0
LINE
  8
APS_GEOMETRY
 10
319.002403
 11
314.117173
 20
225.895862
 21
225.987835
  0
LINE
  8
APS_GEOMETRY
 10
314.117173
 11
294.497568
 20
225.987835
 21
226.386546
  0
ARC
  8
APS_GEOMETRY
 10
249.950931
 20
250.174087
 40
50.5
 50
324.209941
 51
331.898146
  0
LINE
  8
APS_GEOMETRY
 10
293.673745
 11
290.264301
 20
218.158526
 21
218.37151
  0
LINE
  8
APS_GEOMETRY
 10
290.264301
 11
290.264301
 20
218.37151
 21
121.528066
  0
LINE
  8
APS_GEOMETRY
 10
290.264301
 11
293.673745
 20
121.528066
 21
121.517249
  0
LINE
  8
APS_GEOMETRY
 10
293.673745
 11
293.673745
 20
121.517249
 21
218.158526
  0
LINE
  8
APS_GEOMETRY
 10
285.24312
 11
285.24312
 20
214.053299
 21
121.543998
  0
LINE
  8
APS_GEOMETRY
 10
285.24312
 11
288.032665
 20
121.543998
 21
121.535147
  0
LINE
  8
APS_GEOMETRY
 10
288.032665
 11
288.032665
 20
121.535147
 21
217.007364
  0
ARC
  8
APS_GEOMETRY
 10
249.950931
 20
250.174087
 40
50.5
 50
314.335231
 51
318.946246
  0
LINE
  8
APS_GEOMETRY
 10
279.91199
 11
279.91199
 20
209.52209
 21
121.560913
  0
LINE
  8
APS_GEOMETRY
 10
279.91199
 11
282.453576
 20
121.560913
 21
121.552849
  0
LINE
  8
APS_GEOMETRY
 10
282.453576
 11
282.453576
 20
121.552849
 21
211.524015
  0
ARC
  8
APS_GEOMETRY
 10
249.950931
 20
250.174087
 40
50.5
 50
306.390705
 51
310.062041
  0
LINE
  8
APS_GEOMETRY
 10
274.64285
 11
274.64285
 20
206.12231
 21
121.577632
  0
LINE
  8
APS_GEOMETRY
 10
274.64285
 11
276.688516
 20
121.577632
 21
121.571141
  0
LINE
  8
APS_GEOMETRY
 10
276.688516
 11
276.688516
 20
121.571141
 21
207.333084
  0
ARC
  8
APS_GEOMETRY
 10
249.950931
 20
250.174087
 40
50.5
 50
299.271519
 51
301.968783
  0
LINE
  8
APS_GEOMETRY
 10
269.49769
 11
269.49769
 20
203.61043
 21
121.593957
  0
LINE
  8
APS_GEOMETRY
 10
269.49769
 11
271.047437
 20
121.593957
 21
121.589039
  0
LINE
  8
APS_GEOMETRY
 10
271.047437
 11
271.047437
 20
121.589039
 21
204.291766
  0
ARC
  8
APS_GEOMETRY
 10
249.950931
 20
250.174087
 40
50.5
 50
292.771969
 51
294.692781
  0
LINE
  8
APS_GEOMETRY
 10
298.880895
 11
298.880895
 20
237.679743
 21
229.323609
  0
LINE
  8
APS_GEOMETRY
 10
298.880895
 11
295.87845
 20
229.323609
 21
229.17616
  0
ARC
  8
APS_GEOMETRY
 10
249.950931
 20
250.174087
 40
50.5
 50
335.430259
 51
345.675535
  0
LINE
  8
APS_GEOMETRY
 10
202.368606
 11
200.007269
 20
233.257459
 21
228.757493
  0
LINE
  8
APS_GEOMETRY
 10
200.007269
 11
194.096527
 20
228.757493
 21
228.757493
  0
LINE
  8
APS_GEOMETRY
 10
194.096527
 11
200.585017
 20
228.757493
 21
239.531879
  0
ARC
  8
APS_GEOMETRY
 10
249.950931
 20
250.174087
 40
50.5
 50
192.165534
 51
199.571489
  0
LINE
  8
APS_GEOMETRY
 10
253.471164
 11
253.471164
 20
199.79693
 21
182.408504
  0
LINE
  8
APS_GEOMETRY
 10
253.471164
 11
254.203458
 20
182.408504
 21
182.415883
  0
LINE
  8
APS_GEOMETRY
 10
254.203458
 11
254.203458
 20
182.415883
 21
199.853455
  0
ARC
  8
APS_GEOMETRY
 10
249.950931
 20
250.174087
 40
50.5
 50
273.997192
 51
274.830509
  0
LINE
  8
APS_GEOMETRY
 10
247.825799
 11
247.825799
 20
199.718822
 21
182.351616
  0
LINE
  8
APS_GEOMETRY
 10
247.825799
 11
249.000035
 20
182.351616
 21
182.363449
  0
LINE
  8
APS_GEOMETRY
 10
249.000035
 11
249.000035
 20
182.363449
 21
199.683041
  0
ARC
  8
APS_GEOMETRY
 10
249.950931
 20
250.174087
 40
50.5
 50
267.588178
 51
268.921079
  0
LINE
  8
APS_GEOMETRY
 10
259.0214
 11
259.0214
 20
200.495353
 21
121.627197
  0
LINE
  8
APS_GEOMETRY
 10
259.0214
 11
259.641298
 20
121.627197
 21
121.62523
  0
LINE
  8
APS_GEOMETRY
 10
259.641298
 11
259.641298
 20
121.62523
 21
200.612542
  0
ARC
  8
APS_GEOMETRY
 10
249.950931
 20
250.174087
 40
50.5
 50
280.347233
 51
281.063013
  0
LINE
  8
APS_GEOMETRY
 10
242.270761
 11
242.270761
 20
200.261514
 21
182.295639
  0
LINE
  8
APS_GEOMETRY
 10
242.270761
 11
243.761137
 20
182.295639
 21
182.310657
  0
LINE
  8
APS_GEOMETRY
 10
243.761137
 11
243.761137
 20
182.310657
 21
200.054865
  0
ARC
  8
APS_GEOMETRY
 10
249.950931
 20
250.174087
 40
50.5
 50
261.252366
 51
262.959542
  0
LINE
  8
APS_GEOMETRY
 10
236.580234
 11
236.580234
 20
201.4763
 21
182.238296
  0
LINE
  8
APS_GEOMETRY
 10
236.580234
 11
238.522239
 20
182.238296
 21
182.257865
  0
LINE
  8
APS_GEOMETRY
 10
238.522239
 11
238.522239
 20
182.257865
 21
200.984302
  0
ARC
  8
APS_GEOMETRY
 10
249.950931
 20
250.174087
 40
50.5
 50
254.646934
 51
256.920034
  0
LINE
  8
APS_GEOMETRY
 10
231.025195
 11
231.025195
 20
203.354577
 21
182.182318
  0
LINE
  8
APS_GEOMETRY
 10
231.025195
 11
233.373667
 20
182.182318
 21
182.205983
  0
LINE
  8
APS_GEOMETRY
 10
233.373667
 11
233.373667
 20
182.205983
 21
202.47247
  0
ARC
  8
APS_GEOMETRY
 10
249.950931
 20
250.174087
 40
50.5
 50
247.990085
 51
250.83664
  0
LINE
  8
APS_GEOMETRY
 10
225.424994
 11
225.424994
 20
206.029683
 21
182.125885
  0
LINE
  8
APS_GEOMETRY
 10
225.424994
 11
228.270257
 20
182.125885
 21
182.154556
  0
LINE
  8
APS_GEOMETRY
 10
228.270257
 11
228.270257
 20
182.154556
 21
204.564895
  0
ARC
  8
APS_GEOMETRY
 10
249.950931
 20
250.174087
 40
50.5
 50
240.944138
 51
244.57557
  0
LINE
  8
APS_GEOMETRY
 10
219.604927
 11
219.604927
 20
209.808631
 21
182.067237
  0
LINE
  8
APS_GEOMETRY
 10
219.604927
 11
222.986196
 20
182.067237
 21
182.101309
  0
LINE
  8
APS_GEOMETRY
 10
222.986196
 11
222.986196
 20
182.101309
 21
207.47569
  0
ARC
  8
APS_GEOMETRY
 10
249.950931
 20
250.174087
 40
50.5
 50
233.064832
 51
237.726921
  0
LINE
  8
APS_GEOMETRY
 10
214.427952
 11
214.427952
 20
214.280245
 21
182.015069
  0
LINE
  8
APS_GEOMETRY
 10
214.427952
 11
217.728274
 20
182.015069
 21
182.048326
  0
LINE
  8
APS_GEOMETRY
 10
217.728274
 11
217.728274
 20
182.048326
 21
211.290281
  0
ARC
  8
APS_GEOMETRY
 10
249.950931
 20
250.174087
 40
50.5
 50
225.297531
 51
230.351765
  0
LINE
  8
APS_GEOMETRY
 10
209.186263
 11
209.186263
 20
220.366506
 21
181.962248
  0
LINE
  8
APS_GEOMETRY
 10
209.186263
 11
212.0336
 20
181.962248
 21
181.990941
  0
LINE
  8
APS_GEOMETRY
 10
212.0336
 11
212.0336
 20
181.990941
 21
216.819537
  0
ARC
  8
APS_GEOMETRY
 10
249.950931
 20
250.174087
 40
50.5
 50
216.174689
 51
221.33696
  0
LINE
  8
APS_GEOMETRY
 10
204.837909
 11
204.81672
 20
227.479039
 21
226.758519
  0
LINE
  8
APS_GEOMETRY
 10
204.81672
 11
204.009288
 20
226.758519
 21
226.758163
  0
LINE
  8
APS_GEOMETRY
 10
204.009288
 11
204.009288
 20
226.758163
 21
181.91008
  0
LINE
  8
APS_GEOMETRY
 10
204.009288
 11
206.403639
 20
181.91008
 21
181.934208
  0
LINE
  8
APS_GEOMETRY
 10
206.403639
 11
206.403639
 20
181.934208
 21
224.602944
  0
ARC
  8
APS_GEOMETRY
 10
249.950931
 20
250.174087
 40
50.5
 50
206.705637
 51
210.421625
  0
LINE
  8
APS_GEOMETRY
 10
264.29054
 11
264.29054
 20
201.752753
 21
121.610478
  0
LINE
  8
APS_GEOMETRY
 10
264.29054
 11
265.344368
 20
121.610478
 21
121.607135
  0
LINE
  8
APS_GEOMETRY
 10
265.344368
 11
265.344368
 20
121.607135
 21
202.077392
  0
ARC
  8
APS_GEOMETRY
 10
249.950931
 20
250.174087
 40
50.5
 50
286.496254
 51
287.747367
  0
ARC
  8
APS_GEOMETRY
 10
250.390091
 20
249.943025
 40
47.000371
 50
329.123465
 51
329.969993
  0
ARC
  8
APS_GEOMETRY
 10
250.373153
 20
249.953153
 40
47.020106
 50
328.275875
 51
329.123465
  0
ARC
  8
APS_GEOMETRY
 10
250.351563
 20
249.9665
 40
47.045488
 50
326.577917
 51
328.275875
  0
ARC
  8
APS_GEOMETRY
 10
250.244677
 20
250.037037
 40
47.173551
 50
324.876973
 51
326.577917
  0
LINE
  8
APS_GEOMETRY
 10
288.8288
 11
287.139577
 20
222.896489
 21
220.640831
  0
CIRCLE
  8
APS_GEOMETRY
 10
249.950931
 20
250.174087
 40
47.5
  0
ENDSEC
  0
EOF
